%TF.GenerationSoftware,KiCad,Pcbnew,(6.0.5)*%
%TF.CreationDate,2022-07-21T21:28:31-06:00*%
%TF.ProjectId,kb_right,6b625f72-6967-4687-942e-6b696361645f,rev?*%
%TF.SameCoordinates,Original*%
%TF.FileFunction,Profile,NP*%
%FSLAX46Y46*%
G04 Gerber Fmt 4.6, Leading zero omitted, Abs format (unit mm)*
G04 Created by KiCad (PCBNEW (6.0.5)) date 2022-07-21 21:28:31*
%MOMM*%
%LPD*%
G01*
G04 APERTURE LIST*
%TA.AperFunction,Profile*%
%ADD10C,0.100000*%
%TD*%
%TA.AperFunction,Profile*%
%ADD11C,0.120000*%
%TD*%
G04 APERTURE END LIST*
D10*
X202406254Y-31750040D02*
G75*
G03*
X200818750Y-32543750I234546J-2453560D01*
G01*
X183356250Y-44450000D02*
X171450000Y-32543750D01*
X46037500Y-67468750D02*
G75*
G03*
X46831250Y-66675000I0J793750D01*
G01*
X180181250Y-142875000D02*
X53181250Y-142875000D01*
X51593750Y-141287500D02*
X51593750Y-104775000D01*
X242093750Y-146843750D02*
G75*
G03*
X243681250Y-145256250I-50J1587550D01*
G01*
X181768750Y-145256250D02*
G75*
G03*
X183356250Y-146843750I1587550J50D01*
G01*
X37306250Y-83343750D02*
X37306250Y-69056250D01*
X51593750Y-104775000D02*
G75*
G03*
X50800000Y-103981250I-793750J0D01*
G01*
X183356270Y-44449980D02*
G75*
G03*
X184943750Y-45085000I1574130J1633380D01*
G01*
X51593800Y-141287500D02*
G75*
G03*
X53181250Y-142875000I1587500J0D01*
G01*
X187325000Y-45085007D02*
G75*
G03*
X188912500Y-44450000I52900J2169607D01*
G01*
X50800000Y-103981250D02*
X43656250Y-103981250D01*
X169862500Y-31750000D02*
X48418750Y-31750000D01*
X243681250Y-145256250D02*
X243681250Y-33337500D01*
X200818750Y-32543750D02*
X188912500Y-44450000D01*
X37306250Y-83343750D02*
G75*
G03*
X38893750Y-84931250I1587550J50D01*
G01*
X181768750Y-145256250D02*
X181768750Y-144462500D01*
X42068750Y-102393750D02*
G75*
G03*
X43656250Y-103981250I1587550J50D01*
G01*
X171450005Y-32543745D02*
G75*
G03*
X169862500Y-31750000I-2005105J-2025855D01*
G01*
X46831250Y-66675000D02*
X46831250Y-33337500D01*
X181768700Y-144462500D02*
G75*
G03*
X180181250Y-142875000I-1587500J0D01*
G01*
X38893750Y-67468750D02*
G75*
G03*
X37306250Y-69056250I0J-1587500D01*
G01*
X242093750Y-146843750D02*
X183356250Y-146843750D01*
X38893750Y-67468750D02*
X46037500Y-67468750D01*
X202406250Y-31750000D02*
X242093750Y-31750000D01*
X243681200Y-33337500D02*
G75*
G03*
X242093750Y-31750000I-1587500J0D01*
G01*
X42068750Y-102393750D02*
X42068750Y-85725000D01*
X41275000Y-84931250D02*
X38893750Y-84931250D01*
X42068750Y-85725000D02*
G75*
G03*
X41275000Y-84931250I-793750J0D01*
G01*
X48418750Y-31749950D02*
G75*
G03*
X46831250Y-33337500I50J-1587550D01*
G01*
X187325000Y-45085000D02*
X184943750Y-45085000D01*
D11*
%TO.C,D110*%
X66787500Y-80256250D02*
X63387500Y-80256250D01*
X63387500Y-83256250D02*
X66787500Y-83256250D01*
X66787500Y-83256250D02*
X66787500Y-80256250D01*
X63387500Y-80256250D02*
X63387500Y-83256250D01*
%TO.C,D125*%
X178706250Y-102306250D02*
X178706250Y-99306250D01*
X175306250Y-99306250D02*
X175306250Y-102306250D01*
X178706250Y-99306250D02*
X175306250Y-99306250D01*
X175306250Y-102306250D02*
X178706250Y-102306250D01*
%TO.C,D138*%
X140606250Y-137406250D02*
X137206250Y-137406250D01*
X137206250Y-137406250D02*
X137206250Y-140406250D01*
X140606250Y-140406250D02*
X140606250Y-137406250D01*
X137206250Y-140406250D02*
X140606250Y-140406250D01*
%TO.C,D113*%
X123937500Y-80256250D02*
X120537500Y-80256250D01*
X120537500Y-83256250D02*
X123937500Y-83256250D01*
X120537500Y-80256250D02*
X120537500Y-83256250D01*
X123937500Y-83256250D02*
X123937500Y-80256250D01*
%TO.C,D111*%
X85837500Y-83256250D02*
X85837500Y-80256250D01*
X85837500Y-80256250D02*
X82437500Y-80256250D01*
X82437500Y-83256250D02*
X85837500Y-83256250D01*
X82437500Y-80256250D02*
X82437500Y-83256250D01*
%TO.C,D128*%
X62025000Y-118356250D02*
X58625000Y-118356250D01*
X58625000Y-118356250D02*
X58625000Y-121356250D01*
X58625000Y-121356250D02*
X62025000Y-121356250D01*
X62025000Y-121356250D02*
X62025000Y-118356250D01*
%TO.C,D115*%
X158637500Y-83256250D02*
X162037500Y-83256250D01*
X158637500Y-80256250D02*
X158637500Y-83256250D01*
X162037500Y-80256250D02*
X158637500Y-80256250D01*
X162037500Y-83256250D02*
X162037500Y-80256250D01*
%TO.C,D136*%
X92981250Y-140406250D02*
X92981250Y-137406250D01*
X92981250Y-137406250D02*
X89581250Y-137406250D01*
X89581250Y-137406250D02*
X89581250Y-140406250D01*
X89581250Y-140406250D02*
X92981250Y-140406250D01*
%TO.C,D140*%
X195375000Y-142168750D02*
X191975000Y-142168750D01*
X191975000Y-145168750D02*
X195375000Y-145168750D01*
X191975000Y-142168750D02*
X191975000Y-145168750D01*
X195375000Y-145168750D02*
X195375000Y-142168750D01*
%TO.C,D104*%
X114412500Y-64206250D02*
X114412500Y-61206250D01*
X111012500Y-61206250D02*
X111012500Y-64206250D01*
X111012500Y-64206250D02*
X114412500Y-64206250D01*
X114412500Y-61206250D02*
X111012500Y-61206250D01*
%TO.C,D114*%
X142987500Y-83256250D02*
X142987500Y-80256250D01*
X139587500Y-80256250D02*
X139587500Y-83256250D01*
X142987500Y-80256250D02*
X139587500Y-80256250D01*
X139587500Y-83256250D02*
X142987500Y-83256250D01*
%TO.C,D135*%
X66787500Y-140406250D02*
X66787500Y-137406250D01*
X66787500Y-137406250D02*
X63387500Y-137406250D01*
X63387500Y-137406250D02*
X63387500Y-140406250D01*
X63387500Y-140406250D02*
X66787500Y-140406250D01*
%TO.C,D120*%
X68150000Y-102306250D02*
X71550000Y-102306250D01*
X71550000Y-99306250D02*
X68150000Y-99306250D01*
X68150000Y-99306250D02*
X68150000Y-102306250D01*
X71550000Y-102306250D02*
X71550000Y-99306250D01*
%TO.C,D126*%
X214425000Y-99306250D02*
X211025000Y-99306250D01*
X211025000Y-102306250D02*
X214425000Y-102306250D01*
X211025000Y-99306250D02*
X211025000Y-102306250D01*
X214425000Y-102306250D02*
X214425000Y-99306250D01*
%TO.C,D122*%
X106250000Y-102306250D02*
X109650000Y-102306250D01*
X109650000Y-102306250D02*
X109650000Y-99306250D01*
X109650000Y-99306250D02*
X106250000Y-99306250D01*
X106250000Y-99306250D02*
X106250000Y-102306250D01*
%TO.C,D129*%
X77675000Y-121356250D02*
X81075000Y-121356250D01*
X81075000Y-121356250D02*
X81075000Y-118356250D01*
X81075000Y-118356250D02*
X77675000Y-118356250D01*
X77675000Y-118356250D02*
X77675000Y-121356250D01*
%TO.C,D112*%
X104887500Y-80256250D02*
X101487500Y-80256250D01*
X101487500Y-80256250D02*
X101487500Y-83256250D01*
X101487500Y-83256250D02*
X104887500Y-83256250D01*
X104887500Y-83256250D02*
X104887500Y-80256250D01*
%TO.C,D141*%
X214425000Y-145168750D02*
X214425000Y-142168750D01*
X211025000Y-142168750D02*
X211025000Y-145168750D01*
X214425000Y-142168750D02*
X211025000Y-142168750D01*
X211025000Y-145168750D02*
X214425000Y-145168750D01*
%TO.C,D131*%
X119175000Y-121356250D02*
X119175000Y-118356250D01*
X119175000Y-118356250D02*
X115775000Y-118356250D01*
X115775000Y-118356250D02*
X115775000Y-121356250D01*
X115775000Y-121356250D02*
X119175000Y-121356250D01*
%TO.C,D105*%
X133462500Y-64206250D02*
X133462500Y-61206250D01*
X130062500Y-61206250D02*
X130062500Y-64206250D01*
X130062500Y-64206250D02*
X133462500Y-64206250D01*
X133462500Y-61206250D02*
X130062500Y-61206250D01*
%TO.C,D119*%
X49100000Y-99306250D02*
X49100000Y-102306250D01*
X49100000Y-102306250D02*
X52500000Y-102306250D01*
X52500000Y-102306250D02*
X52500000Y-99306250D01*
X52500000Y-99306250D02*
X49100000Y-99306250D01*
%TO.C,D130*%
X100125000Y-121356250D02*
X100125000Y-118356250D01*
X96725000Y-121356250D02*
X100125000Y-121356250D01*
X96725000Y-118356250D02*
X96725000Y-121356250D01*
X100125000Y-118356250D02*
X96725000Y-118356250D01*
%TO.C,D108*%
X211025000Y-59443750D02*
X214425000Y-59443750D01*
X214425000Y-59443750D02*
X214425000Y-56443750D01*
X214425000Y-56443750D02*
X211025000Y-56443750D01*
X211025000Y-56443750D02*
X211025000Y-59443750D01*
%TO.C,D132*%
X134825000Y-121356250D02*
X138225000Y-121356250D01*
X138225000Y-121356250D02*
X138225000Y-118356250D01*
X138225000Y-118356250D02*
X134825000Y-118356250D01*
X134825000Y-118356250D02*
X134825000Y-121356250D01*
%TO.C,D109*%
X44337500Y-83256250D02*
X47737500Y-83256250D01*
X47737500Y-83256250D02*
X47737500Y-80256250D01*
X47737500Y-80256250D02*
X44337500Y-80256250D01*
X44337500Y-80256250D02*
X44337500Y-83256250D01*
%TO.C,D124*%
X144350000Y-102306250D02*
X147750000Y-102306250D01*
X147750000Y-102306250D02*
X147750000Y-99306250D01*
X147750000Y-99306250D02*
X144350000Y-99306250D01*
X144350000Y-99306250D02*
X144350000Y-102306250D01*
%TO.C,D121*%
X87200000Y-99306250D02*
X87200000Y-102306250D01*
X90600000Y-102306250D02*
X90600000Y-99306250D01*
X87200000Y-102306250D02*
X90600000Y-102306250D01*
X90600000Y-99306250D02*
X87200000Y-99306250D01*
%TO.C,D101*%
X57262500Y-61206250D02*
X53862500Y-61206250D01*
X53862500Y-61206250D02*
X53862500Y-64206250D01*
X57262500Y-64206250D02*
X57262500Y-61206250D01*
X53862500Y-64206250D02*
X57262500Y-64206250D01*
%TO.C,D102*%
X72912500Y-64206250D02*
X76312500Y-64206250D01*
X76312500Y-64206250D02*
X76312500Y-61206250D01*
X76312500Y-61206250D02*
X72912500Y-61206250D01*
X72912500Y-61206250D02*
X72912500Y-64206250D01*
%TO.C,D103*%
X91962500Y-64206250D02*
X95362500Y-64206250D01*
X91962500Y-61206250D02*
X91962500Y-64206250D01*
X95362500Y-64206250D02*
X95362500Y-61206250D01*
X95362500Y-61206250D02*
X91962500Y-61206250D01*
%TO.C,D137*%
X113393750Y-140406250D02*
X116793750Y-140406250D01*
X113393750Y-137406250D02*
X113393750Y-140406250D01*
X116793750Y-140406250D02*
X116793750Y-137406250D01*
X116793750Y-137406250D02*
X113393750Y-137406250D01*
%TO.C,D117*%
X214425000Y-80256250D02*
X211025000Y-80256250D01*
X214425000Y-83256250D02*
X214425000Y-80256250D01*
X211025000Y-83256250D02*
X214425000Y-83256250D01*
X211025000Y-80256250D02*
X211025000Y-83256250D01*
%TO.C,D118*%
X233475000Y-80256250D02*
X230075000Y-80256250D01*
X233475000Y-83256250D02*
X233475000Y-80256250D01*
X230075000Y-83256250D02*
X233475000Y-83256250D01*
X230075000Y-80256250D02*
X230075000Y-83256250D01*
%TO.C,D106*%
X149112500Y-64206250D02*
X152512500Y-64206250D01*
X152512500Y-61206250D02*
X149112500Y-61206250D01*
X152512500Y-64206250D02*
X152512500Y-61206250D01*
X149112500Y-61206250D02*
X149112500Y-64206250D01*
%TO.C,D123*%
X128700000Y-99306250D02*
X125300000Y-99306250D01*
X125300000Y-102306250D02*
X128700000Y-102306250D01*
X128700000Y-102306250D02*
X128700000Y-99306250D01*
X125300000Y-99306250D02*
X125300000Y-102306250D01*
%TO.C,D107*%
X178332000Y-65200000D02*
X181332000Y-65200000D01*
X178332000Y-61800000D02*
X178332000Y-65200000D01*
X181332000Y-61800000D02*
X178332000Y-61800000D01*
X181332000Y-65200000D02*
X181332000Y-61800000D01*
%TO.C,D134*%
X211025000Y-123118750D02*
X211025000Y-126118750D01*
X211025000Y-126118750D02*
X214425000Y-126118750D01*
X214425000Y-126118750D02*
X214425000Y-123118750D01*
X214425000Y-123118750D02*
X211025000Y-123118750D01*
%TO.C,D139*%
X154583000Y-140606250D02*
X157583000Y-140606250D01*
X154583000Y-137206250D02*
X154583000Y-140606250D01*
X157583000Y-140606250D02*
X157583000Y-137206250D01*
X157583000Y-137206250D02*
X154583000Y-137206250D01*
%TO.C,D127*%
X233475000Y-102306250D02*
X233475000Y-99306250D01*
X233475000Y-99306250D02*
X230075000Y-99306250D01*
X230075000Y-99306250D02*
X230075000Y-102306250D01*
X230075000Y-102306250D02*
X233475000Y-102306250D01*
%TO.C,D116*%
X182450000Y-83256250D02*
X185850000Y-83256250D01*
X182450000Y-80256250D02*
X182450000Y-83256250D01*
X185850000Y-83256250D02*
X185850000Y-80256250D01*
X185850000Y-80256250D02*
X182450000Y-80256250D01*
%TO.C,D142*%
X230075000Y-145168750D02*
X233475000Y-145168750D01*
X230075000Y-142168750D02*
X230075000Y-145168750D01*
X233475000Y-145168750D02*
X233475000Y-142168750D01*
X233475000Y-142168750D02*
X230075000Y-142168750D01*
%TO.C,D133*%
X171537500Y-122350000D02*
X174537500Y-122350000D01*
X171537500Y-118950000D02*
X171537500Y-122350000D01*
X174537500Y-118950000D02*
X171537500Y-118950000D01*
X174537500Y-122350000D02*
X174537500Y-118950000D01*
%TD*%
M02*
