%TF.GenerationSoftware,KiCad,Pcbnew,(6.0.5)*%
%TF.CreationDate,2022-07-21T21:28:30-06:00*%
%TF.ProjectId,kb_right,6b625f72-6967-4687-942e-6b696361645f,rev?*%
%TF.SameCoordinates,Original*%
%TF.FileFunction,Paste,Bot*%
%TF.FilePolarity,Positive*%
%FSLAX46Y46*%
G04 Gerber Fmt 4.6, Leading zero omitted, Abs format (unit mm)*
G04 Created by KiCad (PCBNEW (6.0.5)) date 2022-07-21 21:28:30*
%MOMM*%
%LPD*%
G01*
G04 APERTURE LIST*
G04 Aperture macros list*
%AMRoundRect*
0 Rectangle with rounded corners*
0 $1 Rounding radius*
0 $2 $3 $4 $5 $6 $7 $8 $9 X,Y pos of 4 corners*
0 Add a 4 corners polygon primitive as box body*
4,1,4,$2,$3,$4,$5,$6,$7,$8,$9,$2,$3,0*
0 Add four circle primitives for the rounded corners*
1,1,$1+$1,$2,$3*
1,1,$1+$1,$4,$5*
1,1,$1+$1,$6,$7*
1,1,$1+$1,$8,$9*
0 Add four rect primitives between the rounded corners*
20,1,$1+$1,$2,$3,$4,$5,0*
20,1,$1+$1,$4,$5,$6,$7,0*
20,1,$1+$1,$6,$7,$8,$9,0*
20,1,$1+$1,$8,$9,$2,$3,0*%
%AMRotRect*
0 Rectangle, with rotation*
0 The origin of the aperture is its center*
0 $1 length*
0 $2 width*
0 $3 Rotation angle, in degrees counterclockwise*
0 Add horizontal line*
21,1,$1,$2,0,0,$3*%
G04 Aperture macros list end*
%ADD10R,2.550000X2.500000*%
%ADD11R,1.200000X1.600000*%
%ADD12RoundRect,0.250000X-0.337500X-0.475000X0.337500X-0.475000X0.337500X0.475000X-0.337500X0.475000X0*%
%ADD13R,1.200000X0.900000*%
%ADD14RoundRect,0.250000X0.337500X0.475000X-0.337500X0.475000X-0.337500X-0.475000X0.337500X-0.475000X0*%
%ADD15R,1.400000X0.820000*%
%ADD16RoundRect,0.205000X0.495000X0.205000X-0.495000X0.205000X-0.495000X-0.205000X0.495000X-0.205000X0*%
%ADD17RoundRect,0.205000X-0.495000X-0.205000X0.495000X-0.205000X0.495000X0.205000X-0.495000X0.205000X0*%
%ADD18RoundRect,0.250000X-0.475000X0.337500X-0.475000X-0.337500X0.475000X-0.337500X0.475000X0.337500X0*%
%ADD19R,0.820000X1.400000*%
%ADD20RoundRect,0.205000X0.205000X-0.495000X0.205000X0.495000X-0.205000X0.495000X-0.205000X-0.495000X0*%
%ADD21RoundRect,0.205000X-0.205000X0.495000X-0.205000X-0.495000X0.205000X-0.495000X0.205000X0.495000X0*%
%ADD22RotRect,1.900000X0.300000X315.000000*%
G04 APERTURE END LIST*
D10*
%TO.C,MX16*%
X153252500Y-73660000D03*
X166179500Y-71120000D03*
%TD*%
D11*
%TO.C,D15*%
X153987500Y-36700000D03*
X153987500Y-39500000D03*
%TD*%
D10*
%TO.C,MX34*%
X205640000Y-116522500D03*
X218567000Y-113982500D03*
%TD*%
%TO.C,MX11*%
X58002500Y-73660000D03*
X70929500Y-71120000D03*
%TD*%
%TO.C,MX4*%
X105627500Y-54610000D03*
X118554500Y-52070000D03*
%TD*%
D11*
%TO.C,D11*%
X77787500Y-36700000D03*
X77787500Y-39500000D03*
%TD*%
%TO.C,D13*%
X115887500Y-36700000D03*
X115887500Y-39500000D03*
%TD*%
D10*
%TO.C,MX6*%
X143727500Y-54610000D03*
X156654500Y-52070000D03*
%TD*%
D11*
%TO.C,D12*%
X96837500Y-36700000D03*
X96837500Y-39500000D03*
%TD*%
%TO.C,D37*%
X68262500Y-39081250D03*
X68262500Y-41881250D03*
%TD*%
D10*
%TO.C,MX33*%
X165158750Y-111760000D03*
X178085750Y-109220000D03*
%TD*%
D11*
%TO.C,D41*%
X144462500Y-39081250D03*
X144462500Y-41881250D03*
%TD*%
D10*
%TO.C,MX32*%
X129440000Y-111760000D03*
X142367000Y-109220000D03*
%TD*%
%TO.C,MX38*%
X108008750Y-130810000D03*
X120935750Y-128270000D03*
%TD*%
D11*
%TO.C,D39*%
X106362500Y-39081250D03*
X106362500Y-41881250D03*
%TD*%
D10*
%TO.C,MX43*%
X224690000Y-135572500D03*
X237617000Y-133032500D03*
%TD*%
D11*
%TO.C,D5*%
X138112500Y-35906250D03*
X138112500Y-38706250D03*
%TD*%
%TO.C,D29*%
X71437500Y-38287500D03*
X71437500Y-41087500D03*
%TD*%
D10*
%TO.C,MX17*%
X177065000Y-73660000D03*
X189992000Y-71120000D03*
%TD*%
%TO.C,MX8*%
X195997500Y-59690000D03*
X183070500Y-62230000D03*
%TD*%
D11*
%TO.C,D6*%
X157162500Y-35906250D03*
X157162500Y-38706250D03*
%TD*%
D10*
%TO.C,MX14*%
X115152500Y-73660000D03*
X128079500Y-71120000D03*
%TD*%
%TO.C,MX24*%
X138965000Y-92710000D03*
X151892000Y-90170000D03*
%TD*%
%TO.C,MX40*%
X155633750Y-130810000D03*
X168560750Y-128270000D03*
%TD*%
%TO.C,MX1*%
X48477500Y-54610000D03*
X61404500Y-52070000D03*
%TD*%
%TO.C,MX9*%
X205640000Y-49847500D03*
X218567000Y-47307500D03*
%TD*%
%TO.C,MX28*%
X53240000Y-111760000D03*
X66167000Y-109220000D03*
%TD*%
D11*
%TO.C,D33*%
X147637500Y-38287500D03*
X147637500Y-41087500D03*
%TD*%
%TO.C,D22*%
X112712500Y-37493750D03*
X112712500Y-40293750D03*
%TD*%
D10*
%TO.C,MX42*%
X205640000Y-135572500D03*
X218567000Y-133032500D03*
%TD*%
D11*
%TO.C,D14*%
X134937500Y-36700000D03*
X134937500Y-39500000D03*
%TD*%
%TO.C,D40*%
X125412500Y-39081250D03*
X125412500Y-41881250D03*
%TD*%
%TO.C,D32*%
X128587500Y-38287500D03*
X128587500Y-41087500D03*
%TD*%
%TO.C,D20*%
X74612500Y-37493750D03*
X74612500Y-40293750D03*
%TD*%
D10*
%TO.C,MX18*%
X205640000Y-73660000D03*
X218567000Y-71120000D03*
%TD*%
%TO.C,MX3*%
X86577500Y-54610000D03*
X99504500Y-52070000D03*
%TD*%
%TO.C,MX31*%
X110390000Y-111760000D03*
X123317000Y-109220000D03*
%TD*%
%TO.C,MX23*%
X119915000Y-92710000D03*
X132842000Y-90170000D03*
%TD*%
%TO.C,MX26*%
X205640000Y-92710000D03*
X218567000Y-90170000D03*
%TD*%
%TO.C,MX25*%
X169921250Y-92710000D03*
X182848250Y-90170000D03*
%TD*%
D11*
%TO.C,D30*%
X90487500Y-38287500D03*
X90487500Y-41087500D03*
%TD*%
D10*
%TO.C,MX15*%
X134202500Y-73660000D03*
X147129500Y-71120000D03*
%TD*%
D11*
%TO.C,D10*%
X58737500Y-36700000D03*
X58737500Y-39500000D03*
%TD*%
D10*
%TO.C,MX7*%
X176947500Y-59690000D03*
X164020500Y-62230000D03*
%TD*%
%TO.C,MX21*%
X81815000Y-92710000D03*
X94742000Y-90170000D03*
%TD*%
%TO.C,MX22*%
X100865000Y-92710000D03*
X113792000Y-90170000D03*
%TD*%
D11*
%TO.C,D36*%
X49212500Y-39081250D03*
X49212500Y-41881250D03*
%TD*%
D10*
%TO.C,MX2*%
X67527500Y-54610000D03*
X80454500Y-52070000D03*
%TD*%
D11*
%TO.C,D19*%
X55562500Y-37493750D03*
X55562500Y-40293750D03*
%TD*%
%TO.C,D24*%
X150812500Y-37493750D03*
X150812500Y-40293750D03*
%TD*%
D10*
%TO.C,MX7_1*%
X172302500Y-54610000D03*
X185229500Y-52070000D03*
%TD*%
%TO.C,MX20*%
X62765000Y-92710000D03*
X75692000Y-90170000D03*
%TD*%
%TO.C,MX32_1*%
X195997500Y-116840000D03*
X183070500Y-119380000D03*
%TD*%
%TO.C,MX37*%
X84196250Y-130810000D03*
X97123250Y-128270000D03*
%TD*%
%TO.C,MX36*%
X58002500Y-130810000D03*
X70929500Y-128270000D03*
%TD*%
%TO.C,MX32_2*%
X169803750Y-116840000D03*
X156876750Y-119380000D03*
%TD*%
%TO.C,MX40_1*%
X172185000Y-135890000D03*
X159258000Y-138430000D03*
%TD*%
%TO.C,MX39*%
X131821250Y-130810000D03*
X144748250Y-128270000D03*
%TD*%
D11*
%TO.C,D23*%
X131762500Y-37493750D03*
X131762500Y-40293750D03*
%TD*%
D10*
%TO.C,MX29*%
X72290000Y-111760000D03*
X85217000Y-109220000D03*
%TD*%
D11*
%TO.C,D2*%
X80962500Y-35906250D03*
X80962500Y-38706250D03*
%TD*%
D10*
%TO.C,MX13*%
X96102500Y-73660000D03*
X109029500Y-71120000D03*
%TD*%
%TO.C,MX19*%
X43715000Y-92710000D03*
X56642000Y-90170000D03*
%TD*%
%TO.C,MX10*%
X38952500Y-73660000D03*
X51879500Y-71120000D03*
%TD*%
%TO.C,MX27*%
X224690000Y-73660000D03*
X237617000Y-71120000D03*
%TD*%
D11*
%TO.C,D31*%
X109537500Y-38287500D03*
X109537500Y-41087500D03*
%TD*%
%TO.C,D28*%
X52387500Y-38287500D03*
X52387500Y-41087500D03*
%TD*%
D10*
%TO.C,MX30*%
X91340000Y-111760000D03*
X104267000Y-109220000D03*
%TD*%
%TO.C,MX35*%
X224690000Y-92710000D03*
X237617000Y-90170000D03*
%TD*%
D11*
%TO.C,D3*%
X100012500Y-35906250D03*
X100012500Y-38706250D03*
%TD*%
D10*
%TO.C,MX5*%
X124677500Y-54610000D03*
X137604500Y-52070000D03*
%TD*%
D11*
%TO.C,D4*%
X119062500Y-35906250D03*
X119062500Y-38706250D03*
%TD*%
D10*
%TO.C,MX41*%
X186590000Y-135572500D03*
X199517000Y-133032500D03*
%TD*%
D11*
%TO.C,D21*%
X93662500Y-37493750D03*
X93662500Y-40293750D03*
%TD*%
D10*
%TO.C,MX12*%
X77052500Y-73660000D03*
X89979500Y-71120000D03*
%TD*%
D11*
%TO.C,D1*%
X61912500Y-35906250D03*
X61912500Y-38706250D03*
%TD*%
%TO.C,D38*%
X87312500Y-39081250D03*
X87312500Y-41881250D03*
%TD*%
D12*
%TO.C,C118*%
X236293750Y-82550000D03*
X238368750Y-82550000D03*
%TD*%
D13*
%TO.C,D35*%
X239712500Y-96392000D03*
X239712500Y-93092000D03*
%TD*%
D12*
%TO.C,C115*%
X164856250Y-82550000D03*
X166931250Y-82550000D03*
%TD*%
D14*
%TO.C,C101*%
X51043750Y-61912500D03*
X48968750Y-61912500D03*
%TD*%
D15*
%TO.C,D110*%
X67787500Y-82506250D03*
X67787500Y-81006250D03*
D16*
X62387500Y-81006250D03*
D15*
X62387500Y-82506250D03*
%TD*%
D14*
%TO.C,C103*%
X89143750Y-61912500D03*
X87068750Y-61912500D03*
%TD*%
D12*
%TO.C,C113*%
X126756250Y-82550000D03*
X128831250Y-82550000D03*
%TD*%
D14*
%TO.C,C122*%
X103431250Y-100012500D03*
X101356250Y-100012500D03*
%TD*%
D15*
%TO.C,D125*%
X174306250Y-100056250D03*
X174306250Y-101556250D03*
D17*
X179706250Y-101556250D03*
D15*
X179706250Y-100056250D03*
%TD*%
D12*
%TO.C,C129*%
X83893750Y-120650000D03*
X85968750Y-120650000D03*
%TD*%
D14*
%TO.C,C105*%
X127243750Y-61912500D03*
X125168750Y-61912500D03*
%TD*%
D15*
%TO.C,D138*%
X136206250Y-138156250D03*
X136206250Y-139656250D03*
D17*
X141606250Y-139656250D03*
D15*
X141606250Y-138156250D03*
%TD*%
D14*
%TO.C,C135*%
X60568750Y-138112500D03*
X58493750Y-138112500D03*
%TD*%
D15*
%TO.C,D113*%
X124937500Y-82506250D03*
X124937500Y-81006250D03*
D16*
X119537500Y-81006250D03*
D15*
X119537500Y-82506250D03*
%TD*%
%TO.C,D111*%
X86837500Y-82506250D03*
X86837500Y-81006250D03*
D16*
X81437500Y-81006250D03*
D15*
X81437500Y-82506250D03*
%TD*%
%TO.C,D128*%
X63025000Y-120606250D03*
X63025000Y-119106250D03*
D16*
X57625000Y-119106250D03*
D15*
X57625000Y-120606250D03*
%TD*%
D14*
%TO.C,C138*%
X134387500Y-138112500D03*
X132312500Y-138112500D03*
%TD*%
D15*
%TO.C,D115*%
X163037500Y-82506250D03*
X163037500Y-81006250D03*
D16*
X157637500Y-81006250D03*
D15*
X157637500Y-82506250D03*
%TD*%
%TO.C,D136*%
X88581250Y-138156250D03*
X88581250Y-139656250D03*
D17*
X93981250Y-139656250D03*
D15*
X93981250Y-138156250D03*
%TD*%
D13*
%TO.C,D18*%
X220662500Y-78643750D03*
X220662500Y-75343750D03*
%TD*%
D15*
%TO.C,D140*%
X190975000Y-142918750D03*
X190975000Y-144418750D03*
D17*
X196375000Y-144418750D03*
D15*
X196375000Y-142918750D03*
%TD*%
%TO.C,D104*%
X110012500Y-61956250D03*
X110012500Y-63456250D03*
D17*
X115412500Y-63456250D03*
D15*
X115412500Y-61956250D03*
%TD*%
%TO.C,D114*%
X143987500Y-82506250D03*
X143987500Y-81006250D03*
D16*
X138587500Y-81006250D03*
D15*
X138587500Y-82506250D03*
%TD*%
D13*
%TO.C,D27*%
X240506250Y-84708000D03*
X240506250Y-81408000D03*
%TD*%
D15*
%TO.C,D135*%
X62387500Y-138156250D03*
X62387500Y-139656250D03*
D17*
X67787500Y-139656250D03*
D15*
X67787500Y-138156250D03*
%TD*%
%TO.C,D120*%
X67150000Y-100056250D03*
X67150000Y-101556250D03*
D17*
X72550000Y-101556250D03*
D15*
X72550000Y-100056250D03*
%TD*%
%TO.C,D126*%
X210025000Y-100056250D03*
X210025000Y-101556250D03*
D17*
X215425000Y-101556250D03*
D15*
X215425000Y-100056250D03*
%TD*%
D18*
%TO.C,C107*%
X177006250Y-66272500D03*
X177006250Y-68347500D03*
%TD*%
D15*
%TO.C,D122*%
X105250000Y-100056250D03*
X105250000Y-101556250D03*
D17*
X110650000Y-101556250D03*
D15*
X110650000Y-100056250D03*
%TD*%
D14*
%TO.C,C125*%
X172360500Y-100012500D03*
X170285500Y-100012500D03*
%TD*%
D12*
%TO.C,C114*%
X145806250Y-82550000D03*
X147881250Y-82550000D03*
%TD*%
D14*
%TO.C,C104*%
X108193750Y-61912500D03*
X106118750Y-61912500D03*
%TD*%
D13*
%TO.C,D26*%
X221456250Y-87250000D03*
X221456250Y-90550000D03*
%TD*%
D15*
%TO.C,D129*%
X82075000Y-120606250D03*
X82075000Y-119106250D03*
D16*
X76675000Y-119106250D03*
D15*
X76675000Y-120606250D03*
%TD*%
%TO.C,D112*%
X105887500Y-82506250D03*
X105887500Y-81006250D03*
D16*
X100487500Y-81006250D03*
D15*
X100487500Y-82506250D03*
%TD*%
%TO.C,D141*%
X210025000Y-142918750D03*
X210025000Y-144418750D03*
D17*
X215425000Y-144418750D03*
D15*
X215425000Y-142918750D03*
%TD*%
%TO.C,D131*%
X120175000Y-120606250D03*
X120175000Y-119106250D03*
D16*
X114775000Y-119106250D03*
D15*
X114775000Y-120606250D03*
%TD*%
D13*
%TO.C,D43*%
X227012500Y-122968750D03*
X227012500Y-126268750D03*
%TD*%
D15*
%TO.C,D105*%
X129062500Y-61956250D03*
X129062500Y-63456250D03*
D17*
X134462500Y-63456250D03*
D15*
X134462500Y-61956250D03*
%TD*%
D12*
%TO.C,C116*%
X188668750Y-82550000D03*
X190743750Y-82550000D03*
%TD*%
%TO.C,C133*%
X175746500Y-117856000D03*
X177821500Y-117856000D03*
%TD*%
D14*
%TO.C,C121*%
X84381250Y-100012500D03*
X82306250Y-100012500D03*
%TD*%
D15*
%TO.C,D119*%
X48100000Y-100056250D03*
X48100000Y-101556250D03*
D17*
X53500000Y-101556250D03*
D15*
X53500000Y-100056250D03*
%TD*%
D14*
%TO.C,C142*%
X227256250Y-142875000D03*
X225181250Y-142875000D03*
%TD*%
D12*
%TO.C,C112*%
X107706250Y-82550000D03*
X109781250Y-82550000D03*
%TD*%
D15*
%TO.C,D130*%
X101125000Y-120606250D03*
X101125000Y-119106250D03*
D16*
X95725000Y-119106250D03*
D15*
X95725000Y-120606250D03*
%TD*%
D14*
%TO.C,C119*%
X46281250Y-100012500D03*
X44206250Y-100012500D03*
%TD*%
D13*
%TO.C,D7*%
X196056250Y-55625000D03*
X196056250Y-52325000D03*
%TD*%
D14*
%TO.C,C127*%
X227256250Y-100012500D03*
X225181250Y-100012500D03*
%TD*%
D15*
%TO.C,D108*%
X210025000Y-57193750D03*
X210025000Y-58693750D03*
D17*
X215425000Y-58693750D03*
D15*
X215425000Y-57193750D03*
%TD*%
%TO.C,D132*%
X139225000Y-120606250D03*
X139225000Y-119106250D03*
D16*
X133825000Y-119106250D03*
D15*
X133825000Y-120606250D03*
%TD*%
D14*
%TO.C,C139*%
X155818750Y-134143750D03*
X153743750Y-134143750D03*
%TD*%
D15*
%TO.C,D109*%
X48737500Y-82506250D03*
X48737500Y-81006250D03*
D16*
X43337500Y-81006250D03*
D15*
X43337500Y-82506250D03*
%TD*%
%TO.C,D124*%
X143350000Y-100056250D03*
X143350000Y-101556250D03*
D17*
X148750000Y-101556250D03*
D15*
X148750000Y-100056250D03*
%TD*%
D14*
%TO.C,C102*%
X70093750Y-61912500D03*
X68018750Y-61912500D03*
%TD*%
D12*
%TO.C,C130*%
X102943750Y-120650000D03*
X105018750Y-120650000D03*
%TD*%
D15*
%TO.C,D121*%
X86200000Y-100056250D03*
X86200000Y-101556250D03*
D17*
X91600000Y-101556250D03*
D15*
X91600000Y-100056250D03*
%TD*%
D14*
%TO.C,C120*%
X65331250Y-100012500D03*
X63256250Y-100012500D03*
%TD*%
D12*
%TO.C,C110*%
X69606250Y-82550000D03*
X71681250Y-82550000D03*
%TD*%
D13*
%TO.C,D25*%
X193675000Y-87250000D03*
X193675000Y-90550000D03*
%TD*%
D15*
%TO.C,D101*%
X52862500Y-61956250D03*
X52862500Y-63456250D03*
D17*
X58262500Y-63456250D03*
D15*
X58262500Y-61956250D03*
%TD*%
D12*
%TO.C,C132*%
X141043750Y-120650000D03*
X143118750Y-120650000D03*
%TD*%
D14*
%TO.C,C124*%
X141531250Y-100012500D03*
X139456250Y-100012500D03*
%TD*%
D13*
%TO.C,D8*%
X199231250Y-60387500D03*
X199231250Y-57087500D03*
%TD*%
D14*
%TO.C,C123*%
X122481250Y-100012500D03*
X120406250Y-100012500D03*
%TD*%
D12*
%TO.C,C109*%
X50556250Y-82550000D03*
X52631250Y-82550000D03*
%TD*%
D15*
%TO.C,D102*%
X71912500Y-61956250D03*
X71912500Y-63456250D03*
D17*
X77312500Y-63456250D03*
D15*
X77312500Y-61956250D03*
%TD*%
D14*
%TO.C,C106*%
X146293750Y-61912500D03*
X144218750Y-61912500D03*
%TD*%
D15*
%TO.C,D103*%
X90962500Y-61956250D03*
X90962500Y-63456250D03*
D17*
X96362500Y-63456250D03*
D15*
X96362500Y-61956250D03*
%TD*%
D13*
%TO.C,D44*%
X239014000Y-65277000D03*
X239014000Y-61977000D03*
%TD*%
D12*
%TO.C,C134*%
X217243750Y-125412500D03*
X219318750Y-125412500D03*
%TD*%
D14*
%TO.C,C136*%
X86762500Y-138112500D03*
X84687500Y-138112500D03*
%TD*%
D13*
%TO.C,D42*%
X223837500Y-122968750D03*
X223837500Y-126268750D03*
%TD*%
D14*
%TO.C,C140*%
X189156250Y-142875000D03*
X187081250Y-142875000D03*
%TD*%
D13*
%TO.C,D33_1*%
X180181250Y-114237500D03*
X180181250Y-117537500D03*
%TD*%
D12*
%TO.C,C117*%
X217243750Y-82550000D03*
X219318750Y-82550000D03*
%TD*%
%TO.C,C111*%
X88656250Y-82550000D03*
X90731250Y-82550000D03*
%TD*%
D15*
%TO.C,D137*%
X112393750Y-138156250D03*
X112393750Y-139656250D03*
D17*
X117793750Y-139656250D03*
D15*
X117793750Y-138156250D03*
%TD*%
D12*
%TO.C,C128*%
X64843750Y-120650000D03*
X66918750Y-120650000D03*
%TD*%
D13*
%TO.C,D16*%
X169068750Y-78643750D03*
X169068750Y-75343750D03*
%TD*%
D14*
%TO.C,C137*%
X110575000Y-138112500D03*
X108500000Y-138112500D03*
%TD*%
D15*
%TO.C,D117*%
X215425000Y-82506250D03*
X215425000Y-81006250D03*
D16*
X210025000Y-81006250D03*
D15*
X210025000Y-82506250D03*
%TD*%
D13*
%TO.C,D34*%
X221456250Y-111062500D03*
X221456250Y-114362500D03*
%TD*%
D12*
%TO.C,C131*%
X121993750Y-120650000D03*
X124068750Y-120650000D03*
%TD*%
D15*
%TO.C,D118*%
X234475000Y-82506250D03*
X234475000Y-81006250D03*
D16*
X229075000Y-81006250D03*
D15*
X229075000Y-82506250D03*
%TD*%
%TO.C,D106*%
X148112500Y-61956250D03*
X148112500Y-63456250D03*
D17*
X153512500Y-63456250D03*
D15*
X153512500Y-61956250D03*
%TD*%
%TO.C,D123*%
X124300000Y-100056250D03*
X124300000Y-101556250D03*
D17*
X129700000Y-101556250D03*
D15*
X129700000Y-100056250D03*
%TD*%
D14*
%TO.C,C141*%
X208206250Y-142875000D03*
X206131250Y-142875000D03*
%TD*%
D13*
%TO.C,D9*%
X219075000Y-60387500D03*
X219075000Y-57087500D03*
%TD*%
D19*
%TO.C,D107*%
X179082000Y-66200000D03*
X180582000Y-66200000D03*
D20*
X180582000Y-60800000D03*
D19*
X179082000Y-60800000D03*
%TD*%
D15*
%TO.C,D134*%
X215425000Y-125368750D03*
X215425000Y-123868750D03*
D16*
X210025000Y-123868750D03*
D15*
X210025000Y-125368750D03*
%TD*%
D19*
%TO.C,D139*%
X156833000Y-136206250D03*
X155333000Y-136206250D03*
D21*
X155333000Y-141606250D03*
D19*
X156833000Y-141606250D03*
%TD*%
D15*
%TO.C,D127*%
X229075000Y-100056250D03*
X229075000Y-101556250D03*
D17*
X234475000Y-101556250D03*
D15*
X234475000Y-100056250D03*
%TD*%
%TO.C,D116*%
X186850000Y-82506250D03*
X186850000Y-81006250D03*
D16*
X181450000Y-81006250D03*
D15*
X181450000Y-82506250D03*
%TD*%
%TO.C,D142*%
X229075000Y-142918750D03*
X229075000Y-144418750D03*
D17*
X234475000Y-144418750D03*
D15*
X234475000Y-142918750D03*
%TD*%
D14*
%TO.C,C126*%
X208206250Y-100012500D03*
X206131250Y-100012500D03*
%TD*%
D13*
%TO.C,D17*%
X193675000Y-78643750D03*
X193675000Y-75343750D03*
%TD*%
D22*
%TO.C,J1*%
X204819139Y-40145375D03*
X204465586Y-40498928D03*
X204112032Y-40852481D03*
X203758479Y-41206035D03*
X203404925Y-41559588D03*
X203051372Y-41913142D03*
X202697819Y-42266695D03*
X202344265Y-42620248D03*
X201990712Y-42973802D03*
X201637158Y-43327355D03*
X201283605Y-43680908D03*
X200930052Y-44034462D03*
X200576498Y-44388015D03*
X200222945Y-44741569D03*
X199869392Y-45095122D03*
X199515838Y-45448675D03*
X199162285Y-45802229D03*
X198808731Y-46155782D03*
X198455178Y-46509336D03*
%TD*%
D14*
%TO.C,C108*%
X208206250Y-57150000D03*
X206131250Y-57150000D03*
%TD*%
D19*
%TO.C,D133*%
X173787500Y-117950000D03*
X172287500Y-117950000D03*
D21*
X172287500Y-123350000D03*
D19*
X173787500Y-123350000D03*
%TD*%
M02*
