%TF.GenerationSoftware,KiCad,Pcbnew,(6.0.5)*%
%TF.CreationDate,2022-07-21T21:28:31-06:00*%
%TF.ProjectId,kb_right,6b625f72-6967-4687-942e-6b696361645f,rev?*%
%TF.SameCoordinates,Original*%
%TF.FileFunction,AssemblyDrawing,Top*%
%FSLAX46Y46*%
G04 Gerber Fmt 4.6, Leading zero omitted, Abs format (unit mm)*
G04 Created by KiCad (PCBNEW (6.0.5)) date 2022-07-21 21:28:31*
%MOMM*%
%LPD*%
G01*
G04 APERTURE LIST*
%ADD10C,0.150000*%
%ADD11C,0.120000*%
G04 APERTURE END LIST*
D10*
%TO.C,SW1*%
X244142261Y-49020833D02*
X244189880Y-48877976D01*
X244189880Y-48639880D01*
X244142261Y-48544642D01*
X244094642Y-48497023D01*
X243999404Y-48449404D01*
X243904166Y-48449404D01*
X243808928Y-48497023D01*
X243761309Y-48544642D01*
X243713690Y-48639880D01*
X243666071Y-48830357D01*
X243618452Y-48925595D01*
X243570833Y-48973214D01*
X243475595Y-49020833D01*
X243380357Y-49020833D01*
X243285119Y-48973214D01*
X243237500Y-48925595D01*
X243189880Y-48830357D01*
X243189880Y-48592261D01*
X243237500Y-48449404D01*
X243189880Y-48116071D02*
X244189880Y-47877976D01*
X243475595Y-47687500D01*
X244189880Y-47497023D01*
X243189880Y-47258928D01*
X244189880Y-46354166D02*
X244189880Y-46925595D01*
X244189880Y-46639880D02*
X243189880Y-46639880D01*
X243332738Y-46735119D01*
X243427976Y-46830357D01*
X243475595Y-46925595D01*
X229089880Y-59720833D02*
X228613690Y-60054166D01*
X229089880Y-60292261D02*
X228089880Y-60292261D01*
X228089880Y-59911309D01*
X228137500Y-59816071D01*
X228185119Y-59768452D01*
X228280357Y-59720833D01*
X228423214Y-59720833D01*
X228518452Y-59768452D01*
X228566071Y-59816071D01*
X228613690Y-59911309D01*
X228613690Y-60292261D01*
X229089880Y-59149404D02*
X229042261Y-59244642D01*
X228994642Y-59292261D01*
X228899404Y-59339880D01*
X228613690Y-59339880D01*
X228518452Y-59292261D01*
X228470833Y-59244642D01*
X228423214Y-59149404D01*
X228423214Y-59006547D01*
X228470833Y-58911309D01*
X228518452Y-58863690D01*
X228613690Y-58816071D01*
X228899404Y-58816071D01*
X228994642Y-58863690D01*
X229042261Y-58911309D01*
X229089880Y-59006547D01*
X229089880Y-59149404D01*
X228423214Y-58530357D02*
X228423214Y-58149404D01*
X228089880Y-58387500D02*
X228947023Y-58387500D01*
X229042261Y-58339880D01*
X229089880Y-58244642D01*
X229089880Y-58149404D01*
X229089880Y-57387500D02*
X228566071Y-57387500D01*
X228470833Y-57435119D01*
X228423214Y-57530357D01*
X228423214Y-57720833D01*
X228470833Y-57816071D01*
X229042261Y-57387500D02*
X229089880Y-57482738D01*
X229089880Y-57720833D01*
X229042261Y-57816071D01*
X228947023Y-57863690D01*
X228851785Y-57863690D01*
X228756547Y-57816071D01*
X228708928Y-57720833D01*
X228708928Y-57482738D01*
X228661309Y-57387500D01*
X229089880Y-56911309D02*
X228423214Y-56911309D01*
X228613690Y-56911309D02*
X228518452Y-56863690D01*
X228470833Y-56816071D01*
X228423214Y-56720833D01*
X228423214Y-56625595D01*
X228423214Y-56387500D02*
X229089880Y-56149404D01*
X228423214Y-55911309D02*
X229089880Y-56149404D01*
X229327976Y-56244642D01*
X229375595Y-56292261D01*
X229423214Y-56387500D01*
X228566071Y-55530357D02*
X228566071Y-55197023D01*
X229089880Y-55054166D02*
X229089880Y-55530357D01*
X228089880Y-55530357D01*
X228089880Y-55054166D01*
X228423214Y-54625595D02*
X229089880Y-54625595D01*
X228518452Y-54625595D02*
X228470833Y-54577976D01*
X228423214Y-54482738D01*
X228423214Y-54339880D01*
X228470833Y-54244642D01*
X228566071Y-54197023D01*
X229089880Y-54197023D01*
X229042261Y-53292261D02*
X229089880Y-53387500D01*
X229089880Y-53577976D01*
X229042261Y-53673214D01*
X228994642Y-53720833D01*
X228899404Y-53768452D01*
X228613690Y-53768452D01*
X228518452Y-53720833D01*
X228470833Y-53673214D01*
X228423214Y-53577976D01*
X228423214Y-53387500D01*
X228470833Y-53292261D01*
X229089880Y-52720833D02*
X229042261Y-52816071D01*
X228994642Y-52863690D01*
X228899404Y-52911309D01*
X228613690Y-52911309D01*
X228518452Y-52863690D01*
X228470833Y-52816071D01*
X228423214Y-52720833D01*
X228423214Y-52577976D01*
X228470833Y-52482738D01*
X228518452Y-52435119D01*
X228613690Y-52387500D01*
X228899404Y-52387500D01*
X228994642Y-52435119D01*
X229042261Y-52482738D01*
X229089880Y-52577976D01*
X229089880Y-52720833D01*
X229089880Y-51530357D02*
X228089880Y-51530357D01*
X229042261Y-51530357D02*
X229089880Y-51625595D01*
X229089880Y-51816071D01*
X229042261Y-51911309D01*
X228994642Y-51958928D01*
X228899404Y-52006547D01*
X228613690Y-52006547D01*
X228518452Y-51958928D01*
X228470833Y-51911309D01*
X228423214Y-51816071D01*
X228423214Y-51625595D01*
X228470833Y-51530357D01*
X229042261Y-50673214D02*
X229089880Y-50768452D01*
X229089880Y-50958928D01*
X229042261Y-51054166D01*
X228947023Y-51101785D01*
X228566071Y-51101785D01*
X228470833Y-51054166D01*
X228423214Y-50958928D01*
X228423214Y-50768452D01*
X228470833Y-50673214D01*
X228566071Y-50625595D01*
X228661309Y-50625595D01*
X228756547Y-51101785D01*
X229089880Y-50197023D02*
X228423214Y-50197023D01*
X228613690Y-50197023D02*
X228518452Y-50149404D01*
X228470833Y-50101785D01*
X228423214Y-50006547D01*
X228423214Y-49911309D01*
X229185119Y-49816071D02*
X229185119Y-49054166D01*
X229042261Y-48863690D02*
X229089880Y-48720833D01*
X229089880Y-48482738D01*
X229042261Y-48387500D01*
X228994642Y-48339880D01*
X228899404Y-48292261D01*
X228804166Y-48292261D01*
X228708928Y-48339880D01*
X228661309Y-48387500D01*
X228613690Y-48482738D01*
X228566071Y-48673214D01*
X228518452Y-48768452D01*
X228470833Y-48816071D01*
X228375595Y-48863690D01*
X228280357Y-48863690D01*
X228185119Y-48816071D01*
X228137500Y-48768452D01*
X228089880Y-48673214D01*
X228089880Y-48435119D01*
X228137500Y-48292261D01*
X228423214Y-47958928D02*
X229089880Y-47768452D01*
X228613690Y-47577976D01*
X229089880Y-47387500D01*
X228423214Y-47197023D01*
X229089880Y-46816071D02*
X228423214Y-46816071D01*
X228089880Y-46816071D02*
X228137500Y-46863690D01*
X228185119Y-46816071D01*
X228137500Y-46768452D01*
X228089880Y-46816071D01*
X228185119Y-46816071D01*
X228423214Y-46482738D02*
X228423214Y-46101785D01*
X228089880Y-46339880D02*
X228947023Y-46339880D01*
X229042261Y-46292261D01*
X229089880Y-46197023D01*
X229089880Y-46101785D01*
X229042261Y-45339880D02*
X229089880Y-45435119D01*
X229089880Y-45625595D01*
X229042261Y-45720833D01*
X228994642Y-45768452D01*
X228899404Y-45816071D01*
X228613690Y-45816071D01*
X228518452Y-45768452D01*
X228470833Y-45720833D01*
X228423214Y-45625595D01*
X228423214Y-45435119D01*
X228470833Y-45339880D01*
X229089880Y-44911309D02*
X228089880Y-44911309D01*
X229089880Y-44482738D02*
X228566071Y-44482738D01*
X228470833Y-44530357D01*
X228423214Y-44625595D01*
X228423214Y-44768452D01*
X228470833Y-44863690D01*
X228518452Y-44911309D01*
X233142261Y-57320833D02*
X233189880Y-57177976D01*
X233189880Y-56939880D01*
X233142261Y-56844642D01*
X233094642Y-56797023D01*
X232999404Y-56749404D01*
X232904166Y-56749404D01*
X232808928Y-56797023D01*
X232761309Y-56844642D01*
X232713690Y-56939880D01*
X232666071Y-57130357D01*
X232618452Y-57225595D01*
X232570833Y-57273214D01*
X232475595Y-57320833D01*
X232380357Y-57320833D01*
X232285119Y-57273214D01*
X232237500Y-57225595D01*
X232189880Y-57130357D01*
X232189880Y-56892261D01*
X232237500Y-56749404D01*
X232189880Y-56416071D02*
X233189880Y-56177976D01*
X232475595Y-55987500D01*
X233189880Y-55797023D01*
X232189880Y-55558928D01*
X233189880Y-54654166D02*
X233189880Y-55225595D01*
X233189880Y-54939880D02*
X232189880Y-54939880D01*
X232332738Y-55035119D01*
X232427976Y-55130357D01*
X232475595Y-55225595D01*
D11*
X230737500Y-58387500D02*
X230737500Y-46387500D01*
X236537500Y-49387500D02*
X236537500Y-55387500D01*
X242337500Y-58387500D02*
X230737500Y-58387500D01*
X242337500Y-47387500D02*
X242337500Y-58387500D01*
X239537500Y-52387500D02*
X233537500Y-52387500D01*
X241237500Y-46387500D02*
X242337500Y-47387500D01*
X230737500Y-46387500D02*
X241237500Y-46387500D01*
X239537500Y-52387500D02*
G75*
G03*
X239537500Y-52387500I-3000000J0D01*
G01*
%TD*%
M02*
