%FSLAX45Y45*%
G04 Gerber Fmt 4.5, Leading zero omitted, Abs format (unit mm)*
G04 Created by KiCad (PCBNEW (6.0.5)) date 2022-07-14 17:40:35*
%MOMM*%
%LPD*%
G01*
G04 APERTURE LIST*
%TA.AperFunction,Profile*%
%ADD10C,0.100000*%
%TD*%
%ADD11C,0.200000*%
%ADD12C,0.150000*%
%ADD13C,0.175000*%
%ADD14C,0.300000*%
%ADD15C,0.304800*%
%ADD16C,0.398780*%
G04 APERTURE END LIST*
D10*
X4810125Y-7404100D02*
X4175125Y-7404100D01*
X4016375Y-7562850D02*
X4016375Y-8991600D01*
X24177625Y-15341595D02*
G75*
G03*
X24336375Y-15182850I-5215J163965D01*
G01*
X19573875Y-3832225D02*
X19573875Y-3752850D01*
X4810125Y-7404105D02*
G75*
G03*
X4968875Y-7245350I625J158125D01*
G01*
X5445130Y-14706600D02*
G75*
G03*
X5603875Y-14865350I159960J1210D01*
G01*
X4492625Y-9309100D02*
X4492625Y-10896600D01*
X20288245Y-4943475D02*
G75*
G03*
X20447000Y-5102225I157925J-825D01*
G01*
X5445125Y-11214100D02*
X5445125Y-14706600D01*
X24733250Y-6689730D02*
G75*
G03*
X24892000Y-6530975I2730J156020D01*
G01*
X4175125Y-9150350D02*
X4333875Y-9150350D01*
X18938875Y-15341600D02*
X24177625Y-15341600D01*
X18781006Y-3594105D02*
G75*
G03*
X18630900Y-3752850I4774J-154855D01*
G01*
X5127625Y-5419725D02*
G75*
G03*
X4968875Y-5578475I1130J-159880D01*
G01*
X4492630Y-10896600D02*
G75*
G03*
X4651375Y-11055350I165880J7130D01*
G01*
X4492630Y-9309100D02*
G75*
G03*
X4333875Y-9150350I-153870J4880D01*
G01*
X18780125Y-15024100D02*
X18780125Y-15182850D01*
X18465800Y-5419723D02*
G75*
G03*
X18630900Y-5260975I6600J158363D01*
G01*
X18781006Y-3594100D02*
X19415125Y-3594100D01*
X24892000Y-6530975D02*
X24892000Y-5260975D01*
X18780130Y-15182850D02*
G75*
G03*
X18938875Y-15341600I161390J2640D01*
G01*
X4016380Y-8991600D02*
G75*
G03*
X4175125Y-9150350I156170J-2580D01*
G01*
X24733250Y-5102225D02*
X20447000Y-5102225D01*
X4175125Y-7404095D02*
G75*
G03*
X4016375Y-7562850I-2845J-155905D01*
G01*
X18630900Y-5260975D02*
X18630900Y-3752850D01*
X18780130Y-15024100D02*
G75*
G03*
X18621375Y-14865350I-154860J3890D01*
G01*
X19573875Y-3832225D02*
G75*
G03*
X19732625Y-3990975I150825J-7925D01*
G01*
X24892005Y-5260975D02*
G75*
G03*
X24733250Y-5102225I-158965J-215D01*
G01*
X20129500Y-3990975D02*
X19732625Y-3990975D01*
X20288255Y-4149725D02*
G75*
G03*
X20129500Y-3990975I-155625J3125D01*
G01*
X4968875Y-5578475D02*
X4968875Y-7245350D01*
X24495125Y-6689725D02*
G75*
G03*
X24336375Y-6848475I2975J-161725D01*
G01*
X4651375Y-11055350D02*
X5286375Y-11055350D01*
X5603875Y-14865350D02*
X18621375Y-14865350D01*
X20288250Y-4943475D02*
X20288250Y-4149725D01*
X19573880Y-3752850D02*
G75*
G03*
X19415125Y-3594100I-156970J1780D01*
G01*
X5127625Y-5419725D02*
X18465800Y-5419725D01*
X5445120Y-11214100D02*
G75*
G03*
X5286375Y-11055350I-156900J1850D01*
G01*
X24336375Y-15182850D02*
X24336375Y-6848475D01*
X24495125Y-6689725D02*
X24733250Y-6689725D01*
D11*
D12*
X23864500Y-5260975D02*
X24014500Y-5410975D01*
X24014500Y-5260975D02*
X23864500Y-5410975D01*
D11*
X24004500Y-5270975D02*
X23874500Y-5270975D01*
X24004500Y-5400975D02*
X23874500Y-5400975D01*
X23874500Y-5270975D02*
G75*
G03*
X23874500Y-5400975I0J-65000D01*
G01*
X24004500Y-5400975D02*
G75*
G03*
X24004500Y-5270975I0J65000D01*
G01*
D12*
X23864500Y-6380975D02*
X24014500Y-6530975D01*
X24014500Y-6380975D02*
X23864500Y-6530975D01*
D11*
X24004500Y-6390975D02*
X23874500Y-6390975D01*
X24004500Y-6520975D02*
X23874500Y-6520975D01*
X23874500Y-6390975D02*
G75*
G03*
X23874500Y-6520975I0J-65000D01*
G01*
X24004500Y-6520975D02*
G75*
G03*
X24004500Y-6390975I0J65000D01*
G01*
D13*
X4469000Y-8277225D02*
G75*
G03*
X4469000Y-8277225I-87500J0D01*
G01*
X4945250Y-10182225D02*
G75*
G03*
X4945250Y-10182225I-87500J0D01*
G01*
X5421500Y-6372225D02*
G75*
G03*
X5421500Y-6372225I-87500J0D01*
G01*
X5485000Y-8277225D02*
G75*
G03*
X5485000Y-8277225I-87500J0D01*
G01*
X5897750Y-12087225D02*
G75*
G03*
X5897750Y-12087225I-87500J0D01*
G01*
X5961250Y-10182225D02*
G75*
G03*
X5961250Y-10182225I-87500J0D01*
G01*
X6374000Y-8277225D02*
G75*
G03*
X6374000Y-8277225I-87500J0D01*
G01*
X6374000Y-13992225D02*
G75*
G03*
X6374000Y-13992225I-87500J0D01*
G01*
X6437500Y-6372225D02*
G75*
G03*
X6437500Y-6372225I-87500J0D01*
G01*
X6850250Y-10182225D02*
G75*
G03*
X6850250Y-10182225I-87500J0D01*
G01*
X6913750Y-12087225D02*
G75*
G03*
X6913750Y-12087225I-87500J0D01*
G01*
X7326500Y-6372225D02*
G75*
G03*
X7326500Y-6372225I-87500J0D01*
G01*
X7390000Y-8277225D02*
G75*
G03*
X7390000Y-8277225I-87500J0D01*
G01*
X7390000Y-13992225D02*
G75*
G03*
X7390000Y-13992225I-87500J0D01*
G01*
X7802750Y-12087225D02*
G75*
G03*
X7802750Y-12087225I-87500J0D01*
G01*
X7866250Y-10182225D02*
G75*
G03*
X7866250Y-10182225I-87500J0D01*
G01*
X8279000Y-8277225D02*
G75*
G03*
X8279000Y-8277225I-87500J0D01*
G01*
X8342500Y-6372225D02*
G75*
G03*
X8342500Y-6372225I-87500J0D01*
G01*
X8755250Y-10182225D02*
G75*
G03*
X8755250Y-10182225I-87500J0D01*
G01*
X8818750Y-12087225D02*
G75*
G03*
X8818750Y-12087225I-87500J0D01*
G01*
X8993375Y-13992225D02*
G75*
G03*
X8993375Y-13992225I-87500J0D01*
G01*
X9231500Y-6372225D02*
G75*
G03*
X9231500Y-6372225I-87500J0D01*
G01*
X9295000Y-8277225D02*
G75*
G03*
X9295000Y-8277225I-87500J0D01*
G01*
X9707750Y-12087225D02*
G75*
G03*
X9707750Y-12087225I-87500J0D01*
G01*
X9771250Y-10182225D02*
G75*
G03*
X9771250Y-10182225I-87500J0D01*
G01*
X10009375Y-13992225D02*
G75*
G03*
X10009375Y-13992225I-87500J0D01*
G01*
X10184000Y-8277225D02*
G75*
G03*
X10184000Y-8277225I-87500J0D01*
G01*
X10247500Y-6372225D02*
G75*
G03*
X10247500Y-6372225I-87500J0D01*
G01*
X10660250Y-10182225D02*
G75*
G03*
X10660250Y-10182225I-87500J0D01*
G01*
X10723750Y-12087225D02*
G75*
G03*
X10723750Y-12087225I-87500J0D01*
G01*
X11136500Y-6372225D02*
G75*
G03*
X11136500Y-6372225I-87500J0D01*
G01*
X11200000Y-8277225D02*
G75*
G03*
X11200000Y-8277225I-87500J0D01*
G01*
X11374625Y-13992225D02*
G75*
G03*
X11374625Y-13992225I-87500J0D01*
G01*
X11612750Y-12087225D02*
G75*
G03*
X11612750Y-12087225I-87500J0D01*
G01*
X11676250Y-10182225D02*
G75*
G03*
X11676250Y-10182225I-87500J0D01*
G01*
X12089000Y-8277225D02*
G75*
G03*
X12089000Y-8277225I-87500J0D01*
G01*
X12152500Y-6372225D02*
G75*
G03*
X12152500Y-6372225I-87500J0D01*
G01*
X12390625Y-13992225D02*
G75*
G03*
X12390625Y-13992225I-87500J0D01*
G01*
X12565250Y-10182225D02*
G75*
G03*
X12565250Y-10182225I-87500J0D01*
G01*
X12628750Y-12087225D02*
G75*
G03*
X12628750Y-12087225I-87500J0D01*
G01*
X13041500Y-6372225D02*
G75*
G03*
X13041500Y-6372225I-87500J0D01*
G01*
X13105000Y-8277225D02*
G75*
G03*
X13105000Y-8277225I-87500J0D01*
G01*
X13517750Y-12087225D02*
G75*
G03*
X13517750Y-12087225I-87500J0D01*
G01*
X13581250Y-10182225D02*
G75*
G03*
X13581250Y-10182225I-87500J0D01*
G01*
X13755875Y-13992225D02*
G75*
G03*
X13755875Y-13992225I-87500J0D01*
G01*
X13994000Y-8277225D02*
G75*
G03*
X13994000Y-8277225I-87500J0D01*
G01*
X14057500Y-6372225D02*
G75*
G03*
X14057500Y-6372225I-87500J0D01*
G01*
X14470250Y-10182225D02*
G75*
G03*
X14470250Y-10182225I-87500J0D01*
G01*
X14533750Y-12087225D02*
G75*
G03*
X14533750Y-12087225I-87500J0D01*
G01*
X14771875Y-13992225D02*
G75*
G03*
X14771875Y-13992225I-87500J0D01*
G01*
X14946500Y-6372225D02*
G75*
G03*
X14946500Y-6372225I-87500J0D01*
G01*
X15010000Y-8277225D02*
G75*
G03*
X15010000Y-8277225I-87500J0D01*
G01*
X15486250Y-10182225D02*
G75*
G03*
X15486250Y-10182225I-87500J0D01*
G01*
X15899000Y-8277225D02*
G75*
G03*
X15899000Y-8277225I-87500J0D01*
G01*
X15962500Y-6372225D02*
G75*
G03*
X15962500Y-6372225I-87500J0D01*
G01*
X16137125Y-13992225D02*
G75*
G03*
X16137125Y-13992225I-87500J0D01*
G01*
X16915000Y-8277225D02*
G75*
G03*
X16915000Y-8277225I-87500J0D01*
G01*
X17089625Y-12087225D02*
G75*
G03*
X17089625Y-12087225I-87500J0D01*
G01*
X17153125Y-13992225D02*
G75*
G03*
X17153125Y-13992225I-87500J0D01*
G01*
X17565875Y-10182225D02*
G75*
G03*
X17565875Y-10182225I-87500J0D01*
G01*
X17804000Y-6372225D02*
G75*
G03*
X17804000Y-6372225I-87500J0D01*
G01*
X18105625Y-12087225D02*
G75*
G03*
X18105625Y-12087225I-87500J0D01*
G01*
X18280250Y-8277225D02*
G75*
G03*
X18280250Y-8277225I-87500J0D01*
G01*
X18581875Y-10182225D02*
G75*
G03*
X18581875Y-10182225I-87500J0D01*
G01*
X18820000Y-6372225D02*
G75*
G03*
X18820000Y-6372225I-87500J0D01*
G01*
X19232750Y-14468475D02*
G75*
G03*
X19232750Y-14468475I-87500J0D01*
G01*
X19296250Y-8277225D02*
G75*
G03*
X19296250Y-8277225I-87500J0D01*
G01*
X20248750Y-14468475D02*
G75*
G03*
X20248750Y-14468475I-87500J0D01*
G01*
X21137750Y-5895975D02*
G75*
G03*
X21137750Y-5895975I-87500J0D01*
G01*
X21137750Y-8277225D02*
G75*
G03*
X21137750Y-8277225I-87500J0D01*
G01*
X21137750Y-10182225D02*
G75*
G03*
X21137750Y-10182225I-87500J0D01*
G01*
X21137750Y-12563475D02*
G75*
G03*
X21137750Y-12563475I-87500J0D01*
G01*
X21137750Y-14468475D02*
G75*
G03*
X21137750Y-14468475I-87500J0D01*
G01*
X22153750Y-5895975D02*
G75*
G03*
X22153750Y-5895975I-87500J0D01*
G01*
X22153750Y-8277225D02*
G75*
G03*
X22153750Y-8277225I-87500J0D01*
G01*
X22153750Y-10182225D02*
G75*
G03*
X22153750Y-10182225I-87500J0D01*
G01*
X22153750Y-12563475D02*
G75*
G03*
X22153750Y-12563475I-87500J0D01*
G01*
X22153750Y-14468475D02*
G75*
G03*
X22153750Y-14468475I-87500J0D01*
G01*
X23042750Y-8277225D02*
G75*
G03*
X23042750Y-8277225I-87500J0D01*
G01*
X23042750Y-10182225D02*
G75*
G03*
X23042750Y-10182225I-87500J0D01*
G01*
X23042750Y-14468475D02*
G75*
G03*
X23042750Y-14468475I-87500J0D01*
G01*
X24058750Y-8277225D02*
G75*
G03*
X24058750Y-8277225I-87500J0D01*
G01*
X24058750Y-10182225D02*
G75*
G03*
X24058750Y-10182225I-87500J0D01*
G01*
X24058750Y-14468475D02*
G75*
G03*
X24058750Y-14468475I-87500J0D01*
G01*
D14*
X4508500Y-7873225D02*
X4508500Y-8173225D01*
X4358500Y-8023225D02*
X4658500Y-8023225D01*
X4984750Y-9778225D02*
X4984750Y-10078225D01*
X4834750Y-9928225D02*
X5134750Y-9928225D01*
X5143500Y-7619225D02*
X5143500Y-7919225D01*
X4993500Y-7769225D02*
X5293500Y-7769225D01*
X5461000Y-5968225D02*
X5461000Y-6268225D01*
X5311000Y-6118225D02*
X5611000Y-6118225D01*
X5619750Y-9524225D02*
X5619750Y-9824225D01*
X5469750Y-9674225D02*
X5769750Y-9674225D01*
X5937250Y-11683225D02*
X5937250Y-11983225D01*
X5787250Y-11833225D02*
X6087250Y-11833225D01*
X6096000Y-5714225D02*
X6096000Y-6014225D01*
X5946000Y-5864225D02*
X6246000Y-5864225D01*
X6413500Y-7873225D02*
X6413500Y-8173225D01*
X6263500Y-8023225D02*
X6563500Y-8023225D01*
X6413500Y-13588225D02*
X6413500Y-13888225D01*
X6263500Y-13738225D02*
X6563500Y-13738225D01*
X6572250Y-11429225D02*
X6572250Y-11729225D01*
X6422250Y-11579225D02*
X6722250Y-11579225D01*
X6889750Y-9778225D02*
X6889750Y-10078225D01*
X6739750Y-9928225D02*
X7039750Y-9928225D01*
X7048500Y-7619225D02*
X7048500Y-7919225D01*
X6898500Y-7769225D02*
X7198500Y-7769225D01*
X7048500Y-13334225D02*
X7048500Y-13634225D01*
X6898500Y-13484225D02*
X7198500Y-13484225D01*
X7366000Y-5968225D02*
X7366000Y-6268225D01*
X7216000Y-6118225D02*
X7516000Y-6118225D01*
X7524750Y-9524225D02*
X7524750Y-9824225D01*
X7374750Y-9674225D02*
X7674750Y-9674225D01*
X7842250Y-11683225D02*
X7842250Y-11983225D01*
X7692250Y-11833225D02*
X7992250Y-11833225D01*
X8001000Y-5714225D02*
X8001000Y-6014225D01*
X7851000Y-5864225D02*
X8151000Y-5864225D01*
X8318500Y-7873225D02*
X8318500Y-8173225D01*
X8168500Y-8023225D02*
X8468500Y-8023225D01*
X8477250Y-11429225D02*
X8477250Y-11729225D01*
X8327250Y-11579225D02*
X8627250Y-11579225D01*
X8794750Y-9778225D02*
X8794750Y-10078225D01*
X8644750Y-9928225D02*
X8944750Y-9928225D01*
X8953500Y-7619225D02*
X8953500Y-7919225D01*
X8803500Y-7769225D02*
X9103500Y-7769225D01*
X9032875Y-13588225D02*
X9032875Y-13888225D01*
X8882875Y-13738225D02*
X9182875Y-13738225D01*
X9271000Y-5968225D02*
X9271000Y-6268225D01*
X9121000Y-6118225D02*
X9421000Y-6118225D01*
X9429750Y-9524225D02*
X9429750Y-9824225D01*
X9279750Y-9674225D02*
X9579750Y-9674225D01*
X9667875Y-13334225D02*
X9667875Y-13634225D01*
X9517875Y-13484225D02*
X9817875Y-13484225D01*
X9747250Y-11683225D02*
X9747250Y-11983225D01*
X9597250Y-11833225D02*
X9897250Y-11833225D01*
X9906000Y-5714225D02*
X9906000Y-6014225D01*
X9756000Y-5864225D02*
X10056000Y-5864225D01*
X10223500Y-7873225D02*
X10223500Y-8173225D01*
X10073500Y-8023225D02*
X10373500Y-8023225D01*
X10382250Y-11429225D02*
X10382250Y-11729225D01*
X10232250Y-11579225D02*
X10532250Y-11579225D01*
X10699750Y-9778225D02*
X10699750Y-10078225D01*
X10549750Y-9928225D02*
X10849750Y-9928225D01*
X10858500Y-7619225D02*
X10858500Y-7919225D01*
X10708500Y-7769225D02*
X11008500Y-7769225D01*
X11176000Y-5968225D02*
X11176000Y-6268225D01*
X11026000Y-6118225D02*
X11326000Y-6118225D01*
X11334750Y-9524225D02*
X11334750Y-9824225D01*
X11184750Y-9674225D02*
X11484750Y-9674225D01*
X11414125Y-13588225D02*
X11414125Y-13888225D01*
X11264125Y-13738225D02*
X11564125Y-13738225D01*
X11652250Y-11683225D02*
X11652250Y-11983225D01*
X11502250Y-11833225D02*
X11802250Y-11833225D01*
X11811000Y-5714225D02*
X11811000Y-6014225D01*
X11661000Y-5864225D02*
X11961000Y-5864225D01*
X12049125Y-13334225D02*
X12049125Y-13634225D01*
X11899125Y-13484225D02*
X12199125Y-13484225D01*
X12128500Y-7873225D02*
X12128500Y-8173225D01*
X11978500Y-8023225D02*
X12278500Y-8023225D01*
X12287250Y-11429225D02*
X12287250Y-11729225D01*
X12137250Y-11579225D02*
X12437250Y-11579225D01*
X12604750Y-9778225D02*
X12604750Y-10078225D01*
X12454750Y-9928225D02*
X12754750Y-9928225D01*
X12763500Y-7619225D02*
X12763500Y-7919225D01*
X12613500Y-7769225D02*
X12913500Y-7769225D01*
X13081000Y-5968225D02*
X13081000Y-6268225D01*
X12931000Y-6118225D02*
X13231000Y-6118225D01*
X13239750Y-9524225D02*
X13239750Y-9824225D01*
X13089750Y-9674225D02*
X13389750Y-9674225D01*
X13557250Y-11683225D02*
X13557250Y-11983225D01*
X13407250Y-11833225D02*
X13707250Y-11833225D01*
X13716000Y-5714225D02*
X13716000Y-6014225D01*
X13566000Y-5864225D02*
X13866000Y-5864225D01*
X13795375Y-13588225D02*
X13795375Y-13888225D01*
X13645375Y-13738225D02*
X13945375Y-13738225D01*
X14033500Y-7873225D02*
X14033500Y-8173225D01*
X13883500Y-8023225D02*
X14183500Y-8023225D01*
X14192250Y-11429225D02*
X14192250Y-11729225D01*
X14042250Y-11579225D02*
X14342250Y-11579225D01*
X14430375Y-13334225D02*
X14430375Y-13634225D01*
X14280375Y-13484225D02*
X14580375Y-13484225D01*
X14509750Y-9778225D02*
X14509750Y-10078225D01*
X14359750Y-9928225D02*
X14659750Y-9928225D01*
X14668500Y-7619225D02*
X14668500Y-7919225D01*
X14518500Y-7769225D02*
X14818500Y-7769225D01*
X14986000Y-5968225D02*
X14986000Y-6268225D01*
X14836000Y-6118225D02*
X15136000Y-6118225D01*
X15144750Y-9524225D02*
X15144750Y-9824225D01*
X14994750Y-9674225D02*
X15294750Y-9674225D01*
X15621000Y-5714225D02*
X15621000Y-6014225D01*
X15471000Y-5864225D02*
X15771000Y-5864225D01*
X15938500Y-7873225D02*
X15938500Y-8173225D01*
X15788500Y-8023225D02*
X16088500Y-8023225D01*
X16176625Y-13588225D02*
X16176625Y-13888225D01*
X16026625Y-13738225D02*
X16326625Y-13738225D01*
X16573500Y-7619225D02*
X16573500Y-7919225D01*
X16423500Y-7769225D02*
X16723500Y-7769225D01*
X16811625Y-13334225D02*
X16811625Y-13634225D01*
X16661625Y-13484225D02*
X16961625Y-13484225D01*
X17129125Y-11683225D02*
X17129125Y-11983225D01*
X16979125Y-11833225D02*
X17279125Y-11833225D01*
X17605375Y-9778225D02*
X17605375Y-10078225D01*
X17455375Y-9928225D02*
X17755375Y-9928225D01*
X17764125Y-11429225D02*
X17764125Y-11729225D01*
X17614125Y-11579225D02*
X17914125Y-11579225D01*
X17843500Y-5968225D02*
X17843500Y-6268225D01*
X17693500Y-6118225D02*
X17993500Y-6118225D01*
X18240375Y-9524225D02*
X18240375Y-9824225D01*
X18090375Y-9674225D02*
X18390375Y-9674225D01*
X18319750Y-7873225D02*
X18319750Y-8173225D01*
X18169750Y-8023225D02*
X18469750Y-8023225D01*
X18478500Y-5714225D02*
X18478500Y-6014225D01*
X18328500Y-5864225D02*
X18628500Y-5864225D01*
X18954750Y-7619225D02*
X18954750Y-7919225D01*
X18804750Y-7769225D02*
X19104750Y-7769225D01*
X19272250Y-14064475D02*
X19272250Y-14364475D01*
X19122250Y-14214475D02*
X19422250Y-14214475D01*
X19907250Y-13810475D02*
X19907250Y-14110475D01*
X19757250Y-13960475D02*
X20057250Y-13960475D01*
X21177250Y-5491975D02*
X21177250Y-5791975D01*
X21027250Y-5641975D02*
X21327250Y-5641975D01*
X21177250Y-7873225D02*
X21177250Y-8173225D01*
X21027250Y-8023225D02*
X21327250Y-8023225D01*
X21177250Y-9778225D02*
X21177250Y-10078225D01*
X21027250Y-9928225D02*
X21327250Y-9928225D01*
X21177250Y-12159475D02*
X21177250Y-12459475D01*
X21027250Y-12309475D02*
X21327250Y-12309475D01*
X21177250Y-14064475D02*
X21177250Y-14364475D01*
X21027250Y-14214475D02*
X21327250Y-14214475D01*
X21812250Y-5237975D02*
X21812250Y-5537975D01*
X21662250Y-5387975D02*
X21962250Y-5387975D01*
X21812250Y-7619225D02*
X21812250Y-7919225D01*
X21662250Y-7769225D02*
X21962250Y-7769225D01*
X21812250Y-9524225D02*
X21812250Y-9824225D01*
X21662250Y-9674225D02*
X21962250Y-9674225D01*
X21812250Y-11905475D02*
X21812250Y-12205475D01*
X21662250Y-12055475D02*
X21962250Y-12055475D01*
X21812250Y-13810475D02*
X21812250Y-14110475D01*
X21662250Y-13960475D02*
X21962250Y-13960475D01*
X23082250Y-7873225D02*
X23082250Y-8173225D01*
X22932250Y-8023225D02*
X23232250Y-8023225D01*
X23082250Y-9778225D02*
X23082250Y-10078225D01*
X22932250Y-9928225D02*
X23232250Y-9928225D01*
X23082250Y-14064475D02*
X23082250Y-14364475D01*
X22932250Y-14214475D02*
X23232250Y-14214475D01*
X23717250Y-7619225D02*
X23717250Y-7919225D01*
X23567250Y-7769225D02*
X23867250Y-7769225D01*
X23717250Y-9524225D02*
X23717250Y-9824225D01*
X23567250Y-9674225D02*
X23867250Y-9674225D01*
X23717250Y-13810475D02*
X23717250Y-14110475D01*
X23567250Y-13960475D02*
X23867250Y-13960475D01*
D15*
X16424089Y-11496489D02*
X16424089Y-11280961D01*
X16208561Y-11280961D01*
X16208561Y-11496489D01*
X16424089Y-11496489D01*
X16900339Y-9591489D02*
X16900339Y-9375961D01*
X16684811Y-9375961D01*
X16684811Y-9591489D01*
X16900339Y-9591489D01*
X17138464Y-5781489D02*
X17138464Y-5565961D01*
X16922936Y-5565961D01*
X16922936Y-5781489D01*
X17138464Y-5781489D01*
X18811689Y-11496489D02*
X18811689Y-11280961D01*
X18596161Y-11280961D01*
X18596161Y-11496489D01*
X18811689Y-11496489D01*
X19287939Y-9591489D02*
X19287939Y-9375961D01*
X19072411Y-9375961D01*
X19072411Y-9591489D01*
X19287939Y-9591489D01*
X19526064Y-5781489D02*
X19526064Y-5565961D01*
X19310536Y-5565961D01*
X19310536Y-5781489D01*
X19526064Y-5781489D01*
D16*
X4889500Y-8476615D02*
X5088890Y-8277225D01*
X4889500Y-8077835D01*
X4690110Y-8277225D01*
X4889500Y-8476615D01*
X5365750Y-10381615D02*
X5565140Y-10182225D01*
X5365750Y-9982835D01*
X5166360Y-10182225D01*
X5365750Y-10381615D01*
X5842000Y-6571615D02*
X6041390Y-6372225D01*
X5842000Y-6172835D01*
X5642610Y-6372225D01*
X5842000Y-6571615D01*
X6318250Y-12286615D02*
X6517640Y-12087225D01*
X6318250Y-11887835D01*
X6118860Y-12087225D01*
X6318250Y-12286615D01*
X6794500Y-8476615D02*
X6993890Y-8277225D01*
X6794500Y-8077835D01*
X6595110Y-8277225D01*
X6794500Y-8476615D01*
X6794500Y-14191615D02*
X6993890Y-13992225D01*
X6794500Y-13792835D01*
X6595110Y-13992225D01*
X6794500Y-14191615D01*
X7270750Y-10381615D02*
X7470140Y-10182225D01*
X7270750Y-9982835D01*
X7071360Y-10182225D01*
X7270750Y-10381615D01*
X7747000Y-6571615D02*
X7946390Y-6372225D01*
X7747000Y-6172835D01*
X7547610Y-6372225D01*
X7747000Y-6571615D01*
X8223250Y-12286615D02*
X8422640Y-12087225D01*
X8223250Y-11887835D01*
X8023860Y-12087225D01*
X8223250Y-12286615D01*
X8699500Y-8476615D02*
X8898890Y-8277225D01*
X8699500Y-8077835D01*
X8500110Y-8277225D01*
X8699500Y-8476615D01*
X9175750Y-10381615D02*
X9375140Y-10182225D01*
X9175750Y-9982835D01*
X8976360Y-10182225D01*
X9175750Y-10381615D01*
X9413875Y-14191615D02*
X9613265Y-13992225D01*
X9413875Y-13792835D01*
X9214485Y-13992225D01*
X9413875Y-14191615D01*
X9652000Y-6571615D02*
X9851390Y-6372225D01*
X9652000Y-6172835D01*
X9452610Y-6372225D01*
X9652000Y-6571615D01*
X10128250Y-12286615D02*
X10327640Y-12087225D01*
X10128250Y-11887835D01*
X9928860Y-12087225D01*
X10128250Y-12286615D01*
X10604500Y-8476615D02*
X10803890Y-8277225D01*
X10604500Y-8077835D01*
X10405110Y-8277225D01*
X10604500Y-8476615D01*
X11080750Y-10381615D02*
X11280140Y-10182225D01*
X11080750Y-9982835D01*
X10881360Y-10182225D01*
X11080750Y-10381615D01*
X11557000Y-6571615D02*
X11756390Y-6372225D01*
X11557000Y-6172835D01*
X11357610Y-6372225D01*
X11557000Y-6571615D01*
X11795125Y-14191615D02*
X11994515Y-13992225D01*
X11795125Y-13792835D01*
X11595735Y-13992225D01*
X11795125Y-14191615D01*
X12033250Y-12286615D02*
X12232640Y-12087225D01*
X12033250Y-11887835D01*
X11833860Y-12087225D01*
X12033250Y-12286615D01*
X12509500Y-8476615D02*
X12708890Y-8277225D01*
X12509500Y-8077835D01*
X12310110Y-8277225D01*
X12509500Y-8476615D01*
X12985750Y-10381615D02*
X13185140Y-10182225D01*
X12985750Y-9982835D01*
X12786360Y-10182225D01*
X12985750Y-10381615D01*
X13462000Y-6571615D02*
X13661390Y-6372225D01*
X13462000Y-6172835D01*
X13262610Y-6372225D01*
X13462000Y-6571615D01*
X13938250Y-12286615D02*
X14137640Y-12087225D01*
X13938250Y-11887835D01*
X13738860Y-12087225D01*
X13938250Y-12286615D01*
X14176375Y-14191615D02*
X14375765Y-13992225D01*
X14176375Y-13792835D01*
X13976985Y-13992225D01*
X14176375Y-14191615D01*
X14414500Y-8476615D02*
X14613890Y-8277225D01*
X14414500Y-8077835D01*
X14215110Y-8277225D01*
X14414500Y-8476615D01*
X14890750Y-10381615D02*
X15090140Y-10182225D01*
X14890750Y-9982835D01*
X14691360Y-10182225D01*
X14890750Y-10381615D01*
X15367000Y-6571615D02*
X15566390Y-6372225D01*
X15367000Y-6172835D01*
X15167610Y-6372225D01*
X15367000Y-6571615D01*
X16316325Y-13112115D02*
X16515715Y-12912725D01*
X16316325Y-12713335D01*
X16116935Y-12912725D01*
X16316325Y-13112115D01*
X16319500Y-8476615D02*
X16518890Y-8277225D01*
X16319500Y-8077835D01*
X16120110Y-8277225D01*
X16319500Y-8476615D01*
X16557625Y-14191615D02*
X16757015Y-13992225D01*
X16557625Y-13792835D01*
X16358235Y-13992225D01*
X16557625Y-14191615D01*
X16792575Y-11207115D02*
X16991965Y-11007725D01*
X16792575Y-10808335D01*
X16593185Y-11007725D01*
X16792575Y-11207115D01*
X17030700Y-7397115D02*
X17230090Y-7197725D01*
X17030700Y-6998335D01*
X16831310Y-7197725D01*
X17030700Y-7397115D01*
X17510125Y-12286615D02*
X17709515Y-12087225D01*
X17510125Y-11887835D01*
X17310735Y-12087225D01*
X17510125Y-12286615D01*
X17986375Y-10381615D02*
X18185765Y-10182225D01*
X17986375Y-9982835D01*
X17786985Y-10182225D01*
X17986375Y-10381615D01*
X18224500Y-6571615D02*
X18423890Y-6372225D01*
X18224500Y-6172835D01*
X18025110Y-6372225D01*
X18224500Y-6571615D01*
X18700750Y-8476615D02*
X18900140Y-8277225D01*
X18700750Y-8077835D01*
X18501360Y-8277225D01*
X18700750Y-8476615D01*
X18703925Y-13112115D02*
X18903315Y-12912725D01*
X18703925Y-12713335D01*
X18504535Y-12912725D01*
X18703925Y-13112115D01*
X19180175Y-11207115D02*
X19379565Y-11007725D01*
X19180175Y-10808335D01*
X18980785Y-11007725D01*
X19180175Y-11207115D01*
X19418300Y-7397115D02*
X19617690Y-7197725D01*
X19418300Y-6998335D01*
X19218910Y-7197725D01*
X19418300Y-7397115D01*
X19653250Y-14667865D02*
X19852640Y-14468475D01*
X19653250Y-14269085D01*
X19453860Y-14468475D01*
X19653250Y-14667865D01*
X21558250Y-6095365D02*
X21757640Y-5895975D01*
X21558250Y-5696585D01*
X21358860Y-5895975D01*
X21558250Y-6095365D01*
X21558250Y-8476615D02*
X21757640Y-8277225D01*
X21558250Y-8077835D01*
X21358860Y-8277225D01*
X21558250Y-8476615D01*
X21558250Y-10381615D02*
X21757640Y-10182225D01*
X21558250Y-9982835D01*
X21358860Y-10182225D01*
X21558250Y-10381615D01*
X21558250Y-12762865D02*
X21757640Y-12563475D01*
X21558250Y-12364085D01*
X21358860Y-12563475D01*
X21558250Y-12762865D01*
X21558250Y-14667865D02*
X21757640Y-14468475D01*
X21558250Y-14269085D01*
X21358860Y-14468475D01*
X21558250Y-14667865D01*
X23463250Y-8476615D02*
X23662640Y-8277225D01*
X23463250Y-8077835D01*
X23263860Y-8277225D01*
X23463250Y-8476615D01*
X23463250Y-10381615D02*
X23662640Y-10182225D01*
X23463250Y-9982835D01*
X23263860Y-10182225D01*
X23463250Y-10381615D01*
X23463250Y-14667865D02*
X23662640Y-14468475D01*
X23463250Y-14269085D01*
X23263860Y-14468475D01*
X23463250Y-14667865D01*
D11*
X4268968Y-15657076D02*
X4268968Y-15457076D01*
X4316587Y-15457076D01*
X4345159Y-15466600D01*
X4364206Y-15485648D01*
X4373730Y-15504695D01*
X4383254Y-15542790D01*
X4383254Y-15571362D01*
X4373730Y-15609457D01*
X4364206Y-15628505D01*
X4345159Y-15647552D01*
X4316587Y-15657076D01*
X4268968Y-15657076D01*
X4468968Y-15657076D02*
X4468968Y-15523743D01*
X4468968Y-15561838D02*
X4478492Y-15542790D01*
X4488016Y-15533267D01*
X4507063Y-15523743D01*
X4526111Y-15523743D01*
X4592778Y-15657076D02*
X4592778Y-15523743D01*
X4592778Y-15457076D02*
X4583254Y-15466600D01*
X4592778Y-15476124D01*
X4602301Y-15466600D01*
X4592778Y-15457076D01*
X4592778Y-15476124D01*
X4716587Y-15657076D02*
X4697539Y-15647552D01*
X4688016Y-15628505D01*
X4688016Y-15457076D01*
X4821349Y-15657076D02*
X4802301Y-15647552D01*
X4792778Y-15628505D01*
X4792778Y-15457076D01*
X5049920Y-15657076D02*
X5049920Y-15457076D01*
X5116587Y-15599933D01*
X5183254Y-15457076D01*
X5183254Y-15657076D01*
X5364206Y-15657076D02*
X5364206Y-15552314D01*
X5354682Y-15533267D01*
X5335635Y-15523743D01*
X5297539Y-15523743D01*
X5278492Y-15533267D01*
X5364206Y-15647552D02*
X5345159Y-15657076D01*
X5297539Y-15657076D01*
X5278492Y-15647552D01*
X5268968Y-15628505D01*
X5268968Y-15609457D01*
X5278492Y-15590409D01*
X5297539Y-15580886D01*
X5345159Y-15580886D01*
X5364206Y-15571362D01*
X5459444Y-15523743D02*
X5459444Y-15723743D01*
X5459444Y-15533267D02*
X5478492Y-15523743D01*
X5516587Y-15523743D01*
X5535635Y-15533267D01*
X5545159Y-15542790D01*
X5554682Y-15561838D01*
X5554682Y-15618981D01*
X5545159Y-15638028D01*
X5535635Y-15647552D01*
X5516587Y-15657076D01*
X5478492Y-15657076D01*
X5459444Y-15647552D01*
X5640397Y-15638028D02*
X5649920Y-15647552D01*
X5640397Y-15657076D01*
X5630873Y-15647552D01*
X5640397Y-15638028D01*
X5640397Y-15657076D01*
X5640397Y-15533267D02*
X5649920Y-15542790D01*
X5640397Y-15552314D01*
X5630873Y-15542790D01*
X5640397Y-15533267D01*
X5640397Y-15552314D01*
D12*
X3861349Y-15911600D02*
X4011349Y-16061600D01*
X4011349Y-15911600D02*
X3861349Y-16061600D01*
D11*
X4373730Y-16077076D02*
X4259444Y-16077076D01*
X4316587Y-16077076D02*
X4316587Y-15877076D01*
X4297539Y-15905648D01*
X4278492Y-15924695D01*
X4259444Y-15934219D01*
X4459444Y-16058028D02*
X4468968Y-16067552D01*
X4459444Y-16077076D01*
X4449920Y-16067552D01*
X4459444Y-16058028D01*
X4459444Y-16077076D01*
X4649920Y-15877076D02*
X4554682Y-15877076D01*
X4545159Y-15972314D01*
X4554682Y-15962790D01*
X4573730Y-15953267D01*
X4621349Y-15953267D01*
X4640397Y-15962790D01*
X4649920Y-15972314D01*
X4659444Y-15991362D01*
X4659444Y-16038981D01*
X4649920Y-16058028D01*
X4640397Y-16067552D01*
X4621349Y-16077076D01*
X4573730Y-16077076D01*
X4554682Y-16067552D01*
X4545159Y-16058028D01*
X4783254Y-15877076D02*
X4802301Y-15877076D01*
X4821349Y-15886600D01*
X4830873Y-15896124D01*
X4840397Y-15915171D01*
X4849920Y-15953267D01*
X4849920Y-16000886D01*
X4840397Y-16038981D01*
X4830873Y-16058028D01*
X4821349Y-16067552D01*
X4802301Y-16077076D01*
X4783254Y-16077076D01*
X4764206Y-16067552D01*
X4754682Y-16058028D01*
X4745159Y-16038981D01*
X4735635Y-16000886D01*
X4735635Y-15953267D01*
X4745159Y-15915171D01*
X4754682Y-15896124D01*
X4764206Y-15886600D01*
X4783254Y-15877076D01*
X4973730Y-15877076D02*
X4992778Y-15877076D01*
X5011825Y-15886600D01*
X5021349Y-15896124D01*
X5030873Y-15915171D01*
X5040397Y-15953267D01*
X5040397Y-16000886D01*
X5030873Y-16038981D01*
X5021349Y-16058028D01*
X5011825Y-16067552D01*
X4992778Y-16077076D01*
X4973730Y-16077076D01*
X4954682Y-16067552D01*
X4945159Y-16058028D01*
X4935635Y-16038981D01*
X4926111Y-16000886D01*
X4926111Y-15953267D01*
X4935635Y-15915171D01*
X4945159Y-15896124D01*
X4954682Y-15886600D01*
X4973730Y-15877076D01*
X5126111Y-16077076D02*
X5126111Y-15943743D01*
X5126111Y-15962790D02*
X5135635Y-15953267D01*
X5154682Y-15943743D01*
X5183254Y-15943743D01*
X5202301Y-15953267D01*
X5211825Y-15972314D01*
X5211825Y-16077076D01*
X5211825Y-15972314D02*
X5221349Y-15953267D01*
X5240397Y-15943743D01*
X5268968Y-15943743D01*
X5288016Y-15953267D01*
X5297539Y-15972314D01*
X5297539Y-16077076D01*
X5392778Y-16077076D02*
X5392778Y-15943743D01*
X5392778Y-15962790D02*
X5402301Y-15953267D01*
X5421349Y-15943743D01*
X5449920Y-15943743D01*
X5468968Y-15953267D01*
X5478492Y-15972314D01*
X5478492Y-16077076D01*
X5478492Y-15972314D02*
X5488016Y-15953267D01*
X5507063Y-15943743D01*
X5535635Y-15943743D01*
X5554682Y-15953267D01*
X5564206Y-15972314D01*
X5564206Y-16077076D01*
X5954682Y-15867552D02*
X5783254Y-16124695D01*
X6211825Y-15877076D02*
X6230873Y-15877076D01*
X6249920Y-15886600D01*
X6259444Y-15896124D01*
X6268968Y-15915171D01*
X6278492Y-15953267D01*
X6278492Y-16000886D01*
X6268968Y-16038981D01*
X6259444Y-16058028D01*
X6249920Y-16067552D01*
X6230873Y-16077076D01*
X6211825Y-16077076D01*
X6192777Y-16067552D01*
X6183254Y-16058028D01*
X6173730Y-16038981D01*
X6164206Y-16000886D01*
X6164206Y-15953267D01*
X6173730Y-15915171D01*
X6183254Y-15896124D01*
X6192777Y-15886600D01*
X6211825Y-15877076D01*
X6364206Y-16058028D02*
X6373730Y-16067552D01*
X6364206Y-16077076D01*
X6354682Y-16067552D01*
X6364206Y-16058028D01*
X6364206Y-16077076D01*
X6497539Y-15877076D02*
X6516587Y-15877076D01*
X6535635Y-15886600D01*
X6545158Y-15896124D01*
X6554682Y-15915171D01*
X6564206Y-15953267D01*
X6564206Y-16000886D01*
X6554682Y-16038981D01*
X6545158Y-16058028D01*
X6535635Y-16067552D01*
X6516587Y-16077076D01*
X6497539Y-16077076D01*
X6478492Y-16067552D01*
X6468968Y-16058028D01*
X6459444Y-16038981D01*
X6449920Y-16000886D01*
X6449920Y-15953267D01*
X6459444Y-15915171D01*
X6468968Y-15896124D01*
X6478492Y-15886600D01*
X6497539Y-15877076D01*
X6745158Y-15877076D02*
X6649920Y-15877076D01*
X6640397Y-15972314D01*
X6649920Y-15962790D01*
X6668968Y-15953267D01*
X6716587Y-15953267D01*
X6735635Y-15962790D01*
X6745158Y-15972314D01*
X6754682Y-15991362D01*
X6754682Y-16038981D01*
X6745158Y-16058028D01*
X6735635Y-16067552D01*
X6716587Y-16077076D01*
X6668968Y-16077076D01*
X6649920Y-16067552D01*
X6640397Y-16058028D01*
X6849920Y-16077076D02*
X6888016Y-16077076D01*
X6907063Y-16067552D01*
X6916587Y-16058028D01*
X6935635Y-16029457D01*
X6945158Y-15991362D01*
X6945158Y-15915171D01*
X6935635Y-15896124D01*
X6926111Y-15886600D01*
X6907063Y-15877076D01*
X6868968Y-15877076D01*
X6849920Y-15886600D01*
X6840397Y-15896124D01*
X6830873Y-15915171D01*
X6830873Y-15962790D01*
X6840397Y-15981838D01*
X6849920Y-15991362D01*
X6868968Y-16000886D01*
X6907063Y-16000886D01*
X6926111Y-15991362D01*
X6935635Y-15981838D01*
X6945158Y-15962790D01*
X7135635Y-16077076D02*
X7021349Y-16077076D01*
X7078492Y-16077076D02*
X7078492Y-15877076D01*
X7059444Y-15905648D01*
X7040397Y-15924695D01*
X7021349Y-15934219D01*
X7211825Y-15877076D02*
X7211825Y-15915171D01*
X7288016Y-15877076D02*
X7288016Y-15915171D01*
X7583254Y-16153267D02*
X7573730Y-16143743D01*
X7554682Y-16115171D01*
X7545158Y-16096124D01*
X7535635Y-16067552D01*
X7526111Y-16019933D01*
X7526111Y-15981838D01*
X7535635Y-15934219D01*
X7545158Y-15905648D01*
X7554682Y-15886600D01*
X7573730Y-15858028D01*
X7583254Y-15848505D01*
X7697539Y-15877076D02*
X7716587Y-15877076D01*
X7735635Y-15886600D01*
X7745158Y-15896124D01*
X7754682Y-15915171D01*
X7764206Y-15953267D01*
X7764206Y-16000886D01*
X7754682Y-16038981D01*
X7745158Y-16058028D01*
X7735635Y-16067552D01*
X7716587Y-16077076D01*
X7697539Y-16077076D01*
X7678492Y-16067552D01*
X7668968Y-16058028D01*
X7659444Y-16038981D01*
X7649920Y-16000886D01*
X7649920Y-15953267D01*
X7659444Y-15915171D01*
X7668968Y-15896124D01*
X7678492Y-15886600D01*
X7697539Y-15877076D01*
X8002301Y-16077076D02*
X8002301Y-15877076D01*
X8088016Y-16077076D02*
X8088016Y-15972314D01*
X8078492Y-15953267D01*
X8059444Y-15943743D01*
X8030873Y-15943743D01*
X8011825Y-15953267D01*
X8002301Y-15962790D01*
X8211825Y-16077076D02*
X8192777Y-16067552D01*
X8183254Y-16058028D01*
X8173730Y-16038981D01*
X8173730Y-15981838D01*
X8183254Y-15962790D01*
X8192777Y-15953267D01*
X8211825Y-15943743D01*
X8240397Y-15943743D01*
X8259444Y-15953267D01*
X8268968Y-15962790D01*
X8278492Y-15981838D01*
X8278492Y-16038981D01*
X8268968Y-16058028D01*
X8259444Y-16067552D01*
X8240397Y-16077076D01*
X8211825Y-16077076D01*
X8392778Y-16077076D02*
X8373730Y-16067552D01*
X8364206Y-16048505D01*
X8364206Y-15877076D01*
X8545159Y-16067552D02*
X8526111Y-16077076D01*
X8488016Y-16077076D01*
X8468968Y-16067552D01*
X8459444Y-16048505D01*
X8459444Y-15972314D01*
X8468968Y-15953267D01*
X8488016Y-15943743D01*
X8526111Y-15943743D01*
X8545159Y-15953267D01*
X8554682Y-15972314D01*
X8554682Y-15991362D01*
X8459444Y-16010409D01*
X8630873Y-16067552D02*
X8649920Y-16077076D01*
X8688016Y-16077076D01*
X8707063Y-16067552D01*
X8716587Y-16048505D01*
X8716587Y-16038981D01*
X8707063Y-16019933D01*
X8688016Y-16010409D01*
X8659444Y-16010409D01*
X8640397Y-16000886D01*
X8630873Y-15981838D01*
X8630873Y-15972314D01*
X8640397Y-15953267D01*
X8659444Y-15943743D01*
X8688016Y-15943743D01*
X8707063Y-15953267D01*
X8954682Y-16000886D02*
X9107063Y-16000886D01*
X9030873Y-16077076D02*
X9030873Y-15924695D01*
X9345159Y-15896124D02*
X9354682Y-15886600D01*
X9373730Y-15877076D01*
X9421349Y-15877076D01*
X9440397Y-15886600D01*
X9449920Y-15896124D01*
X9459444Y-15915171D01*
X9459444Y-15934219D01*
X9449920Y-15962790D01*
X9335635Y-16077076D01*
X9459444Y-16077076D01*
X9688016Y-16067552D02*
X9707063Y-16077076D01*
X9745159Y-16077076D01*
X9764206Y-16067552D01*
X9773730Y-16048505D01*
X9773730Y-16038981D01*
X9764206Y-16019933D01*
X9745159Y-16010409D01*
X9716587Y-16010409D01*
X9697539Y-16000886D01*
X9688016Y-15981838D01*
X9688016Y-15972314D01*
X9697539Y-15953267D01*
X9716587Y-15943743D01*
X9745159Y-15943743D01*
X9764206Y-15953267D01*
X9888016Y-16077076D02*
X9868968Y-16067552D01*
X9859444Y-16048505D01*
X9859444Y-15877076D01*
X9992778Y-16077076D02*
X9973730Y-16067552D01*
X9964206Y-16058028D01*
X9954682Y-16038981D01*
X9954682Y-15981838D01*
X9964206Y-15962790D01*
X9973730Y-15953267D01*
X9992778Y-15943743D01*
X10021349Y-15943743D01*
X10040397Y-15953267D01*
X10049920Y-15962790D01*
X10059444Y-15981838D01*
X10059444Y-16038981D01*
X10049920Y-16058028D01*
X10040397Y-16067552D01*
X10021349Y-16077076D01*
X9992778Y-16077076D01*
X10116587Y-15943743D02*
X10192778Y-15943743D01*
X10145159Y-15877076D02*
X10145159Y-16048505D01*
X10154682Y-16067552D01*
X10173730Y-16077076D01*
X10192778Y-16077076D01*
X10249920Y-16067552D02*
X10268968Y-16077076D01*
X10307063Y-16077076D01*
X10326111Y-16067552D01*
X10335635Y-16048505D01*
X10335635Y-16038981D01*
X10326111Y-16019933D01*
X10307063Y-16010409D01*
X10278492Y-16010409D01*
X10259444Y-16000886D01*
X10249920Y-15981838D01*
X10249920Y-15972314D01*
X10259444Y-15953267D01*
X10278492Y-15943743D01*
X10307063Y-15943743D01*
X10326111Y-15953267D01*
X10402301Y-16153267D02*
X10411825Y-16143743D01*
X10430873Y-16115171D01*
X10440397Y-16096124D01*
X10449920Y-16067552D01*
X10459444Y-16019933D01*
X10459444Y-15981838D01*
X10449920Y-15934219D01*
X10440397Y-15905648D01*
X10430873Y-15886600D01*
X10411825Y-15858028D01*
X10402301Y-15848505D01*
X10764206Y-16153267D02*
X10754682Y-16143743D01*
X10735635Y-16115171D01*
X10726111Y-16096124D01*
X10716587Y-16067552D01*
X10707063Y-16019933D01*
X10707063Y-15981838D01*
X10716587Y-15934219D01*
X10726111Y-15905648D01*
X10735635Y-15886600D01*
X10754682Y-15858028D01*
X10764206Y-15848505D01*
X10840397Y-15943743D02*
X10840397Y-16077076D01*
X10840397Y-15962790D02*
X10849920Y-15953267D01*
X10868968Y-15943743D01*
X10897539Y-15943743D01*
X10916587Y-15953267D01*
X10926111Y-15972314D01*
X10926111Y-16077076D01*
X11049920Y-16077076D02*
X11030873Y-16067552D01*
X11021349Y-16058028D01*
X11011825Y-16038981D01*
X11011825Y-15981838D01*
X11021349Y-15962790D01*
X11030873Y-15953267D01*
X11049920Y-15943743D01*
X11078492Y-15943743D01*
X11097539Y-15953267D01*
X11107063Y-15962790D01*
X11116587Y-15981838D01*
X11116587Y-16038981D01*
X11107063Y-16058028D01*
X11097539Y-16067552D01*
X11078492Y-16077076D01*
X11049920Y-16077076D01*
X11173730Y-15943743D02*
X11249920Y-15943743D01*
X11202301Y-15877076D02*
X11202301Y-16048505D01*
X11211825Y-16067552D01*
X11230873Y-16077076D01*
X11249920Y-16077076D01*
X11468968Y-15943743D02*
X11468968Y-16143743D01*
X11468968Y-15953267D02*
X11488016Y-15943743D01*
X11526111Y-15943743D01*
X11545158Y-15953267D01*
X11554682Y-15962790D01*
X11564206Y-15981838D01*
X11564206Y-16038981D01*
X11554682Y-16058028D01*
X11545158Y-16067552D01*
X11526111Y-16077076D01*
X11488016Y-16077076D01*
X11468968Y-16067552D01*
X11678492Y-16077076D02*
X11659444Y-16067552D01*
X11649920Y-16048505D01*
X11649920Y-15877076D01*
X11840397Y-16077076D02*
X11840397Y-15972314D01*
X11830873Y-15953267D01*
X11811825Y-15943743D01*
X11773730Y-15943743D01*
X11754682Y-15953267D01*
X11840397Y-16067552D02*
X11821349Y-16077076D01*
X11773730Y-16077076D01*
X11754682Y-16067552D01*
X11745158Y-16048505D01*
X11745158Y-16029457D01*
X11754682Y-16010409D01*
X11773730Y-16000886D01*
X11821349Y-16000886D01*
X11840397Y-15991362D01*
X11907063Y-15943743D02*
X11983254Y-15943743D01*
X11935635Y-15877076D02*
X11935635Y-16048505D01*
X11945158Y-16067552D01*
X11964206Y-16077076D01*
X11983254Y-16077076D01*
X12126111Y-16067552D02*
X12107063Y-16077076D01*
X12068968Y-16077076D01*
X12049920Y-16067552D01*
X12040397Y-16048505D01*
X12040397Y-15972314D01*
X12049920Y-15953267D01*
X12068968Y-15943743D01*
X12107063Y-15943743D01*
X12126111Y-15953267D01*
X12135635Y-15972314D01*
X12135635Y-15991362D01*
X12040397Y-16010409D01*
X12307063Y-16077076D02*
X12307063Y-15877076D01*
X12307063Y-16067552D02*
X12288016Y-16077076D01*
X12249920Y-16077076D01*
X12230873Y-16067552D01*
X12221349Y-16058028D01*
X12211825Y-16038981D01*
X12211825Y-15981838D01*
X12221349Y-15962790D01*
X12230873Y-15953267D01*
X12249920Y-15943743D01*
X12288016Y-15943743D01*
X12307063Y-15953267D01*
X12383254Y-16153267D02*
X12392777Y-16143743D01*
X12411825Y-16115171D01*
X12421349Y-16096124D01*
X12430873Y-16067552D01*
X12440397Y-16019933D01*
X12440397Y-15981838D01*
X12430873Y-15934219D01*
X12421349Y-15905648D01*
X12411825Y-15886600D01*
X12392777Y-15858028D01*
X12383254Y-15848505D01*
D13*
X4011349Y-16256600D02*
G75*
G03*
X4011349Y-16256600I-87500J0D01*
G01*
D11*
X4373730Y-16347076D02*
X4259444Y-16347076D01*
X4316587Y-16347076D02*
X4316587Y-16147076D01*
X4297539Y-16175648D01*
X4278492Y-16194695D01*
X4259444Y-16204219D01*
X4459444Y-16328028D02*
X4468968Y-16337552D01*
X4459444Y-16347076D01*
X4449920Y-16337552D01*
X4459444Y-16328028D01*
X4459444Y-16347076D01*
X4535635Y-16147076D02*
X4668968Y-16147076D01*
X4583254Y-16347076D01*
X4840397Y-16147076D02*
X4745159Y-16147076D01*
X4735635Y-16242314D01*
X4745159Y-16232790D01*
X4764206Y-16223267D01*
X4811825Y-16223267D01*
X4830873Y-16232790D01*
X4840397Y-16242314D01*
X4849920Y-16261362D01*
X4849920Y-16308981D01*
X4840397Y-16328028D01*
X4830873Y-16337552D01*
X4811825Y-16347076D01*
X4764206Y-16347076D01*
X4745159Y-16337552D01*
X4735635Y-16328028D01*
X4973730Y-16147076D02*
X4992778Y-16147076D01*
X5011825Y-16156600D01*
X5021349Y-16166124D01*
X5030873Y-16185171D01*
X5040397Y-16223267D01*
X5040397Y-16270886D01*
X5030873Y-16308981D01*
X5021349Y-16328028D01*
X5011825Y-16337552D01*
X4992778Y-16347076D01*
X4973730Y-16347076D01*
X4954682Y-16337552D01*
X4945159Y-16328028D01*
X4935635Y-16308981D01*
X4926111Y-16270886D01*
X4926111Y-16223267D01*
X4935635Y-16185171D01*
X4945159Y-16166124D01*
X4954682Y-16156600D01*
X4973730Y-16147076D01*
X5126111Y-16347076D02*
X5126111Y-16213743D01*
X5126111Y-16232790D02*
X5135635Y-16223267D01*
X5154682Y-16213743D01*
X5183254Y-16213743D01*
X5202301Y-16223267D01*
X5211825Y-16242314D01*
X5211825Y-16347076D01*
X5211825Y-16242314D02*
X5221349Y-16223267D01*
X5240397Y-16213743D01*
X5268968Y-16213743D01*
X5288016Y-16223267D01*
X5297539Y-16242314D01*
X5297539Y-16347076D01*
X5392778Y-16347076D02*
X5392778Y-16213743D01*
X5392778Y-16232790D02*
X5402301Y-16223267D01*
X5421349Y-16213743D01*
X5449920Y-16213743D01*
X5468968Y-16223267D01*
X5478492Y-16242314D01*
X5478492Y-16347076D01*
X5478492Y-16242314D02*
X5488016Y-16223267D01*
X5507063Y-16213743D01*
X5535635Y-16213743D01*
X5554682Y-16223267D01*
X5564206Y-16242314D01*
X5564206Y-16347076D01*
X5954682Y-16137552D02*
X5783254Y-16394695D01*
X6211825Y-16147076D02*
X6230873Y-16147076D01*
X6249920Y-16156600D01*
X6259444Y-16166124D01*
X6268968Y-16185171D01*
X6278492Y-16223267D01*
X6278492Y-16270886D01*
X6268968Y-16308981D01*
X6259444Y-16328028D01*
X6249920Y-16337552D01*
X6230873Y-16347076D01*
X6211825Y-16347076D01*
X6192777Y-16337552D01*
X6183254Y-16328028D01*
X6173730Y-16308981D01*
X6164206Y-16270886D01*
X6164206Y-16223267D01*
X6173730Y-16185171D01*
X6183254Y-16166124D01*
X6192777Y-16156600D01*
X6211825Y-16147076D01*
X6364206Y-16328028D02*
X6373730Y-16337552D01*
X6364206Y-16347076D01*
X6354682Y-16337552D01*
X6364206Y-16328028D01*
X6364206Y-16347076D01*
X6497539Y-16147076D02*
X6516587Y-16147076D01*
X6535635Y-16156600D01*
X6545158Y-16166124D01*
X6554682Y-16185171D01*
X6564206Y-16223267D01*
X6564206Y-16270886D01*
X6554682Y-16308981D01*
X6545158Y-16328028D01*
X6535635Y-16337552D01*
X6516587Y-16347076D01*
X6497539Y-16347076D01*
X6478492Y-16337552D01*
X6468968Y-16328028D01*
X6459444Y-16308981D01*
X6449920Y-16270886D01*
X6449920Y-16223267D01*
X6459444Y-16185171D01*
X6468968Y-16166124D01*
X6478492Y-16156600D01*
X6497539Y-16147076D01*
X6735635Y-16147076D02*
X6697539Y-16147076D01*
X6678492Y-16156600D01*
X6668968Y-16166124D01*
X6649920Y-16194695D01*
X6640397Y-16232790D01*
X6640397Y-16308981D01*
X6649920Y-16328028D01*
X6659444Y-16337552D01*
X6678492Y-16347076D01*
X6716587Y-16347076D01*
X6735635Y-16337552D01*
X6745158Y-16328028D01*
X6754682Y-16308981D01*
X6754682Y-16261362D01*
X6745158Y-16242314D01*
X6735635Y-16232790D01*
X6716587Y-16223267D01*
X6678492Y-16223267D01*
X6659444Y-16232790D01*
X6649920Y-16242314D01*
X6640397Y-16261362D01*
X6868968Y-16232790D02*
X6849920Y-16223267D01*
X6840397Y-16213743D01*
X6830873Y-16194695D01*
X6830873Y-16185171D01*
X6840397Y-16166124D01*
X6849920Y-16156600D01*
X6868968Y-16147076D01*
X6907063Y-16147076D01*
X6926111Y-16156600D01*
X6935635Y-16166124D01*
X6945158Y-16185171D01*
X6945158Y-16194695D01*
X6935635Y-16213743D01*
X6926111Y-16223267D01*
X6907063Y-16232790D01*
X6868968Y-16232790D01*
X6849920Y-16242314D01*
X6840397Y-16251838D01*
X6830873Y-16270886D01*
X6830873Y-16308981D01*
X6840397Y-16328028D01*
X6849920Y-16337552D01*
X6868968Y-16347076D01*
X6907063Y-16347076D01*
X6926111Y-16337552D01*
X6935635Y-16328028D01*
X6945158Y-16308981D01*
X6945158Y-16270886D01*
X6935635Y-16251838D01*
X6926111Y-16242314D01*
X6907063Y-16232790D01*
X7040397Y-16347076D02*
X7078492Y-16347076D01*
X7097539Y-16337552D01*
X7107063Y-16328028D01*
X7126111Y-16299457D01*
X7135635Y-16261362D01*
X7135635Y-16185171D01*
X7126111Y-16166124D01*
X7116587Y-16156600D01*
X7097539Y-16147076D01*
X7059444Y-16147076D01*
X7040397Y-16156600D01*
X7030873Y-16166124D01*
X7021349Y-16185171D01*
X7021349Y-16232790D01*
X7030873Y-16251838D01*
X7040397Y-16261362D01*
X7059444Y-16270886D01*
X7097539Y-16270886D01*
X7116587Y-16261362D01*
X7126111Y-16251838D01*
X7135635Y-16232790D01*
X7211825Y-16147076D02*
X7211825Y-16185171D01*
X7288016Y-16147076D02*
X7288016Y-16185171D01*
X7583254Y-16423267D02*
X7573730Y-16413743D01*
X7554682Y-16385171D01*
X7545158Y-16366124D01*
X7535635Y-16337552D01*
X7526111Y-16289933D01*
X7526111Y-16251838D01*
X7535635Y-16204219D01*
X7545158Y-16175648D01*
X7554682Y-16156600D01*
X7573730Y-16128028D01*
X7583254Y-16118505D01*
X7688016Y-16232790D02*
X7668968Y-16223267D01*
X7659444Y-16213743D01*
X7649920Y-16194695D01*
X7649920Y-16185171D01*
X7659444Y-16166124D01*
X7668968Y-16156600D01*
X7688016Y-16147076D01*
X7726111Y-16147076D01*
X7745158Y-16156600D01*
X7754682Y-16166124D01*
X7764206Y-16185171D01*
X7764206Y-16194695D01*
X7754682Y-16213743D01*
X7745158Y-16223267D01*
X7726111Y-16232790D01*
X7688016Y-16232790D01*
X7668968Y-16242314D01*
X7659444Y-16251838D01*
X7649920Y-16270886D01*
X7649920Y-16308981D01*
X7659444Y-16328028D01*
X7668968Y-16337552D01*
X7688016Y-16347076D01*
X7726111Y-16347076D01*
X7745158Y-16337552D01*
X7754682Y-16328028D01*
X7764206Y-16308981D01*
X7764206Y-16270886D01*
X7754682Y-16251838D01*
X7745158Y-16242314D01*
X7726111Y-16232790D01*
X7935635Y-16213743D02*
X7935635Y-16347076D01*
X7888016Y-16137552D02*
X7840397Y-16280409D01*
X7964206Y-16280409D01*
X8192777Y-16347076D02*
X8192777Y-16147076D01*
X8278492Y-16347076D02*
X8278492Y-16242314D01*
X8268968Y-16223267D01*
X8249920Y-16213743D01*
X8221349Y-16213743D01*
X8202301Y-16223267D01*
X8192777Y-16232790D01*
X8402301Y-16347076D02*
X8383254Y-16337552D01*
X8373730Y-16328028D01*
X8364206Y-16308981D01*
X8364206Y-16251838D01*
X8373730Y-16232790D01*
X8383254Y-16223267D01*
X8402301Y-16213743D01*
X8430873Y-16213743D01*
X8449920Y-16223267D01*
X8459444Y-16232790D01*
X8468968Y-16251838D01*
X8468968Y-16308981D01*
X8459444Y-16328028D01*
X8449920Y-16337552D01*
X8430873Y-16347076D01*
X8402301Y-16347076D01*
X8583254Y-16347076D02*
X8564206Y-16337552D01*
X8554682Y-16318505D01*
X8554682Y-16147076D01*
X8735635Y-16337552D02*
X8716587Y-16347076D01*
X8678492Y-16347076D01*
X8659444Y-16337552D01*
X8649920Y-16318505D01*
X8649920Y-16242314D01*
X8659444Y-16223267D01*
X8678492Y-16213743D01*
X8716587Y-16213743D01*
X8735635Y-16223267D01*
X8745159Y-16242314D01*
X8745159Y-16261362D01*
X8649920Y-16280409D01*
X8821349Y-16337552D02*
X8840397Y-16347076D01*
X8878492Y-16347076D01*
X8897539Y-16337552D01*
X8907063Y-16318505D01*
X8907063Y-16308981D01*
X8897539Y-16289933D01*
X8878492Y-16280409D01*
X8849920Y-16280409D01*
X8830873Y-16270886D01*
X8821349Y-16251838D01*
X8821349Y-16242314D01*
X8830873Y-16223267D01*
X8849920Y-16213743D01*
X8878492Y-16213743D01*
X8897539Y-16223267D01*
X8973730Y-16423267D02*
X8983254Y-16413743D01*
X9002301Y-16385171D01*
X9011825Y-16366124D01*
X9021349Y-16337552D01*
X9030873Y-16289933D01*
X9030873Y-16251838D01*
X9021349Y-16204219D01*
X9011825Y-16175648D01*
X9002301Y-16156600D01*
X8983254Y-16128028D01*
X8973730Y-16118505D01*
X9335635Y-16423267D02*
X9326111Y-16413743D01*
X9307063Y-16385171D01*
X9297539Y-16366124D01*
X9288016Y-16337552D01*
X9278492Y-16289933D01*
X9278492Y-16251838D01*
X9288016Y-16204219D01*
X9297539Y-16175648D01*
X9307063Y-16156600D01*
X9326111Y-16128028D01*
X9335635Y-16118505D01*
X9411825Y-16213743D02*
X9411825Y-16347076D01*
X9411825Y-16232790D02*
X9421349Y-16223267D01*
X9440397Y-16213743D01*
X9468968Y-16213743D01*
X9488016Y-16223267D01*
X9497539Y-16242314D01*
X9497539Y-16347076D01*
X9621349Y-16347076D02*
X9602301Y-16337552D01*
X9592778Y-16328028D01*
X9583254Y-16308981D01*
X9583254Y-16251838D01*
X9592778Y-16232790D01*
X9602301Y-16223267D01*
X9621349Y-16213743D01*
X9649920Y-16213743D01*
X9668968Y-16223267D01*
X9678492Y-16232790D01*
X9688016Y-16251838D01*
X9688016Y-16308981D01*
X9678492Y-16328028D01*
X9668968Y-16337552D01*
X9649920Y-16347076D01*
X9621349Y-16347076D01*
X9745159Y-16213743D02*
X9821349Y-16213743D01*
X9773730Y-16147076D02*
X9773730Y-16318505D01*
X9783254Y-16337552D01*
X9802301Y-16347076D01*
X9821349Y-16347076D01*
X10040397Y-16213743D02*
X10040397Y-16413743D01*
X10040397Y-16223267D02*
X10059444Y-16213743D01*
X10097539Y-16213743D01*
X10116587Y-16223267D01*
X10126111Y-16232790D01*
X10135635Y-16251838D01*
X10135635Y-16308981D01*
X10126111Y-16328028D01*
X10116587Y-16337552D01*
X10097539Y-16347076D01*
X10059444Y-16347076D01*
X10040397Y-16337552D01*
X10249920Y-16347076D02*
X10230873Y-16337552D01*
X10221349Y-16318505D01*
X10221349Y-16147076D01*
X10411825Y-16347076D02*
X10411825Y-16242314D01*
X10402301Y-16223267D01*
X10383254Y-16213743D01*
X10345159Y-16213743D01*
X10326111Y-16223267D01*
X10411825Y-16337552D02*
X10392778Y-16347076D01*
X10345159Y-16347076D01*
X10326111Y-16337552D01*
X10316587Y-16318505D01*
X10316587Y-16299457D01*
X10326111Y-16280409D01*
X10345159Y-16270886D01*
X10392778Y-16270886D01*
X10411825Y-16261362D01*
X10478492Y-16213743D02*
X10554682Y-16213743D01*
X10507063Y-16147076D02*
X10507063Y-16318505D01*
X10516587Y-16337552D01*
X10535635Y-16347076D01*
X10554682Y-16347076D01*
X10697539Y-16337552D02*
X10678492Y-16347076D01*
X10640397Y-16347076D01*
X10621349Y-16337552D01*
X10611825Y-16318505D01*
X10611825Y-16242314D01*
X10621349Y-16223267D01*
X10640397Y-16213743D01*
X10678492Y-16213743D01*
X10697539Y-16223267D01*
X10707063Y-16242314D01*
X10707063Y-16261362D01*
X10611825Y-16280409D01*
X10878492Y-16347076D02*
X10878492Y-16147076D01*
X10878492Y-16337552D02*
X10859444Y-16347076D01*
X10821349Y-16347076D01*
X10802301Y-16337552D01*
X10792778Y-16328028D01*
X10783254Y-16308981D01*
X10783254Y-16251838D01*
X10792778Y-16232790D01*
X10802301Y-16223267D01*
X10821349Y-16213743D01*
X10859444Y-16213743D01*
X10878492Y-16223267D01*
X10954682Y-16423267D02*
X10964206Y-16413743D01*
X10983254Y-16385171D01*
X10992778Y-16366124D01*
X11002301Y-16337552D01*
X11011825Y-16289933D01*
X11011825Y-16251838D01*
X11002301Y-16204219D01*
X10992778Y-16175648D01*
X10983254Y-16156600D01*
X10964206Y-16128028D01*
X10954682Y-16118505D01*
X3911349Y-16451600D02*
X3911349Y-16651600D01*
X3811349Y-16551600D02*
X4011349Y-16551600D01*
X4249920Y-16442076D02*
X4373730Y-16442076D01*
X4307063Y-16518267D01*
X4335635Y-16518267D01*
X4354682Y-16527790D01*
X4364206Y-16537314D01*
X4373730Y-16556362D01*
X4373730Y-16603981D01*
X4364206Y-16623028D01*
X4354682Y-16632552D01*
X4335635Y-16642076D01*
X4278492Y-16642076D01*
X4259444Y-16632552D01*
X4249920Y-16623028D01*
X4459444Y-16623028D02*
X4468968Y-16632552D01*
X4459444Y-16642076D01*
X4449920Y-16632552D01*
X4459444Y-16623028D01*
X4459444Y-16642076D01*
X4592778Y-16442076D02*
X4611825Y-16442076D01*
X4630873Y-16451600D01*
X4640397Y-16461124D01*
X4649920Y-16480171D01*
X4659444Y-16518267D01*
X4659444Y-16565886D01*
X4649920Y-16603981D01*
X4640397Y-16623028D01*
X4630873Y-16632552D01*
X4611825Y-16642076D01*
X4592778Y-16642076D01*
X4573730Y-16632552D01*
X4564206Y-16623028D01*
X4554682Y-16603981D01*
X4545159Y-16565886D01*
X4545159Y-16518267D01*
X4554682Y-16480171D01*
X4564206Y-16461124D01*
X4573730Y-16451600D01*
X4592778Y-16442076D01*
X4783254Y-16442076D02*
X4802301Y-16442076D01*
X4821349Y-16451600D01*
X4830873Y-16461124D01*
X4840397Y-16480171D01*
X4849920Y-16518267D01*
X4849920Y-16565886D01*
X4840397Y-16603981D01*
X4830873Y-16623028D01*
X4821349Y-16632552D01*
X4802301Y-16642076D01*
X4783254Y-16642076D01*
X4764206Y-16632552D01*
X4754682Y-16623028D01*
X4745159Y-16603981D01*
X4735635Y-16565886D01*
X4735635Y-16518267D01*
X4745159Y-16480171D01*
X4754682Y-16461124D01*
X4764206Y-16451600D01*
X4783254Y-16442076D01*
X4973730Y-16442076D02*
X4992778Y-16442076D01*
X5011825Y-16451600D01*
X5021349Y-16461124D01*
X5030873Y-16480171D01*
X5040397Y-16518267D01*
X5040397Y-16565886D01*
X5030873Y-16603981D01*
X5021349Y-16623028D01*
X5011825Y-16632552D01*
X4992778Y-16642076D01*
X4973730Y-16642076D01*
X4954682Y-16632552D01*
X4945159Y-16623028D01*
X4935635Y-16603981D01*
X4926111Y-16565886D01*
X4926111Y-16518267D01*
X4935635Y-16480171D01*
X4945159Y-16461124D01*
X4954682Y-16451600D01*
X4973730Y-16442076D01*
X5126111Y-16642076D02*
X5126111Y-16508743D01*
X5126111Y-16527790D02*
X5135635Y-16518267D01*
X5154682Y-16508743D01*
X5183254Y-16508743D01*
X5202301Y-16518267D01*
X5211825Y-16537314D01*
X5211825Y-16642076D01*
X5211825Y-16537314D02*
X5221349Y-16518267D01*
X5240397Y-16508743D01*
X5268968Y-16508743D01*
X5288016Y-16518267D01*
X5297539Y-16537314D01*
X5297539Y-16642076D01*
X5392778Y-16642076D02*
X5392778Y-16508743D01*
X5392778Y-16527790D02*
X5402301Y-16518267D01*
X5421349Y-16508743D01*
X5449920Y-16508743D01*
X5468968Y-16518267D01*
X5478492Y-16537314D01*
X5478492Y-16642076D01*
X5478492Y-16537314D02*
X5488016Y-16518267D01*
X5507063Y-16508743D01*
X5535635Y-16508743D01*
X5554682Y-16518267D01*
X5564206Y-16537314D01*
X5564206Y-16642076D01*
X5954682Y-16432552D02*
X5783254Y-16689695D01*
X6211825Y-16442076D02*
X6230873Y-16442076D01*
X6249920Y-16451600D01*
X6259444Y-16461124D01*
X6268968Y-16480171D01*
X6278492Y-16518267D01*
X6278492Y-16565886D01*
X6268968Y-16603981D01*
X6259444Y-16623028D01*
X6249920Y-16632552D01*
X6230873Y-16642076D01*
X6211825Y-16642076D01*
X6192777Y-16632552D01*
X6183254Y-16623028D01*
X6173730Y-16603981D01*
X6164206Y-16565886D01*
X6164206Y-16518267D01*
X6173730Y-16480171D01*
X6183254Y-16461124D01*
X6192777Y-16451600D01*
X6211825Y-16442076D01*
X6364206Y-16623028D02*
X6373730Y-16632552D01*
X6364206Y-16642076D01*
X6354682Y-16632552D01*
X6364206Y-16623028D01*
X6364206Y-16642076D01*
X6564206Y-16642076D02*
X6449920Y-16642076D01*
X6507063Y-16642076D02*
X6507063Y-16442076D01*
X6488016Y-16470648D01*
X6468968Y-16489695D01*
X6449920Y-16499219D01*
X6754682Y-16642076D02*
X6640397Y-16642076D01*
X6697539Y-16642076D02*
X6697539Y-16442076D01*
X6678492Y-16470648D01*
X6659444Y-16489695D01*
X6640397Y-16499219D01*
X6868968Y-16527790D02*
X6849920Y-16518267D01*
X6840397Y-16508743D01*
X6830873Y-16489695D01*
X6830873Y-16480171D01*
X6840397Y-16461124D01*
X6849920Y-16451600D01*
X6868968Y-16442076D01*
X6907063Y-16442076D01*
X6926111Y-16451600D01*
X6935635Y-16461124D01*
X6945158Y-16480171D01*
X6945158Y-16489695D01*
X6935635Y-16508743D01*
X6926111Y-16518267D01*
X6907063Y-16527790D01*
X6868968Y-16527790D01*
X6849920Y-16537314D01*
X6840397Y-16546838D01*
X6830873Y-16565886D01*
X6830873Y-16603981D01*
X6840397Y-16623028D01*
X6849920Y-16632552D01*
X6868968Y-16642076D01*
X6907063Y-16642076D01*
X6926111Y-16632552D01*
X6935635Y-16623028D01*
X6945158Y-16603981D01*
X6945158Y-16565886D01*
X6935635Y-16546838D01*
X6926111Y-16537314D01*
X6907063Y-16527790D01*
X7135635Y-16642076D02*
X7021349Y-16642076D01*
X7078492Y-16642076D02*
X7078492Y-16442076D01*
X7059444Y-16470648D01*
X7040397Y-16489695D01*
X7021349Y-16499219D01*
X7211825Y-16442076D02*
X7211825Y-16480171D01*
X7288016Y-16442076D02*
X7288016Y-16480171D01*
X7583254Y-16718267D02*
X7573730Y-16708743D01*
X7554682Y-16680171D01*
X7545158Y-16661124D01*
X7535635Y-16632552D01*
X7526111Y-16584933D01*
X7526111Y-16546838D01*
X7535635Y-16499219D01*
X7545158Y-16470648D01*
X7554682Y-16451600D01*
X7573730Y-16423028D01*
X7583254Y-16413505D01*
X7688016Y-16527790D02*
X7668968Y-16518267D01*
X7659444Y-16508743D01*
X7649920Y-16489695D01*
X7649920Y-16480171D01*
X7659444Y-16461124D01*
X7668968Y-16451600D01*
X7688016Y-16442076D01*
X7726111Y-16442076D01*
X7745158Y-16451600D01*
X7754682Y-16461124D01*
X7764206Y-16480171D01*
X7764206Y-16489695D01*
X7754682Y-16508743D01*
X7745158Y-16518267D01*
X7726111Y-16527790D01*
X7688016Y-16527790D01*
X7668968Y-16537314D01*
X7659444Y-16546838D01*
X7649920Y-16565886D01*
X7649920Y-16603981D01*
X7659444Y-16623028D01*
X7668968Y-16632552D01*
X7688016Y-16642076D01*
X7726111Y-16642076D01*
X7745158Y-16632552D01*
X7754682Y-16623028D01*
X7764206Y-16603981D01*
X7764206Y-16565886D01*
X7754682Y-16546838D01*
X7745158Y-16537314D01*
X7726111Y-16527790D01*
X7935635Y-16508743D02*
X7935635Y-16642076D01*
X7888016Y-16432552D02*
X7840397Y-16575409D01*
X7964206Y-16575409D01*
X8192777Y-16642076D02*
X8192777Y-16442076D01*
X8278492Y-16642076D02*
X8278492Y-16537314D01*
X8268968Y-16518267D01*
X8249920Y-16508743D01*
X8221349Y-16508743D01*
X8202301Y-16518267D01*
X8192777Y-16527790D01*
X8402301Y-16642076D02*
X8383254Y-16632552D01*
X8373730Y-16623028D01*
X8364206Y-16603981D01*
X8364206Y-16546838D01*
X8373730Y-16527790D01*
X8383254Y-16518267D01*
X8402301Y-16508743D01*
X8430873Y-16508743D01*
X8449920Y-16518267D01*
X8459444Y-16527790D01*
X8468968Y-16546838D01*
X8468968Y-16603981D01*
X8459444Y-16623028D01*
X8449920Y-16632552D01*
X8430873Y-16642076D01*
X8402301Y-16642076D01*
X8583254Y-16642076D02*
X8564206Y-16632552D01*
X8554682Y-16613505D01*
X8554682Y-16442076D01*
X8735635Y-16632552D02*
X8716587Y-16642076D01*
X8678492Y-16642076D01*
X8659444Y-16632552D01*
X8649920Y-16613505D01*
X8649920Y-16537314D01*
X8659444Y-16518267D01*
X8678492Y-16508743D01*
X8716587Y-16508743D01*
X8735635Y-16518267D01*
X8745159Y-16537314D01*
X8745159Y-16556362D01*
X8649920Y-16575409D01*
X8821349Y-16632552D02*
X8840397Y-16642076D01*
X8878492Y-16642076D01*
X8897539Y-16632552D01*
X8907063Y-16613505D01*
X8907063Y-16603981D01*
X8897539Y-16584933D01*
X8878492Y-16575409D01*
X8849920Y-16575409D01*
X8830873Y-16565886D01*
X8821349Y-16546838D01*
X8821349Y-16537314D01*
X8830873Y-16518267D01*
X8849920Y-16508743D01*
X8878492Y-16508743D01*
X8897539Y-16518267D01*
X8973730Y-16718267D02*
X8983254Y-16708743D01*
X9002301Y-16680171D01*
X9011825Y-16661124D01*
X9021349Y-16632552D01*
X9030873Y-16584933D01*
X9030873Y-16546838D01*
X9021349Y-16499219D01*
X9011825Y-16470648D01*
X9002301Y-16451600D01*
X8983254Y-16423028D01*
X8973730Y-16413505D01*
X9335635Y-16718267D02*
X9326111Y-16708743D01*
X9307063Y-16680171D01*
X9297539Y-16661124D01*
X9288016Y-16632552D01*
X9278492Y-16584933D01*
X9278492Y-16546838D01*
X9288016Y-16499219D01*
X9297539Y-16470648D01*
X9307063Y-16451600D01*
X9326111Y-16423028D01*
X9335635Y-16413505D01*
X9411825Y-16508743D02*
X9411825Y-16642076D01*
X9411825Y-16527790D02*
X9421349Y-16518267D01*
X9440397Y-16508743D01*
X9468968Y-16508743D01*
X9488016Y-16518267D01*
X9497539Y-16537314D01*
X9497539Y-16642076D01*
X9621349Y-16642076D02*
X9602301Y-16632552D01*
X9592778Y-16623028D01*
X9583254Y-16603981D01*
X9583254Y-16546838D01*
X9592778Y-16527790D01*
X9602301Y-16518267D01*
X9621349Y-16508743D01*
X9649920Y-16508743D01*
X9668968Y-16518267D01*
X9678492Y-16527790D01*
X9688016Y-16546838D01*
X9688016Y-16603981D01*
X9678492Y-16623028D01*
X9668968Y-16632552D01*
X9649920Y-16642076D01*
X9621349Y-16642076D01*
X9745159Y-16508743D02*
X9821349Y-16508743D01*
X9773730Y-16442076D02*
X9773730Y-16613505D01*
X9783254Y-16632552D01*
X9802301Y-16642076D01*
X9821349Y-16642076D01*
X10040397Y-16508743D02*
X10040397Y-16708743D01*
X10040397Y-16518267D02*
X10059444Y-16508743D01*
X10097539Y-16508743D01*
X10116587Y-16518267D01*
X10126111Y-16527790D01*
X10135635Y-16546838D01*
X10135635Y-16603981D01*
X10126111Y-16623028D01*
X10116587Y-16632552D01*
X10097539Y-16642076D01*
X10059444Y-16642076D01*
X10040397Y-16632552D01*
X10249920Y-16642076D02*
X10230873Y-16632552D01*
X10221349Y-16613505D01*
X10221349Y-16442076D01*
X10411825Y-16642076D02*
X10411825Y-16537314D01*
X10402301Y-16518267D01*
X10383254Y-16508743D01*
X10345159Y-16508743D01*
X10326111Y-16518267D01*
X10411825Y-16632552D02*
X10392778Y-16642076D01*
X10345159Y-16642076D01*
X10326111Y-16632552D01*
X10316587Y-16613505D01*
X10316587Y-16594457D01*
X10326111Y-16575409D01*
X10345159Y-16565886D01*
X10392778Y-16565886D01*
X10411825Y-16556362D01*
X10478492Y-16508743D02*
X10554682Y-16508743D01*
X10507063Y-16442076D02*
X10507063Y-16613505D01*
X10516587Y-16632552D01*
X10535635Y-16642076D01*
X10554682Y-16642076D01*
X10697539Y-16632552D02*
X10678492Y-16642076D01*
X10640397Y-16642076D01*
X10621349Y-16632552D01*
X10611825Y-16613505D01*
X10611825Y-16537314D01*
X10621349Y-16518267D01*
X10640397Y-16508743D01*
X10678492Y-16508743D01*
X10697539Y-16518267D01*
X10707063Y-16537314D01*
X10707063Y-16556362D01*
X10611825Y-16575409D01*
X10878492Y-16642076D02*
X10878492Y-16442076D01*
X10878492Y-16632552D02*
X10859444Y-16642076D01*
X10821349Y-16642076D01*
X10802301Y-16632552D01*
X10792778Y-16623028D01*
X10783254Y-16603981D01*
X10783254Y-16546838D01*
X10792778Y-16527790D01*
X10802301Y-16518267D01*
X10821349Y-16508743D01*
X10859444Y-16508743D01*
X10878492Y-16518267D01*
X10954682Y-16718267D02*
X10964206Y-16708743D01*
X10983254Y-16680171D01*
X10992778Y-16661124D01*
X11002301Y-16632552D01*
X11011825Y-16584933D01*
X11011825Y-16546838D01*
X11002301Y-16499219D01*
X10992778Y-16470648D01*
X10983254Y-16451600D01*
X10964206Y-16423028D01*
X10954682Y-16413505D01*
X3982060Y-16942311D02*
X3982060Y-16800889D01*
X3840638Y-16800889D01*
X3840638Y-16942311D01*
X3982060Y-16942311D01*
X4249920Y-16762076D02*
X4373730Y-16762076D01*
X4307063Y-16838267D01*
X4335635Y-16838267D01*
X4354682Y-16847790D01*
X4364206Y-16857314D01*
X4373730Y-16876362D01*
X4373730Y-16923981D01*
X4364206Y-16943029D01*
X4354682Y-16952552D01*
X4335635Y-16962076D01*
X4278492Y-16962076D01*
X4259444Y-16952552D01*
X4249920Y-16943029D01*
X4459444Y-16943029D02*
X4468968Y-16952552D01*
X4459444Y-16962076D01*
X4449920Y-16952552D01*
X4459444Y-16943029D01*
X4459444Y-16962076D01*
X4592778Y-16762076D02*
X4611825Y-16762076D01*
X4630873Y-16771600D01*
X4640397Y-16781124D01*
X4649920Y-16800171D01*
X4659444Y-16838267D01*
X4659444Y-16885886D01*
X4649920Y-16923981D01*
X4640397Y-16943029D01*
X4630873Y-16952552D01*
X4611825Y-16962076D01*
X4592778Y-16962076D01*
X4573730Y-16952552D01*
X4564206Y-16943029D01*
X4554682Y-16923981D01*
X4545159Y-16885886D01*
X4545159Y-16838267D01*
X4554682Y-16800171D01*
X4564206Y-16781124D01*
X4573730Y-16771600D01*
X4592778Y-16762076D01*
X4830873Y-16828743D02*
X4830873Y-16962076D01*
X4783254Y-16752552D02*
X4735635Y-16895410D01*
X4859444Y-16895410D01*
X4964206Y-16847790D02*
X4945159Y-16838267D01*
X4935635Y-16828743D01*
X4926111Y-16809695D01*
X4926111Y-16800171D01*
X4935635Y-16781124D01*
X4945159Y-16771600D01*
X4964206Y-16762076D01*
X5002301Y-16762076D01*
X5021349Y-16771600D01*
X5030873Y-16781124D01*
X5040397Y-16800171D01*
X5040397Y-16809695D01*
X5030873Y-16828743D01*
X5021349Y-16838267D01*
X5002301Y-16847790D01*
X4964206Y-16847790D01*
X4945159Y-16857314D01*
X4935635Y-16866838D01*
X4926111Y-16885886D01*
X4926111Y-16923981D01*
X4935635Y-16943029D01*
X4945159Y-16952552D01*
X4964206Y-16962076D01*
X5002301Y-16962076D01*
X5021349Y-16952552D01*
X5030873Y-16943029D01*
X5040397Y-16923981D01*
X5040397Y-16885886D01*
X5030873Y-16866838D01*
X5021349Y-16857314D01*
X5002301Y-16847790D01*
X5126111Y-16962076D02*
X5126111Y-16828743D01*
X5126111Y-16847790D02*
X5135635Y-16838267D01*
X5154682Y-16828743D01*
X5183254Y-16828743D01*
X5202301Y-16838267D01*
X5211825Y-16857314D01*
X5211825Y-16962076D01*
X5211825Y-16857314D02*
X5221349Y-16838267D01*
X5240397Y-16828743D01*
X5268968Y-16828743D01*
X5288016Y-16838267D01*
X5297539Y-16857314D01*
X5297539Y-16962076D01*
X5392778Y-16962076D02*
X5392778Y-16828743D01*
X5392778Y-16847790D02*
X5402301Y-16838267D01*
X5421349Y-16828743D01*
X5449920Y-16828743D01*
X5468968Y-16838267D01*
X5478492Y-16857314D01*
X5478492Y-16962076D01*
X5478492Y-16857314D02*
X5488016Y-16838267D01*
X5507063Y-16828743D01*
X5535635Y-16828743D01*
X5554682Y-16838267D01*
X5564206Y-16857314D01*
X5564206Y-16962076D01*
X5954682Y-16752552D02*
X5783254Y-17009695D01*
X6211825Y-16762076D02*
X6230873Y-16762076D01*
X6249920Y-16771600D01*
X6259444Y-16781124D01*
X6268968Y-16800171D01*
X6278492Y-16838267D01*
X6278492Y-16885886D01*
X6268968Y-16923981D01*
X6259444Y-16943029D01*
X6249920Y-16952552D01*
X6230873Y-16962076D01*
X6211825Y-16962076D01*
X6192777Y-16952552D01*
X6183254Y-16943029D01*
X6173730Y-16923981D01*
X6164206Y-16885886D01*
X6164206Y-16838267D01*
X6173730Y-16800171D01*
X6183254Y-16781124D01*
X6192777Y-16771600D01*
X6211825Y-16762076D01*
X6364206Y-16943029D02*
X6373730Y-16952552D01*
X6364206Y-16962076D01*
X6354682Y-16952552D01*
X6364206Y-16943029D01*
X6364206Y-16962076D01*
X6564206Y-16962076D02*
X6449920Y-16962076D01*
X6507063Y-16962076D02*
X6507063Y-16762076D01*
X6488016Y-16790648D01*
X6468968Y-16809695D01*
X6449920Y-16819219D01*
X6640397Y-16781124D02*
X6649920Y-16771600D01*
X6668968Y-16762076D01*
X6716587Y-16762076D01*
X6735635Y-16771600D01*
X6745158Y-16781124D01*
X6754682Y-16800171D01*
X6754682Y-16819219D01*
X6745158Y-16847790D01*
X6630873Y-16962076D01*
X6754682Y-16962076D01*
X6878492Y-16762076D02*
X6897539Y-16762076D01*
X6916587Y-16771600D01*
X6926111Y-16781124D01*
X6935635Y-16800171D01*
X6945158Y-16838267D01*
X6945158Y-16885886D01*
X6935635Y-16923981D01*
X6926111Y-16943029D01*
X6916587Y-16952552D01*
X6897539Y-16962076D01*
X6878492Y-16962076D01*
X6859444Y-16952552D01*
X6849920Y-16943029D01*
X6840397Y-16923981D01*
X6830873Y-16885886D01*
X6830873Y-16838267D01*
X6840397Y-16800171D01*
X6849920Y-16781124D01*
X6859444Y-16771600D01*
X6878492Y-16762076D01*
X7068968Y-16762076D02*
X7088016Y-16762076D01*
X7107063Y-16771600D01*
X7116587Y-16781124D01*
X7126111Y-16800171D01*
X7135635Y-16838267D01*
X7135635Y-16885886D01*
X7126111Y-16923981D01*
X7116587Y-16943029D01*
X7107063Y-16952552D01*
X7088016Y-16962076D01*
X7068968Y-16962076D01*
X7049920Y-16952552D01*
X7040397Y-16943029D01*
X7030873Y-16923981D01*
X7021349Y-16885886D01*
X7021349Y-16838267D01*
X7030873Y-16800171D01*
X7040397Y-16781124D01*
X7049920Y-16771600D01*
X7068968Y-16762076D01*
X7211825Y-16762076D02*
X7211825Y-16800171D01*
X7288016Y-16762076D02*
X7288016Y-16800171D01*
X7583254Y-17038267D02*
X7573730Y-17028743D01*
X7554682Y-17000171D01*
X7545158Y-16981124D01*
X7535635Y-16952552D01*
X7526111Y-16904933D01*
X7526111Y-16866838D01*
X7535635Y-16819219D01*
X7545158Y-16790648D01*
X7554682Y-16771600D01*
X7573730Y-16743028D01*
X7583254Y-16733505D01*
X7745158Y-16762076D02*
X7707063Y-16762076D01*
X7688016Y-16771600D01*
X7678492Y-16781124D01*
X7659444Y-16809695D01*
X7649920Y-16847790D01*
X7649920Y-16923981D01*
X7659444Y-16943029D01*
X7668968Y-16952552D01*
X7688016Y-16962076D01*
X7726111Y-16962076D01*
X7745158Y-16952552D01*
X7754682Y-16943029D01*
X7764206Y-16923981D01*
X7764206Y-16876362D01*
X7754682Y-16857314D01*
X7745158Y-16847790D01*
X7726111Y-16838267D01*
X7688016Y-16838267D01*
X7668968Y-16847790D01*
X7659444Y-16857314D01*
X7649920Y-16876362D01*
X8002301Y-16962076D02*
X8002301Y-16762076D01*
X8088016Y-16962076D02*
X8088016Y-16857314D01*
X8078492Y-16838267D01*
X8059444Y-16828743D01*
X8030873Y-16828743D01*
X8011825Y-16838267D01*
X8002301Y-16847790D01*
X8211825Y-16962076D02*
X8192777Y-16952552D01*
X8183254Y-16943029D01*
X8173730Y-16923981D01*
X8173730Y-16866838D01*
X8183254Y-16847790D01*
X8192777Y-16838267D01*
X8211825Y-16828743D01*
X8240397Y-16828743D01*
X8259444Y-16838267D01*
X8268968Y-16847790D01*
X8278492Y-16866838D01*
X8278492Y-16923981D01*
X8268968Y-16943029D01*
X8259444Y-16952552D01*
X8240397Y-16962076D01*
X8211825Y-16962076D01*
X8392778Y-16962076D02*
X8373730Y-16952552D01*
X8364206Y-16933505D01*
X8364206Y-16762076D01*
X8545159Y-16952552D02*
X8526111Y-16962076D01*
X8488016Y-16962076D01*
X8468968Y-16952552D01*
X8459444Y-16933505D01*
X8459444Y-16857314D01*
X8468968Y-16838267D01*
X8488016Y-16828743D01*
X8526111Y-16828743D01*
X8545159Y-16838267D01*
X8554682Y-16857314D01*
X8554682Y-16876362D01*
X8459444Y-16895410D01*
X8630873Y-16952552D02*
X8649920Y-16962076D01*
X8688016Y-16962076D01*
X8707063Y-16952552D01*
X8716587Y-16933505D01*
X8716587Y-16923981D01*
X8707063Y-16904933D01*
X8688016Y-16895410D01*
X8659444Y-16895410D01*
X8640397Y-16885886D01*
X8630873Y-16866838D01*
X8630873Y-16857314D01*
X8640397Y-16838267D01*
X8659444Y-16828743D01*
X8688016Y-16828743D01*
X8707063Y-16838267D01*
X8783254Y-17038267D02*
X8792778Y-17028743D01*
X8811825Y-17000171D01*
X8821349Y-16981124D01*
X8830873Y-16952552D01*
X8840397Y-16904933D01*
X8840397Y-16866838D01*
X8830873Y-16819219D01*
X8821349Y-16790648D01*
X8811825Y-16771600D01*
X8792778Y-16743028D01*
X8783254Y-16733505D01*
X9145159Y-17038267D02*
X9135635Y-17028743D01*
X9116587Y-17000171D01*
X9107063Y-16981124D01*
X9097539Y-16952552D01*
X9088016Y-16904933D01*
X9088016Y-16866838D01*
X9097539Y-16819219D01*
X9107063Y-16790648D01*
X9116587Y-16771600D01*
X9135635Y-16743028D01*
X9145159Y-16733505D01*
X9221349Y-16828743D02*
X9221349Y-16962076D01*
X9221349Y-16847790D02*
X9230873Y-16838267D01*
X9249920Y-16828743D01*
X9278492Y-16828743D01*
X9297539Y-16838267D01*
X9307063Y-16857314D01*
X9307063Y-16962076D01*
X9430873Y-16962076D02*
X9411825Y-16952552D01*
X9402301Y-16943029D01*
X9392778Y-16923981D01*
X9392778Y-16866838D01*
X9402301Y-16847790D01*
X9411825Y-16838267D01*
X9430873Y-16828743D01*
X9459444Y-16828743D01*
X9478492Y-16838267D01*
X9488016Y-16847790D01*
X9497539Y-16866838D01*
X9497539Y-16923981D01*
X9488016Y-16943029D01*
X9478492Y-16952552D01*
X9459444Y-16962076D01*
X9430873Y-16962076D01*
X9554682Y-16828743D02*
X9630873Y-16828743D01*
X9583254Y-16762076D02*
X9583254Y-16933505D01*
X9592778Y-16952552D01*
X9611825Y-16962076D01*
X9630873Y-16962076D01*
X9849920Y-16828743D02*
X9849920Y-17028743D01*
X9849920Y-16838267D02*
X9868968Y-16828743D01*
X9907063Y-16828743D01*
X9926111Y-16838267D01*
X9935635Y-16847790D01*
X9945159Y-16866838D01*
X9945159Y-16923981D01*
X9935635Y-16943029D01*
X9926111Y-16952552D01*
X9907063Y-16962076D01*
X9868968Y-16962076D01*
X9849920Y-16952552D01*
X10059444Y-16962076D02*
X10040397Y-16952552D01*
X10030873Y-16933505D01*
X10030873Y-16762076D01*
X10221349Y-16962076D02*
X10221349Y-16857314D01*
X10211825Y-16838267D01*
X10192778Y-16828743D01*
X10154682Y-16828743D01*
X10135635Y-16838267D01*
X10221349Y-16952552D02*
X10202301Y-16962076D01*
X10154682Y-16962076D01*
X10135635Y-16952552D01*
X10126111Y-16933505D01*
X10126111Y-16914457D01*
X10135635Y-16895410D01*
X10154682Y-16885886D01*
X10202301Y-16885886D01*
X10221349Y-16876362D01*
X10288016Y-16828743D02*
X10364206Y-16828743D01*
X10316587Y-16762076D02*
X10316587Y-16933505D01*
X10326111Y-16952552D01*
X10345159Y-16962076D01*
X10364206Y-16962076D01*
X10507063Y-16952552D02*
X10488016Y-16962076D01*
X10449920Y-16962076D01*
X10430873Y-16952552D01*
X10421349Y-16933505D01*
X10421349Y-16857314D01*
X10430873Y-16838267D01*
X10449920Y-16828743D01*
X10488016Y-16828743D01*
X10507063Y-16838267D01*
X10516587Y-16857314D01*
X10516587Y-16876362D01*
X10421349Y-16895410D01*
X10688016Y-16962076D02*
X10688016Y-16762076D01*
X10688016Y-16952552D02*
X10668968Y-16962076D01*
X10630873Y-16962076D01*
X10611825Y-16952552D01*
X10602301Y-16943029D01*
X10592778Y-16923981D01*
X10592778Y-16866838D01*
X10602301Y-16847790D01*
X10611825Y-16838267D01*
X10630873Y-16828743D01*
X10668968Y-16828743D01*
X10688016Y-16838267D01*
X10764206Y-17038267D02*
X10773730Y-17028743D01*
X10792778Y-17000171D01*
X10802301Y-16981124D01*
X10811825Y-16952552D01*
X10821349Y-16904933D01*
X10821349Y-16866838D01*
X10811825Y-16819219D01*
X10802301Y-16790648D01*
X10792778Y-16771600D01*
X10773730Y-16743028D01*
X10764206Y-16733505D01*
X3911349Y-17291600D02*
X4011349Y-17191600D01*
X3911349Y-17091600D01*
X3811349Y-17191600D01*
X3911349Y-17291600D01*
X4249920Y-17082076D02*
X4373730Y-17082076D01*
X4307063Y-17158267D01*
X4335635Y-17158267D01*
X4354682Y-17167790D01*
X4364206Y-17177314D01*
X4373730Y-17196362D01*
X4373730Y-17243981D01*
X4364206Y-17263029D01*
X4354682Y-17272552D01*
X4335635Y-17282076D01*
X4278492Y-17282076D01*
X4259444Y-17272552D01*
X4249920Y-17263029D01*
X4459444Y-17263029D02*
X4468968Y-17272552D01*
X4459444Y-17282076D01*
X4449920Y-17272552D01*
X4459444Y-17263029D01*
X4459444Y-17282076D01*
X4564206Y-17282076D02*
X4602301Y-17282076D01*
X4621349Y-17272552D01*
X4630873Y-17263029D01*
X4649920Y-17234457D01*
X4659444Y-17196362D01*
X4659444Y-17120171D01*
X4649920Y-17101124D01*
X4640397Y-17091600D01*
X4621349Y-17082076D01*
X4583254Y-17082076D01*
X4564206Y-17091600D01*
X4554682Y-17101124D01*
X4545159Y-17120171D01*
X4545159Y-17167790D01*
X4554682Y-17186838D01*
X4564206Y-17196362D01*
X4583254Y-17205886D01*
X4621349Y-17205886D01*
X4640397Y-17196362D01*
X4649920Y-17186838D01*
X4659444Y-17167790D01*
X4773730Y-17167790D02*
X4754682Y-17158267D01*
X4745159Y-17148743D01*
X4735635Y-17129695D01*
X4735635Y-17120171D01*
X4745159Y-17101124D01*
X4754682Y-17091600D01*
X4773730Y-17082076D01*
X4811825Y-17082076D01*
X4830873Y-17091600D01*
X4840397Y-17101124D01*
X4849920Y-17120171D01*
X4849920Y-17129695D01*
X4840397Y-17148743D01*
X4830873Y-17158267D01*
X4811825Y-17167790D01*
X4773730Y-17167790D01*
X4754682Y-17177314D01*
X4745159Y-17186838D01*
X4735635Y-17205886D01*
X4735635Y-17243981D01*
X4745159Y-17263029D01*
X4754682Y-17272552D01*
X4773730Y-17282076D01*
X4811825Y-17282076D01*
X4830873Y-17272552D01*
X4840397Y-17263029D01*
X4849920Y-17243981D01*
X4849920Y-17205886D01*
X4840397Y-17186838D01*
X4830873Y-17177314D01*
X4811825Y-17167790D01*
X4964206Y-17167790D02*
X4945159Y-17158267D01*
X4935635Y-17148743D01*
X4926111Y-17129695D01*
X4926111Y-17120171D01*
X4935635Y-17101124D01*
X4945159Y-17091600D01*
X4964206Y-17082076D01*
X5002301Y-17082076D01*
X5021349Y-17091600D01*
X5030873Y-17101124D01*
X5040397Y-17120171D01*
X5040397Y-17129695D01*
X5030873Y-17148743D01*
X5021349Y-17158267D01*
X5002301Y-17167790D01*
X4964206Y-17167790D01*
X4945159Y-17177314D01*
X4935635Y-17186838D01*
X4926111Y-17205886D01*
X4926111Y-17243981D01*
X4935635Y-17263029D01*
X4945159Y-17272552D01*
X4964206Y-17282076D01*
X5002301Y-17282076D01*
X5021349Y-17272552D01*
X5030873Y-17263029D01*
X5040397Y-17243981D01*
X5040397Y-17205886D01*
X5030873Y-17186838D01*
X5021349Y-17177314D01*
X5002301Y-17167790D01*
X5126111Y-17282076D02*
X5126111Y-17148743D01*
X5126111Y-17167790D02*
X5135635Y-17158267D01*
X5154682Y-17148743D01*
X5183254Y-17148743D01*
X5202301Y-17158267D01*
X5211825Y-17177314D01*
X5211825Y-17282076D01*
X5211825Y-17177314D02*
X5221349Y-17158267D01*
X5240397Y-17148743D01*
X5268968Y-17148743D01*
X5288016Y-17158267D01*
X5297539Y-17177314D01*
X5297539Y-17282076D01*
X5392778Y-17282076D02*
X5392778Y-17148743D01*
X5392778Y-17167790D02*
X5402301Y-17158267D01*
X5421349Y-17148743D01*
X5449920Y-17148743D01*
X5468968Y-17158267D01*
X5478492Y-17177314D01*
X5478492Y-17282076D01*
X5478492Y-17177314D02*
X5488016Y-17158267D01*
X5507063Y-17148743D01*
X5535635Y-17148743D01*
X5554682Y-17158267D01*
X5564206Y-17177314D01*
X5564206Y-17282076D01*
X5954682Y-17072552D02*
X5783254Y-17329695D01*
X6211825Y-17082076D02*
X6230873Y-17082076D01*
X6249920Y-17091600D01*
X6259444Y-17101124D01*
X6268968Y-17120171D01*
X6278492Y-17158267D01*
X6278492Y-17205886D01*
X6268968Y-17243981D01*
X6259444Y-17263029D01*
X6249920Y-17272552D01*
X6230873Y-17282076D01*
X6211825Y-17282076D01*
X6192777Y-17272552D01*
X6183254Y-17263029D01*
X6173730Y-17243981D01*
X6164206Y-17205886D01*
X6164206Y-17158267D01*
X6173730Y-17120171D01*
X6183254Y-17101124D01*
X6192777Y-17091600D01*
X6211825Y-17082076D01*
X6364206Y-17263029D02*
X6373730Y-17272552D01*
X6364206Y-17282076D01*
X6354682Y-17272552D01*
X6364206Y-17263029D01*
X6364206Y-17282076D01*
X6564206Y-17282076D02*
X6449920Y-17282076D01*
X6507063Y-17282076D02*
X6507063Y-17082076D01*
X6488016Y-17110648D01*
X6468968Y-17129695D01*
X6449920Y-17139219D01*
X6745158Y-17082076D02*
X6649920Y-17082076D01*
X6640397Y-17177314D01*
X6649920Y-17167790D01*
X6668968Y-17158267D01*
X6716587Y-17158267D01*
X6735635Y-17167790D01*
X6745158Y-17177314D01*
X6754682Y-17196362D01*
X6754682Y-17243981D01*
X6745158Y-17263029D01*
X6735635Y-17272552D01*
X6716587Y-17282076D01*
X6668968Y-17282076D01*
X6649920Y-17272552D01*
X6640397Y-17263029D01*
X6821349Y-17082076D02*
X6954682Y-17082076D01*
X6868968Y-17282076D01*
X7068968Y-17082076D02*
X7088016Y-17082076D01*
X7107063Y-17091600D01*
X7116587Y-17101124D01*
X7126111Y-17120171D01*
X7135635Y-17158267D01*
X7135635Y-17205886D01*
X7126111Y-17243981D01*
X7116587Y-17263029D01*
X7107063Y-17272552D01*
X7088016Y-17282076D01*
X7068968Y-17282076D01*
X7049920Y-17272552D01*
X7040397Y-17263029D01*
X7030873Y-17243981D01*
X7021349Y-17205886D01*
X7021349Y-17158267D01*
X7030873Y-17120171D01*
X7040397Y-17101124D01*
X7049920Y-17091600D01*
X7068968Y-17082076D01*
X7211825Y-17082076D02*
X7211825Y-17120171D01*
X7288016Y-17082076D02*
X7288016Y-17120171D01*
X7583254Y-17358267D02*
X7573730Y-17348743D01*
X7554682Y-17320171D01*
X7545158Y-17301124D01*
X7535635Y-17272552D01*
X7526111Y-17224933D01*
X7526111Y-17186838D01*
X7535635Y-17139219D01*
X7545158Y-17110648D01*
X7554682Y-17091600D01*
X7573730Y-17063029D01*
X7583254Y-17053505D01*
X7745158Y-17148743D02*
X7745158Y-17282076D01*
X7697539Y-17072552D02*
X7649920Y-17215410D01*
X7773730Y-17215410D01*
X7878492Y-17167790D02*
X7859444Y-17158267D01*
X7849920Y-17148743D01*
X7840397Y-17129695D01*
X7840397Y-17120171D01*
X7849920Y-17101124D01*
X7859444Y-17091600D01*
X7878492Y-17082076D01*
X7916587Y-17082076D01*
X7935635Y-17091600D01*
X7945158Y-17101124D01*
X7954682Y-17120171D01*
X7954682Y-17129695D01*
X7945158Y-17148743D01*
X7935635Y-17158267D01*
X7916587Y-17167790D01*
X7878492Y-17167790D01*
X7859444Y-17177314D01*
X7849920Y-17186838D01*
X7840397Y-17205886D01*
X7840397Y-17243981D01*
X7849920Y-17263029D01*
X7859444Y-17272552D01*
X7878492Y-17282076D01*
X7916587Y-17282076D01*
X7935635Y-17272552D01*
X7945158Y-17263029D01*
X7954682Y-17243981D01*
X7954682Y-17205886D01*
X7945158Y-17186838D01*
X7935635Y-17177314D01*
X7916587Y-17167790D01*
X8192777Y-17282076D02*
X8192777Y-17082076D01*
X8278492Y-17282076D02*
X8278492Y-17177314D01*
X8268968Y-17158267D01*
X8249920Y-17148743D01*
X8221349Y-17148743D01*
X8202301Y-17158267D01*
X8192777Y-17167790D01*
X8402301Y-17282076D02*
X8383254Y-17272552D01*
X8373730Y-17263029D01*
X8364206Y-17243981D01*
X8364206Y-17186838D01*
X8373730Y-17167790D01*
X8383254Y-17158267D01*
X8402301Y-17148743D01*
X8430873Y-17148743D01*
X8449920Y-17158267D01*
X8459444Y-17167790D01*
X8468968Y-17186838D01*
X8468968Y-17243981D01*
X8459444Y-17263029D01*
X8449920Y-17272552D01*
X8430873Y-17282076D01*
X8402301Y-17282076D01*
X8583254Y-17282076D02*
X8564206Y-17272552D01*
X8554682Y-17253505D01*
X8554682Y-17082076D01*
X8735635Y-17272552D02*
X8716587Y-17282076D01*
X8678492Y-17282076D01*
X8659444Y-17272552D01*
X8649920Y-17253505D01*
X8649920Y-17177314D01*
X8659444Y-17158267D01*
X8678492Y-17148743D01*
X8716587Y-17148743D01*
X8735635Y-17158267D01*
X8745159Y-17177314D01*
X8745159Y-17196362D01*
X8649920Y-17215410D01*
X8821349Y-17272552D02*
X8840397Y-17282076D01*
X8878492Y-17282076D01*
X8897539Y-17272552D01*
X8907063Y-17253505D01*
X8907063Y-17243981D01*
X8897539Y-17224933D01*
X8878492Y-17215410D01*
X8849920Y-17215410D01*
X8830873Y-17205886D01*
X8821349Y-17186838D01*
X8821349Y-17177314D01*
X8830873Y-17158267D01*
X8849920Y-17148743D01*
X8878492Y-17148743D01*
X8897539Y-17158267D01*
X8973730Y-17358267D02*
X8983254Y-17348743D01*
X9002301Y-17320171D01*
X9011825Y-17301124D01*
X9021349Y-17272552D01*
X9030873Y-17224933D01*
X9030873Y-17186838D01*
X9021349Y-17139219D01*
X9011825Y-17110648D01*
X9002301Y-17091600D01*
X8983254Y-17063029D01*
X8973730Y-17053505D01*
X9335635Y-17358267D02*
X9326111Y-17348743D01*
X9307063Y-17320171D01*
X9297539Y-17301124D01*
X9288016Y-17272552D01*
X9278492Y-17224933D01*
X9278492Y-17186838D01*
X9288016Y-17139219D01*
X9297539Y-17110648D01*
X9307063Y-17091600D01*
X9326111Y-17063029D01*
X9335635Y-17053505D01*
X9411825Y-17148743D02*
X9411825Y-17282076D01*
X9411825Y-17167790D02*
X9421349Y-17158267D01*
X9440397Y-17148743D01*
X9468968Y-17148743D01*
X9488016Y-17158267D01*
X9497539Y-17177314D01*
X9497539Y-17282076D01*
X9621349Y-17282076D02*
X9602301Y-17272552D01*
X9592778Y-17263029D01*
X9583254Y-17243981D01*
X9583254Y-17186838D01*
X9592778Y-17167790D01*
X9602301Y-17158267D01*
X9621349Y-17148743D01*
X9649920Y-17148743D01*
X9668968Y-17158267D01*
X9678492Y-17167790D01*
X9688016Y-17186838D01*
X9688016Y-17243981D01*
X9678492Y-17263029D01*
X9668968Y-17272552D01*
X9649920Y-17282076D01*
X9621349Y-17282076D01*
X9745159Y-17148743D02*
X9821349Y-17148743D01*
X9773730Y-17082076D02*
X9773730Y-17253505D01*
X9783254Y-17272552D01*
X9802301Y-17282076D01*
X9821349Y-17282076D01*
X10040397Y-17148743D02*
X10040397Y-17348743D01*
X10040397Y-17158267D02*
X10059444Y-17148743D01*
X10097539Y-17148743D01*
X10116587Y-17158267D01*
X10126111Y-17167790D01*
X10135635Y-17186838D01*
X10135635Y-17243981D01*
X10126111Y-17263029D01*
X10116587Y-17272552D01*
X10097539Y-17282076D01*
X10059444Y-17282076D01*
X10040397Y-17272552D01*
X10249920Y-17282076D02*
X10230873Y-17272552D01*
X10221349Y-17253505D01*
X10221349Y-17082076D01*
X10411825Y-17282076D02*
X10411825Y-17177314D01*
X10402301Y-17158267D01*
X10383254Y-17148743D01*
X10345159Y-17148743D01*
X10326111Y-17158267D01*
X10411825Y-17272552D02*
X10392778Y-17282076D01*
X10345159Y-17282076D01*
X10326111Y-17272552D01*
X10316587Y-17253505D01*
X10316587Y-17234457D01*
X10326111Y-17215410D01*
X10345159Y-17205886D01*
X10392778Y-17205886D01*
X10411825Y-17196362D01*
X10478492Y-17148743D02*
X10554682Y-17148743D01*
X10507063Y-17082076D02*
X10507063Y-17253505D01*
X10516587Y-17272552D01*
X10535635Y-17282076D01*
X10554682Y-17282076D01*
X10697539Y-17272552D02*
X10678492Y-17282076D01*
X10640397Y-17282076D01*
X10621349Y-17272552D01*
X10611825Y-17253505D01*
X10611825Y-17177314D01*
X10621349Y-17158267D01*
X10640397Y-17148743D01*
X10678492Y-17148743D01*
X10697539Y-17158267D01*
X10707063Y-17177314D01*
X10707063Y-17196362D01*
X10611825Y-17215410D01*
X10878492Y-17282076D02*
X10878492Y-17082076D01*
X10878492Y-17272552D02*
X10859444Y-17282076D01*
X10821349Y-17282076D01*
X10802301Y-17272552D01*
X10792778Y-17263029D01*
X10783254Y-17243981D01*
X10783254Y-17186838D01*
X10792778Y-17167790D01*
X10802301Y-17158267D01*
X10821349Y-17148743D01*
X10859444Y-17148743D01*
X10878492Y-17158267D01*
X10954682Y-17358267D02*
X10964206Y-17348743D01*
X10983254Y-17320171D01*
X10992778Y-17301124D01*
X11002301Y-17272552D01*
X11011825Y-17224933D01*
X11011825Y-17186838D01*
X11002301Y-17139219D01*
X10992778Y-17110648D01*
X10983254Y-17091600D01*
X10964206Y-17063029D01*
X10954682Y-17053505D01*
M02*
