M48
; DRILL file {KiCad (6.0.5)} date Thu Jul 14 17:40:35 2022
; FORMAT={-:-/ absolute / metric / decimal}
; #@! TF.CreationDate,2022-07-14T17:40:35-06:00
; #@! TF.GenerationSoftware,Kicad,Pcbnew,(6.0.5)
; #@! TF.FileFunction,NonPlated,1,2,NPTH
FMAT,2
METRIC
; #@! TA.AperFunction,NonPlated,NPTH,ComponentDrill
T1C1.500
; #@! TA.AperFunction,NonPlated,NPTH,ComponentDrill
T2C1.750
; #@! TA.AperFunction,NonPlated,NPTH,ComponentDrill
T3C3.000
; #@! TA.AperFunction,NonPlated,NPTH,ComponentDrill
T4C3.048
; #@! TA.AperFunction,NonPlated,NPTH,ComponentDrill
T5C3.988
%
G90
G05
T2
X43.815Y-82.772
X48.578Y-101.822
X53.34Y-63.722
X53.975Y-82.772
X58.102Y-120.872
X58.737Y-101.822
X62.865Y-82.772
X62.865Y-139.922
X63.5Y-63.722
X67.627Y-101.822
X68.263Y-120.872
X72.39Y-63.722
X73.025Y-82.772
X73.025Y-139.922
X77.153Y-120.872
X77.787Y-101.822
X81.915Y-82.772
X82.55Y-63.722
X86.677Y-101.822
X87.312Y-120.872
X89.059Y-139.922
X91.44Y-63.722
X92.075Y-82.772
X96.203Y-120.872
X96.837Y-101.822
X99.219Y-139.922
X100.965Y-82.772
X101.6Y-63.722
X105.727Y-101.822
X106.362Y-120.872
X110.49Y-63.722
X111.125Y-82.772
X112.871Y-139.922
X115.252Y-120.872
X115.887Y-101.822
X120.015Y-82.772
X120.65Y-63.722
X123.031Y-139.922
X124.777Y-101.822
X125.412Y-120.872
X129.54Y-63.722
X130.175Y-82.772
X134.302Y-120.872
X134.938Y-101.822
X136.684Y-139.922
X139.065Y-82.772
X139.7Y-63.722
X143.827Y-101.822
X144.463Y-120.872
X146.844Y-139.922
X148.59Y-63.722
X149.225Y-82.772
X153.987Y-101.822
X158.115Y-82.772
X158.75Y-63.722
X160.496Y-139.922
X168.275Y-82.772
X170.021Y-120.872
X170.656Y-139.922
X174.784Y-101.822
X177.165Y-63.722
X180.181Y-120.872
X181.927Y-82.772
X184.944Y-101.822
X187.325Y-63.722
X191.452Y-144.685
X192.087Y-82.772
X201.612Y-144.685
X210.502Y-58.96
X210.502Y-82.772
X210.502Y-101.822
X210.502Y-125.635
X210.502Y-144.685
X220.662Y-58.96
X220.662Y-82.772
X220.662Y-101.822
X220.662Y-125.635
X220.662Y-144.685
X229.552Y-82.772
X229.552Y-101.822
X229.552Y-144.685
X239.712Y-82.772
X239.712Y-101.822
X239.712Y-144.685
T3
X45.085Y-80.232
X49.847Y-99.282
X51.435Y-77.692
X54.61Y-61.182
X56.197Y-96.742
X59.372Y-118.332
X60.96Y-58.642
X64.135Y-80.232
X64.135Y-137.382
X65.722Y-115.792
X68.897Y-99.282
X70.485Y-77.692
X70.485Y-134.842
X73.66Y-61.182
X75.248Y-96.742
X78.422Y-118.332
X80.01Y-58.642
X83.185Y-80.232
X84.772Y-115.792
X87.947Y-99.282
X89.535Y-77.692
X90.329Y-137.382
X92.71Y-61.182
X94.297Y-96.742
X96.679Y-134.842
X97.472Y-118.332
X99.06Y-58.642
X102.235Y-80.232
X103.822Y-115.792
X106.997Y-99.282
X108.585Y-77.692
X111.76Y-61.182
X113.347Y-96.742
X114.141Y-137.382
X116.522Y-118.332
X118.11Y-58.642
X120.491Y-134.842
X121.285Y-80.232
X122.872Y-115.792
X126.047Y-99.282
X127.635Y-77.692
X130.81Y-61.182
X132.398Y-96.742
X135.572Y-118.332
X137.16Y-58.642
X137.954Y-137.382
X140.335Y-80.232
X141.922Y-115.792
X144.304Y-134.842
X145.097Y-99.282
X146.685Y-77.692
X149.86Y-61.182
X151.447Y-96.742
X156.21Y-58.642
X159.385Y-80.232
X161.766Y-137.382
X165.735Y-77.692
X168.116Y-134.842
X171.291Y-118.332
X176.054Y-99.282
X177.641Y-115.792
X178.435Y-61.182
X182.404Y-96.742
X183.197Y-80.232
X184.785Y-58.642
X189.547Y-77.692
X192.722Y-142.145
X199.072Y-139.605
X211.772Y-56.42
X211.772Y-80.232
X211.772Y-99.282
X211.772Y-123.095
X211.772Y-142.145
X218.123Y-53.88
X218.123Y-77.692
X218.123Y-96.742
X218.123Y-120.555
X218.123Y-139.605
X230.822Y-80.232
X230.822Y-99.282
X230.822Y-142.145
X237.172Y-77.692
X237.172Y-96.742
X237.172Y-139.605
T4
X163.163Y-113.887
X167.926Y-94.837
X170.307Y-56.737
X187.039Y-113.887
X191.802Y-94.837
X194.183Y-56.737
T5
X48.895Y-82.772
X53.657Y-101.822
X58.42Y-63.722
X63.182Y-120.872
X67.945Y-82.772
X67.945Y-139.922
X72.707Y-101.822
X77.47Y-63.722
X82.233Y-120.872
X86.995Y-82.772
X91.757Y-101.822
X94.139Y-139.922
X96.52Y-63.722
X101.282Y-120.872
X106.045Y-82.772
X110.807Y-101.822
X115.57Y-63.722
X117.951Y-139.922
X120.332Y-120.872
X125.095Y-82.772
X129.857Y-101.822
X134.62Y-63.722
X139.382Y-120.872
X141.764Y-139.922
X144.145Y-82.772
X148.907Y-101.822
X153.67Y-63.722
X163.163Y-129.127
X163.195Y-82.772
X165.576Y-139.922
X167.926Y-110.077
X170.307Y-71.977
X175.101Y-120.872
X179.864Y-101.822
X182.245Y-63.722
X187.007Y-82.772
X187.039Y-129.127
X191.802Y-110.077
X194.183Y-71.977
X196.532Y-144.685
X215.582Y-58.96
X215.582Y-82.772
X215.582Y-101.822
X215.582Y-125.635
X215.582Y-144.685
X234.632Y-82.772
X234.632Y-101.822
X234.632Y-144.685
T1
X240.045Y-53.36G85X238.745Y-53.36
G05
X240.045Y-64.56G85X238.745Y-64.56
G05
T0
M30
