M48
; DRILL file {KiCad (6.0.5)} date Thu Jul 14 01:37:45 2022
; FORMAT={-:-/ absolute / metric / decimal}
; #@! TF.CreationDate,2022-07-14T01:37:45-06:00
; #@! TF.GenerationSoftware,Kicad,Pcbnew,(6.0.5)
; #@! TF.FileFunction,Plated,1,2,PTH
FMAT,2
METRIC
; #@! TA.AperFunction,Plated,PTH,ViaDrill
T1C0.400
; #@! TA.AperFunction,Plated,PTH,ComponentDrill
T2C1.000
; #@! TA.AperFunction,Plated,PTH,ComponentDrill
T3C1.300
%
G90
G05
T1
X44.164Y-85.693
X48.863Y-104.743
X51.276Y-95.472
X51.53Y-86.074
X56.229Y-105.124
X56.483Y-72.612
X59.531Y-91.662
X59.531Y-147.542
X61.055Y-66.897
X61.309Y-129.762
X61.436Y-85.312
X65.119Y-96.996
X65.246Y-77.946
X65.754Y-124.174
X66.516Y-95.472
X69.818Y-110.712
X70.453Y-67.532
X70.58Y-143.478
X71.596Y-95.472
X72.993Y-116.173
X74.644Y-72.739
X76.676Y-80.232
X76.676Y-85.312
X76.676Y-115.792
X78.454Y-91.662
X79.47Y-129.889
X80.232Y-65.373
X81.756Y-85.312
X81.756Y-95.472
X81.756Y-115.792
X81.756Y-136.112
X83.153Y-110.712
X85.82Y-147.669
X86.836Y-95.472
X87.217Y-134.588
X87.658Y-76.362
X88.487Y-96.996
X89.376Y-67.802
X92.17Y-116.808
X96.996Y-85.312
X96.996Y-115.792
X97.631Y-91.789
X98.52Y-130.016
X99.409Y-65.373
X102.076Y-85.312
X102.076Y-95.472
X105.378Y-77.692
X107.156Y-95.472
X107.156Y-136.112
X107.156Y-141.192
X108.045Y-110.712
X108.553Y-67.802
X109.442Y-147.669
X109.873Y-97.536
X110.839Y-116.427
X110.839Y-134.461
X117.316Y-85.312
X117.316Y-115.792
X117.697Y-129.889
X118.459Y-65.373
X122.396Y-85.312
X122.396Y-95.472
X122.65Y-91.662
X124.301Y-77.819
X127.476Y-67.802
X127.476Y-136.112
X127.476Y-141.192
X128.923Y-97.536
X131.413Y-116.3
X132.556Y-135.477
X132.556Y-141.192
X133.191Y-147.669
X136.747Y-130.143
X137.636Y-85.312
X137.636Y-115.792
X137.763Y-64.865
X141.446Y-91.662
X142.716Y-95.472
X144.808Y-79.022
X146.145Y-110.839
X146.558Y-68.361
X146.907Y-86.074
X147.973Y-97.536
X152.876Y-80.232
X152.876Y-85.312
X152.876Y-136.112
X152.876Y-141.192
X153.257Y-58.388
X156.813Y-135.35
X157.067Y-147.669
X157.956Y-85.312
X157.956Y-110.712
X157.956Y-115.792
X157.956Y-120.872
X157.956Y-141.192
X160.623Y-91.662
X163.036Y-95.472
X163.036Y-100.552
X163.036Y-110.712
X163.036Y-120.872
X166.084Y-86.074
X168.116Y-100.552
X171.672Y-97.123
X172.18Y-76.041
X172.434Y-130.016
X173.171Y-115.513
X174.037Y-67.924
X176.784Y-68.199
X177.133Y-110.839
X178.276Y-85.312
X178.276Y-141.192
X178.435Y-72.771
X178.53Y-91.662
X183.356Y-85.312
X183.356Y-141.192
X187.293Y-139.922
X188.436Y-39.592
X188.436Y-120.872
X188.577Y-46.555
X188.684Y-47.855
X188.817Y-151.225
X189.421Y-48.531
X189.706Y-86.201
X190.147Y-49.338
X190.373Y-72.898
X190.874Y-50.06
X191.602Y-50.744
X192.373Y-48.736
X193.516Y-59.912
X193.516Y-64.992
X193.516Y-100.552
X193.516Y-120.872
X195.04Y-52.927
X196.91Y-43.113
X196.945Y-69.977
X197.961Y-90.586
X197.964Y-43.14
X198.964Y-43.149
X199.009Y-108.204
X199.009Y-133.604
X199.963Y-43.148
X200.963Y-43.148
X201.419Y-47.339
X202.045Y-48.999
X202.533Y-60.928
X202.597Y-127.921
X202.627Y-107.355
X202.627Y-69.148
X202.644Y-89.138
X203.676Y-76.041
X204.311Y-60.42
X205.257Y-151.155
X205.708Y-96.488
X205.708Y-120.618
X205.962Y-139.668
X206.724Y-150.209
X207.105Y-91.662
X207.105Y-134.588
X207.105Y-152.368
X208.756Y-59.912
X208.756Y-85.312
X212.852Y-67.945
X212.947Y-111.093
X218.154Y-62.198
X218.408Y-86.074
X218.916Y-115.792
X224.377Y-132.81
X224.631Y-109.188
X225.139Y-96.996
X225.266Y-140.049
X226.155Y-152.368
X226.282Y-91.662
X227.552Y-82.899
X229.076Y-70.072
X229.076Y-75.152
X229.076Y-85.312
X229.076Y-115.792
X229.076Y-120.872
X229.076Y-125.952
X231.743Y-110.966
X234.156Y-115.792
X234.156Y-120.872
X234.156Y-125.952
X239.236Y-59.912
X239.236Y-70.072
X239.236Y-115.792
X240.379Y-90.773
X241.776Y-110.585
X244.316Y-64.992
T2
X163.957Y-56.007
X163.957Y-58.547
X163.957Y-61.087
X163.957Y-63.627
X163.957Y-66.167
X163.957Y-68.707
X163.957Y-71.247
X163.957Y-73.787
X188.722Y-117.475
X191.262Y-117.475
X193.802Y-117.475
X196.342Y-117.475
X198.882Y-117.475
X201.422Y-117.475
X203.962Y-117.475
X206.502Y-117.475
X207.391Y-71.755
X209.042Y-117.475
X209.931Y-71.755
X212.471Y-71.755
X215.011Y-71.755
X217.551Y-71.755
X220.091Y-71.755
X227.076Y-52.847
X227.076Y-55.387
X227.076Y-57.927
X232.395Y-56.46
X232.395Y-61.46
X246.895Y-56.46
X246.895Y-58.96
X246.895Y-61.46
T3
X188.023Y-37.616
X188.023Y-53.316
X192.923Y-38.216
X192.923Y-52.716
T0
M30
