%TF.GenerationSoftware,KiCad,Pcbnew,(6.0.5)*%
%TF.CreationDate,2022-07-14T17:40:31-06:00*%
%TF.ProjectId,kb_right,6b625f72-6967-4687-942e-6b696361645f,rev?*%
%TF.SameCoordinates,Original*%
%TF.FileFunction,Legend,Top*%
%TF.FilePolarity,Positive*%
%FSLAX46Y46*%
G04 Gerber Fmt 4.6, Leading zero omitted, Abs format (unit mm)*
G04 Created by KiCad (PCBNEW (6.0.5)) date 2022-07-14 17:40:31*
%MOMM*%
%LPD*%
G01*
G04 APERTURE LIST*
%ADD10C,0.150000*%
%ADD11C,0.120000*%
%ADD12C,3.987800*%
%ADD13C,3.000000*%
%ADD14C,1.750000*%
%ADD15C,3.048000*%
%ADD16R,1.700000X1.700000*%
%ADD17O,1.700000X1.700000*%
%ADD18O,3.200000X2.000000*%
%ADD19R,2.000000X2.000000*%
%ADD20C,2.000000*%
%ADD21C,1.950000*%
G04 APERTURE END LIST*
D10*
%TO.C,J3*%
X222551666Y-71207380D02*
X222551666Y-71921666D01*
X222504047Y-72064523D01*
X222408809Y-72159761D01*
X222265952Y-72207380D01*
X222170714Y-72207380D01*
X222932619Y-71207380D02*
X223551666Y-71207380D01*
X223218333Y-71588333D01*
X223361190Y-71588333D01*
X223456428Y-71635952D01*
X223504047Y-71683571D01*
X223551666Y-71778809D01*
X223551666Y-72016904D01*
X223504047Y-72112142D01*
X223456428Y-72159761D01*
X223361190Y-72207380D01*
X223075476Y-72207380D01*
X222980238Y-72159761D01*
X222932619Y-72112142D01*
%TO.C,J2*%
X229536666Y-52284380D02*
X229536666Y-52998666D01*
X229489047Y-53141523D01*
X229393809Y-53236761D01*
X229250952Y-53284380D01*
X229155714Y-53284380D01*
X229965238Y-52379619D02*
X230012857Y-52332000D01*
X230108095Y-52284380D01*
X230346190Y-52284380D01*
X230441428Y-52332000D01*
X230489047Y-52379619D01*
X230536666Y-52474857D01*
X230536666Y-52570095D01*
X230489047Y-52712952D01*
X229917619Y-53284380D01*
X230536666Y-53284380D01*
%TO.C,J4*%
X160702666Y-54794380D02*
X160702666Y-55508666D01*
X160655047Y-55651523D01*
X160559809Y-55746761D01*
X160416952Y-55794380D01*
X160321714Y-55794380D01*
X161607428Y-55127714D02*
X161607428Y-55794380D01*
X161369333Y-54746761D02*
X161131238Y-55461047D01*
X161750285Y-55461047D01*
%TO.C,J5*%
X185594666Y-116927380D02*
X185594666Y-117641666D01*
X185547047Y-117784523D01*
X185451809Y-117879761D01*
X185308952Y-117927380D01*
X185213714Y-117927380D01*
X186547047Y-116927380D02*
X186070857Y-116927380D01*
X186023238Y-117403571D01*
X186070857Y-117355952D01*
X186166095Y-117308333D01*
X186404190Y-117308333D01*
X186499428Y-117355952D01*
X186547047Y-117403571D01*
X186594666Y-117498809D01*
X186594666Y-117736904D01*
X186547047Y-117832142D01*
X186499428Y-117879761D01*
X186404190Y-117927380D01*
X186166095Y-117927380D01*
X186070857Y-117879761D01*
X186023238Y-117832142D01*
D11*
%TO.C,J3*%
X218821000Y-73085000D02*
X206061000Y-73085000D01*
X220091000Y-70425000D02*
X221421000Y-70425000D01*
X206061000Y-70425000D02*
X206061000Y-73085000D01*
X221421000Y-70425000D02*
X221421000Y-71755000D01*
X218821000Y-70425000D02*
X218821000Y-73085000D01*
X218821000Y-70425000D02*
X206061000Y-70425000D01*
%TO.C,J2*%
X225746000Y-51517000D02*
X227076000Y-51517000D01*
X225746000Y-59257000D02*
X228406000Y-59257000D01*
X225746000Y-52847000D02*
X225746000Y-51517000D01*
X228406000Y-54117000D02*
X228406000Y-59257000D01*
X225746000Y-54117000D02*
X228406000Y-54117000D01*
X225746000Y-54117000D02*
X225746000Y-59257000D01*
%TO.C,J4*%
X162627000Y-57277000D02*
X165287000Y-57277000D01*
X162627000Y-54677000D02*
X163957000Y-54677000D01*
X165287000Y-57277000D02*
X165287000Y-75117000D01*
X162627000Y-56007000D02*
X162627000Y-54677000D01*
X162627000Y-75117000D02*
X165287000Y-75117000D01*
X162627000Y-57277000D02*
X162627000Y-75117000D01*
%TO.C,SW0*%
X239395000Y-59459750D02*
X239395000Y-58459750D01*
X246895000Y-62759750D02*
X247195000Y-63059750D01*
X233295000Y-64859750D02*
X233295000Y-62459750D01*
X247195000Y-63059750D02*
X246595000Y-63059750D01*
X246595000Y-63059750D02*
X246895000Y-62759750D01*
X237395000Y-64859750D02*
X233295000Y-64859750D01*
X233295000Y-53059750D02*
X237395000Y-53059750D01*
X233295000Y-60259750D02*
X233295000Y-57659750D01*
X241395000Y-53059750D02*
X245495000Y-53059750D01*
X245495000Y-64859750D02*
X245495000Y-53059750D01*
X233295000Y-55459750D02*
X233295000Y-53059750D01*
X241395000Y-64859750D02*
X245495000Y-64859750D01*
X239895000Y-58959750D02*
X238895000Y-58959750D01*
X242395000Y-58959750D02*
G75*
G03*
X242395000Y-58959750I-3000000J0D01*
G01*
%TO.C,J5*%
X189992000Y-118805000D02*
X210372000Y-118805000D01*
X189992000Y-116145000D02*
X210372000Y-116145000D01*
X189992000Y-118805000D02*
X189992000Y-116145000D01*
X210372000Y-118805000D02*
X210372000Y-116145000D01*
X188722000Y-118805000D02*
X187392000Y-118805000D01*
X187392000Y-118805000D02*
X187392000Y-117475000D01*
%TD*%
%LPC*%
D12*
%TO.C,MX15*%
X163195000Y-82772250D03*
D13*
X165735000Y-77692250D03*
D14*
X158115000Y-82772250D03*
X168275000Y-82772250D03*
D13*
X159385000Y-80232250D03*
%TD*%
%TO.C,MX33*%
X211772500Y-123094750D03*
X218122500Y-120554750D03*
D14*
X210502500Y-125634750D03*
X220662500Y-125634750D03*
D12*
X215582500Y-125634750D03*
%TD*%
D14*
%TO.C,MX10*%
X62865000Y-82772250D03*
X73025000Y-82772250D03*
D13*
X70485000Y-77692250D03*
D12*
X67945000Y-82772250D03*
D13*
X64135000Y-80232250D03*
%TD*%
D12*
%TO.C,MX4*%
X115570000Y-63722250D03*
D14*
X110490000Y-63722250D03*
D13*
X118110000Y-58642250D03*
X111760000Y-61182250D03*
D14*
X120650000Y-63722250D03*
%TD*%
D13*
%TO.C,MX6*%
X149860000Y-61182250D03*
X156210000Y-58642250D03*
D14*
X158750000Y-63722250D03*
X148590000Y-63722250D03*
D12*
X153670000Y-63722250D03*
%TD*%
D13*
%TO.C,MX32*%
X171291250Y-118332250D03*
X177641250Y-115792250D03*
D14*
X180181250Y-120872250D03*
D15*
X187039250Y-113887250D03*
D12*
X175101250Y-120872250D03*
D14*
X170021250Y-120872250D03*
D15*
X163163250Y-113887250D03*
D12*
X187039250Y-129127250D03*
X163163250Y-129127250D03*
%TD*%
D14*
%TO.C,MX31*%
X134302500Y-120872250D03*
X144462500Y-120872250D03*
D13*
X141922500Y-115792250D03*
D12*
X139382500Y-120872250D03*
D13*
X135572500Y-118332250D03*
%TD*%
D16*
%TO.C,J3*%
X220091000Y-71755000D03*
D17*
X217551000Y-71755000D03*
X215011000Y-71755000D03*
X212471000Y-71755000D03*
X209931000Y-71755000D03*
X207391000Y-71755000D03*
%TD*%
D12*
%TO.C,MX37*%
X117951250Y-139922250D03*
D13*
X120491250Y-134842250D03*
D14*
X123031250Y-139922250D03*
X112871250Y-139922250D03*
D13*
X114141250Y-137382250D03*
%TD*%
D12*
%TO.C,MX42*%
X234632500Y-144684750D03*
D13*
X237172500Y-139604750D03*
D14*
X239712500Y-144684750D03*
D13*
X230822500Y-142144750D03*
D14*
X229552500Y-144684750D03*
%TD*%
D12*
%TO.C,MX16*%
X187007500Y-82772250D03*
D13*
X189547500Y-77692250D03*
D14*
X181927500Y-82772250D03*
D13*
X183197500Y-80232250D03*
D14*
X192087500Y-82772250D03*
%TD*%
%TO.C,MX8*%
X220662500Y-58959750D03*
D13*
X218122500Y-53879750D03*
X211772500Y-56419750D03*
D12*
X215582500Y-58959750D03*
D14*
X210502500Y-58959750D03*
%TD*%
D16*
%TO.C,J2*%
X227076000Y-52847000D03*
D17*
X227076000Y-55387000D03*
X227076000Y-57927000D03*
%TD*%
D13*
%TO.C,MX13*%
X127635000Y-77692250D03*
D12*
X125095000Y-82772250D03*
D14*
X130175000Y-82772250D03*
D13*
X121285000Y-80232250D03*
D14*
X120015000Y-82772250D03*
%TD*%
D12*
%TO.C,MX23*%
X148907500Y-101822250D03*
D13*
X145097500Y-99282250D03*
D14*
X153987500Y-101822250D03*
X143827500Y-101822250D03*
D13*
X151447500Y-96742250D03*
%TD*%
D14*
%TO.C,MX39*%
X170656250Y-139922250D03*
D12*
X165576250Y-139922250D03*
D13*
X161766250Y-137382250D03*
D14*
X160496250Y-139922250D03*
D13*
X168116250Y-134842250D03*
%TD*%
D14*
%TO.C,MX1*%
X53340000Y-63722250D03*
D12*
X58420000Y-63722250D03*
D13*
X54610000Y-61182250D03*
X60960000Y-58642250D03*
D14*
X63500000Y-63722250D03*
%TD*%
D16*
%TO.C,J4*%
X163957000Y-56007000D03*
D17*
X163957000Y-58547000D03*
X163957000Y-61087000D03*
X163957000Y-63627000D03*
X163957000Y-66167000D03*
X163957000Y-68707000D03*
X163957000Y-71247000D03*
X163957000Y-73787000D03*
%TD*%
D14*
%TO.C,MX27*%
X68262500Y-120872250D03*
D13*
X59372500Y-118332250D03*
D14*
X58102500Y-120872250D03*
D13*
X65722500Y-115792250D03*
D12*
X63182500Y-120872250D03*
%TD*%
D14*
%TO.C,MX41*%
X210502500Y-144684750D03*
D12*
X215582500Y-144684750D03*
D14*
X220662500Y-144684750D03*
D13*
X218122500Y-139604750D03*
X211772500Y-142144750D03*
%TD*%
D12*
%TO.C,MX17*%
X215582500Y-82772250D03*
D14*
X220662500Y-82772250D03*
D13*
X218122500Y-77692250D03*
X211772500Y-80232250D03*
D14*
X210502500Y-82772250D03*
%TD*%
%TO.C,MX3*%
X91440000Y-63722250D03*
X101600000Y-63722250D03*
D13*
X99060000Y-58642250D03*
D12*
X96520000Y-63722250D03*
D13*
X92710000Y-61182250D03*
%TD*%
D14*
%TO.C,MX30*%
X115252500Y-120872250D03*
X125412500Y-120872250D03*
D13*
X122872500Y-115792250D03*
X116522500Y-118332250D03*
D12*
X120332500Y-120872250D03*
%TD*%
D14*
%TO.C,MX22*%
X134937500Y-101822250D03*
D13*
X126047500Y-99282250D03*
D12*
X129857500Y-101822250D03*
D14*
X124777500Y-101822250D03*
D13*
X132397500Y-96742250D03*
%TD*%
%TO.C,MX25*%
X218122500Y-96742250D03*
D14*
X220662500Y-101822250D03*
X210502500Y-101822250D03*
D13*
X211772500Y-99282250D03*
D12*
X215582500Y-101822250D03*
%TD*%
D15*
%TO.C,MX24*%
X191801750Y-94837250D03*
D13*
X176053750Y-99282250D03*
D12*
X191801750Y-110077250D03*
D14*
X174783750Y-101822250D03*
D12*
X179863750Y-101822250D03*
D15*
X167925750Y-94837250D03*
D13*
X182403750Y-96742250D03*
D14*
X184943750Y-101822250D03*
D12*
X167925750Y-110077250D03*
%TD*%
D14*
%TO.C,MX14*%
X139065000Y-82772250D03*
D12*
X144145000Y-82772250D03*
D13*
X140335000Y-80232250D03*
X146685000Y-77692250D03*
D14*
X149225000Y-82772250D03*
%TD*%
D15*
%TO.C,MX7*%
X170307000Y-56737250D03*
D12*
X194183000Y-71977250D03*
D13*
X178435000Y-61182250D03*
D15*
X194183000Y-56737250D03*
D14*
X177165000Y-63722250D03*
D12*
X182245000Y-63722250D03*
D13*
X184785000Y-58642250D03*
D12*
X170307000Y-71977250D03*
D14*
X187325000Y-63722250D03*
%TD*%
D13*
%TO.C,MX20*%
X87947500Y-99282250D03*
D14*
X96837500Y-101822250D03*
X86677500Y-101822250D03*
D12*
X91757500Y-101822250D03*
D13*
X94297500Y-96742250D03*
%TD*%
D12*
%TO.C,MX21*%
X110807500Y-101822250D03*
D14*
X105727500Y-101822250D03*
D13*
X113347500Y-96742250D03*
D14*
X115887500Y-101822250D03*
D13*
X106997500Y-99282250D03*
%TD*%
%TO.C,MX2*%
X73660000Y-61182250D03*
D14*
X72390000Y-63722250D03*
X82550000Y-63722250D03*
D12*
X77470000Y-63722250D03*
D13*
X80010000Y-58642250D03*
%TD*%
D12*
%TO.C,MX19*%
X72707500Y-101822250D03*
D13*
X75247500Y-96742250D03*
D14*
X67627500Y-101822250D03*
D13*
X68897500Y-99282250D03*
D14*
X77787500Y-101822250D03*
%TD*%
D12*
%TO.C,MX36*%
X94138750Y-139922250D03*
D13*
X90328750Y-137382250D03*
D14*
X99218750Y-139922250D03*
D13*
X96678750Y-134842250D03*
D14*
X89058750Y-139922250D03*
%TD*%
D13*
%TO.C,MX35*%
X70485000Y-134842250D03*
D12*
X67945000Y-139922250D03*
D14*
X73025000Y-139922250D03*
D13*
X64135000Y-137382250D03*
D14*
X62865000Y-139922250D03*
%TD*%
D13*
%TO.C,MX38*%
X137953750Y-137382250D03*
D12*
X141763750Y-139922250D03*
D14*
X136683750Y-139922250D03*
D13*
X144303750Y-134842250D03*
D14*
X146843750Y-139922250D03*
%TD*%
%TO.C,MX28*%
X87312500Y-120872250D03*
D12*
X82232500Y-120872250D03*
D14*
X77152500Y-120872250D03*
D13*
X84772500Y-115792250D03*
X78422500Y-118332250D03*
%TD*%
D14*
%TO.C,MX12*%
X100965000Y-82772250D03*
D13*
X108585000Y-77692250D03*
D12*
X106045000Y-82772250D03*
D13*
X102235000Y-80232250D03*
D14*
X111125000Y-82772250D03*
%TD*%
D18*
%TO.C,SW0*%
X239395000Y-64559750D03*
X239395000Y-53359750D03*
D19*
X246895000Y-61459750D03*
D20*
X246895000Y-56459750D03*
X246895000Y-58959750D03*
X232395000Y-56459750D03*
X232395000Y-61459750D03*
%TD*%
D13*
%TO.C,MX18*%
X49847500Y-99282250D03*
X56197500Y-96742250D03*
D14*
X48577500Y-101822250D03*
D12*
X53657500Y-101822250D03*
D14*
X58737500Y-101822250D03*
%TD*%
%TO.C,MX9*%
X43815000Y-82772250D03*
D13*
X45085000Y-80232250D03*
D12*
X48895000Y-82772250D03*
D14*
X53975000Y-82772250D03*
D13*
X51435000Y-77692250D03*
%TD*%
D14*
%TO.C,MX26*%
X239712500Y-82772250D03*
D13*
X237172500Y-77692250D03*
X230822500Y-80232250D03*
D14*
X229552500Y-82772250D03*
D12*
X234632500Y-82772250D03*
%TD*%
D13*
%TO.C,MX29*%
X97472500Y-118332250D03*
X103822500Y-115792250D03*
D14*
X106362500Y-120872250D03*
X96202500Y-120872250D03*
D12*
X101282500Y-120872250D03*
%TD*%
D13*
%TO.C,MX34*%
X230822500Y-99282250D03*
D14*
X239712500Y-101822250D03*
X229552500Y-101822250D03*
D12*
X234632500Y-101822250D03*
D13*
X237172500Y-96742250D03*
%TD*%
D16*
%TO.C,J5*%
X188722000Y-117475000D03*
D17*
X191262000Y-117475000D03*
X193802000Y-117475000D03*
X196342000Y-117475000D03*
X198882000Y-117475000D03*
X201422000Y-117475000D03*
X203962000Y-117475000D03*
X206502000Y-117475000D03*
X209042000Y-117475000D03*
%TD*%
D12*
%TO.C,MX5*%
X134620000Y-63722250D03*
D13*
X137160000Y-58642250D03*
D14*
X139700000Y-63722250D03*
X129540000Y-63722250D03*
D13*
X130810000Y-61182250D03*
%TD*%
D14*
%TO.C,MX40*%
X201612500Y-144684750D03*
D13*
X199072500Y-139604750D03*
D12*
X196532500Y-144684750D03*
D14*
X191452500Y-144684750D03*
D13*
X192722500Y-142144750D03*
%TD*%
D12*
%TO.C,MX11*%
X86995000Y-82772250D03*
D13*
X83185000Y-80232250D03*
X89535000Y-77692250D03*
D14*
X92075000Y-82772250D03*
X81915000Y-82772250D03*
%TD*%
D21*
%TO.C,J1*%
X192923000Y-38216000D03*
X192923000Y-52716000D03*
X188023000Y-53316000D03*
X188023000Y-37616000D03*
%TD*%
M02*
