%TF.GenerationSoftware,KiCad,Pcbnew,(6.0.5)*%
%TF.CreationDate,2022-07-14T17:40:32-06:00*%
%TF.ProjectId,kb_right,6b625f72-6967-4687-942e-6b696361645f,rev?*%
%TF.SameCoordinates,Original*%
%TF.FileFunction,Profile,NP*%
%FSLAX46Y46*%
G04 Gerber Fmt 4.6, Leading zero omitted, Abs format (unit mm)*
G04 Created by KiCad (PCBNEW (6.0.5)) date 2022-07-14 17:40:32*
%MOMM*%
%LPD*%
G01*
G04 APERTURE LIST*
%TA.AperFunction,Profile*%
%ADD10C,0.100000*%
%TD*%
%TA.AperFunction,Profile*%
%ADD11C,0.120000*%
%TD*%
G04 APERTURE END LIST*
D10*
X48101250Y-74041000D02*
X41751250Y-74041000D01*
X40163750Y-75628500D02*
X40163750Y-89916000D01*
X241776248Y-153415952D02*
G75*
G03*
X243363750Y-151828500I-52148J1639652D01*
G01*
X195738750Y-38322250D02*
X195738750Y-37528500D01*
X48101250Y-74041051D02*
G75*
G03*
X49688750Y-72453500I6250J1581251D01*
G01*
X54451300Y-147066000D02*
G75*
G03*
X56038750Y-148653500I1599600J12100D01*
G01*
X44926250Y-93091000D02*
X44926250Y-108966000D01*
X202882450Y-49434751D02*
G75*
G03*
X204470000Y-51022250I1579250J-8249D01*
G01*
X54451250Y-112141000D02*
X54451250Y-147066000D01*
X247332499Y-66897301D02*
G75*
G03*
X248920000Y-65309750I27301J1560201D01*
G01*
X41751250Y-91503500D02*
X43338750Y-91503500D01*
X189388750Y-153416000D02*
X241776250Y-153416000D01*
X187810059Y-35941048D02*
G75*
G03*
X186309000Y-37528500I47741J-1548552D01*
G01*
X51276250Y-54197251D02*
G75*
G03*
X49688751Y-55784750I11300J-1598799D01*
G01*
X44926298Y-108965998D02*
G75*
G03*
X46513750Y-110553500I1658802J71298D01*
G01*
X44926301Y-93091002D02*
G75*
G03*
X43338750Y-91503500I-1538701J48802D01*
G01*
X187801250Y-150241000D02*
X187801250Y-151828500D01*
X184658001Y-54197230D02*
G75*
G03*
X186309000Y-52609750I65999J1583630D01*
G01*
X187810058Y-35941000D02*
X194151250Y-35941000D01*
X248920000Y-65309750D02*
X248920000Y-52609750D01*
X187801299Y-151828499D02*
G75*
G03*
X189388750Y-153416000I1613901J26399D01*
G01*
X40163801Y-89916001D02*
G75*
G03*
X41751250Y-91503500I1561699J-25799D01*
G01*
X247332500Y-51022250D02*
X204470000Y-51022250D01*
X41751251Y-74040950D02*
G75*
G03*
X40163750Y-75628500I-28451J-1559050D01*
G01*
X186309000Y-52609750D02*
X186309000Y-37528500D01*
X187801301Y-150241001D02*
G75*
G03*
X186213750Y-148653500I-1548601J38901D01*
G01*
X195738751Y-38322250D02*
G75*
G03*
X197326250Y-39909749I1508249J-79250D01*
G01*
X248920050Y-52609750D02*
G75*
G03*
X247332500Y-51022250I-1589650J-2150D01*
G01*
X201295000Y-39909750D02*
X197326250Y-39909750D01*
X202882551Y-41497251D02*
G75*
G03*
X201295000Y-39909750I-1556251J31251D01*
G01*
X49688750Y-55784750D02*
X49688750Y-72453500D01*
X244951250Y-66897250D02*
G75*
G03*
X243363750Y-68484750I29750J-1617250D01*
G01*
X46513750Y-110553500D02*
X52863750Y-110553500D01*
X56038750Y-148653500D02*
X186213750Y-148653500D01*
X202882500Y-49434750D02*
X202882500Y-41497250D01*
X195738800Y-37528501D02*
G75*
G03*
X194151250Y-35941000I-1569700J17801D01*
G01*
X51276250Y-54197250D02*
X184658000Y-54197250D01*
X54451198Y-112140999D02*
G75*
G03*
X52863750Y-110553501I-1568998J18499D01*
G01*
X243363750Y-151828500D02*
X243363750Y-68484750D01*
X244951250Y-66897250D02*
X247332500Y-66897250D01*
D11*
%TO.C,D110*%
X66245000Y-86828500D02*
X66245000Y-89828500D01*
X66245000Y-89828500D02*
X69645000Y-89828500D01*
X69645000Y-86828500D02*
X66245000Y-86828500D01*
X69645000Y-89828500D02*
X69645000Y-86828500D01*
%TO.C,D125*%
X178163750Y-105878500D02*
X178163750Y-108878500D01*
X178163750Y-108878500D02*
X181563750Y-108878500D01*
X181563750Y-105878500D02*
X178163750Y-105878500D01*
X181563750Y-108878500D02*
X181563750Y-105878500D01*
%TO.C,D138*%
X140063750Y-143978500D02*
X140063750Y-146978500D01*
X140063750Y-146978500D02*
X143463750Y-146978500D01*
X143463750Y-146978500D02*
X143463750Y-143978500D01*
X143463750Y-143978500D02*
X140063750Y-143978500D01*
%TO.C,D113*%
X126795000Y-89828500D02*
X126795000Y-86828500D01*
X123395000Y-89828500D02*
X126795000Y-89828500D01*
X123395000Y-86828500D02*
X123395000Y-89828500D01*
X126795000Y-86828500D02*
X123395000Y-86828500D01*
%TO.C,D111*%
X88695000Y-89828500D02*
X88695000Y-86828500D01*
X85295000Y-86828500D02*
X85295000Y-89828500D01*
X88695000Y-86828500D02*
X85295000Y-86828500D01*
X85295000Y-89828500D02*
X88695000Y-89828500D01*
%TO.C,D128*%
X64882500Y-124928500D02*
X61482500Y-124928500D01*
X64882500Y-127928500D02*
X64882500Y-124928500D01*
X61482500Y-124928500D02*
X61482500Y-127928500D01*
X61482500Y-127928500D02*
X64882500Y-127928500D01*
%TO.C,D115*%
X161495000Y-89828500D02*
X164895000Y-89828500D01*
X161495000Y-86828500D02*
X161495000Y-89828500D01*
X164895000Y-86828500D02*
X161495000Y-86828500D01*
X164895000Y-89828500D02*
X164895000Y-86828500D01*
%TO.C,D136*%
X95838750Y-146978500D02*
X95838750Y-143978500D01*
X92438750Y-146978500D02*
X95838750Y-146978500D01*
X92438750Y-143978500D02*
X92438750Y-146978500D01*
X95838750Y-143978500D02*
X92438750Y-143978500D01*
%TO.C,D140*%
X198232500Y-148741000D02*
X194832500Y-148741000D01*
X194832500Y-151741000D02*
X198232500Y-151741000D01*
X198232500Y-151741000D02*
X198232500Y-148741000D01*
X194832500Y-148741000D02*
X194832500Y-151741000D01*
%TO.C,D104*%
X117270000Y-67778500D02*
X113870000Y-67778500D01*
X113870000Y-67778500D02*
X113870000Y-70778500D01*
X113870000Y-70778500D02*
X117270000Y-70778500D01*
X117270000Y-70778500D02*
X117270000Y-67778500D01*
%TO.C,D114*%
X142445000Y-86828500D02*
X142445000Y-89828500D01*
X145845000Y-86828500D02*
X142445000Y-86828500D01*
X145845000Y-89828500D02*
X145845000Y-86828500D01*
X142445000Y-89828500D02*
X145845000Y-89828500D01*
%TO.C,D135*%
X69645000Y-146978500D02*
X69645000Y-143978500D01*
X69645000Y-143978500D02*
X66245000Y-143978500D01*
X66245000Y-146978500D02*
X69645000Y-146978500D01*
X66245000Y-143978500D02*
X66245000Y-146978500D01*
%TO.C,D120*%
X74407500Y-105878500D02*
X71007500Y-105878500D01*
X71007500Y-105878500D02*
X71007500Y-108878500D01*
X74407500Y-108878500D02*
X74407500Y-105878500D01*
X71007500Y-108878500D02*
X74407500Y-108878500D01*
%TO.C,D126*%
X213882500Y-105878500D02*
X213882500Y-108878500D01*
X217282500Y-108878500D02*
X217282500Y-105878500D01*
X213882500Y-108878500D02*
X217282500Y-108878500D01*
X217282500Y-105878500D02*
X213882500Y-105878500D01*
%TO.C,D122*%
X112507500Y-108878500D02*
X112507500Y-105878500D01*
X109107500Y-105878500D02*
X109107500Y-108878500D01*
X109107500Y-108878500D02*
X112507500Y-108878500D01*
X112507500Y-105878500D02*
X109107500Y-105878500D01*
%TO.C,D129*%
X80532500Y-127928500D02*
X83932500Y-127928500D01*
X80532500Y-124928500D02*
X80532500Y-127928500D01*
X83932500Y-127928500D02*
X83932500Y-124928500D01*
X83932500Y-124928500D02*
X80532500Y-124928500D01*
%TO.C,D112*%
X104345000Y-89828500D02*
X107745000Y-89828500D01*
X104345000Y-86828500D02*
X104345000Y-89828500D01*
X107745000Y-89828500D02*
X107745000Y-86828500D01*
X107745000Y-86828500D02*
X104345000Y-86828500D01*
%TO.C,D141*%
X213882500Y-148741000D02*
X213882500Y-151741000D01*
X213882500Y-151741000D02*
X217282500Y-151741000D01*
X217282500Y-151741000D02*
X217282500Y-148741000D01*
X217282500Y-148741000D02*
X213882500Y-148741000D01*
%TO.C,D131*%
X118632500Y-127928500D02*
X122032500Y-127928500D01*
X122032500Y-127928500D02*
X122032500Y-124928500D01*
X118632500Y-124928500D02*
X118632500Y-127928500D01*
X122032500Y-124928500D02*
X118632500Y-124928500D01*
%TO.C,D105*%
X132920000Y-70778500D02*
X136320000Y-70778500D01*
X132920000Y-67778500D02*
X132920000Y-70778500D01*
X136320000Y-67778500D02*
X132920000Y-67778500D01*
X136320000Y-70778500D02*
X136320000Y-67778500D01*
%TO.C,D119*%
X51957500Y-105878500D02*
X51957500Y-108878500D01*
X55357500Y-105878500D02*
X51957500Y-105878500D01*
X55357500Y-108878500D02*
X55357500Y-105878500D01*
X51957500Y-108878500D02*
X55357500Y-108878500D01*
%TO.C,D130*%
X99582500Y-127928500D02*
X102982500Y-127928500D01*
X102982500Y-124928500D02*
X99582500Y-124928500D01*
X102982500Y-127928500D02*
X102982500Y-124928500D01*
X99582500Y-124928500D02*
X99582500Y-127928500D01*
%TO.C,D108*%
X217282500Y-63016000D02*
X213882500Y-63016000D01*
X213882500Y-63016000D02*
X213882500Y-66016000D01*
X213882500Y-66016000D02*
X217282500Y-66016000D01*
X217282500Y-66016000D02*
X217282500Y-63016000D01*
%TO.C,D132*%
X137682500Y-127928500D02*
X141082500Y-127928500D01*
X141082500Y-124928500D02*
X137682500Y-124928500D01*
X137682500Y-124928500D02*
X137682500Y-127928500D01*
X141082500Y-127928500D02*
X141082500Y-124928500D01*
%TO.C,D109*%
X50595000Y-89828500D02*
X50595000Y-86828500D01*
X47195000Y-86828500D02*
X47195000Y-89828500D01*
X50595000Y-86828500D02*
X47195000Y-86828500D01*
X47195000Y-89828500D02*
X50595000Y-89828500D01*
%TO.C,D124*%
X150607500Y-105878500D02*
X147207500Y-105878500D01*
X147207500Y-105878500D02*
X147207500Y-108878500D01*
X150607500Y-108878500D02*
X150607500Y-105878500D01*
X147207500Y-108878500D02*
X150607500Y-108878500D01*
%TO.C,D121*%
X93457500Y-108878500D02*
X93457500Y-105878500D01*
X90057500Y-105878500D02*
X90057500Y-108878500D01*
X90057500Y-108878500D02*
X93457500Y-108878500D01*
X93457500Y-105878500D02*
X90057500Y-105878500D01*
%TO.C,D101*%
X56720000Y-70778500D02*
X60120000Y-70778500D01*
X60120000Y-70778500D02*
X60120000Y-67778500D01*
X60120000Y-67778500D02*
X56720000Y-67778500D01*
X56720000Y-67778500D02*
X56720000Y-70778500D01*
%TO.C,D102*%
X75770000Y-67778500D02*
X75770000Y-70778500D01*
X75770000Y-70778500D02*
X79170000Y-70778500D01*
X79170000Y-67778500D02*
X75770000Y-67778500D01*
X79170000Y-70778500D02*
X79170000Y-67778500D01*
%TO.C,D103*%
X94820000Y-67778500D02*
X94820000Y-70778500D01*
X94820000Y-70778500D02*
X98220000Y-70778500D01*
X98220000Y-67778500D02*
X94820000Y-67778500D01*
X98220000Y-70778500D02*
X98220000Y-67778500D01*
%TO.C,D137*%
X119651250Y-143978500D02*
X116251250Y-143978500D01*
X116251250Y-143978500D02*
X116251250Y-146978500D01*
X119651250Y-146978500D02*
X119651250Y-143978500D01*
X116251250Y-146978500D02*
X119651250Y-146978500D01*
%TO.C,D117*%
X217282500Y-86828500D02*
X213882500Y-86828500D01*
X217282500Y-89828500D02*
X217282500Y-86828500D01*
X213882500Y-89828500D02*
X217282500Y-89828500D01*
X213882500Y-86828500D02*
X213882500Y-89828500D01*
%TO.C,D118*%
X232932500Y-86828500D02*
X232932500Y-89828500D01*
X232932500Y-89828500D02*
X236332500Y-89828500D01*
X236332500Y-86828500D02*
X232932500Y-86828500D01*
X236332500Y-89828500D02*
X236332500Y-86828500D01*
%TO.C,D106*%
X155370000Y-67778500D02*
X151970000Y-67778500D01*
X151970000Y-70778500D02*
X155370000Y-70778500D01*
X155370000Y-70778500D02*
X155370000Y-67778500D01*
X151970000Y-67778500D02*
X151970000Y-70778500D01*
%TO.C,D123*%
X131557500Y-105878500D02*
X128157500Y-105878500D01*
X128157500Y-105878500D02*
X128157500Y-108878500D01*
X128157500Y-108878500D02*
X131557500Y-108878500D01*
X131557500Y-108878500D02*
X131557500Y-105878500D01*
%TO.C,D107*%
X180545000Y-70778500D02*
X183945000Y-70778500D01*
X180545000Y-67778500D02*
X180545000Y-70778500D01*
X183945000Y-70778500D02*
X183945000Y-67778500D01*
X183945000Y-67778500D02*
X180545000Y-67778500D01*
%TO.C,D134*%
X217282500Y-132691000D02*
X217282500Y-129691000D01*
X213882500Y-132691000D02*
X217282500Y-132691000D01*
X217282500Y-129691000D02*
X213882500Y-129691000D01*
X213882500Y-129691000D02*
X213882500Y-132691000D01*
%TO.C,D139*%
X167276250Y-146978500D02*
X167276250Y-143978500D01*
X163876250Y-146978500D02*
X167276250Y-146978500D01*
X167276250Y-143978500D02*
X163876250Y-143978500D01*
X163876250Y-143978500D02*
X163876250Y-146978500D01*
%TO.C,D127*%
X232932500Y-105878500D02*
X232932500Y-108878500D01*
X236332500Y-105878500D02*
X232932500Y-105878500D01*
X236332500Y-108878500D02*
X236332500Y-105878500D01*
X232932500Y-108878500D02*
X236332500Y-108878500D01*
%TO.C,D116*%
X185307500Y-86828500D02*
X185307500Y-89828500D01*
X188707500Y-86828500D02*
X185307500Y-86828500D01*
X185307500Y-89828500D02*
X188707500Y-89828500D01*
X188707500Y-89828500D02*
X188707500Y-86828500D01*
%TO.C,D142*%
X232932500Y-148741000D02*
X232932500Y-151741000D01*
X232932500Y-151741000D02*
X236332500Y-151741000D01*
X236332500Y-151741000D02*
X236332500Y-148741000D01*
X236332500Y-148741000D02*
X232932500Y-148741000D01*
%TO.C,D133*%
X173401250Y-127928500D02*
X176801250Y-127928500D01*
X173401250Y-124928500D02*
X173401250Y-127928500D01*
X176801250Y-127928500D02*
X176801250Y-124928500D01*
X176801250Y-124928500D02*
X173401250Y-124928500D01*
%TD*%
M02*
