%TF.GenerationSoftware,KiCad,Pcbnew,(6.0.5)*%
%TF.CreationDate,2022-07-14T01:36:57-06:00*%
%TF.ProjectId,kb_right,6b625f72-6967-4687-942e-6b696361645f,rev?*%
%TF.SameCoordinates,Original*%
%TF.FileFunction,Soldermask,Bot*%
%TF.FilePolarity,Negative*%
%FSLAX46Y46*%
G04 Gerber Fmt 4.6, Leading zero omitted, Abs format (unit mm)*
G04 Created by KiCad (PCBNEW (6.0.5)) date 2022-07-14 01:36:57*
%MOMM*%
%LPD*%
G01*
G04 APERTURE LIST*
G04 Aperture macros list*
%AMRoundRect*
0 Rectangle with rounded corners*
0 $1 Rounding radius*
0 $2 $3 $4 $5 $6 $7 $8 $9 X,Y pos of 4 corners*
0 Add a 4 corners polygon primitive as box body*
4,1,4,$2,$3,$4,$5,$6,$7,$8,$9,$2,$3,0*
0 Add four circle primitives for the rounded corners*
1,1,$1+$1,$2,$3*
1,1,$1+$1,$4,$5*
1,1,$1+$1,$6,$7*
1,1,$1+$1,$8,$9*
0 Add four rect primitives between the rounded corners*
20,1,$1+$1,$2,$3,$4,$5,0*
20,1,$1+$1,$4,$5,$6,$7,0*
20,1,$1+$1,$6,$7,$8,$9,0*
20,1,$1+$1,$8,$9,$2,$3,0*%
G04 Aperture macros list end*
%ADD10C,3.987800*%
%ADD11C,3.000000*%
%ADD12C,1.750000*%
%ADD13R,2.550000X2.500000*%
%ADD14C,3.048000*%
%ADD15R,1.700000X1.700000*%
%ADD16O,1.700000X1.700000*%
%ADD17O,3.200000X2.000000*%
%ADD18R,2.000000X2.000000*%
%ADD19C,2.000000*%
%ADD20RoundRect,0.250000X-0.475000X0.337500X-0.475000X-0.337500X0.475000X-0.337500X0.475000X0.337500X0*%
%ADD21R,1.200000X0.900000*%
%ADD22R,1.700000X0.820000*%
%ADD23RoundRect,0.205000X0.645000X0.205000X-0.645000X0.205000X-0.645000X-0.205000X0.645000X-0.205000X0*%
%ADD24R,1.900000X0.300000*%
%ADD25C,1.950000*%
G04 APERTURE END LIST*
D10*
%TO.C,MX15*%
X163195000Y-82772250D03*
D11*
X165735000Y-77692250D03*
D12*
X158115000Y-82772250D03*
X168275000Y-82772250D03*
D11*
X159385000Y-80232250D03*
D13*
X156110000Y-80232250D03*
X169037000Y-77692250D03*
%TD*%
D11*
%TO.C,MX33*%
X211772500Y-123094750D03*
X218122500Y-120554750D03*
D12*
X210502500Y-125634750D03*
X220662500Y-125634750D03*
D10*
X215582500Y-125634750D03*
D13*
X208497500Y-123094750D03*
X221424500Y-120554750D03*
%TD*%
D12*
%TO.C,MX10*%
X62865000Y-82772250D03*
X73025000Y-82772250D03*
D11*
X70485000Y-77692250D03*
D10*
X67945000Y-82772250D03*
D11*
X64135000Y-80232250D03*
D13*
X60860000Y-80232250D03*
X73787000Y-77692250D03*
%TD*%
D10*
%TO.C,MX4*%
X115570000Y-63722250D03*
D12*
X110490000Y-63722250D03*
D11*
X118110000Y-58642250D03*
X111760000Y-61182250D03*
D12*
X120650000Y-63722250D03*
D13*
X108485000Y-61182250D03*
X121412000Y-58642250D03*
%TD*%
D11*
%TO.C,MX6*%
X149860000Y-61182250D03*
X156210000Y-58642250D03*
D12*
X158750000Y-63722250D03*
X148590000Y-63722250D03*
D10*
X153670000Y-63722250D03*
D13*
X146585000Y-61182250D03*
X159512000Y-58642250D03*
%TD*%
D11*
%TO.C,MX32*%
X171291250Y-118332250D03*
X177641250Y-115792250D03*
D12*
X180181250Y-120872250D03*
D14*
X187039250Y-113887250D03*
D10*
X175101250Y-120872250D03*
D12*
X170021250Y-120872250D03*
D14*
X163163250Y-113887250D03*
D10*
X187039250Y-129127250D03*
X163163250Y-129127250D03*
D13*
X168016250Y-118332250D03*
X180943250Y-115792250D03*
%TD*%
D12*
%TO.C,MX31*%
X134302500Y-120872250D03*
X144462500Y-120872250D03*
D11*
X141922500Y-115792250D03*
D10*
X139382500Y-120872250D03*
D11*
X135572500Y-118332250D03*
D13*
X132297500Y-118332250D03*
X145224500Y-115792250D03*
%TD*%
D15*
%TO.C,J3*%
X220091000Y-71755000D03*
D16*
X217551000Y-71755000D03*
X215011000Y-71755000D03*
X212471000Y-71755000D03*
X209931000Y-71755000D03*
X207391000Y-71755000D03*
%TD*%
D10*
%TO.C,MX37*%
X117951250Y-139922250D03*
D11*
X120491250Y-134842250D03*
D12*
X123031250Y-139922250D03*
X112871250Y-139922250D03*
D11*
X114141250Y-137382250D03*
D13*
X110866250Y-137382250D03*
X123793250Y-134842250D03*
%TD*%
D10*
%TO.C,MX42*%
X234632500Y-144684750D03*
D11*
X237172500Y-139604750D03*
D12*
X239712500Y-144684750D03*
D11*
X230822500Y-142144750D03*
D12*
X229552500Y-144684750D03*
D13*
X227547500Y-142144750D03*
X240474500Y-139604750D03*
%TD*%
D10*
%TO.C,MX16*%
X187007500Y-82772250D03*
D11*
X189547500Y-77692250D03*
D12*
X181927500Y-82772250D03*
D11*
X183197500Y-80232250D03*
D12*
X192087500Y-82772250D03*
D13*
X179922500Y-80232250D03*
X192849500Y-77692250D03*
%TD*%
D12*
%TO.C,MX8*%
X220662500Y-58959750D03*
D11*
X218122500Y-53879750D03*
X211772500Y-56419750D03*
D10*
X215582500Y-58959750D03*
D12*
X210502500Y-58959750D03*
D13*
X208497500Y-56419750D03*
X221424500Y-53879750D03*
%TD*%
D15*
%TO.C,J2*%
X227076000Y-52847000D03*
D16*
X227076000Y-55387000D03*
X227076000Y-57927000D03*
%TD*%
D11*
%TO.C,MX13*%
X127635000Y-77692250D03*
D10*
X125095000Y-82772250D03*
D12*
X130175000Y-82772250D03*
D11*
X121285000Y-80232250D03*
D12*
X120015000Y-82772250D03*
D13*
X118010000Y-80232250D03*
X130937000Y-77692250D03*
%TD*%
D10*
%TO.C,MX23*%
X148907500Y-101822250D03*
D11*
X145097500Y-99282250D03*
D12*
X153987500Y-101822250D03*
X143827500Y-101822250D03*
D11*
X151447500Y-96742250D03*
D13*
X141822500Y-99282250D03*
X154749500Y-96742250D03*
%TD*%
D12*
%TO.C,MX39*%
X170656250Y-139922250D03*
D10*
X165576250Y-139922250D03*
D11*
X161766250Y-137382250D03*
D12*
X160496250Y-139922250D03*
D11*
X168116250Y-134842250D03*
D13*
X158491250Y-137382250D03*
X171418250Y-134842250D03*
%TD*%
D12*
%TO.C,MX1*%
X53340000Y-63722250D03*
D10*
X58420000Y-63722250D03*
D11*
X54610000Y-61182250D03*
X60960000Y-58642250D03*
D12*
X63500000Y-63722250D03*
D13*
X51335000Y-61182250D03*
X64262000Y-58642250D03*
%TD*%
D15*
%TO.C,J4*%
X163957000Y-56007000D03*
D16*
X163957000Y-58547000D03*
X163957000Y-61087000D03*
X163957000Y-63627000D03*
X163957000Y-66167000D03*
X163957000Y-68707000D03*
X163957000Y-71247000D03*
X163957000Y-73787000D03*
%TD*%
D12*
%TO.C,MX27*%
X68262500Y-120872250D03*
D11*
X59372500Y-118332250D03*
D12*
X58102500Y-120872250D03*
D11*
X65722500Y-115792250D03*
D10*
X63182500Y-120872250D03*
D13*
X56097500Y-118332250D03*
X69024500Y-115792250D03*
%TD*%
D12*
%TO.C,MX41*%
X210502500Y-144684750D03*
D10*
X215582500Y-144684750D03*
D12*
X220662500Y-144684750D03*
D11*
X218122500Y-139604750D03*
X211772500Y-142144750D03*
D13*
X208497500Y-142144750D03*
X221424500Y-139604750D03*
%TD*%
D10*
%TO.C,MX17*%
X215582500Y-82772250D03*
D12*
X220662500Y-82772250D03*
D11*
X218122500Y-77692250D03*
X211772500Y-80232250D03*
D12*
X210502500Y-82772250D03*
D13*
X208497500Y-80232250D03*
X221424500Y-77692250D03*
%TD*%
D12*
%TO.C,MX3*%
X91440000Y-63722250D03*
X101600000Y-63722250D03*
D11*
X99060000Y-58642250D03*
D10*
X96520000Y-63722250D03*
D11*
X92710000Y-61182250D03*
D13*
X89435000Y-61182250D03*
X102362000Y-58642250D03*
%TD*%
D12*
%TO.C,MX30*%
X115252500Y-120872250D03*
X125412500Y-120872250D03*
D11*
X122872500Y-115792250D03*
X116522500Y-118332250D03*
D10*
X120332500Y-120872250D03*
D13*
X113247500Y-118332250D03*
X126174500Y-115792250D03*
%TD*%
D12*
%TO.C,MX22*%
X134937500Y-101822250D03*
D11*
X126047500Y-99282250D03*
D10*
X129857500Y-101822250D03*
D12*
X124777500Y-101822250D03*
D11*
X132397500Y-96742250D03*
D13*
X122772500Y-99282250D03*
X135699500Y-96742250D03*
%TD*%
D11*
%TO.C,MX25*%
X218122500Y-96742250D03*
D12*
X220662500Y-101822250D03*
X210502500Y-101822250D03*
D11*
X211772500Y-99282250D03*
D10*
X215582500Y-101822250D03*
D13*
X208497500Y-99282250D03*
X221424500Y-96742250D03*
%TD*%
D14*
%TO.C,MX24*%
X191801750Y-94837250D03*
D11*
X176053750Y-99282250D03*
D10*
X191801750Y-110077250D03*
D12*
X174783750Y-101822250D03*
D10*
X179863750Y-101822250D03*
D14*
X167925750Y-94837250D03*
D11*
X182403750Y-96742250D03*
D12*
X184943750Y-101822250D03*
D10*
X167925750Y-110077250D03*
D13*
X172778750Y-99282250D03*
X185705750Y-96742250D03*
%TD*%
D12*
%TO.C,MX14*%
X139065000Y-82772250D03*
D10*
X144145000Y-82772250D03*
D11*
X140335000Y-80232250D03*
X146685000Y-77692250D03*
D12*
X149225000Y-82772250D03*
D13*
X137060000Y-80232250D03*
X149987000Y-77692250D03*
%TD*%
D14*
%TO.C,MX7*%
X170307000Y-56737250D03*
D10*
X194183000Y-71977250D03*
D11*
X178435000Y-61182250D03*
D14*
X194183000Y-56737250D03*
D12*
X177165000Y-63722250D03*
D10*
X182245000Y-63722250D03*
D11*
X184785000Y-58642250D03*
D10*
X170307000Y-71977250D03*
D12*
X187325000Y-63722250D03*
D13*
X175160000Y-61182250D03*
X188087000Y-58642250D03*
%TD*%
D11*
%TO.C,MX20*%
X87947500Y-99282250D03*
D12*
X96837500Y-101822250D03*
X86677500Y-101822250D03*
D10*
X91757500Y-101822250D03*
D11*
X94297500Y-96742250D03*
D13*
X84672500Y-99282250D03*
X97599500Y-96742250D03*
%TD*%
D10*
%TO.C,MX21*%
X110807500Y-101822250D03*
D12*
X105727500Y-101822250D03*
D11*
X113347500Y-96742250D03*
D12*
X115887500Y-101822250D03*
D11*
X106997500Y-99282250D03*
D13*
X103722500Y-99282250D03*
X116649500Y-96742250D03*
%TD*%
D11*
%TO.C,MX2*%
X73660000Y-61182250D03*
D12*
X72390000Y-63722250D03*
X82550000Y-63722250D03*
D10*
X77470000Y-63722250D03*
D11*
X80010000Y-58642250D03*
D13*
X70385000Y-61182250D03*
X83312000Y-58642250D03*
%TD*%
D10*
%TO.C,MX19*%
X72707500Y-101822250D03*
D11*
X75247500Y-96742250D03*
D12*
X67627500Y-101822250D03*
D11*
X68897500Y-99282250D03*
D12*
X77787500Y-101822250D03*
D13*
X65622500Y-99282250D03*
X78549500Y-96742250D03*
%TD*%
D10*
%TO.C,MX36*%
X94138750Y-139922250D03*
D11*
X90328750Y-137382250D03*
D12*
X99218750Y-139922250D03*
D11*
X96678750Y-134842250D03*
D12*
X89058750Y-139922250D03*
D13*
X87053750Y-137382250D03*
X99980750Y-134842250D03*
%TD*%
D11*
%TO.C,MX35*%
X70485000Y-134842250D03*
D10*
X67945000Y-139922250D03*
D12*
X73025000Y-139922250D03*
D11*
X64135000Y-137382250D03*
D12*
X62865000Y-139922250D03*
D13*
X60860000Y-137382250D03*
X73787000Y-134842250D03*
%TD*%
D11*
%TO.C,MX38*%
X137953750Y-137382250D03*
D10*
X141763750Y-139922250D03*
D12*
X136683750Y-139922250D03*
D11*
X144303750Y-134842250D03*
D12*
X146843750Y-139922250D03*
D13*
X134678750Y-137382250D03*
X147605750Y-134842250D03*
%TD*%
D12*
%TO.C,MX28*%
X87312500Y-120872250D03*
D10*
X82232500Y-120872250D03*
D12*
X77152500Y-120872250D03*
D11*
X84772500Y-115792250D03*
X78422500Y-118332250D03*
D13*
X75147500Y-118332250D03*
X88074500Y-115792250D03*
%TD*%
D12*
%TO.C,MX12*%
X100965000Y-82772250D03*
D11*
X108585000Y-77692250D03*
D10*
X106045000Y-82772250D03*
D11*
X102235000Y-80232250D03*
D12*
X111125000Y-82772250D03*
D13*
X98960000Y-80232250D03*
X111887000Y-77692250D03*
%TD*%
D17*
%TO.C,SW0*%
X239395000Y-64559750D03*
X239395000Y-53359750D03*
D18*
X246895000Y-61459750D03*
D19*
X246895000Y-56459750D03*
X246895000Y-58959750D03*
X232395000Y-56459750D03*
X232395000Y-61459750D03*
%TD*%
D11*
%TO.C,MX18*%
X49847500Y-99282250D03*
X56197500Y-96742250D03*
D12*
X48577500Y-101822250D03*
D10*
X53657500Y-101822250D03*
D12*
X58737500Y-101822250D03*
D13*
X46572500Y-99282250D03*
X59499500Y-96742250D03*
%TD*%
D12*
%TO.C,MX9*%
X43815000Y-82772250D03*
D11*
X45085000Y-80232250D03*
D10*
X48895000Y-82772250D03*
D12*
X53975000Y-82772250D03*
D11*
X51435000Y-77692250D03*
D13*
X41810000Y-80232250D03*
X54737000Y-77692250D03*
%TD*%
D12*
%TO.C,MX26*%
X239712500Y-82772250D03*
D11*
X237172500Y-77692250D03*
X230822500Y-80232250D03*
D12*
X229552500Y-82772250D03*
D10*
X234632500Y-82772250D03*
D13*
X227547500Y-80232250D03*
X240474500Y-77692250D03*
%TD*%
D11*
%TO.C,MX29*%
X97472500Y-118332250D03*
X103822500Y-115792250D03*
D12*
X106362500Y-120872250D03*
X96202500Y-120872250D03*
D10*
X101282500Y-120872250D03*
D13*
X94197500Y-118332250D03*
X107124500Y-115792250D03*
%TD*%
D11*
%TO.C,MX34*%
X230822500Y-99282250D03*
D12*
X239712500Y-101822250D03*
X229552500Y-101822250D03*
D10*
X234632500Y-101822250D03*
D11*
X237172500Y-96742250D03*
D13*
X227547500Y-99282250D03*
X240474500Y-96742250D03*
%TD*%
D15*
%TO.C,J5*%
X188722000Y-117475000D03*
D16*
X191262000Y-117475000D03*
X193802000Y-117475000D03*
X196342000Y-117475000D03*
X198882000Y-117475000D03*
X201422000Y-117475000D03*
X203962000Y-117475000D03*
X206502000Y-117475000D03*
X209042000Y-117475000D03*
%TD*%
D10*
%TO.C,MX5*%
X134620000Y-63722250D03*
D11*
X137160000Y-58642250D03*
D12*
X139700000Y-63722250D03*
X129540000Y-63722250D03*
D11*
X130810000Y-61182250D03*
D13*
X127535000Y-61182250D03*
X140462000Y-58642250D03*
%TD*%
D12*
%TO.C,MX40*%
X201612500Y-144684750D03*
D11*
X199072500Y-139604750D03*
D10*
X196532500Y-144684750D03*
D12*
X191452500Y-144684750D03*
D11*
X192722500Y-142144750D03*
D13*
X189447500Y-142144750D03*
X202374500Y-139604750D03*
%TD*%
D10*
%TO.C,MX11*%
X86995000Y-82772250D03*
D11*
X83185000Y-80232250D03*
X89535000Y-77692250D03*
D12*
X92075000Y-82772250D03*
X81915000Y-82772250D03*
D13*
X79910000Y-80232250D03*
X92837000Y-77692250D03*
%TD*%
D20*
%TO.C,C118*%
X229076250Y-89672250D03*
X229076250Y-91747250D03*
%TD*%
D21*
%TO.C,D14*%
X151288750Y-89978500D03*
X151288750Y-86678500D03*
%TD*%
%TO.C,D34*%
X241776250Y-109028500D03*
X241776250Y-105728500D03*
%TD*%
D20*
%TO.C,C115*%
X157638750Y-89672250D03*
X157638750Y-91747250D03*
%TD*%
%TO.C,C101*%
X63119000Y-71479500D03*
X63119000Y-73554500D03*
%TD*%
D21*
%TO.C,D10*%
X75088750Y-89978500D03*
X75088750Y-86678500D03*
%TD*%
%TO.C,D12*%
X113188750Y-89978500D03*
X113188750Y-86678500D03*
%TD*%
D22*
%TO.C,D110*%
X70495000Y-89078500D03*
X70495000Y-87578500D03*
D23*
X65395000Y-87578500D03*
D22*
X65395000Y-89078500D03*
%TD*%
D21*
%TO.C,D11*%
X94138750Y-89978500D03*
X94138750Y-86678500D03*
%TD*%
D20*
%TO.C,C103*%
X90963750Y-70622250D03*
X90963750Y-72697250D03*
%TD*%
%TO.C,C113*%
X119538750Y-89672250D03*
X119538750Y-91747250D03*
%TD*%
%TO.C,C122*%
X105251250Y-108722250D03*
X105251250Y-110797250D03*
%TD*%
D22*
%TO.C,D125*%
X182413750Y-108128500D03*
X182413750Y-106628500D03*
D23*
X177313750Y-106628500D03*
D22*
X177313750Y-108128500D03*
%TD*%
D20*
%TO.C,C129*%
X76676250Y-127772250D03*
X76676250Y-129847250D03*
%TD*%
%TO.C,C105*%
X129063750Y-70622250D03*
X129063750Y-72697250D03*
%TD*%
D22*
%TO.C,D138*%
X144313750Y-146228500D03*
X144313750Y-144728500D03*
D23*
X139213750Y-144728500D03*
D22*
X139213750Y-146228500D03*
%TD*%
D20*
%TO.C,C135*%
X62388750Y-145478500D03*
X62388750Y-147553500D03*
%TD*%
D22*
%TO.C,D113*%
X127645000Y-89078500D03*
X127645000Y-87578500D03*
D23*
X122545000Y-87578500D03*
D22*
X122545000Y-89078500D03*
%TD*%
D21*
%TO.C,D36*%
X101282500Y-147128500D03*
X101282500Y-143828500D03*
%TD*%
D22*
%TO.C,D111*%
X89545000Y-89078500D03*
X89545000Y-87578500D03*
D23*
X84445000Y-87578500D03*
D22*
X84445000Y-89078500D03*
%TD*%
D21*
%TO.C,D40*%
X203676250Y-151891000D03*
X203676250Y-148591000D03*
%TD*%
D22*
%TO.C,D128*%
X65732500Y-127178500D03*
X65732500Y-125678500D03*
D23*
X60632500Y-125678500D03*
D22*
X60632500Y-127178500D03*
%TD*%
D20*
%TO.C,C138*%
X136207500Y-145478500D03*
X136207500Y-147553500D03*
%TD*%
D22*
%TO.C,D115*%
X165745000Y-89078500D03*
X165745000Y-87578500D03*
D23*
X160645000Y-87578500D03*
D22*
X160645000Y-89078500D03*
%TD*%
%TO.C,D136*%
X96688750Y-146228500D03*
X96688750Y-144728500D03*
D23*
X91588750Y-144728500D03*
D22*
X91588750Y-146228500D03*
%TD*%
D21*
%TO.C,D17*%
X222726250Y-89978500D03*
X222726250Y-86678500D03*
%TD*%
%TO.C,D38*%
X148907500Y-147128500D03*
X148907500Y-143828500D03*
%TD*%
%TO.C,D5*%
X141763750Y-70928500D03*
X141763750Y-67628500D03*
%TD*%
%TO.C,D28*%
X89376250Y-128078500D03*
X89376250Y-124778500D03*
%TD*%
D22*
%TO.C,D140*%
X199082500Y-150991000D03*
X199082500Y-149491000D03*
D23*
X193982500Y-149491000D03*
D22*
X193982500Y-150991000D03*
%TD*%
%TO.C,D104*%
X118120000Y-70028500D03*
X118120000Y-68528500D03*
D23*
X113020000Y-68528500D03*
D22*
X113020000Y-70028500D03*
%TD*%
D21*
%TO.C,D6*%
X160813750Y-70928500D03*
X160813750Y-67628500D03*
%TD*%
D22*
%TO.C,D114*%
X146695000Y-89078500D03*
X146695000Y-87578500D03*
D23*
X141595000Y-87578500D03*
D22*
X141595000Y-89078500D03*
%TD*%
D21*
%TO.C,D26*%
X241776250Y-89978500D03*
X241776250Y-86678500D03*
%TD*%
D22*
%TO.C,D135*%
X70495000Y-146228500D03*
X70495000Y-144728500D03*
D23*
X65395000Y-144728500D03*
D22*
X65395000Y-146228500D03*
%TD*%
%TO.C,D120*%
X75257500Y-108128500D03*
X75257500Y-106628500D03*
D23*
X70157500Y-106628500D03*
D22*
X70157500Y-108128500D03*
%TD*%
%TO.C,D126*%
X218132500Y-108128500D03*
X218132500Y-106628500D03*
D23*
X213032500Y-106628500D03*
D22*
X213032500Y-108128500D03*
%TD*%
D20*
%TO.C,C107*%
X176688750Y-70622250D03*
X176688750Y-72697250D03*
%TD*%
D22*
%TO.C,D122*%
X113357500Y-108128500D03*
X113357500Y-106628500D03*
D23*
X108257500Y-106628500D03*
D22*
X108257500Y-108128500D03*
%TD*%
D20*
%TO.C,C125*%
X174307500Y-108722250D03*
X174307500Y-110797250D03*
%TD*%
%TO.C,C114*%
X138588750Y-89672250D03*
X138588750Y-91747250D03*
%TD*%
%TO.C,C104*%
X110013750Y-70622250D03*
X110013750Y-72697250D03*
%TD*%
D21*
%TO.C,D25*%
X222726250Y-109028500D03*
X222726250Y-105728500D03*
%TD*%
D22*
%TO.C,D129*%
X84782500Y-127178500D03*
X84782500Y-125678500D03*
D23*
X79682500Y-125678500D03*
D22*
X79682500Y-127178500D03*
%TD*%
%TO.C,D112*%
X108595000Y-89078500D03*
X108595000Y-87578500D03*
D23*
X103495000Y-87578500D03*
D22*
X103495000Y-89078500D03*
%TD*%
%TO.C,D141*%
X218132500Y-150991000D03*
X218132500Y-149491000D03*
D23*
X213032500Y-149491000D03*
D22*
X213032500Y-150991000D03*
%TD*%
%TO.C,D131*%
X122882500Y-127178500D03*
X122882500Y-125678500D03*
D23*
X117782500Y-125678500D03*
D22*
X117782500Y-127178500D03*
%TD*%
D21*
%TO.C,D32*%
X182245000Y-128078500D03*
X182245000Y-124778500D03*
%TD*%
%TO.C,D42*%
X241776250Y-151891000D03*
X241776250Y-148591000D03*
%TD*%
D22*
%TO.C,D105*%
X137170000Y-70028500D03*
X137170000Y-68528500D03*
D23*
X132070000Y-68528500D03*
D22*
X132070000Y-70028500D03*
%TD*%
D21*
%TO.C,D21*%
X117951250Y-109028500D03*
X117951250Y-105728500D03*
%TD*%
D20*
%TO.C,C116*%
X181451250Y-89672250D03*
X181451250Y-91747250D03*
%TD*%
D21*
%TO.C,D13*%
X132238750Y-89978500D03*
X132238750Y-86678500D03*
%TD*%
%TO.C,D39*%
X172720000Y-147128500D03*
X172720000Y-143828500D03*
%TD*%
D20*
%TO.C,C133*%
X169545000Y-127772250D03*
X169545000Y-129847250D03*
%TD*%
%TO.C,C121*%
X86201250Y-108722250D03*
X86201250Y-110797250D03*
%TD*%
D22*
%TO.C,D119*%
X56207500Y-108128500D03*
X56207500Y-106628500D03*
D23*
X51107500Y-106628500D03*
D22*
X51107500Y-108128500D03*
%TD*%
D21*
%TO.C,D31*%
X146526250Y-128078500D03*
X146526250Y-124778500D03*
%TD*%
%TO.C,D19*%
X79851250Y-109028500D03*
X79851250Y-105728500D03*
%TD*%
D20*
%TO.C,C142*%
X229076250Y-150241000D03*
X229076250Y-152316000D03*
%TD*%
D21*
%TO.C,D0*%
X228282500Y-66166000D03*
X228282500Y-62866000D03*
%TD*%
%TO.C,D29*%
X108426250Y-128078500D03*
X108426250Y-124778500D03*
%TD*%
D20*
%TO.C,C112*%
X100488750Y-89672250D03*
X100488750Y-91747250D03*
%TD*%
D22*
%TO.C,D130*%
X103832500Y-127178500D03*
X103832500Y-125678500D03*
D23*
X98732500Y-125678500D03*
D22*
X98732500Y-127178500D03*
%TD*%
D20*
%TO.C,C119*%
X58420000Y-109706500D03*
X58420000Y-111781500D03*
%TD*%
D21*
%TO.C,D9*%
X56038750Y-89978500D03*
X56038750Y-86678500D03*
%TD*%
%TO.C,D7*%
X189388750Y-70928500D03*
X189388750Y-67628500D03*
%TD*%
D20*
%TO.C,C127*%
X229076250Y-108722250D03*
X229076250Y-110797250D03*
%TD*%
D21*
%TO.C,D35*%
X75088750Y-147128500D03*
X75088750Y-143828500D03*
%TD*%
D22*
%TO.C,D108*%
X218132500Y-65266000D03*
X218132500Y-63766000D03*
D23*
X213032500Y-63766000D03*
D22*
X213032500Y-65266000D03*
%TD*%
D21*
%TO.C,D18*%
X60801250Y-109028500D03*
X60801250Y-105728500D03*
%TD*%
D22*
%TO.C,D132*%
X141932500Y-127178500D03*
X141932500Y-125678500D03*
D23*
X136832500Y-125678500D03*
D22*
X136832500Y-127178500D03*
%TD*%
D21*
%TO.C,D23*%
X156051250Y-109028500D03*
X156051250Y-105728500D03*
%TD*%
D20*
%TO.C,C139*%
X160020000Y-145478500D03*
X160020000Y-147553500D03*
%TD*%
D22*
%TO.C,D109*%
X51445000Y-89078500D03*
X51445000Y-87578500D03*
D23*
X46345000Y-87578500D03*
D22*
X46345000Y-89078500D03*
%TD*%
%TO.C,D124*%
X151457500Y-108128500D03*
X151457500Y-106628500D03*
D23*
X146357500Y-106628500D03*
D22*
X146357500Y-108128500D03*
%TD*%
D20*
%TO.C,C102*%
X71913750Y-70622250D03*
X71913750Y-72697250D03*
%TD*%
%TO.C,C130*%
X95726250Y-127772250D03*
X95726250Y-129847250D03*
%TD*%
D22*
%TO.C,D121*%
X94307500Y-108128500D03*
X94307500Y-106628500D03*
D23*
X89207500Y-106628500D03*
D22*
X89207500Y-108128500D03*
%TD*%
D20*
%TO.C,C120*%
X67151250Y-108722250D03*
X67151250Y-110797250D03*
%TD*%
%TO.C,C110*%
X62388750Y-89672250D03*
X62388750Y-91747250D03*
%TD*%
D21*
%TO.C,D24*%
X187007500Y-109028500D03*
X187007500Y-105728500D03*
%TD*%
D22*
%TO.C,D101*%
X60970000Y-70028500D03*
X60970000Y-68528500D03*
D23*
X55870000Y-68528500D03*
D22*
X55870000Y-70028500D03*
%TD*%
D20*
%TO.C,C132*%
X133826250Y-127772250D03*
X133826250Y-129847250D03*
%TD*%
%TO.C,C124*%
X143351250Y-108722250D03*
X143351250Y-110797250D03*
%TD*%
D21*
%TO.C,D22*%
X137001250Y-109028500D03*
X137001250Y-105728500D03*
%TD*%
%TO.C,D2*%
X84613750Y-70928500D03*
X84613750Y-67628500D03*
%TD*%
%TO.C,D8*%
X222726250Y-66166000D03*
X222726250Y-62866000D03*
%TD*%
D20*
%TO.C,C123*%
X124301250Y-108722250D03*
X124301250Y-110797250D03*
%TD*%
%TO.C,C109*%
X53594000Y-90529500D03*
X53594000Y-92604500D03*
%TD*%
D22*
%TO.C,D102*%
X80020000Y-70028500D03*
X80020000Y-68528500D03*
D23*
X74920000Y-68528500D03*
D22*
X74920000Y-70028500D03*
%TD*%
D20*
%TO.C,C106*%
X148113750Y-70622250D03*
X148113750Y-72697250D03*
%TD*%
D22*
%TO.C,D103*%
X99070000Y-70028500D03*
X99070000Y-68528500D03*
D23*
X93970000Y-68528500D03*
D22*
X93970000Y-70028500D03*
%TD*%
D20*
%TO.C,C134*%
X210026250Y-132534750D03*
X210026250Y-134609750D03*
%TD*%
%TO.C,C136*%
X88582500Y-145478500D03*
X88582500Y-147553500D03*
%TD*%
D21*
%TO.C,D41*%
X222726250Y-151891000D03*
X222726250Y-148591000D03*
%TD*%
D20*
%TO.C,C140*%
X190976250Y-150241000D03*
X190976250Y-152316000D03*
%TD*%
%TO.C,C117*%
X210026250Y-89672250D03*
X210026250Y-91747250D03*
%TD*%
%TO.C,C111*%
X81438750Y-89672250D03*
X81438750Y-91747250D03*
%TD*%
D22*
%TO.C,D137*%
X120501250Y-146228500D03*
X120501250Y-144728500D03*
D23*
X115401250Y-144728500D03*
D22*
X115401250Y-146228500D03*
%TD*%
D21*
%TO.C,D30*%
X127476250Y-128078500D03*
X127476250Y-124778500D03*
%TD*%
%TO.C,D27*%
X70326250Y-128078500D03*
X70326250Y-124778500D03*
%TD*%
D20*
%TO.C,C128*%
X67945000Y-128883500D03*
X67945000Y-130958500D03*
%TD*%
D21*
%TO.C,D15*%
X170338750Y-89978500D03*
X170338750Y-86678500D03*
%TD*%
D20*
%TO.C,C137*%
X112395000Y-145478500D03*
X112395000Y-147553500D03*
%TD*%
D22*
%TO.C,D117*%
X218132500Y-89078500D03*
X218132500Y-87578500D03*
D23*
X213032500Y-87578500D03*
D22*
X213032500Y-89078500D03*
%TD*%
D21*
%TO.C,D33*%
X222726250Y-132841000D03*
X222726250Y-129541000D03*
%TD*%
D20*
%TO.C,C131*%
X114776250Y-127772250D03*
X114776250Y-129847250D03*
%TD*%
D22*
%TO.C,D118*%
X237182500Y-89078500D03*
X237182500Y-87578500D03*
D23*
X232082500Y-87578500D03*
D22*
X232082500Y-89078500D03*
%TD*%
D21*
%TO.C,D3*%
X103663750Y-70928500D03*
X103663750Y-67628500D03*
%TD*%
D22*
%TO.C,D106*%
X156220000Y-70028500D03*
X156220000Y-68528500D03*
D23*
X151120000Y-68528500D03*
D22*
X151120000Y-70028500D03*
%TD*%
%TO.C,D123*%
X132407500Y-108128500D03*
X132407500Y-106628500D03*
D23*
X127307500Y-106628500D03*
D22*
X127307500Y-108128500D03*
%TD*%
D20*
%TO.C,C141*%
X210026250Y-150241000D03*
X210026250Y-152316000D03*
%TD*%
D21*
%TO.C,D4*%
X122713750Y-70928500D03*
X122713750Y-67628500D03*
%TD*%
D22*
%TO.C,D107*%
X184795000Y-70028500D03*
X184795000Y-68528500D03*
D23*
X179695000Y-68528500D03*
D22*
X179695000Y-70028500D03*
%TD*%
%TO.C,D134*%
X218132500Y-131941000D03*
X218132500Y-130441000D03*
D23*
X213032500Y-130441000D03*
D22*
X213032500Y-131941000D03*
%TD*%
D21*
%TO.C,D20*%
X98901250Y-109028500D03*
X98901250Y-105728500D03*
%TD*%
D22*
%TO.C,D139*%
X168126250Y-146228500D03*
X168126250Y-144728500D03*
D23*
X163026250Y-144728500D03*
D22*
X163026250Y-146228500D03*
%TD*%
%TO.C,D127*%
X237182500Y-108128500D03*
X237182500Y-106628500D03*
D23*
X232082500Y-106628500D03*
D22*
X232082500Y-108128500D03*
%TD*%
%TO.C,D116*%
X189557500Y-89078500D03*
X189557500Y-87578500D03*
D23*
X184457500Y-87578500D03*
D22*
X184457500Y-89078500D03*
%TD*%
%TO.C,D142*%
X237182500Y-150991000D03*
X237182500Y-149491000D03*
D23*
X232082500Y-149491000D03*
D22*
X232082500Y-150991000D03*
%TD*%
D20*
%TO.C,C126*%
X210026250Y-108722250D03*
X210026250Y-110797250D03*
%TD*%
D21*
%TO.C,D16*%
X194151250Y-89978500D03*
X194151250Y-86678500D03*
%TD*%
D24*
%TO.C,J1*%
X193923000Y-40716000D03*
X193923000Y-41216000D03*
X193923000Y-41716000D03*
X193923000Y-42216000D03*
X193923000Y-42716000D03*
X193923000Y-43216000D03*
X193923000Y-43716000D03*
X193923000Y-44216000D03*
X193923000Y-44716000D03*
X193923000Y-45216000D03*
X193923000Y-45716000D03*
X193923000Y-46216000D03*
X193923000Y-46716000D03*
X193923000Y-47216000D03*
X193923000Y-47716000D03*
X193923000Y-48216000D03*
X193923000Y-48716000D03*
X193923000Y-49216000D03*
X193923000Y-49716000D03*
D25*
X192923000Y-38216000D03*
X192923000Y-52716000D03*
X188023000Y-53316000D03*
X188023000Y-37616000D03*
%TD*%
D21*
%TO.C,D1*%
X65563750Y-70928500D03*
X65563750Y-67628500D03*
%TD*%
%TO.C,D37*%
X125095000Y-147128500D03*
X125095000Y-143828500D03*
%TD*%
D20*
%TO.C,C108*%
X210026250Y-65859750D03*
X210026250Y-67934750D03*
%TD*%
D22*
%TO.C,D133*%
X177651250Y-127178500D03*
X177651250Y-125678500D03*
D23*
X172551250Y-125678500D03*
D22*
X172551250Y-127178500D03*
%TD*%
M02*
