%TF.GenerationSoftware,KiCad,Pcbnew,(6.0.5)*%
%TF.CreationDate,2022-07-14T01:36:57-06:00*%
%TF.ProjectId,kb_right,6b625f72-6967-4687-942e-6b696361645f,rev?*%
%TF.SameCoordinates,Original*%
%TF.FileFunction,Soldermask,Top*%
%TF.FilePolarity,Negative*%
%FSLAX46Y46*%
G04 Gerber Fmt 4.6, Leading zero omitted, Abs format (unit mm)*
G04 Created by KiCad (PCBNEW (6.0.5)) date 2022-07-14 01:36:57*
%MOMM*%
%LPD*%
G01*
G04 APERTURE LIST*
%ADD10C,3.987800*%
%ADD11C,3.000000*%
%ADD12C,1.750000*%
%ADD13C,3.048000*%
%ADD14R,1.700000X1.700000*%
%ADD15O,1.700000X1.700000*%
%ADD16O,3.200000X2.000000*%
%ADD17R,2.000000X2.000000*%
%ADD18C,2.000000*%
%ADD19C,1.950000*%
G04 APERTURE END LIST*
D10*
%TO.C,MX15*%
X163195000Y-82772250D03*
D11*
X165735000Y-77692250D03*
D12*
X158115000Y-82772250D03*
X168275000Y-82772250D03*
D11*
X159385000Y-80232250D03*
%TD*%
%TO.C,MX33*%
X211772500Y-123094750D03*
X218122500Y-120554750D03*
D12*
X210502500Y-125634750D03*
X220662500Y-125634750D03*
D10*
X215582500Y-125634750D03*
%TD*%
D12*
%TO.C,MX10*%
X62865000Y-82772250D03*
X73025000Y-82772250D03*
D11*
X70485000Y-77692250D03*
D10*
X67945000Y-82772250D03*
D11*
X64135000Y-80232250D03*
%TD*%
D10*
%TO.C,MX4*%
X115570000Y-63722250D03*
D12*
X110490000Y-63722250D03*
D11*
X118110000Y-58642250D03*
X111760000Y-61182250D03*
D12*
X120650000Y-63722250D03*
%TD*%
D11*
%TO.C,MX6*%
X149860000Y-61182250D03*
X156210000Y-58642250D03*
D12*
X158750000Y-63722250D03*
X148590000Y-63722250D03*
D10*
X153670000Y-63722250D03*
%TD*%
D11*
%TO.C,MX32*%
X171291250Y-118332250D03*
X177641250Y-115792250D03*
D12*
X180181250Y-120872250D03*
D13*
X187039250Y-113887250D03*
D10*
X175101250Y-120872250D03*
D12*
X170021250Y-120872250D03*
D13*
X163163250Y-113887250D03*
D10*
X187039250Y-129127250D03*
X163163250Y-129127250D03*
%TD*%
D12*
%TO.C,MX31*%
X134302500Y-120872250D03*
X144462500Y-120872250D03*
D11*
X141922500Y-115792250D03*
D10*
X139382500Y-120872250D03*
D11*
X135572500Y-118332250D03*
%TD*%
D14*
%TO.C,J3*%
X220091000Y-71755000D03*
D15*
X217551000Y-71755000D03*
X215011000Y-71755000D03*
X212471000Y-71755000D03*
X209931000Y-71755000D03*
X207391000Y-71755000D03*
%TD*%
D10*
%TO.C,MX37*%
X117951250Y-139922250D03*
D11*
X120491250Y-134842250D03*
D12*
X123031250Y-139922250D03*
X112871250Y-139922250D03*
D11*
X114141250Y-137382250D03*
%TD*%
D10*
%TO.C,MX42*%
X234632500Y-144684750D03*
D11*
X237172500Y-139604750D03*
D12*
X239712500Y-144684750D03*
D11*
X230822500Y-142144750D03*
D12*
X229552500Y-144684750D03*
%TD*%
D10*
%TO.C,MX16*%
X187007500Y-82772250D03*
D11*
X189547500Y-77692250D03*
D12*
X181927500Y-82772250D03*
D11*
X183197500Y-80232250D03*
D12*
X192087500Y-82772250D03*
%TD*%
%TO.C,MX8*%
X220662500Y-58959750D03*
D11*
X218122500Y-53879750D03*
X211772500Y-56419750D03*
D10*
X215582500Y-58959750D03*
D12*
X210502500Y-58959750D03*
%TD*%
D14*
%TO.C,J2*%
X227076000Y-52847000D03*
D15*
X227076000Y-55387000D03*
X227076000Y-57927000D03*
%TD*%
D11*
%TO.C,MX13*%
X127635000Y-77692250D03*
D10*
X125095000Y-82772250D03*
D12*
X130175000Y-82772250D03*
D11*
X121285000Y-80232250D03*
D12*
X120015000Y-82772250D03*
%TD*%
D10*
%TO.C,MX23*%
X148907500Y-101822250D03*
D11*
X145097500Y-99282250D03*
D12*
X153987500Y-101822250D03*
X143827500Y-101822250D03*
D11*
X151447500Y-96742250D03*
%TD*%
D12*
%TO.C,MX39*%
X170656250Y-139922250D03*
D10*
X165576250Y-139922250D03*
D11*
X161766250Y-137382250D03*
D12*
X160496250Y-139922250D03*
D11*
X168116250Y-134842250D03*
%TD*%
D12*
%TO.C,MX1*%
X53340000Y-63722250D03*
D10*
X58420000Y-63722250D03*
D11*
X54610000Y-61182250D03*
X60960000Y-58642250D03*
D12*
X63500000Y-63722250D03*
%TD*%
D14*
%TO.C,J4*%
X163957000Y-56007000D03*
D15*
X163957000Y-58547000D03*
X163957000Y-61087000D03*
X163957000Y-63627000D03*
X163957000Y-66167000D03*
X163957000Y-68707000D03*
X163957000Y-71247000D03*
X163957000Y-73787000D03*
%TD*%
D12*
%TO.C,MX27*%
X68262500Y-120872250D03*
D11*
X59372500Y-118332250D03*
D12*
X58102500Y-120872250D03*
D11*
X65722500Y-115792250D03*
D10*
X63182500Y-120872250D03*
%TD*%
D12*
%TO.C,MX41*%
X210502500Y-144684750D03*
D10*
X215582500Y-144684750D03*
D12*
X220662500Y-144684750D03*
D11*
X218122500Y-139604750D03*
X211772500Y-142144750D03*
%TD*%
D10*
%TO.C,MX17*%
X215582500Y-82772250D03*
D12*
X220662500Y-82772250D03*
D11*
X218122500Y-77692250D03*
X211772500Y-80232250D03*
D12*
X210502500Y-82772250D03*
%TD*%
%TO.C,MX3*%
X91440000Y-63722250D03*
X101600000Y-63722250D03*
D11*
X99060000Y-58642250D03*
D10*
X96520000Y-63722250D03*
D11*
X92710000Y-61182250D03*
%TD*%
D12*
%TO.C,MX30*%
X115252500Y-120872250D03*
X125412500Y-120872250D03*
D11*
X122872500Y-115792250D03*
X116522500Y-118332250D03*
D10*
X120332500Y-120872250D03*
%TD*%
D12*
%TO.C,MX22*%
X134937500Y-101822250D03*
D11*
X126047500Y-99282250D03*
D10*
X129857500Y-101822250D03*
D12*
X124777500Y-101822250D03*
D11*
X132397500Y-96742250D03*
%TD*%
%TO.C,MX25*%
X218122500Y-96742250D03*
D12*
X220662500Y-101822250D03*
X210502500Y-101822250D03*
D11*
X211772500Y-99282250D03*
D10*
X215582500Y-101822250D03*
%TD*%
D13*
%TO.C,MX24*%
X191801750Y-94837250D03*
D11*
X176053750Y-99282250D03*
D10*
X191801750Y-110077250D03*
D12*
X174783750Y-101822250D03*
D10*
X179863750Y-101822250D03*
D13*
X167925750Y-94837250D03*
D11*
X182403750Y-96742250D03*
D12*
X184943750Y-101822250D03*
D10*
X167925750Y-110077250D03*
%TD*%
D12*
%TO.C,MX14*%
X139065000Y-82772250D03*
D10*
X144145000Y-82772250D03*
D11*
X140335000Y-80232250D03*
X146685000Y-77692250D03*
D12*
X149225000Y-82772250D03*
%TD*%
D13*
%TO.C,MX7*%
X170307000Y-56737250D03*
D10*
X194183000Y-71977250D03*
D11*
X178435000Y-61182250D03*
D13*
X194183000Y-56737250D03*
D12*
X177165000Y-63722250D03*
D10*
X182245000Y-63722250D03*
D11*
X184785000Y-58642250D03*
D10*
X170307000Y-71977250D03*
D12*
X187325000Y-63722250D03*
%TD*%
D11*
%TO.C,MX20*%
X87947500Y-99282250D03*
D12*
X96837500Y-101822250D03*
X86677500Y-101822250D03*
D10*
X91757500Y-101822250D03*
D11*
X94297500Y-96742250D03*
%TD*%
D10*
%TO.C,MX21*%
X110807500Y-101822250D03*
D12*
X105727500Y-101822250D03*
D11*
X113347500Y-96742250D03*
D12*
X115887500Y-101822250D03*
D11*
X106997500Y-99282250D03*
%TD*%
%TO.C,MX2*%
X73660000Y-61182250D03*
D12*
X72390000Y-63722250D03*
X82550000Y-63722250D03*
D10*
X77470000Y-63722250D03*
D11*
X80010000Y-58642250D03*
%TD*%
D10*
%TO.C,MX19*%
X72707500Y-101822250D03*
D11*
X75247500Y-96742250D03*
D12*
X67627500Y-101822250D03*
D11*
X68897500Y-99282250D03*
D12*
X77787500Y-101822250D03*
%TD*%
D10*
%TO.C,MX36*%
X94138750Y-139922250D03*
D11*
X90328750Y-137382250D03*
D12*
X99218750Y-139922250D03*
D11*
X96678750Y-134842250D03*
D12*
X89058750Y-139922250D03*
%TD*%
D11*
%TO.C,MX35*%
X70485000Y-134842250D03*
D10*
X67945000Y-139922250D03*
D12*
X73025000Y-139922250D03*
D11*
X64135000Y-137382250D03*
D12*
X62865000Y-139922250D03*
%TD*%
D11*
%TO.C,MX38*%
X137953750Y-137382250D03*
D10*
X141763750Y-139922250D03*
D12*
X136683750Y-139922250D03*
D11*
X144303750Y-134842250D03*
D12*
X146843750Y-139922250D03*
%TD*%
%TO.C,MX28*%
X87312500Y-120872250D03*
D10*
X82232500Y-120872250D03*
D12*
X77152500Y-120872250D03*
D11*
X84772500Y-115792250D03*
X78422500Y-118332250D03*
%TD*%
D12*
%TO.C,MX12*%
X100965000Y-82772250D03*
D11*
X108585000Y-77692250D03*
D10*
X106045000Y-82772250D03*
D11*
X102235000Y-80232250D03*
D12*
X111125000Y-82772250D03*
%TD*%
D16*
%TO.C,SW0*%
X239395000Y-64559750D03*
X239395000Y-53359750D03*
D17*
X246895000Y-61459750D03*
D18*
X246895000Y-56459750D03*
X246895000Y-58959750D03*
X232395000Y-56459750D03*
X232395000Y-61459750D03*
%TD*%
D11*
%TO.C,MX18*%
X49847500Y-99282250D03*
X56197500Y-96742250D03*
D12*
X48577500Y-101822250D03*
D10*
X53657500Y-101822250D03*
D12*
X58737500Y-101822250D03*
%TD*%
%TO.C,MX9*%
X43815000Y-82772250D03*
D11*
X45085000Y-80232250D03*
D10*
X48895000Y-82772250D03*
D12*
X53975000Y-82772250D03*
D11*
X51435000Y-77692250D03*
%TD*%
D12*
%TO.C,MX26*%
X239712500Y-82772250D03*
D11*
X237172500Y-77692250D03*
X230822500Y-80232250D03*
D12*
X229552500Y-82772250D03*
D10*
X234632500Y-82772250D03*
%TD*%
D11*
%TO.C,MX29*%
X97472500Y-118332250D03*
X103822500Y-115792250D03*
D12*
X106362500Y-120872250D03*
X96202500Y-120872250D03*
D10*
X101282500Y-120872250D03*
%TD*%
D11*
%TO.C,MX34*%
X230822500Y-99282250D03*
D12*
X239712500Y-101822250D03*
X229552500Y-101822250D03*
D10*
X234632500Y-101822250D03*
D11*
X237172500Y-96742250D03*
%TD*%
D14*
%TO.C,J5*%
X188722000Y-117475000D03*
D15*
X191262000Y-117475000D03*
X193802000Y-117475000D03*
X196342000Y-117475000D03*
X198882000Y-117475000D03*
X201422000Y-117475000D03*
X203962000Y-117475000D03*
X206502000Y-117475000D03*
X209042000Y-117475000D03*
%TD*%
D10*
%TO.C,MX5*%
X134620000Y-63722250D03*
D11*
X137160000Y-58642250D03*
D12*
X139700000Y-63722250D03*
X129540000Y-63722250D03*
D11*
X130810000Y-61182250D03*
%TD*%
D12*
%TO.C,MX40*%
X201612500Y-144684750D03*
D11*
X199072500Y-139604750D03*
D10*
X196532500Y-144684750D03*
D12*
X191452500Y-144684750D03*
D11*
X192722500Y-142144750D03*
%TD*%
D10*
%TO.C,MX11*%
X86995000Y-82772250D03*
D11*
X83185000Y-80232250D03*
X89535000Y-77692250D03*
D12*
X92075000Y-82772250D03*
X81915000Y-82772250D03*
%TD*%
D19*
%TO.C,J1*%
X192923000Y-38216000D03*
X192923000Y-52716000D03*
X188023000Y-53316000D03*
X188023000Y-37616000D03*
%TD*%
M02*
