%TF.GenerationSoftware,KiCad,Pcbnew,(6.0.5)*%
%TF.CreationDate,2022-07-29T15:57:33-06:00*%
%TF.ProjectId,kb_right,6b625f72-6967-4687-942e-6b696361645f,rev?*%
%TF.SameCoordinates,Original*%
%TF.FileFunction,Soldermask,Bot*%
%TF.FilePolarity,Negative*%
%FSLAX46Y46*%
G04 Gerber Fmt 4.6, Leading zero omitted, Abs format (unit mm)*
G04 Created by KiCad (PCBNEW (6.0.5)) date 2022-07-29 15:57:33*
%MOMM*%
%LPD*%
G01*
G04 APERTURE LIST*
G04 Aperture macros list*
%AMRoundRect*
0 Rectangle with rounded corners*
0 $1 Rounding radius*
0 $2 $3 $4 $5 $6 $7 $8 $9 X,Y pos of 4 corners*
0 Add a 4 corners polygon primitive as box body*
4,1,4,$2,$3,$4,$5,$6,$7,$8,$9,$2,$3,0*
0 Add four circle primitives for the rounded corners*
1,1,$1+$1,$2,$3*
1,1,$1+$1,$4,$5*
1,1,$1+$1,$6,$7*
1,1,$1+$1,$8,$9*
0 Add four rect primitives between the rounded corners*
20,1,$1+$1,$2,$3,$4,$5,0*
20,1,$1+$1,$4,$5,$6,$7,0*
20,1,$1+$1,$6,$7,$8,$9,0*
20,1,$1+$1,$8,$9,$2,$3,0*%
G04 Aperture macros list end*
%ADD10C,3.100000*%
%ADD11C,1.850000*%
%ADD12C,4.087800*%
%ADD13RoundRect,0.050000X-1.275000X-1.250000X1.275000X-1.250000X1.275000X1.250000X-1.275000X1.250000X0*%
%ADD14RoundRect,0.050000X0.600000X-0.800000X0.600000X0.800000X-0.600000X0.800000X-0.600000X-0.800000X0*%
%ADD15RoundRect,0.050000X0.800000X-0.800000X0.800000X0.800000X-0.800000X0.800000X-0.800000X-0.800000X0*%
%ADD16C,1.700000*%
%ADD17C,3.148000*%
%ADD18O,3.925000X2.500000*%
%ADD19C,2.100000*%
%ADD20RoundRect,0.050000X1.275000X1.250000X-1.275000X1.250000X-1.275000X-1.250000X1.275000X-1.250000X0*%
%ADD21O,3.300000X2.100000*%
%ADD22RoundRect,0.050000X1.000000X1.000000X-1.000000X1.000000X-1.000000X-1.000000X1.000000X-1.000000X0*%
%ADD23RoundRect,0.300000X-0.337500X-0.475000X0.337500X-0.475000X0.337500X0.475000X-0.337500X0.475000X0*%
%ADD24RoundRect,0.050000X0.600000X-0.450000X0.600000X0.450000X-0.600000X0.450000X-0.600000X-0.450000X0*%
%ADD25RoundRect,0.300000X0.337500X0.475000X-0.337500X0.475000X-0.337500X-0.475000X0.337500X-0.475000X0*%
%ADD26RoundRect,0.050000X0.700000X0.410000X-0.700000X0.410000X-0.700000X-0.410000X0.700000X-0.410000X0*%
%ADD27RoundRect,0.255000X0.495000X0.205000X-0.495000X0.205000X-0.495000X-0.205000X0.495000X-0.205000X0*%
%ADD28RoundRect,0.050000X0.850000X0.850000X-0.850000X0.850000X-0.850000X-0.850000X0.850000X-0.850000X0*%
%ADD29O,1.800000X1.800000*%
%ADD30RoundRect,0.050000X-0.700000X-0.410000X0.700000X-0.410000X0.700000X0.410000X-0.700000X0.410000X0*%
%ADD31RoundRect,0.255000X-0.495000X-0.205000X0.495000X-0.205000X0.495000X0.205000X-0.495000X0.205000X0*%
%ADD32RoundRect,0.300000X-0.475000X0.337500X-0.475000X-0.337500X0.475000X-0.337500X0.475000X0.337500X0*%
%ADD33RoundRect,0.050000X-0.600000X0.450000X-0.600000X-0.450000X0.600000X-0.450000X0.600000X0.450000X0*%
%ADD34RoundRect,0.050000X0.410000X-0.700000X0.410000X0.700000X-0.410000X0.700000X-0.410000X-0.700000X0*%
%ADD35RoundRect,0.255000X0.205000X-0.495000X0.205000X0.495000X-0.205000X0.495000X-0.205000X-0.495000X0*%
%ADD36RoundRect,0.050000X-0.410000X0.700000X-0.410000X-0.700000X0.410000X-0.700000X0.410000X0.700000X0*%
%ADD37RoundRect,0.255000X-0.205000X0.495000X-0.205000X-0.495000X0.205000X-0.495000X0.205000X0.495000X0*%
%ADD38RoundRect,0.050000X-0.777817X0.565685X0.565685X-0.777817X0.777817X-0.565685X-0.565685X0.777817X0*%
%ADD39C,2.050000*%
%ADD40C,0.900000*%
G04 APERTURE END LIST*
D10*
%TO.C,MX16*%
X162877500Y-71120000D03*
X156527500Y-73660000D03*
D11*
X155257500Y-76200000D03*
D12*
X160337500Y-76200000D03*
D11*
X165417500Y-76200000D03*
D13*
X153252500Y-73660000D03*
X166179500Y-71120000D03*
%TD*%
D14*
%TO.C,D15*%
X154781250Y-36700000D03*
D15*
X154781250Y-34200000D03*
D16*
X154781250Y-42000000D03*
D14*
X154781250Y-39500000D03*
%TD*%
D11*
%TO.C,MX34*%
X207645000Y-119062500D03*
D10*
X215265000Y-113982500D03*
D12*
X212725000Y-119062500D03*
D11*
X217805000Y-119062500D03*
D10*
X208915000Y-116522500D03*
D13*
X205640000Y-116522500D03*
X218567000Y-113982500D03*
%TD*%
D10*
%TO.C,MX11*%
X67627500Y-71120000D03*
D11*
X60007500Y-76200000D03*
D10*
X61277500Y-73660000D03*
D12*
X65087500Y-76200000D03*
D11*
X70167500Y-76200000D03*
D13*
X58002500Y-73660000D03*
X70929500Y-71120000D03*
%TD*%
D10*
%TO.C,MX4*%
X115252500Y-52070000D03*
D11*
X107632500Y-57150000D03*
D12*
X112712500Y-57150000D03*
D11*
X117792500Y-57150000D03*
D10*
X108902500Y-54610000D03*
D13*
X105627500Y-54610000D03*
X118554500Y-52070000D03*
%TD*%
D15*
%TO.C,D11*%
X78581250Y-34200000D03*
D14*
X78581250Y-36700000D03*
X78581250Y-39500000D03*
D16*
X78581250Y-42000000D03*
%TD*%
D15*
%TO.C,D13*%
X116681250Y-34200000D03*
D14*
X116681250Y-36700000D03*
X116681250Y-39500000D03*
D16*
X116681250Y-42000000D03*
%TD*%
D12*
%TO.C,MX6*%
X150812500Y-57150000D03*
D10*
X147002500Y-54610000D03*
X153352500Y-52070000D03*
D11*
X145732500Y-57150000D03*
X155892500Y-57150000D03*
D13*
X143727500Y-54610000D03*
X156654500Y-52070000D03*
%TD*%
D15*
%TO.C,D12*%
X97631250Y-34200000D03*
D14*
X97631250Y-36700000D03*
X97631250Y-39500000D03*
D16*
X97631250Y-42000000D03*
%TD*%
D14*
%TO.C,D37*%
X69056250Y-39081250D03*
D15*
X69056250Y-36581250D03*
D14*
X69056250Y-41881250D03*
D16*
X69056250Y-44381250D03*
%TD*%
D10*
%TO.C,MX33*%
X174783750Y-109220000D03*
D12*
X160305750Y-122555000D03*
D11*
X177323750Y-114300000D03*
D12*
X184181750Y-122555000D03*
D17*
X184181750Y-107315000D03*
D12*
X172243750Y-114300000D03*
D10*
X168433750Y-111760000D03*
D17*
X160305750Y-107315000D03*
D11*
X167163750Y-114300000D03*
D13*
X165158750Y-111760000D03*
X178085750Y-109220000D03*
%TD*%
D14*
%TO.C,D41*%
X145256250Y-39081250D03*
D15*
X145256250Y-36581250D03*
D16*
X145256250Y-44381250D03*
D14*
X145256250Y-41881250D03*
%TD*%
D11*
%TO.C,MX32*%
X131445000Y-114300000D03*
D12*
X136525000Y-114300000D03*
D10*
X132715000Y-111760000D03*
D11*
X141605000Y-114300000D03*
D10*
X139065000Y-109220000D03*
D13*
X129440000Y-111760000D03*
X142367000Y-109220000D03*
%TD*%
D18*
%TO.C,SW2*%
X231102500Y-46587500D03*
X231102500Y-58187500D03*
D19*
X232040000Y-54887500D03*
X232040000Y-49887500D03*
X232040000Y-52387500D03*
%TD*%
D11*
%TO.C,MX38*%
X120173750Y-133350000D03*
D12*
X115093750Y-133350000D03*
D10*
X117633750Y-128270000D03*
X111283750Y-130810000D03*
D11*
X110013750Y-133350000D03*
D13*
X108008750Y-130810000D03*
X120935750Y-128270000D03*
%TD*%
D14*
%TO.C,D39*%
X107156250Y-39081250D03*
D15*
X107156250Y-36581250D03*
D16*
X107156250Y-44381250D03*
D14*
X107156250Y-41881250D03*
%TD*%
D10*
%TO.C,MX43*%
X234315000Y-133032500D03*
D12*
X231775000Y-138112500D03*
D11*
X236855000Y-138112500D03*
D10*
X227965000Y-135572500D03*
D11*
X226695000Y-138112500D03*
D13*
X224690000Y-135572500D03*
X237617000Y-133032500D03*
%TD*%
D15*
%TO.C,D5*%
X138906250Y-33406250D03*
D14*
X138906250Y-35906250D03*
X138906250Y-38706250D03*
D16*
X138906250Y-41206250D03*
%TD*%
D14*
%TO.C,D29*%
X72231250Y-38287500D03*
D15*
X72231250Y-35787500D03*
D14*
X72231250Y-41087500D03*
D16*
X72231250Y-43587500D03*
%TD*%
D11*
%TO.C,MX17*%
X189230000Y-76200000D03*
X179070000Y-76200000D03*
D10*
X186690000Y-71120000D03*
X180340000Y-73660000D03*
D12*
X184150000Y-76200000D03*
D13*
X177065000Y-73660000D03*
X189992000Y-71120000D03*
%TD*%
D11*
%TO.C,MX8*%
X193992500Y-57150000D03*
D12*
X188912500Y-57150000D03*
D10*
X186372500Y-62230000D03*
X192722500Y-59690000D03*
D11*
X183832500Y-57150000D03*
D20*
X195997500Y-59690000D03*
X183070500Y-62230000D03*
%TD*%
D14*
%TO.C,D6*%
X157956250Y-35906250D03*
D15*
X157956250Y-33406250D03*
D14*
X157956250Y-38706250D03*
D16*
X157956250Y-41206250D03*
%TD*%
D10*
%TO.C,MX14*%
X124777500Y-71120000D03*
X118427500Y-73660000D03*
D11*
X117157500Y-76200000D03*
D12*
X122237500Y-76200000D03*
D11*
X127317500Y-76200000D03*
D13*
X115152500Y-73660000D03*
X128079500Y-71120000D03*
%TD*%
D12*
%TO.C,MX24*%
X146050000Y-95250000D03*
D10*
X142240000Y-92710000D03*
D11*
X151130000Y-95250000D03*
X140970000Y-95250000D03*
D10*
X148590000Y-90170000D03*
D13*
X138965000Y-92710000D03*
X151892000Y-90170000D03*
%TD*%
D11*
%TO.C,MX40*%
X167798750Y-133350000D03*
D10*
X158908750Y-130810000D03*
D12*
X162718750Y-133350000D03*
D11*
X157638750Y-133350000D03*
D10*
X165258750Y-128270000D03*
D13*
X155633750Y-130810000D03*
X168560750Y-128270000D03*
%TD*%
D12*
%TO.C,MX1*%
X55562500Y-57150000D03*
D11*
X50482500Y-57150000D03*
D10*
X58102500Y-52070000D03*
X51752500Y-54610000D03*
D11*
X60642500Y-57150000D03*
D13*
X48477500Y-54610000D03*
X61404500Y-52070000D03*
%TD*%
D11*
%TO.C,MX9*%
X217805000Y-52387500D03*
D10*
X208915000Y-49847500D03*
D12*
X212725000Y-52387500D03*
D11*
X207645000Y-52387500D03*
D10*
X215265000Y-47307500D03*
D13*
X205640000Y-49847500D03*
X218567000Y-47307500D03*
%TD*%
D11*
%TO.C,MX28*%
X55245000Y-114300000D03*
D10*
X56515000Y-111760000D03*
D11*
X65405000Y-114300000D03*
D10*
X62865000Y-109220000D03*
D12*
X60325000Y-114300000D03*
D13*
X53240000Y-111760000D03*
X66167000Y-109220000D03*
%TD*%
D14*
%TO.C,D33*%
X148431250Y-38287500D03*
D15*
X148431250Y-35787500D03*
D14*
X148431250Y-41087500D03*
D16*
X148431250Y-43587500D03*
%TD*%
D15*
%TO.C,D22*%
X113506250Y-34993750D03*
D14*
X113506250Y-37493750D03*
X113506250Y-40293750D03*
D16*
X113506250Y-42793750D03*
%TD*%
D10*
%TO.C,MX42*%
X215265000Y-133032500D03*
D11*
X217805000Y-138112500D03*
D10*
X208915000Y-135572500D03*
D11*
X207645000Y-138112500D03*
D12*
X212725000Y-138112500D03*
D13*
X205640000Y-135572500D03*
X218567000Y-133032500D03*
%TD*%
D14*
%TO.C,D14*%
X135731250Y-36700000D03*
D15*
X135731250Y-34200000D03*
D14*
X135731250Y-39500000D03*
D16*
X135731250Y-42000000D03*
%TD*%
D14*
%TO.C,D40*%
X126206250Y-39081250D03*
D15*
X126206250Y-36581250D03*
D16*
X126206250Y-44381250D03*
D14*
X126206250Y-41881250D03*
%TD*%
%TO.C,D32*%
X129381250Y-38287500D03*
D15*
X129381250Y-35787500D03*
D14*
X129381250Y-41087500D03*
D16*
X129381250Y-43587500D03*
%TD*%
D15*
%TO.C,D20*%
X75406250Y-34993750D03*
D14*
X75406250Y-37493750D03*
X75406250Y-40293750D03*
D16*
X75406250Y-42793750D03*
%TD*%
D12*
%TO.C,MX18*%
X212725000Y-76200000D03*
D11*
X207645000Y-76200000D03*
D10*
X215265000Y-71120000D03*
D11*
X217805000Y-76200000D03*
D10*
X208915000Y-73660000D03*
D13*
X205640000Y-73660000D03*
X218567000Y-71120000D03*
%TD*%
D12*
%TO.C,MX3*%
X93662500Y-57150000D03*
D11*
X98742500Y-57150000D03*
D10*
X89852500Y-54610000D03*
X96202500Y-52070000D03*
D11*
X88582500Y-57150000D03*
D13*
X86577500Y-54610000D03*
X99504500Y-52070000D03*
%TD*%
D11*
%TO.C,MX31*%
X122555000Y-114300000D03*
D10*
X113665000Y-111760000D03*
X120015000Y-109220000D03*
D11*
X112395000Y-114300000D03*
D12*
X117475000Y-114300000D03*
D13*
X110390000Y-111760000D03*
X123317000Y-109220000D03*
%TD*%
D11*
%TO.C,MX23*%
X132080000Y-95250000D03*
D10*
X129540000Y-90170000D03*
D11*
X121920000Y-95250000D03*
D12*
X127000000Y-95250000D03*
D10*
X123190000Y-92710000D03*
D13*
X119915000Y-92710000D03*
X132842000Y-90170000D03*
%TD*%
D10*
%TO.C,MX26*%
X208915000Y-92710000D03*
D11*
X207645000Y-95250000D03*
D10*
X215265000Y-90170000D03*
D11*
X217805000Y-95250000D03*
D12*
X212725000Y-95250000D03*
D13*
X205640000Y-92710000D03*
X218567000Y-90170000D03*
%TD*%
D17*
%TO.C,MX25*%
X165068250Y-88265000D03*
D12*
X188944250Y-103505000D03*
X165068250Y-103505000D03*
D17*
X188944250Y-88265000D03*
D11*
X171926250Y-95250000D03*
X182086250Y-95250000D03*
D12*
X177006250Y-95250000D03*
D10*
X173196250Y-92710000D03*
X179546250Y-90170000D03*
D13*
X169921250Y-92710000D03*
X182848250Y-90170000D03*
%TD*%
D15*
%TO.C,D30*%
X91281250Y-35787500D03*
D14*
X91281250Y-38287500D03*
D16*
X91281250Y-43587500D03*
D14*
X91281250Y-41087500D03*
%TD*%
D10*
%TO.C,MX15*%
X143827500Y-71120000D03*
D11*
X146367500Y-76200000D03*
X136207500Y-76200000D03*
D12*
X141287500Y-76200000D03*
D10*
X137477500Y-73660000D03*
D13*
X134202500Y-73660000D03*
X147129500Y-71120000D03*
%TD*%
D15*
%TO.C,D10*%
X59531250Y-34200000D03*
D14*
X59531250Y-36700000D03*
D16*
X59531250Y-42000000D03*
D14*
X59531250Y-39500000D03*
%TD*%
D12*
%TO.C,MX7*%
X169862500Y-57150000D03*
D10*
X173672500Y-59690000D03*
D11*
X164782500Y-57150000D03*
X174942500Y-57150000D03*
D10*
X167322500Y-62230000D03*
D20*
X176947500Y-59690000D03*
X164020500Y-62230000D03*
%TD*%
D10*
%TO.C,MX21*%
X85090000Y-92710000D03*
D12*
X88900000Y-95250000D03*
D11*
X83820000Y-95250000D03*
D10*
X91440000Y-90170000D03*
D11*
X93980000Y-95250000D03*
D13*
X81815000Y-92710000D03*
X94742000Y-90170000D03*
%TD*%
D11*
%TO.C,MX22*%
X113030000Y-95250000D03*
D10*
X110490000Y-90170000D03*
D12*
X107950000Y-95250000D03*
D11*
X102870000Y-95250000D03*
D10*
X104140000Y-92710000D03*
D13*
X100865000Y-92710000D03*
X113792000Y-90170000D03*
%TD*%
D15*
%TO.C,D36*%
X50006250Y-36581250D03*
D14*
X50006250Y-39081250D03*
X50006250Y-41881250D03*
D16*
X50006250Y-44381250D03*
%TD*%
D10*
%TO.C,MX2*%
X77152500Y-52070000D03*
D12*
X74612500Y-57150000D03*
D11*
X69532500Y-57150000D03*
X79692500Y-57150000D03*
D10*
X70802500Y-54610000D03*
D13*
X67527500Y-54610000D03*
X80454500Y-52070000D03*
%TD*%
D15*
%TO.C,D19*%
X56356250Y-34993750D03*
D14*
X56356250Y-37493750D03*
D16*
X56356250Y-42793750D03*
D14*
X56356250Y-40293750D03*
%TD*%
D15*
%TO.C,D24*%
X151606250Y-34993750D03*
D14*
X151606250Y-37493750D03*
D16*
X151606250Y-42793750D03*
D14*
X151606250Y-40293750D03*
%TD*%
D12*
%TO.C,MX7_1*%
X191325500Y-65405000D03*
D10*
X181927500Y-52070000D03*
X175577500Y-54610000D03*
D12*
X179387500Y-57150000D03*
D17*
X191325500Y-50165000D03*
X167449500Y-50165000D03*
D11*
X184467500Y-57150000D03*
D12*
X167449500Y-65405000D03*
D11*
X174307500Y-57150000D03*
D13*
X172302500Y-54610000D03*
X185229500Y-52070000D03*
%TD*%
D12*
%TO.C,MX20*%
X69850000Y-95250000D03*
D10*
X66040000Y-92710000D03*
X72390000Y-90170000D03*
D11*
X74930000Y-95250000D03*
X64770000Y-95250000D03*
D13*
X62765000Y-92710000D03*
X75692000Y-90170000D03*
%TD*%
D11*
%TO.C,MX32_1*%
X193992500Y-114300000D03*
X183832500Y-114300000D03*
D10*
X186372500Y-119380000D03*
X192722500Y-116840000D03*
D12*
X188912500Y-114300000D03*
D20*
X195997500Y-116840000D03*
X183070500Y-119380000D03*
%TD*%
D12*
%TO.C,MX37*%
X91281250Y-133350000D03*
D11*
X86201250Y-133350000D03*
D10*
X93821250Y-128270000D03*
X87471250Y-130810000D03*
D11*
X96361250Y-133350000D03*
D13*
X84196250Y-130810000D03*
X97123250Y-128270000D03*
%TD*%
D10*
%TO.C,MX36*%
X61277500Y-130810000D03*
D11*
X70167500Y-133350000D03*
D10*
X67627500Y-128270000D03*
D11*
X60007500Y-133350000D03*
D12*
X65087500Y-133350000D03*
D13*
X58002500Y-130810000D03*
X70929500Y-128270000D03*
%TD*%
D10*
%TO.C,MX32_2*%
X166528750Y-116840000D03*
D12*
X162718750Y-114300000D03*
D11*
X167798750Y-114300000D03*
X157638750Y-114300000D03*
D10*
X160178750Y-119380000D03*
D20*
X169803750Y-116840000D03*
X156876750Y-119380000D03*
%TD*%
D10*
%TO.C,MX40_1*%
X168910000Y-135890000D03*
D12*
X165100000Y-133350000D03*
D11*
X170180000Y-133350000D03*
X160020000Y-133350000D03*
D10*
X162560000Y-138430000D03*
D20*
X172185000Y-135890000D03*
X159258000Y-138430000D03*
%TD*%
D10*
%TO.C,MX39*%
X135096250Y-130810000D03*
D11*
X143986250Y-133350000D03*
D10*
X141446250Y-128270000D03*
D12*
X138906250Y-133350000D03*
D11*
X133826250Y-133350000D03*
D13*
X131821250Y-130810000D03*
X144748250Y-128270000D03*
%TD*%
D14*
%TO.C,D23*%
X132556250Y-37493750D03*
D15*
X132556250Y-34993750D03*
D14*
X132556250Y-40293750D03*
D16*
X132556250Y-42793750D03*
%TD*%
D11*
%TO.C,MX29*%
X74295000Y-114300000D03*
D10*
X75565000Y-111760000D03*
D11*
X84455000Y-114300000D03*
D10*
X81915000Y-109220000D03*
D12*
X79375000Y-114300000D03*
D13*
X72290000Y-111760000D03*
X85217000Y-109220000D03*
%TD*%
D15*
%TO.C,D2*%
X81756250Y-33406250D03*
D14*
X81756250Y-35906250D03*
D16*
X81756250Y-41206250D03*
D14*
X81756250Y-38706250D03*
%TD*%
D10*
%TO.C,MX13*%
X105727500Y-71120000D03*
D11*
X98107500Y-76200000D03*
D10*
X99377500Y-73660000D03*
D11*
X108267500Y-76200000D03*
D12*
X103187500Y-76200000D03*
D13*
X96102500Y-73660000D03*
X109029500Y-71120000D03*
%TD*%
D12*
%TO.C,MX19*%
X50800000Y-95250000D03*
D11*
X45720000Y-95250000D03*
X55880000Y-95250000D03*
D10*
X53340000Y-90170000D03*
X46990000Y-92710000D03*
D13*
X43715000Y-92710000D03*
X56642000Y-90170000D03*
%TD*%
D11*
%TO.C,MX10*%
X51117500Y-76200000D03*
X40957500Y-76200000D03*
D10*
X42227500Y-73660000D03*
X48577500Y-71120000D03*
D12*
X46037500Y-76200000D03*
D13*
X38952500Y-73660000D03*
X51879500Y-71120000D03*
%TD*%
D10*
%TO.C,MX27*%
X227965000Y-73660000D03*
D11*
X226695000Y-76200000D03*
D12*
X231775000Y-76200000D03*
D10*
X234315000Y-71120000D03*
D11*
X236855000Y-76200000D03*
D13*
X224690000Y-73660000D03*
X237617000Y-71120000D03*
%TD*%
D15*
%TO.C,D31*%
X110331250Y-35787500D03*
D14*
X110331250Y-38287500D03*
D16*
X110331250Y-43587500D03*
D14*
X110331250Y-41087500D03*
%TD*%
%TO.C,D28*%
X53181250Y-38287500D03*
D15*
X53181250Y-35787500D03*
D16*
X53181250Y-43587500D03*
D14*
X53181250Y-41087500D03*
%TD*%
D10*
%TO.C,MX30*%
X94615000Y-111760000D03*
D11*
X93345000Y-114300000D03*
X103505000Y-114300000D03*
D12*
X98425000Y-114300000D03*
D10*
X100965000Y-109220000D03*
D13*
X91340000Y-111760000D03*
X104267000Y-109220000D03*
%TD*%
D21*
%TO.C,SW1*%
X236537500Y-46787500D03*
X236537500Y-57987500D03*
D22*
X244037500Y-54887500D03*
D19*
X244037500Y-49887500D03*
X244037500Y-52387500D03*
X229537500Y-49887500D03*
X229537500Y-54887500D03*
%TD*%
D10*
%TO.C,MX35*%
X234315000Y-90170000D03*
D11*
X236855000Y-95250000D03*
X226695000Y-95250000D03*
D10*
X227965000Y-92710000D03*
D12*
X231775000Y-95250000D03*
D13*
X224690000Y-92710000D03*
X237617000Y-90170000D03*
%TD*%
D15*
%TO.C,D3*%
X100806250Y-33406250D03*
D14*
X100806250Y-35906250D03*
D16*
X100806250Y-41206250D03*
D14*
X100806250Y-38706250D03*
%TD*%
D11*
%TO.C,MX5*%
X136842500Y-57150000D03*
D12*
X131762500Y-57150000D03*
D11*
X126682500Y-57150000D03*
D10*
X127952500Y-54610000D03*
X134302500Y-52070000D03*
D13*
X124677500Y-54610000D03*
X137604500Y-52070000D03*
%TD*%
D15*
%TO.C,D4*%
X119856250Y-33406250D03*
D14*
X119856250Y-35906250D03*
D16*
X119856250Y-41206250D03*
D14*
X119856250Y-38706250D03*
%TD*%
D10*
%TO.C,MX41*%
X189865000Y-135572500D03*
D11*
X198755000Y-138112500D03*
D12*
X193675000Y-138112500D03*
D11*
X188595000Y-138112500D03*
D10*
X196215000Y-133032500D03*
D13*
X186590000Y-135572500D03*
X199517000Y-133032500D03*
%TD*%
D15*
%TO.C,D21*%
X94456250Y-34993750D03*
D14*
X94456250Y-37493750D03*
X94456250Y-40293750D03*
D16*
X94456250Y-42793750D03*
%TD*%
D10*
%TO.C,MX12*%
X80327500Y-73660000D03*
D11*
X89217500Y-76200000D03*
D12*
X84137500Y-76200000D03*
D11*
X79057500Y-76200000D03*
D10*
X86677500Y-71120000D03*
D13*
X77052500Y-73660000D03*
X89979500Y-71120000D03*
%TD*%
D14*
%TO.C,D1*%
X62706250Y-35906250D03*
D15*
X62706250Y-33406250D03*
D14*
X62706250Y-38706250D03*
D16*
X62706250Y-41206250D03*
%TD*%
D15*
%TO.C,D38*%
X88106250Y-36581250D03*
D14*
X88106250Y-39081250D03*
D16*
X88106250Y-44381250D03*
D14*
X88106250Y-41881250D03*
%TD*%
D23*
%TO.C,C118*%
X236293750Y-82550000D03*
X238368750Y-82550000D03*
%TD*%
D24*
%TO.C,D35*%
X239712500Y-96392000D03*
X239712500Y-93092000D03*
%TD*%
D23*
%TO.C,C115*%
X164856250Y-82550000D03*
X166931250Y-82550000D03*
%TD*%
D25*
%TO.C,C101*%
X51043750Y-61912500D03*
X48968750Y-61912500D03*
%TD*%
D26*
%TO.C,D110*%
X67787500Y-82506250D03*
X67787500Y-81006250D03*
D27*
X62387500Y-81006250D03*
D26*
X62387500Y-82506250D03*
%TD*%
D25*
%TO.C,C103*%
X89143750Y-61912500D03*
X87068750Y-61912500D03*
%TD*%
D28*
%TO.C,J3*%
X168433750Y-33337500D03*
D29*
X165893750Y-33337500D03*
X168433750Y-35877500D03*
X165893750Y-35877500D03*
X168433750Y-38417500D03*
X165893750Y-38417500D03*
X168433750Y-40957500D03*
X165893750Y-40957500D03*
X168433750Y-43497500D03*
X165893750Y-43497500D03*
X168433750Y-46037500D03*
X165893750Y-46037500D03*
%TD*%
D23*
%TO.C,C113*%
X126756250Y-82550000D03*
X128831250Y-82550000D03*
%TD*%
D25*
%TO.C,C122*%
X103431250Y-100012500D03*
X101356250Y-100012500D03*
%TD*%
D30*
%TO.C,D125*%
X174306250Y-100056250D03*
X174306250Y-101556250D03*
D31*
X179706250Y-101556250D03*
D30*
X179706250Y-100056250D03*
%TD*%
D23*
%TO.C,C129*%
X83893750Y-120650000D03*
X85968750Y-120650000D03*
%TD*%
D25*
%TO.C,C105*%
X127243750Y-61912500D03*
X125168750Y-61912500D03*
%TD*%
D30*
%TO.C,D138*%
X136206250Y-138156250D03*
X136206250Y-139656250D03*
D31*
X141606250Y-139656250D03*
D30*
X141606250Y-138156250D03*
%TD*%
D25*
%TO.C,C135*%
X60568750Y-138112500D03*
X58493750Y-138112500D03*
%TD*%
D26*
%TO.C,D113*%
X124937500Y-82506250D03*
X124937500Y-81006250D03*
D27*
X119537500Y-81006250D03*
D26*
X119537500Y-82506250D03*
%TD*%
%TO.C,D111*%
X86837500Y-82506250D03*
X86837500Y-81006250D03*
D27*
X81437500Y-81006250D03*
D26*
X81437500Y-82506250D03*
%TD*%
%TO.C,D128*%
X63025000Y-120606250D03*
X63025000Y-119106250D03*
D27*
X57625000Y-119106250D03*
D26*
X57625000Y-120606250D03*
%TD*%
D25*
%TO.C,C138*%
X134387500Y-138112500D03*
X132312500Y-138112500D03*
%TD*%
D28*
%TO.C,J2*%
X225653600Y-47307500D03*
D29*
X223113600Y-47307500D03*
X225653600Y-49847500D03*
X223113600Y-49847500D03*
X225653600Y-52387500D03*
X223113600Y-52387500D03*
X225653600Y-54927500D03*
X223113600Y-54927500D03*
%TD*%
D26*
%TO.C,D115*%
X163037500Y-82506250D03*
X163037500Y-81006250D03*
D27*
X157637500Y-81006250D03*
D26*
X157637500Y-82506250D03*
%TD*%
D30*
%TO.C,D136*%
X88581250Y-138156250D03*
X88581250Y-139656250D03*
D31*
X93981250Y-139656250D03*
D30*
X93981250Y-138156250D03*
%TD*%
D24*
%TO.C,D18*%
X220662500Y-78643750D03*
X220662500Y-75343750D03*
%TD*%
D30*
%TO.C,D140*%
X190975000Y-142918750D03*
X190975000Y-144418750D03*
D31*
X196375000Y-144418750D03*
D30*
X196375000Y-142918750D03*
%TD*%
%TO.C,D104*%
X110012500Y-61956250D03*
X110012500Y-63456250D03*
D31*
X115412500Y-63456250D03*
D30*
X115412500Y-61956250D03*
%TD*%
D26*
%TO.C,D114*%
X143987500Y-82506250D03*
X143987500Y-81006250D03*
D27*
X138587500Y-81006250D03*
D26*
X138587500Y-82506250D03*
%TD*%
D24*
%TO.C,D27*%
X240506250Y-84708000D03*
X240506250Y-81408000D03*
%TD*%
D30*
%TO.C,D135*%
X62387500Y-138156250D03*
X62387500Y-139656250D03*
D31*
X67787500Y-139656250D03*
D30*
X67787500Y-138156250D03*
%TD*%
%TO.C,D120*%
X67150000Y-100056250D03*
X67150000Y-101556250D03*
D31*
X72550000Y-101556250D03*
D30*
X72550000Y-100056250D03*
%TD*%
%TO.C,D126*%
X210025000Y-100056250D03*
X210025000Y-101556250D03*
D31*
X215425000Y-101556250D03*
D30*
X215425000Y-100056250D03*
%TD*%
D32*
%TO.C,C107*%
X177006250Y-66272500D03*
X177006250Y-68347500D03*
%TD*%
D30*
%TO.C,D122*%
X105250000Y-100056250D03*
X105250000Y-101556250D03*
D31*
X110650000Y-101556250D03*
D30*
X110650000Y-100056250D03*
%TD*%
D25*
%TO.C,C125*%
X172360500Y-100012500D03*
X170285500Y-100012500D03*
%TD*%
D23*
%TO.C,C114*%
X145806250Y-82550000D03*
X147881250Y-82550000D03*
%TD*%
D25*
%TO.C,C104*%
X108193750Y-61912500D03*
X106118750Y-61912500D03*
%TD*%
D33*
%TO.C,D26*%
X221456250Y-87250000D03*
X221456250Y-90550000D03*
%TD*%
D26*
%TO.C,D129*%
X82075000Y-120606250D03*
X82075000Y-119106250D03*
D27*
X76675000Y-119106250D03*
D26*
X76675000Y-120606250D03*
%TD*%
%TO.C,D112*%
X105887500Y-82506250D03*
X105887500Y-81006250D03*
D27*
X100487500Y-81006250D03*
D26*
X100487500Y-82506250D03*
%TD*%
D30*
%TO.C,D141*%
X210025000Y-142918750D03*
X210025000Y-144418750D03*
D31*
X215425000Y-144418750D03*
D30*
X215425000Y-142918750D03*
%TD*%
D26*
%TO.C,D131*%
X120175000Y-120606250D03*
X120175000Y-119106250D03*
D27*
X114775000Y-119106250D03*
D26*
X114775000Y-120606250D03*
%TD*%
D33*
%TO.C,D43*%
X227012500Y-122968750D03*
X227012500Y-126268750D03*
%TD*%
D30*
%TO.C,D105*%
X129062500Y-61956250D03*
X129062500Y-63456250D03*
D31*
X134462500Y-63456250D03*
D30*
X134462500Y-61956250D03*
%TD*%
D23*
%TO.C,C116*%
X188668750Y-82550000D03*
X190743750Y-82550000D03*
%TD*%
%TO.C,C133*%
X175746500Y-117856000D03*
X177821500Y-117856000D03*
%TD*%
D25*
%TO.C,C121*%
X84381250Y-100012500D03*
X82306250Y-100012500D03*
%TD*%
D30*
%TO.C,D119*%
X48100000Y-100056250D03*
X48100000Y-101556250D03*
D31*
X53500000Y-101556250D03*
D30*
X53500000Y-100056250D03*
%TD*%
D25*
%TO.C,C142*%
X227256250Y-142875000D03*
X225181250Y-142875000D03*
%TD*%
D23*
%TO.C,C112*%
X107706250Y-82550000D03*
X109781250Y-82550000D03*
%TD*%
D26*
%TO.C,D130*%
X101125000Y-120606250D03*
X101125000Y-119106250D03*
D27*
X95725000Y-119106250D03*
D26*
X95725000Y-120606250D03*
%TD*%
D25*
%TO.C,C119*%
X46281250Y-100012500D03*
X44206250Y-100012500D03*
%TD*%
D24*
%TO.C,D7*%
X196056250Y-55625000D03*
X196056250Y-52325000D03*
%TD*%
D25*
%TO.C,C127*%
X227256250Y-100012500D03*
X225181250Y-100012500D03*
%TD*%
D30*
%TO.C,D108*%
X210025000Y-57193750D03*
X210025000Y-58693750D03*
D31*
X215425000Y-58693750D03*
D30*
X215425000Y-57193750D03*
%TD*%
D26*
%TO.C,D132*%
X139225000Y-120606250D03*
X139225000Y-119106250D03*
D27*
X133825000Y-119106250D03*
D26*
X133825000Y-120606250D03*
%TD*%
D25*
%TO.C,C139*%
X155818750Y-134143750D03*
X153743750Y-134143750D03*
%TD*%
D26*
%TO.C,D109*%
X48737500Y-82506250D03*
X48737500Y-81006250D03*
D27*
X43337500Y-81006250D03*
D26*
X43337500Y-82506250D03*
%TD*%
D30*
%TO.C,D124*%
X143350000Y-100056250D03*
X143350000Y-101556250D03*
D31*
X148750000Y-101556250D03*
D30*
X148750000Y-100056250D03*
%TD*%
D25*
%TO.C,C102*%
X70093750Y-61912500D03*
X68018750Y-61912500D03*
%TD*%
D23*
%TO.C,C130*%
X102943750Y-120650000D03*
X105018750Y-120650000D03*
%TD*%
D30*
%TO.C,D121*%
X86200000Y-100056250D03*
X86200000Y-101556250D03*
D31*
X91600000Y-101556250D03*
D30*
X91600000Y-100056250D03*
%TD*%
D25*
%TO.C,C120*%
X65331250Y-100012500D03*
X63256250Y-100012500D03*
%TD*%
D23*
%TO.C,C110*%
X69606250Y-82550000D03*
X71681250Y-82550000D03*
%TD*%
D33*
%TO.C,D25*%
X193675000Y-87250000D03*
X193675000Y-90550000D03*
%TD*%
D30*
%TO.C,D101*%
X52862500Y-61956250D03*
X52862500Y-63456250D03*
D31*
X58262500Y-63456250D03*
D30*
X58262500Y-61956250D03*
%TD*%
D23*
%TO.C,C132*%
X141043750Y-120650000D03*
X143118750Y-120650000D03*
%TD*%
D25*
%TO.C,C124*%
X141531250Y-100012500D03*
X139456250Y-100012500D03*
%TD*%
D24*
%TO.C,D8*%
X199231250Y-60387500D03*
X199231250Y-57087500D03*
%TD*%
D25*
%TO.C,C123*%
X122481250Y-100012500D03*
X120406250Y-100012500D03*
%TD*%
D23*
%TO.C,C109*%
X50556250Y-82550000D03*
X52631250Y-82550000D03*
%TD*%
D30*
%TO.C,D102*%
X71912500Y-61956250D03*
X71912500Y-63456250D03*
D31*
X77312500Y-63456250D03*
D30*
X77312500Y-61956250D03*
%TD*%
D25*
%TO.C,C106*%
X146293750Y-61912500D03*
X144218750Y-61912500D03*
%TD*%
D30*
%TO.C,D103*%
X90962500Y-61956250D03*
X90962500Y-63456250D03*
D31*
X96362500Y-63456250D03*
D30*
X96362500Y-61956250D03*
%TD*%
D24*
%TO.C,D44*%
X240284000Y-64515000D03*
X240284000Y-61215000D03*
%TD*%
D23*
%TO.C,C134*%
X217243750Y-125412500D03*
X219318750Y-125412500D03*
%TD*%
D25*
%TO.C,C136*%
X86762500Y-138112500D03*
X84687500Y-138112500D03*
%TD*%
D33*
%TO.C,D42*%
X223837500Y-122968750D03*
X223837500Y-126268750D03*
%TD*%
D25*
%TO.C,C140*%
X189156250Y-142875000D03*
X187081250Y-142875000D03*
%TD*%
D33*
%TO.C,D33_1*%
X180181250Y-114237500D03*
X180181250Y-117537500D03*
%TD*%
D23*
%TO.C,C117*%
X217243750Y-82550000D03*
X219318750Y-82550000D03*
%TD*%
%TO.C,C111*%
X88656250Y-82550000D03*
X90731250Y-82550000D03*
%TD*%
D30*
%TO.C,D137*%
X112393750Y-138156250D03*
X112393750Y-139656250D03*
D31*
X117793750Y-139656250D03*
D30*
X117793750Y-138156250D03*
%TD*%
D23*
%TO.C,C128*%
X64843750Y-120650000D03*
X66918750Y-120650000D03*
%TD*%
D24*
%TO.C,D16*%
X169068750Y-78643750D03*
X169068750Y-75343750D03*
%TD*%
D25*
%TO.C,C137*%
X110575000Y-138112500D03*
X108500000Y-138112500D03*
%TD*%
D26*
%TO.C,D117*%
X215425000Y-82506250D03*
X215425000Y-81006250D03*
D27*
X210025000Y-81006250D03*
D26*
X210025000Y-82506250D03*
%TD*%
D33*
%TO.C,D34*%
X221456250Y-111062500D03*
X221456250Y-114362500D03*
%TD*%
D23*
%TO.C,C131*%
X121993750Y-120650000D03*
X124068750Y-120650000D03*
%TD*%
D26*
%TO.C,D118*%
X234475000Y-82506250D03*
X234475000Y-81006250D03*
D27*
X229075000Y-81006250D03*
D26*
X229075000Y-82506250D03*
%TD*%
D30*
%TO.C,D106*%
X148112500Y-61956250D03*
X148112500Y-63456250D03*
D31*
X153512500Y-63456250D03*
D30*
X153512500Y-61956250D03*
%TD*%
%TO.C,D123*%
X124300000Y-100056250D03*
X124300000Y-101556250D03*
D31*
X129700000Y-101556250D03*
D30*
X129700000Y-100056250D03*
%TD*%
D25*
%TO.C,C141*%
X208206250Y-142875000D03*
X206131250Y-142875000D03*
%TD*%
D24*
%TO.C,D9*%
X219075000Y-60387500D03*
X219075000Y-57087500D03*
%TD*%
D34*
%TO.C,D107*%
X179082000Y-66200000D03*
X180582000Y-66200000D03*
D35*
X180582000Y-60800000D03*
D34*
X179082000Y-60800000D03*
%TD*%
D26*
%TO.C,D134*%
X215425000Y-125368750D03*
X215425000Y-123868750D03*
D27*
X210025000Y-123868750D03*
D26*
X210025000Y-125368750D03*
%TD*%
D36*
%TO.C,D139*%
X156833000Y-136206250D03*
X155333000Y-136206250D03*
D37*
X155333000Y-141606250D03*
D36*
X156833000Y-141606250D03*
%TD*%
D30*
%TO.C,D127*%
X229075000Y-100056250D03*
X229075000Y-101556250D03*
D31*
X234475000Y-101556250D03*
D30*
X234475000Y-100056250D03*
%TD*%
D26*
%TO.C,D116*%
X186850000Y-82506250D03*
X186850000Y-81006250D03*
D27*
X181450000Y-81006250D03*
D26*
X181450000Y-82506250D03*
%TD*%
D30*
%TO.C,D142*%
X229075000Y-142918750D03*
X229075000Y-144418750D03*
D31*
X234475000Y-144418750D03*
D30*
X234475000Y-142918750D03*
%TD*%
D25*
%TO.C,C126*%
X208206250Y-100012500D03*
X206131250Y-100012500D03*
%TD*%
D24*
%TO.C,D17*%
X193675000Y-78643750D03*
X193675000Y-75343750D03*
%TD*%
D38*
%TO.C,J1*%
X204819139Y-40145375D03*
X204465586Y-40498928D03*
X204112032Y-40852481D03*
X203758479Y-41206035D03*
X203404925Y-41559588D03*
X203051372Y-41913142D03*
X202697819Y-42266695D03*
X202344265Y-42620248D03*
X201990712Y-42973802D03*
X201637158Y-43327355D03*
X201283605Y-43680908D03*
X200930052Y-44034462D03*
X200576498Y-44388015D03*
X200222945Y-44741569D03*
X199869392Y-45095122D03*
X199515838Y-45448675D03*
X199162285Y-45802229D03*
X198808731Y-46155782D03*
X198455178Y-46509336D03*
D39*
X205879799Y-37670501D03*
X195626751Y-47923549D03*
X191737664Y-44882990D03*
X202839240Y-33781414D03*
%TD*%
D25*
%TO.C,C108*%
X208206250Y-57150000D03*
X206131250Y-57150000D03*
%TD*%
D28*
%TO.C,J4*%
X53975000Y-130175000D03*
D29*
X53975000Y-132715000D03*
X53975000Y-135255000D03*
X53975000Y-137795000D03*
X53975000Y-140335000D03*
%TD*%
D36*
%TO.C,D133*%
X173470000Y-117950000D03*
X171970000Y-117950000D03*
D37*
X171970000Y-123350000D03*
D36*
X173470000Y-123350000D03*
%TD*%
D40*
X207137000Y-58547000D03*
X173638879Y-67838921D03*
X204089000Y-126619000D03*
X204061000Y-98897480D03*
X173609000Y-83820000D03*
X204061000Y-83693000D03*
X199933500Y-47244000D03*
X204061020Y-141759980D03*
X84931250Y-41275000D03*
X76200000Y-97155000D03*
X177800000Y-119856250D03*
X233680000Y-107315000D03*
X208280000Y-112395000D03*
X68262500Y-120650000D03*
X243840000Y-102235000D03*
X121920000Y-71755000D03*
X180181250Y-80168750D03*
X101600000Y-56515000D03*
X86360000Y-112395000D03*
X123031250Y-41275000D03*
X137160000Y-107315000D03*
X71120000Y-107315000D03*
X198120000Y-102235000D03*
X223520000Y-107315000D03*
X238760000Y-142875000D03*
X91440000Y-66675000D03*
X243840000Y-41275000D03*
X76200000Y-117475000D03*
X177800000Y-92075000D03*
X59531250Y-100012500D03*
X111760000Y-107315000D03*
X107156250Y-138112500D03*
X53975000Y-82550000D03*
X243840000Y-66675000D03*
X81280000Y-132715000D03*
X198120000Y-117475000D03*
X162560000Y-51435000D03*
X132080000Y-107315000D03*
X187960000Y-66675000D03*
X87312500Y-120650000D03*
X137160000Y-86995000D03*
X228600000Y-86995000D03*
X101600000Y-86995000D03*
X243840000Y-112395000D03*
X243840000Y-117475000D03*
X203200000Y-36195000D03*
X76200000Y-127635000D03*
X76200000Y-107315000D03*
X168275000Y-82550000D03*
X228600000Y-127635000D03*
X243840000Y-107315000D03*
X135128000Y-100012500D03*
X144462500Y-120650000D03*
X162560000Y-92075000D03*
X215900000Y-84931250D03*
X238760000Y-122555000D03*
X243840000Y-132715000D03*
X228600000Y-132715000D03*
X71120000Y-66675000D03*
X213360000Y-66675000D03*
X101600000Y-132715000D03*
X81280000Y-117475000D03*
X182880000Y-86995000D03*
X96520000Y-107315000D03*
X243840000Y-137795000D03*
X60960000Y-127635000D03*
X223520000Y-117475000D03*
X243840000Y-97155000D03*
X228600000Y-66675000D03*
X193040000Y-102235000D03*
X243840000Y-92075000D03*
X86360000Y-66675000D03*
X238379000Y-83947000D03*
X157480000Y-92075000D03*
X60960000Y-86995000D03*
X228600000Y-76835000D03*
X182880000Y-66675000D03*
X228600000Y-112395000D03*
X111760000Y-97155000D03*
X91440000Y-127635000D03*
X127000000Y-66675000D03*
X243840000Y-76835000D03*
X198151675Y-44758094D03*
X170656250Y-123825000D03*
X66040000Y-86995000D03*
X192087500Y-82550000D03*
X152400000Y-132715000D03*
X50800000Y-86995000D03*
X147320000Y-51435000D03*
X205581250Y-123825000D03*
X177800000Y-137795000D03*
X193040000Y-92075000D03*
X91440000Y-86995000D03*
X218440000Y-66675000D03*
X91440000Y-97155000D03*
X106680000Y-117475000D03*
X162560000Y-97155000D03*
X198120000Y-112395000D03*
X142240000Y-112395000D03*
X218440000Y-97155000D03*
X209423000Y-53975000D03*
X207168750Y-56098500D03*
X101600000Y-112395000D03*
X71120000Y-51435000D03*
X66040000Y-97155000D03*
X127000000Y-86995000D03*
X137160000Y-127635000D03*
X152400000Y-86995000D03*
X106362500Y-120650000D03*
X193040000Y-122555000D03*
X66040000Y-112395000D03*
X182880000Y-71755000D03*
X157480000Y-86995000D03*
X182880000Y-137795000D03*
X243840000Y-86995000D03*
X147320000Y-107315000D03*
X121920000Y-117475000D03*
X208280000Y-107315000D03*
X60325000Y-61912500D03*
X106680000Y-112395000D03*
X50800000Y-92075000D03*
X86360000Y-117475000D03*
X49212500Y-63500000D03*
X142240000Y-66675000D03*
X238760000Y-41275000D03*
X152400000Y-102235000D03*
X86360000Y-86995000D03*
X60960000Y-122555000D03*
X238760000Y-76835000D03*
X228600000Y-97155000D03*
X162560000Y-127635000D03*
X157480000Y-66675000D03*
X243840000Y-127635000D03*
X132080000Y-66675000D03*
X187960000Y-92075000D03*
X152400000Y-137795000D03*
X223520000Y-97155000D03*
X96520000Y-97155000D03*
X208280000Y-132715000D03*
X218440000Y-61595000D03*
X233680000Y-41275000D03*
X101600000Y-71755000D03*
X45720000Y-86995000D03*
X83343750Y-138112500D03*
X116840000Y-97155000D03*
X98425000Y-61912500D03*
X238760000Y-66675000D03*
X243840000Y-142875000D03*
X187960000Y-122555000D03*
X55880000Y-97155000D03*
X127000000Y-51435000D03*
X238760000Y-86995000D03*
X223520000Y-112395000D03*
X130968750Y-138112500D03*
X193040000Y-107315000D03*
X73025000Y-82550000D03*
X157480000Y-127635000D03*
X106680000Y-92075000D03*
X193040000Y-132715000D03*
X169068750Y-100012500D03*
X117475000Y-61912500D03*
X91440000Y-51435000D03*
X193040000Y-71755000D03*
X60960000Y-107315000D03*
X55880000Y-66675000D03*
X213360000Y-112395000D03*
X121920000Y-112395000D03*
X223520000Y-137795000D03*
X243840000Y-122555000D03*
X208280000Y-66675000D03*
X223043750Y-100012500D03*
X55880000Y-122555000D03*
X111760000Y-51435000D03*
X181768750Y-59531250D03*
X86360000Y-127635000D03*
X132080000Y-97155000D03*
X220662500Y-125412500D03*
X200025000Y-100012500D03*
X218440000Y-107315000D03*
X213360000Y-107315000D03*
X182880000Y-97155000D03*
X57658000Y-117602000D03*
X238760000Y-107315000D03*
X167640000Y-86995000D03*
X101600000Y-122555000D03*
X106680000Y-86995000D03*
X152400000Y-112395000D03*
X92075000Y-82550000D03*
X238760000Y-127635000D03*
X111125000Y-82550000D03*
X66040000Y-117475000D03*
X81280000Y-76835000D03*
X157480000Y-76835000D03*
X182880000Y-102235000D03*
X167640000Y-92075000D03*
X243840000Y-61595000D03*
X238760000Y-112395000D03*
X44196000Y-101854000D03*
X60960000Y-117475000D03*
X121920000Y-97155000D03*
X103981250Y-41275000D03*
X147320000Y-137795000D03*
X81280000Y-56515000D03*
X116681250Y-100012500D03*
X185737500Y-142875000D03*
X167640000Y-107315000D03*
X56896000Y-137160000D03*
X223837500Y-142875000D03*
X158623000Y-135255000D03*
X66040000Y-66675000D03*
X111760000Y-127635000D03*
X243840000Y-81915000D03*
X233680000Y-86995000D03*
X181864000Y-55245000D03*
X79375000Y-61912500D03*
X198120000Y-122555000D03*
X193040000Y-97155000D03*
X81280000Y-86995000D03*
X177800000Y-86995000D03*
X121920000Y-86995000D03*
X152400000Y-107315000D03*
X228600000Y-107315000D03*
X86360000Y-97155000D03*
X127000000Y-92075000D03*
X187960000Y-97155000D03*
X78581250Y-100012500D03*
X97631250Y-100012500D03*
X228600000Y-61595000D03*
X172720000Y-86995000D03*
X152400000Y-82550000D03*
X121920000Y-66675000D03*
X111760000Y-66675000D03*
X125412500Y-120650000D03*
X101600000Y-66675000D03*
X243840000Y-46355000D03*
X147320000Y-117475000D03*
X136525000Y-61912500D03*
X243840000Y-71755000D03*
X101600000Y-97155000D03*
X142240000Y-86995000D03*
X71120000Y-86995000D03*
X121920000Y-132715000D03*
X101600000Y-117475000D03*
X91440000Y-76835000D03*
X127000000Y-117475000D03*
X147320000Y-86995000D03*
X91440000Y-107315000D03*
X147320000Y-66675000D03*
X127000000Y-132715000D03*
X220662500Y-82550000D03*
X65881250Y-41275000D03*
X238760000Y-102235000D03*
X208280000Y-97155000D03*
X152400000Y-122555000D03*
X213360000Y-61595000D03*
X177800000Y-122555000D03*
X116840000Y-107315000D03*
X172466000Y-65532000D03*
X204787500Y-142875000D03*
X76200000Y-132715000D03*
X142081250Y-41275000D03*
X95250000Y-117475000D03*
X198120000Y-107315000D03*
X167640000Y-97155000D03*
X130175000Y-82550000D03*
X233680000Y-66675000D03*
X213360000Y-92075000D03*
X106680000Y-66675000D03*
X187960000Y-132715000D03*
X203962000Y-60387500D03*
X202747060Y-52702711D03*
X61912500Y-46234261D03*
X80962500Y-46831250D03*
X100012500Y-47176899D03*
X119062500Y-47630419D03*
X138112500Y-48418750D03*
X156972000Y-48641000D03*
X203230750Y-78643750D03*
X202364871Y-53643317D03*
X58001536Y-69558536D03*
X77496036Y-69114036D03*
X96101536Y-69558536D03*
X114976911Y-69733161D03*
X134646036Y-69114036D03*
X151673500Y-68707000D03*
X202439000Y-87250000D03*
X202339626Y-54645500D03*
X56356250Y-86518750D03*
X75406250Y-87312500D03*
X94456250Y-87312500D03*
X113506250Y-87312500D03*
X132842000Y-87312500D03*
X150812500Y-87312500D03*
X201740500Y-111062500D03*
X201239790Y-54645500D03*
X65764411Y-104891839D03*
X85211286Y-105288714D03*
X103981250Y-106362500D03*
X123031250Y-106362500D03*
X159242818Y-109604739D03*
X200192651Y-54645500D03*
X201041000Y-120015000D03*
X69850000Y-125412500D03*
X96837500Y-124618750D03*
X117475000Y-125412500D03*
X142875000Y-125412500D03*
X156368750Y-126232440D03*
X197643750Y-130175000D03*
X204724000Y-47879000D03*
X204781786Y-46793786D03*
X53181250Y-106362500D03*
X43656250Y-95250000D03*
X57150000Y-71437500D03*
X83343750Y-128587500D03*
X66675000Y-52387500D03*
X61912500Y-90487500D03*
X71437500Y-109537500D03*
X76200000Y-71437500D03*
X90487500Y-109537500D03*
X107156250Y-128587500D03*
X80962500Y-90487500D03*
X85725000Y-52387500D03*
X104775000Y-52387500D03*
X109537500Y-109537500D03*
X100012500Y-90487500D03*
X95250000Y-71437500D03*
X130968750Y-128587500D03*
X119062500Y-90487500D03*
X123825000Y-52387500D03*
X154781250Y-128587500D03*
X128587500Y-109537500D03*
X114300000Y-71437500D03*
X159512000Y-112649000D03*
X138112500Y-90487500D03*
X133350000Y-71437500D03*
X185737500Y-133350000D03*
X142875000Y-52387500D03*
X171450000Y-52387500D03*
X152400000Y-71437500D03*
X196850000Y-114300000D03*
X175387000Y-48537459D03*
X169068750Y-90487500D03*
X197643750Y-127793750D03*
X206375000Y-47879000D03*
X204851000Y-65913000D03*
X223837500Y-133350000D03*
X204787500Y-90487500D03*
X204787500Y-114300000D03*
X223837500Y-71437500D03*
X223837500Y-90487500D03*
X141674214Y-104705786D03*
G36*
X160756602Y-133908191D02*
G01*
X160823374Y-134103214D01*
X160822989Y-134105177D01*
X160821097Y-134105825D01*
X160819849Y-134105017D01*
X160779475Y-134047918D01*
X160714221Y-134021542D01*
X160644865Y-134034670D01*
X160642846Y-134035959D01*
X160640848Y-134036048D01*
X160639772Y-134034362D01*
X160640284Y-134032935D01*
X160753224Y-133907501D01*
X160755126Y-133906883D01*
X160756602Y-133908191D01*
G37*
G36*
X167065473Y-133907443D02*
G01*
X167181149Y-134035915D01*
X167185237Y-134038884D01*
X167186051Y-134040711D01*
X167184876Y-134042329D01*
X167183247Y-134042329D01*
X167132228Y-134019576D01*
X167062652Y-134030211D01*
X167009722Y-134076905D01*
X166999843Y-134096755D01*
X166998177Y-134097860D01*
X166996386Y-134096969D01*
X166996182Y-134095157D01*
X167054745Y-133940174D01*
X167062037Y-133908335D01*
X167063399Y-133906869D01*
X167065473Y-133907443D01*
G37*
G36*
X166998770Y-132597389D02*
G01*
X167039738Y-132654060D01*
X167105265Y-132679753D01*
X167174707Y-132665854D01*
X167176602Y-132666495D01*
X167176995Y-132668456D01*
X167176586Y-132669153D01*
X167066468Y-132791452D01*
X167064566Y-132792070D01*
X167063097Y-132790782D01*
X166995264Y-132599229D01*
X166995628Y-132597262D01*
X166997513Y-132596594D01*
X166998770Y-132597389D01*
G37*
G36*
X160822536Y-132601358D02*
G01*
X160822761Y-132603170D01*
X160757931Y-132780328D01*
X160755708Y-132790524D01*
X160754362Y-132792003D01*
X160752268Y-132791436D01*
X160637601Y-132664085D01*
X160633414Y-132661044D01*
X160632600Y-132659217D01*
X160633775Y-132657599D01*
X160635378Y-132657588D01*
X160687968Y-132680167D01*
X160757391Y-132668562D01*
X160809663Y-132621133D01*
X160819082Y-132601614D01*
X160820735Y-132600488D01*
X160822536Y-132601358D01*
G37*
G36*
X183381871Y-120679000D02*
G01*
X183381871Y-120681000D01*
X183380924Y-120681840D01*
X183254745Y-120735660D01*
X183016417Y-120878297D01*
X182980816Y-120906819D01*
X182978839Y-120907121D01*
X182977588Y-120905561D01*
X182977925Y-120904113D01*
X183017971Y-120846786D01*
X183020683Y-120776452D01*
X182984941Y-120715817D01*
X182921908Y-120684041D01*
X182899381Y-120681992D01*
X182897747Y-120680839D01*
X182897928Y-120678847D01*
X182899562Y-120678000D01*
X183380139Y-120678000D01*
X183381871Y-120679000D01*
G37*
G36*
X159267458Y-120631154D02*
G01*
X159268864Y-120632355D01*
X159410050Y-120718873D01*
X159411004Y-120720630D01*
X159409790Y-120722418D01*
X159378745Y-120735660D01*
X159234298Y-120822110D01*
X159232298Y-120822142D01*
X159231271Y-120820425D01*
X159231802Y-120819037D01*
X159279258Y-120767675D01*
X159291492Y-120698360D01*
X159264314Y-120633447D01*
X159264568Y-120631464D01*
X159266412Y-120630691D01*
X159267458Y-120631154D01*
G37*
G36*
X161269878Y-120481507D02*
G01*
X161269415Y-120483190D01*
X161266419Y-120486606D01*
X161266207Y-120486813D01*
X161216264Y-120529093D01*
X161177366Y-120588116D01*
X161176557Y-120658496D01*
X161214000Y-120718259D01*
X161245246Y-120738268D01*
X161246165Y-120740044D01*
X161245086Y-120741728D01*
X161243363Y-120741783D01*
X161052674Y-120658076D01*
X161051490Y-120656464D01*
X161052433Y-120654540D01*
X161088635Y-120632355D01*
X161266612Y-120480350D01*
X161268579Y-120479986D01*
X161269878Y-120481507D01*
G37*
G36*
X171129813Y-116006038D02*
G01*
X171278849Y-116099528D01*
X171307802Y-116112601D01*
X171308969Y-116114225D01*
X171308146Y-116116048D01*
X171306703Y-116116405D01*
X171237442Y-116106749D01*
X171173542Y-116136263D01*
X171135660Y-116195767D01*
X171130730Y-116230588D01*
X171129497Y-116232163D01*
X171127517Y-116231883D01*
X171126750Y-116230308D01*
X171126750Y-116007732D01*
X171127750Y-116006000D01*
X171129813Y-116006038D01*
G37*
G36*
X170487391Y-115341136D02*
G01*
X170623288Y-115538867D01*
X170623445Y-115540861D01*
X170621640Y-115542000D01*
X170380612Y-115542000D01*
X170378880Y-115541000D01*
X170378880Y-115539000D01*
X170380049Y-115538081D01*
X170448145Y-115518086D01*
X170494238Y-115464892D01*
X170504263Y-115395164D01*
X170486229Y-115349010D01*
X170486381Y-115348010D01*
X170483989Y-115343253D01*
X170483912Y-115343078D01*
X170483879Y-115342993D01*
X170484184Y-115341016D01*
X170486048Y-115340292D01*
X170487391Y-115341136D01*
G37*
G36*
X166595122Y-115021495D02*
G01*
X166702258Y-115099333D01*
X166878530Y-115177815D01*
X167067270Y-115217933D01*
X167249420Y-115217933D01*
X167251152Y-115218933D01*
X167251152Y-115220933D01*
X167250129Y-115221803D01*
X167196430Y-115242162D01*
X167154554Y-115298735D01*
X167149912Y-115368968D01*
X167184040Y-115430676D01*
X167204517Y-115445266D01*
X167205347Y-115447086D01*
X167204186Y-115448714D01*
X167202591Y-115448743D01*
X167007107Y-115367771D01*
X166770908Y-115311065D01*
X166574107Y-115295576D01*
X166572459Y-115294443D01*
X166572616Y-115292449D01*
X166573726Y-115291656D01*
X166636977Y-115273980D01*
X166683761Y-115221396D01*
X166694689Y-115151862D01*
X166666246Y-115087359D01*
X166644068Y-115069063D01*
X166643703Y-115068085D01*
X166592650Y-115024636D01*
X166591979Y-115022752D01*
X166593275Y-115021229D01*
X166595122Y-115021495D01*
G37*
G36*
X167955393Y-113232229D02*
G01*
X168191592Y-113288935D01*
X168391248Y-113304649D01*
X168392896Y-113305782D01*
X168392739Y-113307776D01*
X168391579Y-113308583D01*
X168328725Y-113324387D01*
X168280581Y-113375730D01*
X168267836Y-113444951D01*
X168294612Y-113510252D01*
X168312487Y-113528422D01*
X168364737Y-113571647D01*
X168365434Y-113573522D01*
X168364159Y-113575063D01*
X168362286Y-113574806D01*
X168260242Y-113500667D01*
X168083970Y-113422185D01*
X167895230Y-113382067D01*
X167714376Y-113382067D01*
X167712644Y-113381067D01*
X167712644Y-113379067D01*
X167713641Y-113378207D01*
X167767052Y-113357100D01*
X167808134Y-113299948D01*
X167811795Y-113229658D01*
X167776798Y-113168414D01*
X167757648Y-113154592D01*
X167756828Y-113152767D01*
X167757999Y-113151145D01*
X167759583Y-113151122D01*
X167955393Y-113232229D01*
G37*
G36*
X164583369Y-113059000D02*
G01*
X164583369Y-113061000D01*
X164582200Y-113061919D01*
X164514104Y-113081914D01*
X164468011Y-113135108D01*
X164457976Y-113204903D01*
X164470148Y-113242948D01*
X164469723Y-113244902D01*
X164467818Y-113245511D01*
X164466466Y-113244474D01*
X164465315Y-113242244D01*
X164338041Y-113061150D01*
X164337863Y-113059158D01*
X164339677Y-113058000D01*
X164581637Y-113058000D01*
X164583369Y-113059000D01*
G37*
G36*
X163834975Y-112366769D02*
G01*
X163835750Y-112368350D01*
X163835750Y-112591681D01*
X163834750Y-112593413D01*
X163832705Y-112593386D01*
X163664752Y-112490465D01*
X163655936Y-112486595D01*
X163654752Y-112484983D01*
X163655556Y-112483152D01*
X163656995Y-112482780D01*
X163726351Y-112491710D01*
X163789939Y-112461529D01*
X163827196Y-112401629D01*
X163831768Y-112368080D01*
X163832993Y-112366499D01*
X163834975Y-112366769D01*
G37*
G36*
X169649170Y-99660547D02*
G01*
X169650000Y-99662169D01*
X169650000Y-100362827D01*
X169649000Y-100364559D01*
X169647000Y-100364559D01*
X169646081Y-100363390D01*
X169626087Y-100295297D01*
X169572893Y-100249204D01*
X169503224Y-100239187D01*
X169441266Y-100267482D01*
X169439275Y-100267292D01*
X169438444Y-100265473D01*
X169438953Y-100264320D01*
X169440142Y-100263007D01*
X169495524Y-100148700D01*
X169516618Y-100023317D01*
X169516748Y-100012631D01*
X169498723Y-99886768D01*
X169446151Y-99771141D01*
X169422143Y-99743279D01*
X169421770Y-99741314D01*
X169423285Y-99740008D01*
X169424837Y-99740358D01*
X169478744Y-99779719D01*
X169549003Y-99783905D01*
X169610373Y-99749440D01*
X169643460Y-99687094D01*
X169646010Y-99661967D01*
X169647180Y-99660345D01*
X169649170Y-99660547D01*
G37*
G36*
X238675346Y-83324000D02*
G01*
X238675346Y-83326000D01*
X238674177Y-83326919D01*
X238606084Y-83346913D01*
X238559991Y-83400107D01*
X238549974Y-83469776D01*
X238579294Y-83533976D01*
X238597604Y-83551228D01*
X238633213Y-83578552D01*
X238633978Y-83580400D01*
X238632760Y-83581987D01*
X238630907Y-83581817D01*
X238566906Y-83540334D01*
X238445216Y-83503941D01*
X238318202Y-83503165D01*
X238196074Y-83538070D01*
X238128710Y-83580574D01*
X238126712Y-83580653D01*
X238125645Y-83578962D01*
X238126425Y-83577296D01*
X238160251Y-83551340D01*
X238201932Y-83494257D01*
X238206118Y-83423997D01*
X238171653Y-83362627D01*
X238109307Y-83329540D01*
X238084180Y-83326990D01*
X238082558Y-83325820D01*
X238082760Y-83323830D01*
X238084382Y-83323000D01*
X238673614Y-83323000D01*
X238675346Y-83324000D01*
G37*
G36*
X166411208Y-63481154D02*
G01*
X166412614Y-63482355D01*
X166553800Y-63568873D01*
X166554754Y-63570630D01*
X166553540Y-63572418D01*
X166522495Y-63585660D01*
X166378048Y-63672110D01*
X166376048Y-63672142D01*
X166375021Y-63670425D01*
X166375552Y-63669037D01*
X166423008Y-63617675D01*
X166435242Y-63548360D01*
X166408064Y-63483447D01*
X166408318Y-63481464D01*
X166410162Y-63480691D01*
X166411208Y-63481154D01*
G37*
G36*
X168413628Y-63331507D02*
G01*
X168413165Y-63333190D01*
X168410169Y-63336606D01*
X168409957Y-63336813D01*
X168360014Y-63379093D01*
X168321116Y-63438116D01*
X168320307Y-63508496D01*
X168357750Y-63568259D01*
X168388996Y-63588268D01*
X168389915Y-63590044D01*
X168388836Y-63591728D01*
X168387113Y-63591783D01*
X168196424Y-63508076D01*
X168195240Y-63506464D01*
X168196183Y-63504540D01*
X168232385Y-63482355D01*
X168410362Y-63330350D01*
X168412329Y-63329986D01*
X168413628Y-63331507D01*
G37*
G36*
X178273563Y-58856038D02*
G01*
X178422599Y-58949528D01*
X178451552Y-58962601D01*
X178452719Y-58964225D01*
X178451896Y-58966048D01*
X178450453Y-58966405D01*
X178381192Y-58956749D01*
X178317292Y-58986263D01*
X178279410Y-59045767D01*
X178274480Y-59080588D01*
X178273247Y-59082163D01*
X178271267Y-59081883D01*
X178270500Y-59080308D01*
X178270500Y-58857732D01*
X178271500Y-58856000D01*
X178273563Y-58856038D01*
G37*
G36*
X177631141Y-58191136D02*
G01*
X177767038Y-58388867D01*
X177767195Y-58390861D01*
X177765390Y-58392000D01*
X177524362Y-58392000D01*
X177522630Y-58391000D01*
X177522630Y-58389000D01*
X177523799Y-58388081D01*
X177591895Y-58368086D01*
X177637988Y-58314892D01*
X177648013Y-58245164D01*
X177629979Y-58199010D01*
X177630131Y-58198010D01*
X177627739Y-58193253D01*
X177627662Y-58193078D01*
X177627629Y-58192993D01*
X177627934Y-58191016D01*
X177629798Y-58190292D01*
X177631141Y-58191136D01*
G37*
G36*
X173738872Y-57871495D02*
G01*
X173846008Y-57949333D01*
X174022280Y-58027815D01*
X174211020Y-58067933D01*
X174393170Y-58067933D01*
X174394902Y-58068933D01*
X174394902Y-58070933D01*
X174393879Y-58071803D01*
X174340180Y-58092162D01*
X174298304Y-58148735D01*
X174293662Y-58218968D01*
X174327790Y-58280676D01*
X174348267Y-58295266D01*
X174349097Y-58297086D01*
X174347936Y-58298714D01*
X174346341Y-58298743D01*
X174150857Y-58217771D01*
X173914658Y-58161065D01*
X173717857Y-58145576D01*
X173716209Y-58144443D01*
X173716366Y-58142449D01*
X173717476Y-58141656D01*
X173780727Y-58123980D01*
X173827511Y-58071396D01*
X173838439Y-58001862D01*
X173809996Y-57937359D01*
X173787818Y-57919063D01*
X173787453Y-57918085D01*
X173736400Y-57874636D01*
X173735729Y-57872752D01*
X173737025Y-57871229D01*
X173738872Y-57871495D01*
G37*
G36*
X206745404Y-56237449D02*
G01*
X206788429Y-56335231D01*
X206870157Y-56432458D01*
X206957536Y-56490622D01*
X206958424Y-56492414D01*
X206957316Y-56494079D01*
X206955663Y-56494135D01*
X206936927Y-56486374D01*
X206866643Y-56478819D01*
X206803706Y-56510324D01*
X206767729Y-56570961D01*
X206764396Y-56613682D01*
X206767838Y-56650103D01*
X206767006Y-56651921D01*
X206765014Y-56652109D01*
X206763861Y-56650524D01*
X206758633Y-56606013D01*
X206714311Y-56506229D01*
X206637091Y-56429145D01*
X206572805Y-56400724D01*
X206571626Y-56399109D01*
X206572434Y-56397280D01*
X206574277Y-56397008D01*
X206584133Y-56400469D01*
X206654720Y-56404152D01*
X206715835Y-56369235D01*
X206748366Y-56306830D01*
X206741583Y-56238452D01*
X206742407Y-56236630D01*
X206744397Y-56236433D01*
X206745404Y-56237449D01*
G37*
G36*
X207594939Y-56242787D02*
G01*
X207595273Y-56244124D01*
X207588750Y-56304809D01*
X207620256Y-56367746D01*
X207680781Y-56403657D01*
X207753376Y-56400466D01*
X207762895Y-56397123D01*
X207764861Y-56397493D01*
X207765524Y-56399380D01*
X207764370Y-56400838D01*
X207699979Y-56429439D01*
X207622895Y-56506659D01*
X207578748Y-56606515D01*
X207573726Y-56649592D01*
X207572532Y-56651196D01*
X207570545Y-56650965D01*
X207569748Y-56649172D01*
X207573092Y-56613796D01*
X207559649Y-56544404D01*
X207511028Y-56493509D01*
X207442495Y-56476953D01*
X207400679Y-56486331D01*
X207374675Y-56497102D01*
X207372692Y-56496841D01*
X207371927Y-56494993D01*
X207372864Y-56493550D01*
X207454904Y-56443177D01*
X207540142Y-56349007D01*
X207591484Y-56243038D01*
X207593139Y-56241915D01*
X207594939Y-56242787D01*
G37*
G36*
X175099143Y-56082229D02*
G01*
X175335342Y-56138935D01*
X175534998Y-56154649D01*
X175536646Y-56155782D01*
X175536489Y-56157776D01*
X175535329Y-56158583D01*
X175472475Y-56174387D01*
X175424331Y-56225730D01*
X175411586Y-56294951D01*
X175438362Y-56360252D01*
X175456237Y-56378422D01*
X175508487Y-56421647D01*
X175509184Y-56423522D01*
X175507909Y-56425063D01*
X175506036Y-56424806D01*
X175403992Y-56350667D01*
X175227720Y-56272185D01*
X175038980Y-56232067D01*
X174858126Y-56232067D01*
X174856394Y-56231067D01*
X174856394Y-56229067D01*
X174857391Y-56228207D01*
X174910802Y-56207100D01*
X174951884Y-56149948D01*
X174955545Y-56079658D01*
X174920548Y-56018414D01*
X174901398Y-56004592D01*
X174900578Y-56002767D01*
X174901749Y-56001145D01*
X174903333Y-56001122D01*
X175099143Y-56082229D01*
G37*
G36*
X171727119Y-55909000D02*
G01*
X171727119Y-55911000D01*
X171725950Y-55911919D01*
X171657854Y-55931914D01*
X171611761Y-55985108D01*
X171601726Y-56054903D01*
X171613898Y-56092948D01*
X171613473Y-56094902D01*
X171611568Y-56095511D01*
X171610216Y-56094474D01*
X171609065Y-56092244D01*
X171481791Y-55911150D01*
X171481613Y-55909158D01*
X171483427Y-55908000D01*
X171725387Y-55908000D01*
X171727119Y-55909000D01*
G37*
G36*
X170978725Y-55216769D02*
G01*
X170979500Y-55218350D01*
X170979500Y-55441681D01*
X170978500Y-55443413D01*
X170976455Y-55443386D01*
X170808502Y-55340465D01*
X170799686Y-55336595D01*
X170798502Y-55334983D01*
X170799306Y-55333152D01*
X170800745Y-55332780D01*
X170870101Y-55341710D01*
X170933689Y-55311529D01*
X170970946Y-55251629D01*
X170975518Y-55218080D01*
X170976743Y-55216499D01*
X170978725Y-55216769D01*
G37*
G36*
X200600973Y-54462635D02*
G01*
X200644979Y-54517244D01*
X200711764Y-54539472D01*
X200779961Y-54522065D01*
X200827509Y-54470995D01*
X200829421Y-54470409D01*
X200830885Y-54471772D01*
X200830783Y-54473208D01*
X200811385Y-54514523D01*
X200791844Y-54640027D01*
X200808312Y-54765968D01*
X200834866Y-54826315D01*
X200834648Y-54828304D01*
X200832817Y-54829109D01*
X200831478Y-54828376D01*
X200787464Y-54773757D01*
X200720680Y-54751528D01*
X200652482Y-54768934D01*
X200605516Y-54819378D01*
X200603604Y-54819964D01*
X200602140Y-54818601D01*
X200602252Y-54817143D01*
X200619425Y-54781700D01*
X200640519Y-54656317D01*
X200640649Y-54645631D01*
X200622624Y-54519768D01*
X200597595Y-54464718D01*
X200597789Y-54462727D01*
X200599609Y-54461899D01*
X200600973Y-54462635D01*
G37*
G36*
X201909009Y-54524710D02*
G01*
X201909398Y-54526235D01*
X201891680Y-54640027D01*
X201907655Y-54762196D01*
X201906888Y-54764043D01*
X201904905Y-54764302D01*
X201904115Y-54763710D01*
X201860951Y-54710145D01*
X201794166Y-54687917D01*
X201725968Y-54705324D01*
X201677826Y-54757032D01*
X201674217Y-54764934D01*
X201672822Y-54768302D01*
X201671235Y-54769519D01*
X201669387Y-54768753D01*
X201669002Y-54767204D01*
X201687658Y-54656317D01*
X201687788Y-54645631D01*
X201670908Y-54527768D01*
X201671653Y-54525911D01*
X201673632Y-54525628D01*
X201674445Y-54526229D01*
X201718465Y-54580855D01*
X201785250Y-54603083D01*
X201853448Y-54585676D01*
X201901590Y-54533968D01*
X201905210Y-54526042D01*
X201905575Y-54525161D01*
X201907162Y-54523944D01*
X201909009Y-54524710D01*
G37*
G36*
X202111532Y-54007399D02*
G01*
X202172011Y-54047657D01*
X202293245Y-54085533D01*
X202420242Y-54087861D01*
X202542789Y-54054451D01*
X202613414Y-54011087D01*
X202615413Y-54011033D01*
X202616459Y-54012737D01*
X202615678Y-54014378D01*
X202590543Y-54033665D01*
X202590091Y-54033926D01*
X202587045Y-54035188D01*
X202532009Y-54079538D01*
X202509779Y-54146322D01*
X202527210Y-54214619D01*
X202558670Y-54250066D01*
X202593838Y-54277051D01*
X202594603Y-54278899D01*
X202593385Y-54280486D01*
X202591532Y-54280316D01*
X202527532Y-54238834D01*
X202405842Y-54202441D01*
X202278828Y-54201665D01*
X202156700Y-54236570D01*
X202089339Y-54279072D01*
X202087341Y-54279151D01*
X202086274Y-54277460D01*
X202087054Y-54275794D01*
X202113956Y-54255151D01*
X202114408Y-54254890D01*
X202117454Y-54253628D01*
X202172490Y-54209277D01*
X202194718Y-54142493D01*
X202177286Y-54074196D01*
X202145827Y-54038751D01*
X202109206Y-54010651D01*
X202108441Y-54008803D01*
X202109659Y-54007216D01*
X202111532Y-54007399D01*
G37*
G36*
X202406879Y-52987194D02*
G01*
X202448467Y-53036669D01*
X202554200Y-53107051D01*
X202675434Y-53144927D01*
X202779917Y-53146842D01*
X202781630Y-53147874D01*
X202781593Y-53149874D01*
X202780689Y-53150671D01*
X202720770Y-53177178D01*
X202682014Y-53235933D01*
X202681175Y-53306417D01*
X202702386Y-53348791D01*
X202707660Y-53355664D01*
X202707921Y-53357647D01*
X202706334Y-53358865D01*
X202704558Y-53358188D01*
X202659361Y-53305735D01*
X202552777Y-53236651D01*
X202431087Y-53200258D01*
X202330998Y-53199646D01*
X202329272Y-53198635D01*
X202329284Y-53196635D01*
X202330201Y-53195817D01*
X202391161Y-53168850D01*
X202429917Y-53110095D01*
X202430756Y-53039611D01*
X202409545Y-52997237D01*
X202403761Y-52989699D01*
X202403500Y-52987716D01*
X202405087Y-52986498D01*
X202406879Y-52987194D01*
G37*
G36*
X206303374Y-48321216D02*
G01*
X206430371Y-48323544D01*
X206515872Y-48300234D01*
X206517806Y-48300744D01*
X206518332Y-48302673D01*
X206517163Y-48304012D01*
X206515002Y-48304907D01*
X206459966Y-48349258D01*
X206437737Y-48416042D01*
X206455144Y-48484240D01*
X206506700Y-48532242D01*
X206563032Y-48545554D01*
X206564488Y-48546925D01*
X206564028Y-48548872D01*
X206562572Y-48549500D01*
X206187428Y-48549500D01*
X206185696Y-48548500D01*
X206185696Y-48546500D01*
X206186865Y-48545581D01*
X206254961Y-48525586D01*
X206301054Y-48472392D01*
X206311071Y-48402723D01*
X206281808Y-48338647D01*
X206235048Y-48304928D01*
X206226438Y-48301362D01*
X206225220Y-48299775D01*
X206225985Y-48297927D01*
X206227799Y-48297605D01*
X206303374Y-48321216D01*
G37*
G36*
X204652374Y-48321216D02*
G01*
X204779371Y-48323544D01*
X204864876Y-48300233D01*
X204866810Y-48300743D01*
X204867336Y-48302672D01*
X204866167Y-48304011D01*
X204864001Y-48304908D01*
X204808964Y-48349259D01*
X204786736Y-48416044D01*
X204804143Y-48484242D01*
X204855700Y-48532244D01*
X204912027Y-48545554D01*
X204913483Y-48546925D01*
X204913023Y-48548872D01*
X204911567Y-48549500D01*
X204536433Y-48549500D01*
X204534701Y-48548500D01*
X204534701Y-48546500D01*
X204535870Y-48545581D01*
X204603963Y-48525587D01*
X204650056Y-48472393D01*
X204660073Y-48402724D01*
X204630810Y-48338648D01*
X204584050Y-48304929D01*
X204575436Y-48301361D01*
X204574218Y-48299774D01*
X204574983Y-48297926D01*
X204576797Y-48297604D01*
X204652374Y-48321216D01*
G37*
G36*
X204626374Y-47209825D02*
G01*
X204710160Y-47236002D01*
X204837157Y-47238330D01*
X204922660Y-47215020D01*
X204924594Y-47215530D01*
X204925120Y-47217459D01*
X204923951Y-47218798D01*
X204890225Y-47232767D01*
X204835189Y-47277118D01*
X204812960Y-47343903D01*
X204830367Y-47412100D01*
X204880826Y-47459080D01*
X204881412Y-47460992D01*
X204880049Y-47462456D01*
X204878890Y-47462460D01*
X204790216Y-47435941D01*
X204663202Y-47435165D01*
X204580932Y-47458678D01*
X204578991Y-47458192D01*
X204578442Y-47456269D01*
X204579617Y-47454907D01*
X204615561Y-47440019D01*
X204670598Y-47395668D01*
X204692826Y-47328883D01*
X204675419Y-47260685D01*
X204624415Y-47213198D01*
X204623829Y-47211286D01*
X204625192Y-47209822D01*
X204626374Y-47209825D01*
G37*
G36*
X198591238Y-44671636D02*
G01*
X198619798Y-44736197D01*
X198678553Y-44774953D01*
X198748965Y-44775791D01*
X198803962Y-44743601D01*
X198805962Y-44743589D01*
X198806972Y-44745315D01*
X198806386Y-44746741D01*
X198704219Y-44848908D01*
X198693712Y-44864634D01*
X198690061Y-44882990D01*
X198693712Y-44901345D01*
X198704219Y-44917071D01*
X200047442Y-46260294D01*
X200063168Y-46270801D01*
X200080669Y-46274282D01*
X200082173Y-46275601D01*
X200081783Y-46277563D01*
X200081206Y-46278016D01*
X200024479Y-46307689D01*
X199991647Y-46367817D01*
X199989940Y-46368858D01*
X199988184Y-46367900D01*
X199987930Y-46367249D01*
X199984411Y-46349559D01*
X199973904Y-46333833D01*
X198630681Y-44990610D01*
X198614955Y-44980103D01*
X198596600Y-44976452D01*
X198578244Y-44980103D01*
X198562518Y-44990610D01*
X198350666Y-45202462D01*
X198340159Y-45218188D01*
X198336508Y-45236544D01*
X198340159Y-45254899D01*
X198350666Y-45270625D01*
X199693889Y-46613848D01*
X199709615Y-46624355D01*
X199727970Y-46628006D01*
X199746326Y-46624355D01*
X199762052Y-46613848D01*
X199848679Y-46527221D01*
X199850611Y-46526703D01*
X199852025Y-46528117D01*
X199851507Y-46530049D01*
X199796753Y-46584804D01*
X199762877Y-46646843D01*
X199767899Y-46717048D01*
X199810079Y-46773394D01*
X199872185Y-46796558D01*
X199873458Y-46798100D01*
X199872759Y-46799974D01*
X199872036Y-46800355D01*
X199750574Y-46835070D01*
X199643157Y-46902845D01*
X199559075Y-46998050D01*
X199505095Y-47113023D01*
X199490630Y-47205928D01*
X199489376Y-47207485D01*
X199487399Y-47207178D01*
X199486678Y-47205928D01*
X199476283Y-47139263D01*
X199429560Y-47086621D01*
X199361793Y-47067596D01*
X199294413Y-47088255D01*
X199270243Y-47112280D01*
X199268310Y-47112792D01*
X199267419Y-47112276D01*
X199266936Y-47111793D01*
X199266418Y-47109861D01*
X199266561Y-47109485D01*
X199266562Y-47109483D01*
X199266688Y-47109266D01*
X199277304Y-47093377D01*
X199280955Y-47075021D01*
X199277304Y-47056666D01*
X199266797Y-47040940D01*
X197923574Y-45697717D01*
X197907848Y-45687210D01*
X197890347Y-45683729D01*
X197888843Y-45682410D01*
X197889233Y-45680448D01*
X197889810Y-45679995D01*
X197946537Y-45650322D01*
X197979369Y-45590194D01*
X197981076Y-45589153D01*
X197982832Y-45590111D01*
X197983086Y-45590762D01*
X197986605Y-45608452D01*
X197997112Y-45624178D01*
X199340335Y-46967401D01*
X199356061Y-46977908D01*
X199374416Y-46981559D01*
X199392772Y-46977908D01*
X199408498Y-46967401D01*
X199620350Y-46755549D01*
X199630857Y-46739823D01*
X199634508Y-46721467D01*
X199630857Y-46703112D01*
X199620350Y-46687386D01*
X198277127Y-45344163D01*
X198261401Y-45333656D01*
X198243046Y-45330005D01*
X198224690Y-45333656D01*
X198208964Y-45344163D01*
X198098521Y-45454606D01*
X198096589Y-45455124D01*
X198095175Y-45453710D01*
X198095693Y-45451778D01*
X198137290Y-45410180D01*
X198171166Y-45348141D01*
X198166144Y-45277936D01*
X198123944Y-45221563D01*
X198081310Y-45204200D01*
X198080083Y-45202621D01*
X198080837Y-45200769D01*
X198082101Y-45200348D01*
X198207046Y-45202638D01*
X198329593Y-45169228D01*
X198437829Y-45102771D01*
X198523067Y-45008601D01*
X198578449Y-44894294D01*
X198599543Y-44768911D01*
X198599673Y-44758225D01*
X198587429Y-44672729D01*
X198588174Y-44670872D01*
X198590153Y-44670589D01*
X198591238Y-44671636D01*
G37*
G36*
X199043493Y-44529451D02*
G01*
X199043747Y-44530102D01*
X199047266Y-44547792D01*
X199057773Y-44563518D01*
X200400996Y-45906741D01*
X200416722Y-45917248D01*
X200434223Y-45920729D01*
X200435727Y-45922048D01*
X200435337Y-45924010D01*
X200434760Y-45924463D01*
X200378034Y-45954135D01*
X200345200Y-46014264D01*
X200343493Y-46015304D01*
X200341737Y-46014346D01*
X200341483Y-46013695D01*
X200337964Y-45996005D01*
X200327457Y-45980279D01*
X198984234Y-44637056D01*
X198968508Y-44626549D01*
X198951007Y-44623068D01*
X198949503Y-44621749D01*
X198949893Y-44619787D01*
X198950470Y-44619334D01*
X199007196Y-44589662D01*
X199040030Y-44529533D01*
X199041737Y-44528493D01*
X199043493Y-44529451D01*
G37*
G36*
X199397046Y-44175898D02*
G01*
X199397300Y-44176549D01*
X199400819Y-44194239D01*
X199411326Y-44209965D01*
X200754549Y-45553188D01*
X200770275Y-45563695D01*
X200787776Y-45567176D01*
X200789280Y-45568495D01*
X200788890Y-45570457D01*
X200788313Y-45570910D01*
X200731587Y-45600583D01*
X200698754Y-45660711D01*
X200697047Y-45661751D01*
X200695291Y-45660793D01*
X200695037Y-45660142D01*
X200691518Y-45642452D01*
X200681011Y-45626726D01*
X199337788Y-44283503D01*
X199322062Y-44272996D01*
X199304561Y-44269515D01*
X199303057Y-44268196D01*
X199303447Y-44266234D01*
X199304024Y-44265781D01*
X199360750Y-44236108D01*
X199393583Y-44175980D01*
X199395290Y-44174940D01*
X199397046Y-44175898D01*
G37*
G36*
X199750599Y-43822344D02*
G01*
X199750853Y-43822995D01*
X199754372Y-43840685D01*
X199764879Y-43856411D01*
X201108102Y-45199634D01*
X201123828Y-45210141D01*
X201141329Y-45213622D01*
X201142833Y-45214941D01*
X201142443Y-45216903D01*
X201141866Y-45217356D01*
X201085139Y-45247029D01*
X201052307Y-45307157D01*
X201050600Y-45308198D01*
X201048844Y-45307240D01*
X201048590Y-45306589D01*
X201045071Y-45288899D01*
X201034564Y-45273173D01*
X199691341Y-43929950D01*
X199675615Y-43919443D01*
X199658114Y-43915962D01*
X199656610Y-43914643D01*
X199657000Y-43912681D01*
X199657577Y-43912228D01*
X199714304Y-43882555D01*
X199747136Y-43822427D01*
X199748843Y-43821386D01*
X199750599Y-43822344D01*
G37*
G36*
X200104153Y-43468791D02*
G01*
X200104407Y-43469442D01*
X200107926Y-43487132D01*
X200118433Y-43502858D01*
X201461656Y-44846081D01*
X201477382Y-44856588D01*
X201494883Y-44860069D01*
X201496387Y-44861388D01*
X201495997Y-44863350D01*
X201495420Y-44863803D01*
X201438694Y-44893475D01*
X201405860Y-44953604D01*
X201404153Y-44954644D01*
X201402397Y-44953686D01*
X201402143Y-44953035D01*
X201398624Y-44935345D01*
X201388117Y-44919619D01*
X200044894Y-43576396D01*
X200029168Y-43565889D01*
X200011667Y-43562408D01*
X200010163Y-43561089D01*
X200010553Y-43559127D01*
X200011130Y-43558674D01*
X200067856Y-43529002D01*
X200100690Y-43468873D01*
X200102397Y-43467833D01*
X200104153Y-43468791D01*
G37*
G36*
X200457706Y-43115237D02*
G01*
X200457960Y-43115888D01*
X200461479Y-43133578D01*
X200471986Y-43149304D01*
X201815209Y-44492527D01*
X201830935Y-44503034D01*
X201848436Y-44506515D01*
X201849940Y-44507834D01*
X201849550Y-44509796D01*
X201848973Y-44510249D01*
X201792246Y-44539922D01*
X201759414Y-44600050D01*
X201757707Y-44601091D01*
X201755951Y-44600133D01*
X201755697Y-44599482D01*
X201752178Y-44581792D01*
X201741671Y-44566066D01*
X200398448Y-43222843D01*
X200382722Y-43212336D01*
X200365221Y-43208855D01*
X200363717Y-43207536D01*
X200364107Y-43205574D01*
X200364684Y-43205121D01*
X200421411Y-43175448D01*
X200454243Y-43115320D01*
X200455950Y-43114279D01*
X200457706Y-43115237D01*
G37*
G36*
X200811259Y-42761684D02*
G01*
X200811513Y-42762335D01*
X200815032Y-42780025D01*
X200825539Y-42795751D01*
X202168762Y-44138974D01*
X202184488Y-44149481D01*
X202201989Y-44152962D01*
X202203493Y-44154281D01*
X202203103Y-44156243D01*
X202202526Y-44156696D01*
X202145800Y-44186369D01*
X202112967Y-44246497D01*
X202111260Y-44247537D01*
X202109504Y-44246579D01*
X202109250Y-44245928D01*
X202105731Y-44228238D01*
X202095224Y-44212512D01*
X200752001Y-42869289D01*
X200736275Y-42858782D01*
X200718774Y-42855301D01*
X200717270Y-42853982D01*
X200717660Y-42852020D01*
X200718237Y-42851567D01*
X200774963Y-42821894D01*
X200807796Y-42761766D01*
X200809503Y-42760726D01*
X200811259Y-42761684D01*
G37*
G36*
X201164813Y-42408131D02*
G01*
X201165067Y-42408782D01*
X201168586Y-42426472D01*
X201179093Y-42442198D01*
X202522316Y-43785421D01*
X202538042Y-43795928D01*
X202555543Y-43799409D01*
X202557047Y-43800728D01*
X202556657Y-43802690D01*
X202556080Y-43803143D01*
X202499354Y-43832815D01*
X202466520Y-43892944D01*
X202464813Y-43893984D01*
X202463057Y-43893026D01*
X202462803Y-43892375D01*
X202459284Y-43874685D01*
X202448777Y-43858959D01*
X201105554Y-42515736D01*
X201089828Y-42505229D01*
X201072327Y-42501748D01*
X201070823Y-42500429D01*
X201071213Y-42498467D01*
X201071790Y-42498014D01*
X201128516Y-42468342D01*
X201161350Y-42408213D01*
X201163057Y-42407173D01*
X201164813Y-42408131D01*
G37*
G36*
X201518366Y-42054577D02*
G01*
X201518620Y-42055228D01*
X201522139Y-42072918D01*
X201532646Y-42088644D01*
X202875869Y-43431867D01*
X202891595Y-43442374D01*
X202909096Y-43445855D01*
X202910600Y-43447174D01*
X202910210Y-43449136D01*
X202909633Y-43449589D01*
X202852906Y-43479262D01*
X202820074Y-43539390D01*
X202818367Y-43540431D01*
X202816611Y-43539473D01*
X202816357Y-43538822D01*
X202812838Y-43521132D01*
X202802331Y-43505406D01*
X201459108Y-42162183D01*
X201443382Y-42151676D01*
X201425881Y-42148195D01*
X201424377Y-42146876D01*
X201424767Y-42144914D01*
X201425344Y-42144461D01*
X201482071Y-42114788D01*
X201514903Y-42054660D01*
X201516610Y-42053619D01*
X201518366Y-42054577D01*
G37*
G36*
X201871920Y-41701024D02*
G01*
X201872174Y-41701675D01*
X201875693Y-41719365D01*
X201886200Y-41735091D01*
X203229423Y-43078314D01*
X203245149Y-43088821D01*
X203262650Y-43092302D01*
X203264154Y-43093621D01*
X203263764Y-43095583D01*
X203263187Y-43096036D01*
X203206461Y-43125708D01*
X203173627Y-43185837D01*
X203171920Y-43186877D01*
X203170164Y-43185919D01*
X203169910Y-43185268D01*
X203166391Y-43167578D01*
X203155884Y-43151852D01*
X201812661Y-41808629D01*
X201796935Y-41798122D01*
X201779434Y-41794641D01*
X201777930Y-41793322D01*
X201778320Y-41791360D01*
X201778897Y-41790907D01*
X201835623Y-41761235D01*
X201868457Y-41701106D01*
X201870164Y-41700066D01*
X201871920Y-41701024D01*
G37*
G36*
X202225473Y-41347471D02*
G01*
X202225727Y-41348122D01*
X202229246Y-41365812D01*
X202239753Y-41381538D01*
X203582976Y-42724761D01*
X203598702Y-42735268D01*
X203616203Y-42738749D01*
X203617707Y-42740068D01*
X203617317Y-42742030D01*
X203616740Y-42742483D01*
X203560014Y-42772156D01*
X203527181Y-42832284D01*
X203525474Y-42833324D01*
X203523718Y-42832366D01*
X203523464Y-42831715D01*
X203519945Y-42814025D01*
X203509438Y-42798299D01*
X202166215Y-41455076D01*
X202150489Y-41444569D01*
X202132988Y-41441088D01*
X202131484Y-41439769D01*
X202131874Y-41437807D01*
X202132451Y-41437354D01*
X202189177Y-41407681D01*
X202222010Y-41347553D01*
X202223717Y-41346513D01*
X202225473Y-41347471D01*
G37*
G36*
X202579026Y-40993917D02*
G01*
X202579280Y-40994568D01*
X202582799Y-41012258D01*
X202593306Y-41027984D01*
X203936529Y-42371207D01*
X203952255Y-42381714D01*
X203969756Y-42385195D01*
X203971260Y-42386514D01*
X203970870Y-42388476D01*
X203970293Y-42388929D01*
X203913566Y-42418602D01*
X203880734Y-42478730D01*
X203879027Y-42479771D01*
X203877271Y-42478813D01*
X203877017Y-42478162D01*
X203873498Y-42460472D01*
X203862991Y-42444746D01*
X202519768Y-41101523D01*
X202504042Y-41091016D01*
X202486541Y-41087535D01*
X202485037Y-41086216D01*
X202485427Y-41084254D01*
X202486004Y-41083801D01*
X202542731Y-41054128D01*
X202575563Y-40994000D01*
X202577270Y-40992959D01*
X202579026Y-40993917D01*
G37*
G36*
X202932580Y-40640364D02*
G01*
X202932834Y-40641015D01*
X202936353Y-40658705D01*
X202946860Y-40674431D01*
X204290083Y-42017654D01*
X204305809Y-42028161D01*
X204323310Y-42031642D01*
X204324814Y-42032961D01*
X204324424Y-42034923D01*
X204323847Y-42035376D01*
X204267121Y-42065048D01*
X204234287Y-42125177D01*
X204232580Y-42126217D01*
X204230824Y-42125259D01*
X204230570Y-42124608D01*
X204227051Y-42106918D01*
X204216544Y-42091192D01*
X202873321Y-40747969D01*
X202857595Y-40737462D01*
X202840094Y-40733981D01*
X202838590Y-40732662D01*
X202838980Y-40730700D01*
X202839557Y-40730247D01*
X202896283Y-40700575D01*
X202929117Y-40640446D01*
X202930824Y-40639406D01*
X202932580Y-40640364D01*
G37*
G36*
X203286133Y-40286810D02*
G01*
X203286387Y-40287461D01*
X203289906Y-40305151D01*
X203300413Y-40320877D01*
X204643636Y-41664100D01*
X204659362Y-41674607D01*
X204676863Y-41678088D01*
X204678367Y-41679407D01*
X204677977Y-41681369D01*
X204677400Y-41681822D01*
X204620673Y-41711495D01*
X204587841Y-41771623D01*
X204586134Y-41772664D01*
X204584378Y-41771706D01*
X204584124Y-41771055D01*
X204580605Y-41753365D01*
X204570098Y-41737639D01*
X203226875Y-40394416D01*
X203211149Y-40383909D01*
X203193648Y-40380428D01*
X203192144Y-40379109D01*
X203192534Y-40377147D01*
X203193111Y-40376694D01*
X203249838Y-40347021D01*
X203282670Y-40286893D01*
X203284377Y-40285852D01*
X203286133Y-40286810D01*
G37*
G36*
X203639687Y-39933257D02*
G01*
X203639941Y-39933908D01*
X203643460Y-39951598D01*
X203653967Y-39967324D01*
X204997190Y-41310547D01*
X205012916Y-41321054D01*
X205030417Y-41324535D01*
X205031921Y-41325854D01*
X205031531Y-41327816D01*
X205030954Y-41328269D01*
X204974228Y-41357941D01*
X204941394Y-41418070D01*
X204939687Y-41419110D01*
X204937931Y-41418152D01*
X204937677Y-41417501D01*
X204934158Y-41399811D01*
X204923651Y-41384085D01*
X203580428Y-40040862D01*
X203564702Y-40030355D01*
X203547201Y-40026874D01*
X203545697Y-40025555D01*
X203546087Y-40023593D01*
X203546664Y-40023140D01*
X203603390Y-39993468D01*
X203636224Y-39933339D01*
X203637931Y-39932299D01*
X203639687Y-39933257D01*
G37*
G36*
X203993240Y-39579704D02*
G01*
X203993494Y-39580355D01*
X203997013Y-39598045D01*
X204007520Y-39613771D01*
X205350743Y-40956994D01*
X205366469Y-40967501D01*
X205383970Y-40970982D01*
X205385474Y-40972301D01*
X205385084Y-40974263D01*
X205384507Y-40974716D01*
X205327781Y-41004389D01*
X205294948Y-41064517D01*
X205293241Y-41065557D01*
X205291485Y-41064599D01*
X205291231Y-41063948D01*
X205287712Y-41046258D01*
X205277205Y-41030532D01*
X203933982Y-39687309D01*
X203918256Y-39676802D01*
X203900755Y-39673321D01*
X203899251Y-39672002D01*
X203899641Y-39670040D01*
X203900218Y-39669587D01*
X203956944Y-39639914D01*
X203989777Y-39579786D01*
X203991484Y-39578746D01*
X203993240Y-39579704D01*
G37*
M02*
