M48
; DRILL file {KiCad (6.0.5)} date Fri Jul 29 22:10:33 2022
; FORMAT={-:-/ absolute / inch / decimal}
; #@! TF.CreationDate,2022-07-29T22:10:33-06:00
; #@! TF.GenerationSoftware,Kicad,Pcbnew,(6.0.5)
; #@! TF.FileFunction,NonPlated,1,2,NPTH
FMAT,2
INCH
; #@! TA.AperFunction,NonPlated,NPTH,ComponentDrill
T1C0.0689
; #@! TA.AperFunction,NonPlated,NPTH,ComponentDrill
T2C0.1181
; #@! TA.AperFunction,NonPlated,NPTH,ComponentDrill
T3C0.1200
; #@! TA.AperFunction,NonPlated,NPTH,ComponentDrill
T4C0.1570
%
G90
G05
T1
X1.6125Y-3.0
X1.8Y-3.75
X1.9875Y-2.25
X2.0125Y-3.0
X2.175Y-4.5
X2.2Y-3.75
X2.3625Y-3.0
X2.3625Y-5.25
X2.3875Y-2.25
X2.55Y-3.75
X2.575Y-4.5
X2.7375Y-2.25
X2.7625Y-3.0
X2.7625Y-5.25
X2.925Y-4.5
X2.95Y-3.75
X3.1125Y-3.0
X3.1375Y-2.25
X3.3Y-3.75
X3.325Y-4.5
X3.3937Y-5.25
X3.4875Y-2.25
X3.5125Y-3.0
X3.675Y-4.5
X3.7Y-3.75
X3.7937Y-5.25
X3.8625Y-3.0
X3.8875Y-2.25
X4.05Y-3.75
X4.075Y-4.5
X4.2375Y-2.25
X4.2625Y-3.0
X4.3312Y-5.25
X4.425Y-4.5
X4.45Y-3.75
X4.6125Y-3.0
X4.6375Y-2.25
X4.7313Y-5.25
X4.8Y-3.75
X4.825Y-4.5
X4.9875Y-2.25
X5.0125Y-3.0
X5.175Y-4.5
X5.2Y-3.75
X5.2687Y-5.25
X5.3625Y-3.0
X5.3875Y-2.25
X5.55Y-3.75
X5.575Y-4.5
X5.6688Y-5.25
X5.7375Y-2.25
X5.7625Y-3.0
X5.95Y-3.75
X6.1125Y-3.0
X6.1375Y-2.25
X6.2062Y-4.5
X6.2062Y-5.25
X6.3Y-5.25
X6.4875Y-2.25
X6.5125Y-3.0
X6.5812Y-4.5
X6.6063Y-4.5
X6.6063Y-5.25
X6.7Y-5.25
X6.7687Y-3.75
X6.8625Y-2.25
X6.8875Y-2.25
X6.9813Y-4.5
X7.05Y-3.0
X7.1688Y-3.75
X7.2375Y-2.25
X7.2375Y-4.5
X7.2625Y-2.25
X7.425Y-5.4375
X7.45Y-3.0
X7.6375Y-2.25
X7.6375Y-4.5
X7.825Y-5.4375
X8.175Y-2.0625
X8.175Y-3.0
X8.175Y-3.75
X8.175Y-4.6875
X8.175Y-5.4375
X8.575Y-2.0625
X8.575Y-3.0
X8.575Y-3.75
X8.575Y-4.6875
X8.575Y-5.4375
X8.925Y-3.0
X8.925Y-3.75
X8.925Y-5.4375
X9.325Y-3.0
X9.325Y-3.75
X9.325Y-5.4375
T2
X1.6625Y-2.9
X1.85Y-3.65
X1.9125Y-2.8
X2.0375Y-2.15
X2.1Y-3.55
X2.225Y-4.4
X2.2875Y-2.05
X2.4125Y-2.9
X2.4125Y-5.15
X2.475Y-4.3
X2.6Y-3.65
X2.6625Y-2.8
X2.6625Y-5.05
X2.7875Y-2.15
X2.85Y-3.55
X2.975Y-4.4
X3.0375Y-2.05
X3.1625Y-2.9
X3.225Y-4.3
X3.35Y-3.65
X3.4125Y-2.8
X3.4438Y-5.15
X3.5375Y-2.15
X3.6Y-3.55
X3.6938Y-5.05
X3.725Y-4.4
X3.7875Y-2.05
X3.9125Y-2.9
X3.975Y-4.3
X4.1Y-3.65
X4.1625Y-2.8
X4.2875Y-2.15
X4.35Y-3.55
X4.3812Y-5.15
X4.475Y-4.4
X4.5375Y-2.05
X4.6312Y-5.05
X4.6625Y-2.9
X4.725Y-4.3
X4.85Y-3.65
X4.9125Y-2.8
X5.0375Y-2.15
X5.1Y-3.55
X5.225Y-4.4
X5.2875Y-2.05
X5.3187Y-5.15
X5.4125Y-2.9
X5.475Y-4.3
X5.5687Y-5.05
X5.6Y-3.65
X5.6625Y-2.8
X5.7875Y-2.15
X5.85Y-3.55
X6.0375Y-2.05
X6.1625Y-2.9
X6.2562Y-5.15
X6.3062Y-4.7
X6.4Y-5.45
X6.4125Y-2.8
X6.5062Y-5.05
X6.5562Y-4.6
X6.5875Y-2.45
X6.6312Y-4.4
X6.65Y-5.35
X6.8187Y-3.65
X6.8375Y-2.35
X6.8812Y-4.3
X6.9125Y-2.15
X7.0687Y-3.55
X7.1Y-2.9
X7.1625Y-2.05
X7.3375Y-2.45
X7.3375Y-4.7
X7.35Y-2.8
X7.475Y-5.3375
X7.5875Y-2.35
X7.5875Y-4.6
X7.725Y-5.2375
X8.225Y-1.9625
X8.225Y-2.9
X8.225Y-3.65
X8.225Y-4.5875
X8.225Y-5.3375
X8.475Y-1.8625
X8.475Y-2.8
X8.475Y-3.55
X8.475Y-4.4875
X8.475Y-5.2375
X8.975Y-2.9
X8.975Y-3.65
X8.975Y-5.3375
X9.225Y-2.8
X9.225Y-3.55
X9.225Y-5.2375
T3
X6.3113Y-4.225
X6.4988Y-3.475
X6.5925Y-1.975
X7.2512Y-4.225
X7.4387Y-3.475
X7.5325Y-1.975
T4
X1.8125Y-3.0
X2.0Y-3.75
X2.1875Y-2.25
X2.375Y-4.5
X2.5625Y-3.0
X2.5625Y-5.25
X2.75Y-3.75
X2.9375Y-2.25
X3.125Y-4.5
X3.3125Y-3.0
X3.5Y-3.75
X3.5938Y-5.25
X3.6875Y-2.25
X3.875Y-4.5
X4.0625Y-3.0
X4.25Y-3.75
X4.4375Y-2.25
X4.5312Y-5.25
X4.625Y-4.5
X4.8125Y-3.0
X5.0Y-3.75
X5.1875Y-2.25
X5.375Y-4.5
X5.4688Y-5.25
X5.5625Y-3.0
X5.75Y-3.75
X5.9375Y-2.25
X6.3113Y-4.825
X6.3125Y-3.0
X6.4062Y-4.5
X6.4062Y-5.25
X6.4988Y-4.075
X6.5Y-5.25
X6.5925Y-2.575
X6.6875Y-2.25
X6.7812Y-4.5
X6.9688Y-3.75
X7.0625Y-2.25
X7.25Y-3.0
X7.2512Y-4.825
X7.4375Y-2.25
X7.4375Y-4.5
X7.4387Y-4.075
X7.5325Y-2.575
X7.625Y-5.4375
X8.375Y-2.0625
X8.375Y-3.0
X8.375Y-3.75
X8.375Y-4.6875
X8.375Y-5.4375
X9.125Y-3.0
X9.125Y-3.75
X9.125Y-5.4375
T0
M30
