%TF.GenerationSoftware,KiCad,Pcbnew,(6.0.5)*%
%TF.CreationDate,2022-07-29T15:57:34-06:00*%
%TF.ProjectId,kb_right,6b625f72-6967-4687-942e-6b696361645f,rev?*%
%TF.SameCoordinates,Original*%
%TF.FileFunction,Other,Comment*%
%FSLAX46Y46*%
G04 Gerber Fmt 4.6, Leading zero omitted, Abs format (unit mm)*
G04 Created by KiCad (PCBNEW (6.0.5)) date 2022-07-29 15:57:34*
%MOMM*%
%LPD*%
G01*
G04 APERTURE LIST*
%ADD10C,0.150000*%
%ADD11C,0.300000*%
%ADD12C,0.200000*%
%ADD13C,0.120000*%
G04 APERTURE END LIST*
D10*
X135398511Y-16171269D02*
X135446130Y-16123650D01*
X135541369Y-16076030D01*
X135779464Y-16076030D01*
X135874702Y-16123650D01*
X135922321Y-16171269D01*
X135969940Y-16266507D01*
X135969940Y-16361745D01*
X135922321Y-16504602D01*
X135350892Y-17076030D01*
X135969940Y-17076030D01*
X136588988Y-16076030D02*
X136684226Y-16076030D01*
X136779464Y-16123650D01*
X136827083Y-16171269D01*
X136874702Y-16266507D01*
X136922321Y-16456983D01*
X136922321Y-16695078D01*
X136874702Y-16885554D01*
X136827083Y-16980792D01*
X136779464Y-17028411D01*
X136684226Y-17076030D01*
X136588988Y-17076030D01*
X136493750Y-17028411D01*
X136446130Y-16980792D01*
X136398511Y-16885554D01*
X136350892Y-16695078D01*
X136350892Y-16456983D01*
X136398511Y-16266507D01*
X136446130Y-16171269D01*
X136493750Y-16123650D01*
X136588988Y-16076030D01*
X137779464Y-16076030D02*
X137588988Y-16076030D01*
X137493750Y-16123650D01*
X137446130Y-16171269D01*
X137350892Y-16314126D01*
X137303273Y-16504602D01*
X137303273Y-16885554D01*
X137350892Y-16980792D01*
X137398511Y-17028411D01*
X137493750Y-17076030D01*
X137684226Y-17076030D01*
X137779464Y-17028411D01*
X137827083Y-16980792D01*
X137874702Y-16885554D01*
X137874702Y-16647459D01*
X137827083Y-16552221D01*
X137779464Y-16504602D01*
X137684226Y-16456983D01*
X137493750Y-16456983D01*
X137398511Y-16504602D01*
X137350892Y-16552221D01*
X137303273Y-16647459D01*
X138303273Y-16980792D02*
X138350892Y-17028411D01*
X138303273Y-17076030D01*
X138255654Y-17028411D01*
X138303273Y-16980792D01*
X138303273Y-17076030D01*
X138684226Y-16076030D02*
X139303273Y-16076030D01*
X138969940Y-16456983D01*
X139112797Y-16456983D01*
X139208035Y-16504602D01*
X139255654Y-16552221D01*
X139303273Y-16647459D01*
X139303273Y-16885554D01*
X139255654Y-16980792D01*
X139208035Y-17028411D01*
X139112797Y-17076030D01*
X138827083Y-17076030D01*
X138731845Y-17028411D01*
X138684226Y-16980792D01*
X139636607Y-16076030D02*
X140303273Y-16076030D01*
X139874702Y-17076030D01*
X141160416Y-16076030D02*
X140684226Y-16076030D01*
X140636607Y-16552221D01*
X140684226Y-16504602D01*
X140779464Y-16456983D01*
X141017559Y-16456983D01*
X141112797Y-16504602D01*
X141160416Y-16552221D01*
X141208035Y-16647459D01*
X141208035Y-16885554D01*
X141160416Y-16980792D01*
X141112797Y-17028411D01*
X141017559Y-17076030D01*
X140779464Y-17076030D01*
X140684226Y-17028411D01*
X140636607Y-16980792D01*
X141827083Y-16076030D02*
X141922321Y-16076030D01*
X142017559Y-16123650D01*
X142065178Y-16171269D01*
X142112797Y-16266507D01*
X142160416Y-16456983D01*
X142160416Y-16695078D01*
X142112797Y-16885554D01*
X142065178Y-16980792D01*
X142017559Y-17028411D01*
X141922321Y-17076030D01*
X141827083Y-17076030D01*
X141731845Y-17028411D01*
X141684226Y-16980792D01*
X141636607Y-16885554D01*
X141588988Y-16695078D01*
X141588988Y-16456983D01*
X141636607Y-16266507D01*
X141684226Y-16171269D01*
X141731845Y-16123650D01*
X141827083Y-16076030D01*
X143350892Y-17076030D02*
X143350892Y-16409364D01*
X143350892Y-16504602D02*
X143398511Y-16456983D01*
X143493750Y-16409364D01*
X143636607Y-16409364D01*
X143731845Y-16456983D01*
X143779464Y-16552221D01*
X143779464Y-17076030D01*
X143779464Y-16552221D02*
X143827083Y-16456983D01*
X143922321Y-16409364D01*
X144065178Y-16409364D01*
X144160416Y-16456983D01*
X144208035Y-16552221D01*
X144208035Y-17076030D01*
X144684226Y-17076030D02*
X144684226Y-16409364D01*
X144684226Y-16504602D02*
X144731845Y-16456983D01*
X144827083Y-16409364D01*
X144969940Y-16409364D01*
X145065178Y-16456983D01*
X145112797Y-16552221D01*
X145112797Y-17076030D01*
X145112797Y-16552221D02*
X145160416Y-16456983D01*
X145255654Y-16409364D01*
X145398511Y-16409364D01*
X145493750Y-16456983D01*
X145541369Y-16552221D01*
X145541369Y-17076030D01*
X37306250Y-68867400D02*
X37306250Y-17187230D01*
X243681250Y-68867400D02*
X243681250Y-17187230D01*
X37306250Y-17773650D02*
X243681250Y-17773650D01*
X37306250Y-17773650D02*
X243681250Y-17773650D01*
X37306250Y-17773650D02*
X38432754Y-18360071D01*
X37306250Y-17773650D02*
X38432754Y-17187229D01*
X243681250Y-17773650D02*
X242554746Y-17187229D01*
X243681250Y-17773650D02*
X242554746Y-18360071D01*
D11*
X22691071Y-96082589D02*
X22691071Y-96939732D01*
X22691071Y-96511160D02*
X21191071Y-96511160D01*
X21405357Y-96654017D01*
X21548214Y-96796875D01*
X21619642Y-96939732D01*
X22691071Y-94654017D02*
X22691071Y-95511160D01*
X22691071Y-95082589D02*
X21191071Y-95082589D01*
X21405357Y-95225446D01*
X21548214Y-95368303D01*
X21619642Y-95511160D01*
X21191071Y-93296875D02*
X21191071Y-94011160D01*
X21905357Y-94082589D01*
X21833928Y-94011160D01*
X21762500Y-93868303D01*
X21762500Y-93511160D01*
X21833928Y-93368303D01*
X21905357Y-93296875D01*
X22048214Y-93225446D01*
X22405357Y-93225446D01*
X22548214Y-93296875D01*
X22619642Y-93368303D01*
X22691071Y-93511160D01*
X22691071Y-93868303D01*
X22619642Y-94011160D01*
X22548214Y-94082589D01*
X22548214Y-92582589D02*
X22619642Y-92511160D01*
X22691071Y-92582589D01*
X22619642Y-92654017D01*
X22548214Y-92582589D01*
X22691071Y-92582589D01*
X21191071Y-91582589D02*
X21191071Y-91439732D01*
X21262500Y-91296875D01*
X21333928Y-91225446D01*
X21476785Y-91154017D01*
X21762500Y-91082589D01*
X22119642Y-91082589D01*
X22405357Y-91154017D01*
X22548214Y-91225446D01*
X22619642Y-91296875D01*
X22691071Y-91439732D01*
X22691071Y-91582589D01*
X22619642Y-91725446D01*
X22548214Y-91796875D01*
X22405357Y-91868303D01*
X22119642Y-91939732D01*
X21762500Y-91939732D01*
X21476785Y-91868303D01*
X21333928Y-91796875D01*
X21262500Y-91725446D01*
X21191071Y-91582589D01*
X22691071Y-90368303D02*
X22691071Y-90082589D01*
X22619642Y-89939732D01*
X22548214Y-89868303D01*
X22333928Y-89725446D01*
X22048214Y-89654017D01*
X21476785Y-89654017D01*
X21333928Y-89725446D01*
X21262500Y-89796875D01*
X21191071Y-89939732D01*
X21191071Y-90225446D01*
X21262500Y-90368303D01*
X21333928Y-90439732D01*
X21476785Y-90511160D01*
X21833928Y-90511160D01*
X21976785Y-90439732D01*
X22048214Y-90368303D01*
X22119642Y-90225446D01*
X22119642Y-89939732D01*
X22048214Y-89796875D01*
X21976785Y-89725446D01*
X21833928Y-89654017D01*
X21191071Y-89154017D02*
X21191071Y-88225446D01*
X21762500Y-88725446D01*
X21762500Y-88511160D01*
X21833928Y-88368303D01*
X21905357Y-88296875D01*
X22048214Y-88225446D01*
X22405357Y-88225446D01*
X22548214Y-88296875D01*
X22619642Y-88368303D01*
X22691071Y-88511160D01*
X22691071Y-88939732D01*
X22619642Y-89082589D01*
X22548214Y-89154017D01*
X21833928Y-87368303D02*
X21762500Y-87511160D01*
X21691071Y-87582589D01*
X21548214Y-87654017D01*
X21476785Y-87654017D01*
X21333928Y-87582589D01*
X21262500Y-87511160D01*
X21191071Y-87368303D01*
X21191071Y-87082589D01*
X21262500Y-86939732D01*
X21333928Y-86868303D01*
X21476785Y-86796875D01*
X21548214Y-86796875D01*
X21691071Y-86868303D01*
X21762500Y-86939732D01*
X21833928Y-87082589D01*
X21833928Y-87368303D01*
X21905357Y-87511160D01*
X21976785Y-87582589D01*
X22119642Y-87654017D01*
X22405357Y-87654017D01*
X22548214Y-87582589D01*
X22619642Y-87511160D01*
X22691071Y-87368303D01*
X22691071Y-87082589D01*
X22619642Y-86939732D01*
X22548214Y-86868303D01*
X22405357Y-86796875D01*
X22119642Y-86796875D01*
X21976785Y-86868303D01*
X21905357Y-86939732D01*
X21833928Y-87082589D01*
X22691071Y-85011160D02*
X21691071Y-85011160D01*
X21833928Y-85011160D02*
X21762500Y-84939732D01*
X21691071Y-84796875D01*
X21691071Y-84582589D01*
X21762500Y-84439732D01*
X21905357Y-84368303D01*
X22691071Y-84368303D01*
X21905357Y-84368303D02*
X21762500Y-84296875D01*
X21691071Y-84154017D01*
X21691071Y-83939732D01*
X21762500Y-83796875D01*
X21905357Y-83725446D01*
X22691071Y-83725446D01*
X22691071Y-83011160D02*
X21691071Y-83011160D01*
X21833928Y-83011160D02*
X21762500Y-82939732D01*
X21691071Y-82796875D01*
X21691071Y-82582589D01*
X21762500Y-82439732D01*
X21905357Y-82368303D01*
X22691071Y-82368303D01*
X21905357Y-82368303D02*
X21762500Y-82296875D01*
X21691071Y-82154017D01*
X21691071Y-81939732D01*
X21762500Y-81796875D01*
X21905357Y-81725446D01*
X22691071Y-81725446D01*
D12*
X46331250Y-31750000D02*
X23226080Y-31750000D01*
X46331250Y-146843750D02*
X23226080Y-146843750D01*
X23812500Y-31750000D02*
X23812500Y-146843750D01*
X23812500Y-31750000D02*
X23812500Y-146843750D01*
X23812500Y-31750000D02*
X23226079Y-32876504D01*
X23812500Y-31750000D02*
X24398921Y-32876504D01*
X23812500Y-146843750D02*
X24398921Y-145717246D01*
X23812500Y-146843750D02*
X23226079Y-145717246D01*
D13*
%TO.C,SW2*%
X230556000Y-49887500D02*
G75*
G03*
X230556000Y-49887500I-1016000J0D01*
G01*
X230556000Y-54887500D02*
G75*
G03*
X230556000Y-54887500I-1016000J0D01*
G01*
%TO.C,D110*%
X63487500Y-83156250D02*
X66687500Y-83156250D01*
X66687500Y-80356250D02*
X63487500Y-80356250D01*
X63487500Y-80356250D02*
X63487500Y-83156250D01*
X66687500Y-83156250D02*
X66687500Y-80356250D01*
%TO.C,D125*%
X178606250Y-102206250D02*
X178606250Y-99406250D01*
X178606250Y-99406250D02*
X175406250Y-99406250D01*
X175406250Y-99406250D02*
X175406250Y-102206250D01*
X175406250Y-102206250D02*
X178606250Y-102206250D01*
%TO.C,D138*%
X137306250Y-140306250D02*
X140506250Y-140306250D01*
X140506250Y-137506250D02*
X137306250Y-137506250D01*
X140506250Y-140306250D02*
X140506250Y-137506250D01*
X137306250Y-137506250D02*
X137306250Y-140306250D01*
%TO.C,D113*%
X120637500Y-80356250D02*
X120637500Y-83156250D01*
X120637500Y-83156250D02*
X123837500Y-83156250D01*
X123837500Y-83156250D02*
X123837500Y-80356250D01*
X123837500Y-80356250D02*
X120637500Y-80356250D01*
%TO.C,D111*%
X85737500Y-83156250D02*
X85737500Y-80356250D01*
X85737500Y-80356250D02*
X82537500Y-80356250D01*
X82537500Y-80356250D02*
X82537500Y-83156250D01*
X82537500Y-83156250D02*
X85737500Y-83156250D01*
%TO.C,D128*%
X61925000Y-118456250D02*
X58725000Y-118456250D01*
X61925000Y-121256250D02*
X61925000Y-118456250D01*
X58725000Y-118456250D02*
X58725000Y-121256250D01*
X58725000Y-121256250D02*
X61925000Y-121256250D01*
%TO.C,D115*%
X158737500Y-83156250D02*
X161937500Y-83156250D01*
X161937500Y-80356250D02*
X158737500Y-80356250D01*
X158737500Y-80356250D02*
X158737500Y-83156250D01*
X161937500Y-83156250D02*
X161937500Y-80356250D01*
%TO.C,D136*%
X92881250Y-140306250D02*
X92881250Y-137506250D01*
X89681250Y-137506250D02*
X89681250Y-140306250D01*
X89681250Y-140306250D02*
X92881250Y-140306250D01*
X92881250Y-137506250D02*
X89681250Y-137506250D01*
%TO.C,D140*%
X192075000Y-145068750D02*
X195275000Y-145068750D01*
X195275000Y-145068750D02*
X195275000Y-142268750D01*
X195275000Y-142268750D02*
X192075000Y-142268750D01*
X192075000Y-142268750D02*
X192075000Y-145068750D01*
%TO.C,D104*%
X114312500Y-61306250D02*
X111112500Y-61306250D01*
X114312500Y-64106250D02*
X114312500Y-61306250D01*
X111112500Y-64106250D02*
X114312500Y-64106250D01*
X111112500Y-61306250D02*
X111112500Y-64106250D01*
%TO.C,D114*%
X139687500Y-83156250D02*
X142887500Y-83156250D01*
X142887500Y-80356250D02*
X139687500Y-80356250D01*
X142887500Y-83156250D02*
X142887500Y-80356250D01*
X139687500Y-80356250D02*
X139687500Y-83156250D01*
%TO.C,D135*%
X66687500Y-140306250D02*
X66687500Y-137506250D01*
X63487500Y-140306250D02*
X66687500Y-140306250D01*
X66687500Y-137506250D02*
X63487500Y-137506250D01*
X63487500Y-137506250D02*
X63487500Y-140306250D01*
%TO.C,D120*%
X71450000Y-99406250D02*
X68250000Y-99406250D01*
X71450000Y-102206250D02*
X71450000Y-99406250D01*
X68250000Y-102206250D02*
X71450000Y-102206250D01*
X68250000Y-99406250D02*
X68250000Y-102206250D01*
%TO.C,D126*%
X211125000Y-99406250D02*
X211125000Y-102206250D01*
X214325000Y-102206250D02*
X214325000Y-99406250D01*
X214325000Y-99406250D02*
X211125000Y-99406250D01*
X211125000Y-102206250D02*
X214325000Y-102206250D01*
%TO.C,D122*%
X106350000Y-99406250D02*
X106350000Y-102206250D01*
X109550000Y-102206250D02*
X109550000Y-99406250D01*
X109550000Y-99406250D02*
X106350000Y-99406250D01*
X106350000Y-102206250D02*
X109550000Y-102206250D01*
%TO.C,D129*%
X77775000Y-118456250D02*
X77775000Y-121256250D01*
X80975000Y-118456250D02*
X77775000Y-118456250D01*
X77775000Y-121256250D02*
X80975000Y-121256250D01*
X80975000Y-121256250D02*
X80975000Y-118456250D01*
%TO.C,D112*%
X104787500Y-83156250D02*
X104787500Y-80356250D01*
X101587500Y-83156250D02*
X104787500Y-83156250D01*
X101587500Y-80356250D02*
X101587500Y-83156250D01*
X104787500Y-80356250D02*
X101587500Y-80356250D01*
%TO.C,D141*%
X214325000Y-145068750D02*
X214325000Y-142268750D01*
X211125000Y-145068750D02*
X214325000Y-145068750D01*
X214325000Y-142268750D02*
X211125000Y-142268750D01*
X211125000Y-142268750D02*
X211125000Y-145068750D01*
%TO.C,D131*%
X115875000Y-118456250D02*
X115875000Y-121256250D01*
X119075000Y-118456250D02*
X115875000Y-118456250D01*
X119075000Y-121256250D02*
X119075000Y-118456250D01*
X115875000Y-121256250D02*
X119075000Y-121256250D01*
%TO.C,D105*%
X130162500Y-64106250D02*
X133362500Y-64106250D01*
X133362500Y-64106250D02*
X133362500Y-61306250D01*
X133362500Y-61306250D02*
X130162500Y-61306250D01*
X130162500Y-61306250D02*
X130162500Y-64106250D01*
%TO.C,D119*%
X52400000Y-102206250D02*
X52400000Y-99406250D01*
X52400000Y-99406250D02*
X49200000Y-99406250D01*
X49200000Y-99406250D02*
X49200000Y-102206250D01*
X49200000Y-102206250D02*
X52400000Y-102206250D01*
%TO.C,D130*%
X96825000Y-121256250D02*
X100025000Y-121256250D01*
X96825000Y-118456250D02*
X96825000Y-121256250D01*
X100025000Y-121256250D02*
X100025000Y-118456250D01*
X100025000Y-118456250D02*
X96825000Y-118456250D01*
%TO.C,D108*%
X214325000Y-59343750D02*
X214325000Y-56543750D01*
X214325000Y-56543750D02*
X211125000Y-56543750D01*
X211125000Y-56543750D02*
X211125000Y-59343750D01*
X211125000Y-59343750D02*
X214325000Y-59343750D01*
%TO.C,D132*%
X134925000Y-121256250D02*
X138125000Y-121256250D01*
X134925000Y-118456250D02*
X134925000Y-121256250D01*
X138125000Y-118456250D02*
X134925000Y-118456250D01*
X138125000Y-121256250D02*
X138125000Y-118456250D01*
%TO.C,D109*%
X44437500Y-83156250D02*
X47637500Y-83156250D01*
X47637500Y-80356250D02*
X44437500Y-80356250D01*
X47637500Y-83156250D02*
X47637500Y-80356250D01*
X44437500Y-80356250D02*
X44437500Y-83156250D01*
%TO.C,D124*%
X147650000Y-102206250D02*
X147650000Y-99406250D01*
X147650000Y-99406250D02*
X144450000Y-99406250D01*
X144450000Y-99406250D02*
X144450000Y-102206250D01*
X144450000Y-102206250D02*
X147650000Y-102206250D01*
%TO.C,D121*%
X90500000Y-102206250D02*
X90500000Y-99406250D01*
X87300000Y-99406250D02*
X87300000Y-102206250D01*
X87300000Y-102206250D02*
X90500000Y-102206250D01*
X90500000Y-99406250D02*
X87300000Y-99406250D01*
%TO.C,D101*%
X57162500Y-64106250D02*
X57162500Y-61306250D01*
X53962500Y-64106250D02*
X57162500Y-64106250D01*
X57162500Y-61306250D02*
X53962500Y-61306250D01*
X53962500Y-61306250D02*
X53962500Y-64106250D01*
%TO.C,D102*%
X73012500Y-64106250D02*
X76212500Y-64106250D01*
X76212500Y-61306250D02*
X73012500Y-61306250D01*
X76212500Y-64106250D02*
X76212500Y-61306250D01*
X73012500Y-61306250D02*
X73012500Y-64106250D01*
%TO.C,D103*%
X95262500Y-64106250D02*
X95262500Y-61306250D01*
X92062500Y-64106250D02*
X95262500Y-64106250D01*
X92062500Y-61306250D02*
X92062500Y-64106250D01*
X95262500Y-61306250D02*
X92062500Y-61306250D01*
%TO.C,D137*%
X113493750Y-137506250D02*
X113493750Y-140306250D01*
X116693750Y-137506250D02*
X113493750Y-137506250D01*
X113493750Y-140306250D02*
X116693750Y-140306250D01*
X116693750Y-140306250D02*
X116693750Y-137506250D01*
%TO.C,D117*%
X211125000Y-83156250D02*
X214325000Y-83156250D01*
X214325000Y-80356250D02*
X211125000Y-80356250D01*
X211125000Y-80356250D02*
X211125000Y-83156250D01*
X214325000Y-83156250D02*
X214325000Y-80356250D01*
%TO.C,D118*%
X230175000Y-83156250D02*
X233375000Y-83156250D01*
X233375000Y-83156250D02*
X233375000Y-80356250D01*
X233375000Y-80356250D02*
X230175000Y-80356250D01*
X230175000Y-80356250D02*
X230175000Y-83156250D01*
%TO.C,D106*%
X152412500Y-64106250D02*
X152412500Y-61306250D01*
X149212500Y-64106250D02*
X152412500Y-64106250D01*
X149212500Y-61306250D02*
X149212500Y-64106250D01*
X152412500Y-61306250D02*
X149212500Y-61306250D01*
%TO.C,D123*%
X125400000Y-99406250D02*
X125400000Y-102206250D01*
X125400000Y-102206250D02*
X128600000Y-102206250D01*
X128600000Y-99406250D02*
X125400000Y-99406250D01*
X128600000Y-102206250D02*
X128600000Y-99406250D01*
%TO.C,D107*%
X181232000Y-65100000D02*
X181232000Y-61900000D01*
X178432000Y-65100000D02*
X181232000Y-65100000D01*
X178432000Y-61900000D02*
X178432000Y-65100000D01*
X181232000Y-61900000D02*
X178432000Y-61900000D01*
%TO.C,D134*%
X214325000Y-123218750D02*
X211125000Y-123218750D01*
X211125000Y-123218750D02*
X211125000Y-126018750D01*
X211125000Y-126018750D02*
X214325000Y-126018750D01*
X214325000Y-126018750D02*
X214325000Y-123218750D01*
%TO.C,D139*%
X157483000Y-140506250D02*
X157483000Y-137306250D01*
X154683000Y-137306250D02*
X154683000Y-140506250D01*
X157483000Y-137306250D02*
X154683000Y-137306250D01*
X154683000Y-140506250D02*
X157483000Y-140506250D01*
%TO.C,D127*%
X230175000Y-102206250D02*
X233375000Y-102206250D01*
X233375000Y-102206250D02*
X233375000Y-99406250D01*
X230175000Y-99406250D02*
X230175000Y-102206250D01*
X233375000Y-99406250D02*
X230175000Y-99406250D01*
%TO.C,D116*%
X185750000Y-83156250D02*
X185750000Y-80356250D01*
X182550000Y-80356250D02*
X182550000Y-83156250D01*
X182550000Y-83156250D02*
X185750000Y-83156250D01*
X185750000Y-80356250D02*
X182550000Y-80356250D01*
%TO.C,D142*%
X230175000Y-142268750D02*
X230175000Y-145068750D01*
X233375000Y-142268750D02*
X230175000Y-142268750D01*
X233375000Y-145068750D02*
X233375000Y-142268750D01*
X230175000Y-145068750D02*
X233375000Y-145068750D01*
%TO.C,D133*%
X171320000Y-122250000D02*
X174120000Y-122250000D01*
X171320000Y-119050000D02*
X171320000Y-122250000D01*
X174120000Y-119050000D02*
X171320000Y-119050000D01*
X174120000Y-122250000D02*
X174120000Y-119050000D01*
%TD*%
M02*
