%TF.GenerationSoftware,KiCad,Pcbnew,(6.0.5)*%
%TF.CreationDate,2022-07-29T22:10:33-06:00*%
%TF.ProjectId,kb_right,6b625f72-6967-4687-942e-6b696361645f,rev?*%
%TF.SameCoordinates,Original*%
%TF.FileFunction,Other,Comment*%
%FSLAX46Y46*%
G04 Gerber Fmt 4.6, Leading zero omitted, Abs format (unit mm)*
G04 Created by KiCad (PCBNEW (6.0.5)) date 2022-07-29 22:10:33*
%MOMM*%
%LPD*%
G01*
G04 APERTURE LIST*
%ADD10C,0.150000*%
%ADD11C,0.300000*%
%ADD12C,0.200000*%
%ADD13C,0.120000*%
G04 APERTURE END LIST*
D10*
X215380098Y-27663203D02*
X214903908Y-27663066D01*
X214856152Y-28139243D01*
X214903784Y-28091638D01*
X214999036Y-28044046D01*
X215237131Y-28044115D01*
X215332356Y-28091761D01*
X215379961Y-28139394D01*
X215427553Y-28234646D01*
X215427484Y-28472741D01*
X215379838Y-28567965D01*
X215332205Y-28615571D01*
X215236953Y-28663162D01*
X214998858Y-28663094D01*
X214903633Y-28615447D01*
X214856028Y-28567814D01*
X216379810Y-28663491D02*
X215808382Y-28663327D01*
X216094096Y-28663409D02*
X216094384Y-27663409D01*
X215999105Y-27806239D01*
X215903839Y-27901450D01*
X215808587Y-27949041D01*
X216808409Y-28568377D02*
X216856014Y-28616010D01*
X216808382Y-28663615D01*
X216760776Y-28615982D01*
X216808409Y-28568377D01*
X216808382Y-28663615D01*
X217761051Y-27663889D02*
X217284860Y-27663752D01*
X217237104Y-28139929D01*
X217284737Y-28092324D01*
X217379989Y-28044732D01*
X217618084Y-28044801D01*
X217713308Y-28092447D01*
X217760913Y-28140080D01*
X217808505Y-28235332D01*
X217808436Y-28473427D01*
X217760790Y-28568651D01*
X217713157Y-28616257D01*
X217617905Y-28663848D01*
X217379810Y-28663780D01*
X217284586Y-28616133D01*
X217236980Y-28568500D01*
X218284572Y-28664040D02*
X218475048Y-28664095D01*
X218570300Y-28616504D01*
X218617933Y-28568898D01*
X218713212Y-28426069D01*
X218760886Y-28235606D01*
X218760996Y-27854654D01*
X218713404Y-27759402D01*
X218665799Y-27711769D01*
X218570574Y-27664123D01*
X218380098Y-27664068D01*
X218284846Y-27711659D01*
X218237214Y-27759265D01*
X218189567Y-27854489D01*
X218189499Y-28092584D01*
X218237090Y-28187836D01*
X218284695Y-28235469D01*
X218379920Y-28283115D01*
X218570396Y-28283170D01*
X218665648Y-28235579D01*
X218713281Y-28187973D01*
X218760927Y-28092749D01*
X219094384Y-27664274D02*
X219713432Y-27664452D01*
X219379988Y-28045308D01*
X219522846Y-28045350D01*
X219618070Y-28092996D01*
X219665675Y-28140629D01*
X219713267Y-28235881D01*
X219713198Y-28473976D01*
X219665552Y-28569200D01*
X219617919Y-28616806D01*
X219522667Y-28664397D01*
X219236953Y-28664315D01*
X219141729Y-28616668D01*
X219094123Y-28569036D01*
X220284737Y-28093188D02*
X220189512Y-28045542D01*
X220141907Y-27997909D01*
X220094315Y-27902657D01*
X220094329Y-27855038D01*
X220141976Y-27759814D01*
X220189608Y-27712208D01*
X220284860Y-27664617D01*
X220475336Y-27664672D01*
X220570561Y-27712318D01*
X220618166Y-27759951D01*
X220665758Y-27855203D01*
X220665744Y-27902822D01*
X220618097Y-27998046D01*
X220570465Y-28045651D01*
X220475213Y-28093243D01*
X220284737Y-28093188D01*
X220189485Y-28140780D01*
X220141852Y-28188385D01*
X220094206Y-28283609D01*
X220094151Y-28474086D01*
X220141742Y-28569337D01*
X220189348Y-28616970D01*
X220284572Y-28664617D01*
X220475048Y-28664672D01*
X220570300Y-28617080D01*
X220617933Y-28569475D01*
X220665579Y-28474250D01*
X220665634Y-28283774D01*
X220618042Y-28188522D01*
X220570437Y-28140890D01*
X220475213Y-28093243D01*
X221856000Y-28665070D02*
X221856193Y-27998403D01*
X221856165Y-28093641D02*
X221903798Y-28046036D01*
X221999050Y-27998444D01*
X222141907Y-27998485D01*
X222237131Y-28046132D01*
X222284723Y-28141384D01*
X222284572Y-28665193D01*
X222284723Y-28141384D02*
X222332369Y-28046159D01*
X222427621Y-27998568D01*
X222570478Y-27998609D01*
X222665703Y-28046255D01*
X222713294Y-28141507D01*
X222713143Y-28665317D01*
X223189334Y-28665454D02*
X223189526Y-27998787D01*
X223189498Y-28094025D02*
X223237131Y-28046420D01*
X223332383Y-27998828D01*
X223475240Y-27998869D01*
X223570464Y-28046516D01*
X223618056Y-28141768D01*
X223617905Y-28665577D01*
X223618056Y-28141768D02*
X223665703Y-28046543D01*
X223760954Y-27998952D01*
X223903811Y-27998993D01*
X223999036Y-28046639D01*
X224046627Y-28141891D01*
X224046477Y-28665701D01*
X193675144Y-39172632D02*
X193678142Y-28768149D01*
X245268894Y-39187500D02*
X245271892Y-28783017D01*
X193677973Y-29354569D02*
X245271723Y-29369437D01*
X193677973Y-29354569D02*
X245271723Y-29369437D01*
X193677973Y-29354569D02*
X194804308Y-29941314D01*
X193677973Y-29354569D02*
X194804646Y-28768473D01*
X245271723Y-29369437D02*
X244145388Y-28782692D01*
X245271723Y-29369437D02*
X244145050Y-29955533D01*
X249921130Y-39909226D02*
X249921130Y-39242559D01*
X250921130Y-39671130D01*
X250825892Y-38861607D02*
X250873511Y-38813988D01*
X250921130Y-38861607D01*
X250873511Y-38909226D01*
X250825892Y-38861607D01*
X250921130Y-38861607D01*
X250921130Y-38337797D02*
X250921130Y-38147321D01*
X250873511Y-38052083D01*
X250825892Y-38004464D01*
X250683035Y-37909226D01*
X250492559Y-37861607D01*
X250111607Y-37861607D01*
X250016369Y-37909226D01*
X249968750Y-37956845D01*
X249921130Y-38052083D01*
X249921130Y-38242559D01*
X249968750Y-38337797D01*
X250016369Y-38385416D01*
X250111607Y-38433035D01*
X250349702Y-38433035D01*
X250444940Y-38385416D01*
X250492559Y-38337797D01*
X250540178Y-38242559D01*
X250540178Y-38052083D01*
X250492559Y-37956845D01*
X250444940Y-37909226D01*
X250349702Y-37861607D01*
X249921130Y-37528273D02*
X249921130Y-36909226D01*
X250302083Y-37242559D01*
X250302083Y-37099702D01*
X250349702Y-37004464D01*
X250397321Y-36956845D01*
X250492559Y-36909226D01*
X250730654Y-36909226D01*
X250825892Y-36956845D01*
X250873511Y-37004464D01*
X250921130Y-37099702D01*
X250921130Y-37385416D01*
X250873511Y-37480654D01*
X250825892Y-37528273D01*
X249921130Y-36575892D02*
X249921130Y-35909226D01*
X250921130Y-36337797D01*
X249921130Y-35052083D02*
X249921130Y-35528273D01*
X250397321Y-35575892D01*
X250349702Y-35528273D01*
X250302083Y-35433035D01*
X250302083Y-35194940D01*
X250349702Y-35099702D01*
X250397321Y-35052083D01*
X250492559Y-35004464D01*
X250730654Y-35004464D01*
X250825892Y-35052083D01*
X250873511Y-35099702D01*
X250921130Y-35194940D01*
X250921130Y-35433035D01*
X250873511Y-35528273D01*
X250825892Y-35575892D01*
X250921130Y-33813988D02*
X250254464Y-33813988D01*
X250349702Y-33813988D02*
X250302083Y-33766369D01*
X250254464Y-33671130D01*
X250254464Y-33528273D01*
X250302083Y-33433035D01*
X250397321Y-33385416D01*
X250921130Y-33385416D01*
X250397321Y-33385416D02*
X250302083Y-33337797D01*
X250254464Y-33242559D01*
X250254464Y-33099702D01*
X250302083Y-33004464D01*
X250397321Y-32956845D01*
X250921130Y-32956845D01*
X250921130Y-32480654D02*
X250254464Y-32480654D01*
X250349702Y-32480654D02*
X250302083Y-32433035D01*
X250254464Y-32337797D01*
X250254464Y-32194940D01*
X250302083Y-32099702D01*
X250397321Y-32052083D01*
X250921130Y-32052083D01*
X250397321Y-32052083D02*
X250302083Y-32004464D01*
X250254464Y-31909226D01*
X250254464Y-31766369D01*
X250302083Y-31671130D01*
X250397321Y-31623511D01*
X250921130Y-31623511D01*
X241800000Y-31750000D02*
X252205170Y-31750000D01*
X241800000Y-39687500D02*
X252205170Y-39687500D01*
X251618750Y-31750000D02*
X251618750Y-39687500D01*
X251618750Y-31750000D02*
X251618750Y-39687500D01*
X251618750Y-31750000D02*
X251032329Y-32876504D01*
X251618750Y-31750000D02*
X252205171Y-32876504D01*
X251618750Y-39687500D02*
X252205171Y-38560996D01*
X251618750Y-39687500D02*
X251032329Y-38560996D01*
X136192261Y-16171269D02*
X136239880Y-16123650D01*
X136335119Y-16076030D01*
X136573214Y-16076030D01*
X136668452Y-16123650D01*
X136716071Y-16171269D01*
X136763690Y-16266507D01*
X136763690Y-16361745D01*
X136716071Y-16504602D01*
X136144642Y-17076030D01*
X136763690Y-17076030D01*
X137382738Y-16076030D02*
X137477976Y-16076030D01*
X137573214Y-16123650D01*
X137620833Y-16171269D01*
X137668452Y-16266507D01*
X137716071Y-16456983D01*
X137716071Y-16695078D01*
X137668452Y-16885554D01*
X137620833Y-16980792D01*
X137573214Y-17028411D01*
X137477976Y-17076030D01*
X137382738Y-17076030D01*
X137287500Y-17028411D01*
X137239880Y-16980792D01*
X137192261Y-16885554D01*
X137144642Y-16695078D01*
X137144642Y-16456983D01*
X137192261Y-16266507D01*
X137239880Y-16171269D01*
X137287500Y-16123650D01*
X137382738Y-16076030D01*
X138049404Y-16076030D02*
X138716071Y-16076030D01*
X138287500Y-17076030D01*
X139097023Y-16980792D02*
X139144642Y-17028411D01*
X139097023Y-17076030D01*
X139049404Y-17028411D01*
X139097023Y-16980792D01*
X139097023Y-17076030D01*
X139620833Y-17076030D02*
X139811309Y-17076030D01*
X139906547Y-17028411D01*
X139954166Y-16980792D01*
X140049404Y-16837935D01*
X140097023Y-16647459D01*
X140097023Y-16266507D01*
X140049404Y-16171269D01*
X140001785Y-16123650D01*
X139906547Y-16076030D01*
X139716071Y-16076030D01*
X139620833Y-16123650D01*
X139573214Y-16171269D01*
X139525595Y-16266507D01*
X139525595Y-16504602D01*
X139573214Y-16599840D01*
X139620833Y-16647459D01*
X139716071Y-16695078D01*
X139906547Y-16695078D01*
X140001785Y-16647459D01*
X140049404Y-16599840D01*
X140097023Y-16504602D01*
X140954166Y-16076030D02*
X140763690Y-16076030D01*
X140668452Y-16123650D01*
X140620833Y-16171269D01*
X140525595Y-16314126D01*
X140477976Y-16504602D01*
X140477976Y-16885554D01*
X140525595Y-16980792D01*
X140573214Y-17028411D01*
X140668452Y-17076030D01*
X140858928Y-17076030D01*
X140954166Y-17028411D01*
X141001785Y-16980792D01*
X141049404Y-16885554D01*
X141049404Y-16647459D01*
X141001785Y-16552221D01*
X140954166Y-16504602D01*
X140858928Y-16456983D01*
X140668452Y-16456983D01*
X140573214Y-16504602D01*
X140525595Y-16552221D01*
X140477976Y-16647459D01*
X141430357Y-16171269D02*
X141477976Y-16123650D01*
X141573214Y-16076030D01*
X141811309Y-16076030D01*
X141906547Y-16123650D01*
X141954166Y-16171269D01*
X142001785Y-16266507D01*
X142001785Y-16361745D01*
X141954166Y-16504602D01*
X141382738Y-17076030D01*
X142001785Y-17076030D01*
X142906547Y-16076030D02*
X142430357Y-16076030D01*
X142382738Y-16552221D01*
X142430357Y-16504602D01*
X142525595Y-16456983D01*
X142763690Y-16456983D01*
X142858928Y-16504602D01*
X142906547Y-16552221D01*
X142954166Y-16647459D01*
X142954166Y-16885554D01*
X142906547Y-16980792D01*
X142858928Y-17028411D01*
X142763690Y-17076030D01*
X142525595Y-17076030D01*
X142430357Y-17028411D01*
X142382738Y-16980792D01*
X144144642Y-17076030D02*
X144144642Y-16409364D01*
X144144642Y-16504602D02*
X144192261Y-16456983D01*
X144287500Y-16409364D01*
X144430357Y-16409364D01*
X144525595Y-16456983D01*
X144573214Y-16552221D01*
X144573214Y-17076030D01*
X144573214Y-16552221D02*
X144620833Y-16456983D01*
X144716071Y-16409364D01*
X144858928Y-16409364D01*
X144954166Y-16456983D01*
X145001785Y-16552221D01*
X145001785Y-17076030D01*
X145477976Y-17076030D02*
X145477976Y-16409364D01*
X145477976Y-16504602D02*
X145525595Y-16456983D01*
X145620833Y-16409364D01*
X145763690Y-16409364D01*
X145858928Y-16456983D01*
X145906547Y-16552221D01*
X145906547Y-17076030D01*
X145906547Y-16552221D02*
X145954166Y-16456983D01*
X146049404Y-16409364D01*
X146192261Y-16409364D01*
X146287500Y-16456983D01*
X146335119Y-16552221D01*
X146335119Y-17076030D01*
X37306250Y-68867400D02*
X37306250Y-17187230D01*
X245268750Y-68867400D02*
X245268750Y-17187230D01*
X37306250Y-17773650D02*
X245268750Y-17773650D01*
X37306250Y-17773650D02*
X245268750Y-17773650D01*
X37306250Y-17773650D02*
X38432754Y-18360071D01*
X37306250Y-17773650D02*
X38432754Y-17187229D01*
X245268750Y-17773650D02*
X244142246Y-17187229D01*
X245268750Y-17773650D02*
X244142246Y-18360071D01*
D11*
X22691071Y-96082589D02*
X22691071Y-96939732D01*
X22691071Y-96511160D02*
X21191071Y-96511160D01*
X21405357Y-96654017D01*
X21548214Y-96796875D01*
X21619642Y-96939732D01*
X22691071Y-94654017D02*
X22691071Y-95511160D01*
X22691071Y-95082589D02*
X21191071Y-95082589D01*
X21405357Y-95225446D01*
X21548214Y-95368303D01*
X21619642Y-95511160D01*
X21191071Y-93296875D02*
X21191071Y-94011160D01*
X21905357Y-94082589D01*
X21833928Y-94011160D01*
X21762500Y-93868303D01*
X21762500Y-93511160D01*
X21833928Y-93368303D01*
X21905357Y-93296875D01*
X22048214Y-93225446D01*
X22405357Y-93225446D01*
X22548214Y-93296875D01*
X22619642Y-93368303D01*
X22691071Y-93511160D01*
X22691071Y-93868303D01*
X22619642Y-94011160D01*
X22548214Y-94082589D01*
X22548214Y-92582589D02*
X22619642Y-92511160D01*
X22691071Y-92582589D01*
X22619642Y-92654017D01*
X22548214Y-92582589D01*
X22691071Y-92582589D01*
X21191071Y-91582589D02*
X21191071Y-91439732D01*
X21262500Y-91296875D01*
X21333928Y-91225446D01*
X21476785Y-91154017D01*
X21762500Y-91082589D01*
X22119642Y-91082589D01*
X22405357Y-91154017D01*
X22548214Y-91225446D01*
X22619642Y-91296875D01*
X22691071Y-91439732D01*
X22691071Y-91582589D01*
X22619642Y-91725446D01*
X22548214Y-91796875D01*
X22405357Y-91868303D01*
X22119642Y-91939732D01*
X21762500Y-91939732D01*
X21476785Y-91868303D01*
X21333928Y-91796875D01*
X21262500Y-91725446D01*
X21191071Y-91582589D01*
X22691071Y-90368303D02*
X22691071Y-90082589D01*
X22619642Y-89939732D01*
X22548214Y-89868303D01*
X22333928Y-89725446D01*
X22048214Y-89654017D01*
X21476785Y-89654017D01*
X21333928Y-89725446D01*
X21262500Y-89796875D01*
X21191071Y-89939732D01*
X21191071Y-90225446D01*
X21262500Y-90368303D01*
X21333928Y-90439732D01*
X21476785Y-90511160D01*
X21833928Y-90511160D01*
X21976785Y-90439732D01*
X22048214Y-90368303D01*
X22119642Y-90225446D01*
X22119642Y-89939732D01*
X22048214Y-89796875D01*
X21976785Y-89725446D01*
X21833928Y-89654017D01*
X21191071Y-89154017D02*
X21191071Y-88225446D01*
X21762500Y-88725446D01*
X21762500Y-88511160D01*
X21833928Y-88368303D01*
X21905357Y-88296875D01*
X22048214Y-88225446D01*
X22405357Y-88225446D01*
X22548214Y-88296875D01*
X22619642Y-88368303D01*
X22691071Y-88511160D01*
X22691071Y-88939732D01*
X22619642Y-89082589D01*
X22548214Y-89154017D01*
X21833928Y-87368303D02*
X21762500Y-87511160D01*
X21691071Y-87582589D01*
X21548214Y-87654017D01*
X21476785Y-87654017D01*
X21333928Y-87582589D01*
X21262500Y-87511160D01*
X21191071Y-87368303D01*
X21191071Y-87082589D01*
X21262500Y-86939732D01*
X21333928Y-86868303D01*
X21476785Y-86796875D01*
X21548214Y-86796875D01*
X21691071Y-86868303D01*
X21762500Y-86939732D01*
X21833928Y-87082589D01*
X21833928Y-87368303D01*
X21905357Y-87511160D01*
X21976785Y-87582589D01*
X22119642Y-87654017D01*
X22405357Y-87654017D01*
X22548214Y-87582589D01*
X22619642Y-87511160D01*
X22691071Y-87368303D01*
X22691071Y-87082589D01*
X22619642Y-86939732D01*
X22548214Y-86868303D01*
X22405357Y-86796875D01*
X22119642Y-86796875D01*
X21976785Y-86868303D01*
X21905357Y-86939732D01*
X21833928Y-87082589D01*
X22691071Y-85011160D02*
X21691071Y-85011160D01*
X21833928Y-85011160D02*
X21762500Y-84939732D01*
X21691071Y-84796875D01*
X21691071Y-84582589D01*
X21762500Y-84439732D01*
X21905357Y-84368303D01*
X22691071Y-84368303D01*
X21905357Y-84368303D02*
X21762500Y-84296875D01*
X21691071Y-84154017D01*
X21691071Y-83939732D01*
X21762500Y-83796875D01*
X21905357Y-83725446D01*
X22691071Y-83725446D01*
X22691071Y-83011160D02*
X21691071Y-83011160D01*
X21833928Y-83011160D02*
X21762500Y-82939732D01*
X21691071Y-82796875D01*
X21691071Y-82582589D01*
X21762500Y-82439732D01*
X21905357Y-82368303D01*
X22691071Y-82368303D01*
X21905357Y-82368303D02*
X21762500Y-82296875D01*
X21691071Y-82154017D01*
X21691071Y-81939732D01*
X21762500Y-81796875D01*
X21905357Y-81725446D01*
X22691071Y-81725446D01*
D12*
X46331250Y-31750000D02*
X23226080Y-31750000D01*
X46331250Y-146843750D02*
X23226080Y-146843750D01*
X23812500Y-31750000D02*
X23812500Y-146843750D01*
X23812500Y-31750000D02*
X23812500Y-146843750D01*
X23812500Y-31750000D02*
X23226079Y-32876504D01*
X23812500Y-31750000D02*
X24398921Y-32876504D01*
X23812500Y-146843750D02*
X24398921Y-145717246D01*
X23812500Y-146843750D02*
X23226079Y-145717246D01*
D13*
%TO.C,SW2*%
X230556000Y-54887500D02*
G75*
G03*
X230556000Y-54887500I-1016000J0D01*
G01*
X230556000Y-49887500D02*
G75*
G03*
X230556000Y-49887500I-1016000J0D01*
G01*
%TO.C,D110*%
X66687500Y-83156250D02*
X66687500Y-80356250D01*
X63487500Y-80356250D02*
X63487500Y-83156250D01*
X66687500Y-80356250D02*
X63487500Y-80356250D01*
X63487500Y-83156250D02*
X66687500Y-83156250D01*
%TO.C,D125*%
X175406250Y-102206250D02*
X178606250Y-102206250D01*
X175406250Y-99406250D02*
X175406250Y-102206250D01*
X178606250Y-99406250D02*
X175406250Y-99406250D01*
X178606250Y-102206250D02*
X178606250Y-99406250D01*
%TO.C,D138*%
X137306250Y-137506250D02*
X137306250Y-140306250D01*
X140506250Y-140306250D02*
X140506250Y-137506250D01*
X140506250Y-137506250D02*
X137306250Y-137506250D01*
X137306250Y-140306250D02*
X140506250Y-140306250D01*
%TO.C,D113*%
X123837500Y-80356250D02*
X120637500Y-80356250D01*
X123837500Y-83156250D02*
X123837500Y-80356250D01*
X120637500Y-83156250D02*
X123837500Y-83156250D01*
X120637500Y-80356250D02*
X120637500Y-83156250D01*
%TO.C,D111*%
X82537500Y-83156250D02*
X85737500Y-83156250D01*
X82537500Y-80356250D02*
X82537500Y-83156250D01*
X85737500Y-80356250D02*
X82537500Y-80356250D01*
X85737500Y-83156250D02*
X85737500Y-80356250D01*
%TO.C,D128*%
X58725000Y-121256250D02*
X61925000Y-121256250D01*
X58725000Y-118456250D02*
X58725000Y-121256250D01*
X61925000Y-121256250D02*
X61925000Y-118456250D01*
X61925000Y-118456250D02*
X58725000Y-118456250D01*
%TO.C,D115*%
X161937500Y-83156250D02*
X161937500Y-80356250D01*
X158737500Y-80356250D02*
X158737500Y-83156250D01*
X161937500Y-80356250D02*
X158737500Y-80356250D01*
X158737500Y-83156250D02*
X161937500Y-83156250D01*
%TO.C,D136*%
X92881250Y-137506250D02*
X89681250Y-137506250D01*
X89681250Y-140306250D02*
X92881250Y-140306250D01*
X89681250Y-137506250D02*
X89681250Y-140306250D01*
X92881250Y-140306250D02*
X92881250Y-137506250D01*
%TO.C,D140*%
X192075000Y-142268750D02*
X192075000Y-145068750D01*
X195275000Y-142268750D02*
X192075000Y-142268750D01*
X195275000Y-145068750D02*
X195275000Y-142268750D01*
X192075000Y-145068750D02*
X195275000Y-145068750D01*
%TO.C,D104*%
X111112500Y-61306250D02*
X111112500Y-64106250D01*
X111112500Y-64106250D02*
X114312500Y-64106250D01*
X114312500Y-64106250D02*
X114312500Y-61306250D01*
X114312500Y-61306250D02*
X111112500Y-61306250D01*
%TO.C,D114*%
X139687500Y-80356250D02*
X139687500Y-83156250D01*
X142887500Y-83156250D02*
X142887500Y-80356250D01*
X142887500Y-80356250D02*
X139687500Y-80356250D01*
X139687500Y-83156250D02*
X142887500Y-83156250D01*
%TO.C,D135*%
X63487500Y-137506250D02*
X63487500Y-140306250D01*
X66687500Y-137506250D02*
X63487500Y-137506250D01*
X63487500Y-140306250D02*
X66687500Y-140306250D01*
X66687500Y-140306250D02*
X66687500Y-137506250D01*
%TO.C,D120*%
X68250000Y-99406250D02*
X68250000Y-102206250D01*
X68250000Y-102206250D02*
X71450000Y-102206250D01*
X71450000Y-102206250D02*
X71450000Y-99406250D01*
X71450000Y-99406250D02*
X68250000Y-99406250D01*
%TO.C,D126*%
X211125000Y-102206250D02*
X214325000Y-102206250D01*
X214325000Y-99406250D02*
X211125000Y-99406250D01*
X214325000Y-102206250D02*
X214325000Y-99406250D01*
X211125000Y-99406250D02*
X211125000Y-102206250D01*
%TO.C,D122*%
X106350000Y-102206250D02*
X109550000Y-102206250D01*
X109550000Y-99406250D02*
X106350000Y-99406250D01*
X109550000Y-102206250D02*
X109550000Y-99406250D01*
X106350000Y-99406250D02*
X106350000Y-102206250D01*
%TO.C,D129*%
X80975000Y-121256250D02*
X80975000Y-118456250D01*
X77775000Y-121256250D02*
X80975000Y-121256250D01*
X80975000Y-118456250D02*
X77775000Y-118456250D01*
X77775000Y-118456250D02*
X77775000Y-121256250D01*
%TO.C,D112*%
X104787500Y-80356250D02*
X101587500Y-80356250D01*
X101587500Y-80356250D02*
X101587500Y-83156250D01*
X101587500Y-83156250D02*
X104787500Y-83156250D01*
X104787500Y-83156250D02*
X104787500Y-80356250D01*
%TO.C,D141*%
X211125000Y-142268750D02*
X211125000Y-145068750D01*
X214325000Y-142268750D02*
X211125000Y-142268750D01*
X211125000Y-145068750D02*
X214325000Y-145068750D01*
X214325000Y-145068750D02*
X214325000Y-142268750D01*
%TO.C,D131*%
X115875000Y-121256250D02*
X119075000Y-121256250D01*
X119075000Y-121256250D02*
X119075000Y-118456250D01*
X119075000Y-118456250D02*
X115875000Y-118456250D01*
X115875000Y-118456250D02*
X115875000Y-121256250D01*
%TO.C,D105*%
X130162500Y-61306250D02*
X130162500Y-64106250D01*
X133362500Y-61306250D02*
X130162500Y-61306250D01*
X133362500Y-64106250D02*
X133362500Y-61306250D01*
X130162500Y-64106250D02*
X133362500Y-64106250D01*
%TO.C,D119*%
X49200000Y-102206250D02*
X52400000Y-102206250D01*
X49200000Y-99406250D02*
X49200000Y-102206250D01*
X52400000Y-99406250D02*
X49200000Y-99406250D01*
X52400000Y-102206250D02*
X52400000Y-99406250D01*
%TO.C,D130*%
X100025000Y-118456250D02*
X96825000Y-118456250D01*
X100025000Y-121256250D02*
X100025000Y-118456250D01*
X96825000Y-118456250D02*
X96825000Y-121256250D01*
X96825000Y-121256250D02*
X100025000Y-121256250D01*
%TO.C,D108*%
X211125000Y-59343750D02*
X214325000Y-59343750D01*
X211125000Y-56543750D02*
X211125000Y-59343750D01*
X214325000Y-56543750D02*
X211125000Y-56543750D01*
X214325000Y-59343750D02*
X214325000Y-56543750D01*
%TO.C,D132*%
X138125000Y-121256250D02*
X138125000Y-118456250D01*
X138125000Y-118456250D02*
X134925000Y-118456250D01*
X134925000Y-118456250D02*
X134925000Y-121256250D01*
X134925000Y-121256250D02*
X138125000Y-121256250D01*
%TO.C,D109*%
X44437500Y-80356250D02*
X44437500Y-83156250D01*
X47637500Y-83156250D02*
X47637500Y-80356250D01*
X47637500Y-80356250D02*
X44437500Y-80356250D01*
X44437500Y-83156250D02*
X47637500Y-83156250D01*
%TO.C,D124*%
X144450000Y-102206250D02*
X147650000Y-102206250D01*
X144450000Y-99406250D02*
X144450000Y-102206250D01*
X147650000Y-99406250D02*
X144450000Y-99406250D01*
X147650000Y-102206250D02*
X147650000Y-99406250D01*
%TO.C,D121*%
X90500000Y-99406250D02*
X87300000Y-99406250D01*
X87300000Y-102206250D02*
X90500000Y-102206250D01*
X87300000Y-99406250D02*
X87300000Y-102206250D01*
X90500000Y-102206250D02*
X90500000Y-99406250D01*
%TO.C,D101*%
X53962500Y-61306250D02*
X53962500Y-64106250D01*
X57162500Y-61306250D02*
X53962500Y-61306250D01*
X53962500Y-64106250D02*
X57162500Y-64106250D01*
X57162500Y-64106250D02*
X57162500Y-61306250D01*
%TO.C,D102*%
X73012500Y-61306250D02*
X73012500Y-64106250D01*
X76212500Y-64106250D02*
X76212500Y-61306250D01*
X76212500Y-61306250D02*
X73012500Y-61306250D01*
X73012500Y-64106250D02*
X76212500Y-64106250D01*
%TO.C,D103*%
X95262500Y-61306250D02*
X92062500Y-61306250D01*
X92062500Y-61306250D02*
X92062500Y-64106250D01*
X92062500Y-64106250D02*
X95262500Y-64106250D01*
X95262500Y-64106250D02*
X95262500Y-61306250D01*
%TO.C,D137*%
X116693750Y-140306250D02*
X116693750Y-137506250D01*
X113493750Y-140306250D02*
X116693750Y-140306250D01*
X116693750Y-137506250D02*
X113493750Y-137506250D01*
X113493750Y-137506250D02*
X113493750Y-140306250D01*
%TO.C,D117*%
X214325000Y-83156250D02*
X214325000Y-80356250D01*
X211125000Y-80356250D02*
X211125000Y-83156250D01*
X214325000Y-80356250D02*
X211125000Y-80356250D01*
X211125000Y-83156250D02*
X214325000Y-83156250D01*
%TO.C,D118*%
X230175000Y-80356250D02*
X230175000Y-83156250D01*
X233375000Y-80356250D02*
X230175000Y-80356250D01*
X233375000Y-83156250D02*
X233375000Y-80356250D01*
X230175000Y-83156250D02*
X233375000Y-83156250D01*
%TO.C,D106*%
X152412500Y-61306250D02*
X149212500Y-61306250D01*
X149212500Y-61306250D02*
X149212500Y-64106250D01*
X149212500Y-64106250D02*
X152412500Y-64106250D01*
X152412500Y-64106250D02*
X152412500Y-61306250D01*
%TO.C,D123*%
X128600000Y-102206250D02*
X128600000Y-99406250D01*
X128600000Y-99406250D02*
X125400000Y-99406250D01*
X125400000Y-102206250D02*
X128600000Y-102206250D01*
X125400000Y-99406250D02*
X125400000Y-102206250D01*
%TO.C,D107*%
X181232000Y-61900000D02*
X178432000Y-61900000D01*
X178432000Y-61900000D02*
X178432000Y-65100000D01*
X178432000Y-65100000D02*
X181232000Y-65100000D01*
X181232000Y-65100000D02*
X181232000Y-61900000D01*
%TO.C,D134*%
X214325000Y-126018750D02*
X214325000Y-123218750D01*
X211125000Y-126018750D02*
X214325000Y-126018750D01*
X211125000Y-123218750D02*
X211125000Y-126018750D01*
X214325000Y-123218750D02*
X211125000Y-123218750D01*
%TO.C,D139*%
X154683000Y-140506250D02*
X157483000Y-140506250D01*
X157483000Y-137306250D02*
X154683000Y-137306250D01*
X154683000Y-137306250D02*
X154683000Y-140506250D01*
X157483000Y-140506250D02*
X157483000Y-137306250D01*
%TO.C,D127*%
X233375000Y-99406250D02*
X230175000Y-99406250D01*
X230175000Y-99406250D02*
X230175000Y-102206250D01*
X233375000Y-102206250D02*
X233375000Y-99406250D01*
X230175000Y-102206250D02*
X233375000Y-102206250D01*
%TO.C,D116*%
X185750000Y-80356250D02*
X182550000Y-80356250D01*
X182550000Y-83156250D02*
X185750000Y-83156250D01*
X182550000Y-80356250D02*
X182550000Y-83156250D01*
X185750000Y-83156250D02*
X185750000Y-80356250D01*
%TO.C,D142*%
X230175000Y-145068750D02*
X233375000Y-145068750D01*
X233375000Y-145068750D02*
X233375000Y-142268750D01*
X233375000Y-142268750D02*
X230175000Y-142268750D01*
X230175000Y-142268750D02*
X230175000Y-145068750D01*
%TO.C,D133*%
X174120000Y-122250000D02*
X174120000Y-119050000D01*
X174120000Y-119050000D02*
X171320000Y-119050000D01*
X171320000Y-119050000D02*
X171320000Y-122250000D01*
X171320000Y-122250000D02*
X174120000Y-122250000D01*
%TD*%
M02*
