M48
; DRILL file {KiCad (6.0.5)} date Fri Jul 29 16:13:18 2022
; FORMAT={-:-/ absolute / inch / decimal}
; #@! TF.CreationDate,2022-07-29T16:13:18-06:00
; #@! TF.GenerationSoftware,Kicad,Pcbnew,(6.0.5)
; #@! TF.FileFunction,Plated,1,2,PTH
FMAT,2
INCH
; #@! TA.AperFunction,Plated,PTH,ViaDrill
T1C0.0157
; #@! TA.AperFunction,Plated,PTH,ComponentDrill
T2C0.0394
; #@! TA.AperFunction,Plated,PTH,ComponentDrill
T3C0.0512
; #@! TA.AperFunction,Plated,PTH,ComponentDrill
T4C0.0748
%
G90
G05
T1
X1.7188Y-3.75
X1.74Y-4.01
X1.8Y-3.425
X1.9375Y-2.5
X2.0Y-3.425
X2.0Y-3.625
X2.0938Y-4.1875
X2.125Y-3.25
X2.2Y-2.625
X2.2Y-3.825
X2.2Y-4.825
X2.2188Y-3.4062
X2.24Y-5.4
X2.25Y-2.8125
X2.27Y-4.63
X2.2835Y-2.7385
X2.3438Y-3.9375
X2.375Y-2.4375
X2.4Y-3.425
X2.4Y-4.225
X2.4Y-4.625
X2.4Y-4.825
X2.4Y-5.025
X2.4375Y-1.8202
X2.4375Y-3.5625
X2.5892Y-4.1296
X2.5938Y-1.625
X2.6Y-2.625
X2.6Y-3.425
X2.6Y-3.825
X2.6Y-4.425
X2.6Y-4.625
X2.625Y-2.0625
X2.6875Y-4.75
X2.75Y-4.9375
X2.8Y-2.025
X2.8Y-2.625
X2.8Y-3.425
X2.8Y-4.225
X2.8125Y-4.3125
X2.875Y-3.25
X2.9688Y-3.4375
X3.0Y-2.8125
X3.0Y-3.825
X3.0Y-4.225
X3.0Y-4.625
X3.0Y-5.025
X3.0Y-5.225
X3.051Y-2.721
X3.0938Y-3.9375
X3.125Y-2.4375
X3.1875Y-1.8438
X3.1875Y-3.5625
X3.2Y-2.225
X3.2Y-3.025
X3.2Y-3.425
X3.2Y-4.625
X3.2Y-5.225
X3.2812Y-5.0625
X3.2812Y-5.4375
X3.3438Y-1.625
X3.3548Y-4.1452
X3.375Y-2.0625
X3.4Y-2.625
X3.4Y-3.425
X3.4Y-3.825
X3.4Y-4.425
X3.4Y-4.625
X3.4Y-5.025
X3.4375Y-4.75
X3.5625Y-4.3125
X3.6Y-2.025
X3.6Y-2.625
X3.6Y-3.025
X3.6Y-3.425
X3.6Y-3.825
X3.6Y-4.225
X3.6Y-5.025
X3.625Y-3.25
X3.7188Y-3.4375
X3.75Y-2.8125
X3.75Y-4.625
X3.7835Y-2.7385
X3.8Y-3.825
X3.8Y-4.225
X3.8125Y-4.9062
X3.8438Y-3.9375
X3.875Y-2.4375
X3.9375Y-1.8574
X3.9375Y-3.5625
X4.0Y-2.225
X4.0Y-2.625
X4.0Y-2.825
X4.0Y-3.425
X4.0Y-3.825
X4.0Y-4.425
X4.0Y-4.625
X4.0Y-4.825
X4.0Y-5.225
X4.0938Y-1.625
X4.0938Y-4.1875
X4.125Y-2.0625
X4.1875Y-4.75
X4.2Y-2.625
X4.2Y-3.425
X4.2Y-3.625
X4.2Y-4.425
X4.2Y-4.625
X4.2188Y-5.0625
X4.2188Y-5.4375
X4.3125Y-4.3125
X4.375Y-3.25
X4.4Y-2.025
X4.4Y-2.625
X4.4Y-3.825
X4.4Y-4.225
X4.4Y-5.025
X4.4688Y-3.4375
X4.5Y-2.8125
X4.5267Y-2.7454
X4.5938Y-3.9375
X4.6Y-3.825
X4.6Y-4.225
X4.625Y-2.4375
X4.625Y-4.9375
X4.6875Y-1.8752
X4.6875Y-3.5625
X4.8Y-2.625
X4.8Y-2.825
X4.8Y-3.425
X4.8Y-3.825
X4.8Y-4.425
X4.8Y-4.625
X4.8Y-5.225
X4.8438Y-1.625
X4.8438Y-4.1875
X4.875Y-2.0625
X4.9375Y-4.75
X5.0Y-2.025
X5.0Y-2.625
X5.0Y-3.425
X5.0Y-3.625
X5.0Y-4.625
X5.0Y-5.225
X5.0625Y-4.3125
X5.125Y-3.25
X5.1562Y-5.0625
X5.1562Y-5.4375
X5.2Y-2.625
X5.2Y-3.825
X5.2Y-4.225
X5.23Y-3.4375
X5.25Y-2.8125
X5.301Y-2.721
X5.32Y-3.9375
X5.375Y-2.4375
X5.4Y-3.425
X5.4Y-4.225
X5.4Y-5.025
X5.4375Y-1.9062
X5.4375Y-3.5625
X5.5777Y-4.1223
X5.5938Y-1.625
X5.6Y-2.625
X5.6Y-3.425
X5.6Y-4.425
X5.625Y-2.0625
X5.625Y-4.9375
X5.6875Y-4.75
X5.8Y-2.025
X5.8Y-2.625
X5.8Y-3.425
X5.8Y-4.225
X5.8Y-4.625
X5.8Y-5.425
X5.9375Y-3.4375
X5.9714Y-2.705
X6.0Y-2.8125
X6.0Y-3.25
X6.0Y-3.425
X6.0Y-4.025
X6.0Y-4.225
X6.0Y-4.425
X6.0Y-4.825
X6.0Y-5.225
X6.0Y-5.425
X6.0938Y-5.0625
X6.1562Y-4.9698
X6.18Y-1.915
X6.2Y-2.625
X6.2Y-3.025
X6.2Y-3.425
X6.2Y-3.625
X6.2Y-5.025
X6.245Y-5.325
X6.2694Y-4.3151
X6.28Y-4.435
X6.4Y-2.025
X6.4Y-3.625
X6.4Y-3.825
X6.4Y-5.025
X6.6Y-3.425
X6.6Y-3.625
X6.6Y-3.825
X6.6Y-4.225
X6.625Y-3.25
X6.6562Y-3.5625
X6.6562Y-3.9375
X6.7188Y-4.875
X6.75Y-2.0625
X6.79Y-2.58
X6.8Y-3.425
X6.835Y-3.3
X6.8362Y-2.6708
X6.905Y-1.9109
X7.0Y-3.425
X7.0Y-3.625
X7.0Y-4.7188
X7.0Y-4.825
X7.0Y-5.425
X7.0938Y-3.1562
X7.1562Y-2.3438
X7.16Y-2.175
X7.2Y-2.625
X7.2Y-2.825
X7.2Y-3.425
X7.2Y-3.825
X7.2Y-4.025
X7.2Y-5.425
X7.3125Y-5.25
X7.3125Y-5.625
X7.4Y-2.625
X7.4Y-3.625
X7.4Y-3.825
X7.4Y-4.825
X7.4Y-5.225
X7.5625Y-3.25
X7.6Y-2.825
X7.6Y-3.625
X7.6Y-3.825
X7.6Y-4.025
X7.6Y-4.225
X7.6Y-4.825
X7.6Y-5.225
X7.75Y-4.5
X7.7812Y-5.0312
X7.7812Y-5.125
X7.8Y-4.025
X7.8Y-4.225
X7.8Y-4.425
X7.8Y-4.625
X7.8Y-4.825
X7.8012Y-1.7621
X7.8714Y-1.86
X7.875Y-3.9375
X7.8816Y-2.1514
X7.915Y-4.725
X7.9228Y-2.1514
X7.9425Y-4.3725
X7.9661Y-2.1514
X7.9671Y-2.1119
X7.97Y-3.435
X7.9822Y-2.0749
X8.0Y-1.425
X8.0012Y-3.0962
X8.03Y-2.3775
X8.0339Y-3.295
X8.0339Y-3.8936
X8.0339Y-5.5811
X8.035Y-4.985
X8.06Y-1.885
X8.0623Y-1.8423
X8.0625Y-3.5625
X8.0625Y-4.5
X8.0625Y-5.625
X8.065Y-2.595
X8.0938Y-4.875
X8.125Y-1.885
X8.155Y-2.305
X8.1562Y-2.2086
X8.2Y-2.625
X8.2Y-3.825
X8.2Y-4.225
X8.2Y-4.425
X8.2Y-5.225
X8.245Y-2.125
X8.4Y-2.425
X8.4Y-2.625
X8.4Y-3.625
X8.4Y-4.225
X8.4Y-4.425
X8.5Y-3.3438
X8.6Y-2.425
X8.6Y-2.625
X8.6Y-3.825
X8.6Y-4.225
X8.6875Y-3.25
X8.6875Y-4.9375
X8.7812Y-3.9375
X8.8Y-3.825
X8.8Y-4.225
X8.8Y-4.425
X8.8Y-4.625
X8.8Y-5.425
X8.8125Y-2.8125
X8.8125Y-3.5625
X8.8125Y-5.25
X8.8125Y-5.625
X9.0Y-2.425
X9.0Y-2.625
X9.0Y-3.025
X9.0Y-3.425
X9.0Y-3.825
X9.0Y-4.225
X9.0Y-4.425
X9.0Y-5.025
X9.0Y-5.225
X9.2Y-1.625
X9.2Y-2.625
X9.2Y-3.425
X9.2Y-4.225
X9.385Y-3.305
X9.4Y-1.625
X9.4Y-2.625
X9.4Y-3.025
X9.4Y-3.425
X9.4Y-4.025
X9.4Y-4.225
X9.4Y-4.425
X9.4Y-4.825
X9.4Y-5.025
X9.4Y-5.625
X9.6Y-1.625
X9.6Y-1.825
X9.6Y-2.425
X9.6Y-2.625
X9.6Y-2.825
X9.6Y-3.025
X9.6Y-3.225
X9.6Y-3.425
X9.6Y-3.625
X9.6Y-3.825
X9.6Y-4.025
X9.6Y-4.225
X9.6Y-4.425
X9.6Y-4.625
X9.6Y-4.825
X9.6Y-5.025
X9.6Y-5.225
X9.6Y-5.425
X9.6Y-5.625
T2
X1.9688Y-1.4402
X1.9688Y-1.7473
X2.0938Y-1.409
X2.0938Y-1.716
X2.125Y-5.125
X2.125Y-5.225
X2.125Y-5.325
X2.125Y-5.425
X2.125Y-5.525
X2.2188Y-1.3777
X2.2188Y-1.6848
X2.3438Y-1.3465
X2.3438Y-1.6535
X2.4688Y-1.3152
X2.4688Y-1.6223
X2.7188Y-1.4402
X2.7188Y-1.7473
X2.8438Y-1.409
X2.8438Y-1.716
X2.9688Y-1.3777
X2.9688Y-1.6848
X3.0938Y-1.3465
X3.0938Y-1.6535
X3.2188Y-1.3152
X3.2188Y-1.6223
X3.4688Y-1.4402
X3.4688Y-1.7473
X3.5938Y-1.409
X3.5938Y-1.716
X3.7188Y-1.3777
X3.7188Y-1.6848
X3.8438Y-1.3465
X3.8438Y-1.6535
X3.9688Y-1.3152
X3.9688Y-1.6223
X4.2188Y-1.4402
X4.2188Y-1.7473
X4.3438Y-1.409
X4.3438Y-1.716
X4.4688Y-1.3777
X4.4688Y-1.6848
X4.5938Y-1.3465
X4.5938Y-1.6535
X4.7188Y-1.3152
X4.7188Y-1.6223
X4.9688Y-1.4402
X4.9688Y-1.7473
X5.0938Y-1.409
X5.0938Y-1.716
X5.2188Y-1.3777
X5.2188Y-1.6848
X5.3438Y-1.3465
X5.3438Y-1.6535
X5.4688Y-1.3152
X5.4688Y-1.6223
X5.7188Y-1.4402
X5.7188Y-1.7473
X5.8438Y-1.409
X5.8438Y-1.716
X5.9688Y-1.3777
X5.9688Y-1.6848
X6.0938Y-1.3465
X6.0938Y-1.6535
X6.2188Y-1.3152
X6.2188Y-1.6223
X6.5312Y-1.3125
X6.5312Y-1.4125
X6.5312Y-1.5125
X6.5312Y-1.6125
X6.5312Y-1.7125
X6.5312Y-1.8125
X6.6312Y-1.3125
X6.6312Y-1.4125
X6.6312Y-1.5125
X6.6312Y-1.6125
X6.6312Y-1.7125
X6.6312Y-1.8125
X8.784Y-1.8625
X8.784Y-1.9625
X8.784Y-2.0625
X8.784Y-2.1625
X8.884Y-1.8625
X8.884Y-1.9625
X8.884Y-2.0625
X8.884Y-2.1625
X9.0369Y-1.9641
X9.0369Y-2.1609
X9.1354Y-1.9641
X9.1354Y-2.0625
X9.1354Y-2.1609
X9.6078Y-1.9641
X9.6078Y-2.0625
X9.6078Y-2.1609
T3
X7.5487Y-1.767
X7.7018Y-1.8868
X7.9858Y-1.33
X8.1055Y-1.4831
T4
G00X9.0685Y-1.8342
M15
G01X9.1285Y-1.8342
M16
G05
G00X9.0685Y-2.2908
M15
G01X9.1285Y-2.2908
M16
G05
T0
M30
